<svg width="248" height="456" viewBox="0 0 248 456" fill="none" xmlns="http://www.w3.org/2000/svg">
<path fill-rule="evenodd" clip-rule="evenodd" d="M230.33 11.1741H0V25.518H5.78666V39.4012H224.454V25.518H230.33V11.1741Z" fill="white"/>
<rect x="0.971924" y="400.59" width="228.386" height="45.1309" fill="black"/>
<rect x="11.9858" y="175.858" width="206.357" height="222.156" fill="#E2231A"/>
<rect x="99.7776" y="309.501" width="25.5922" height="34.9852" fill="#E6E1E1"/>
<rect x="99.7776" y="347.985" width="25.5922" height="25.889" fill="#E6E1E1"/>
<rect x="167.482" y="309.501" width="25.5922" height="34.9852" fill="#E6E1E1"/>
<rect x="167.482" y="347.985" width="25.5922" height="25.889" fill="#E6E1E1"/>
<rect x="129.256" y="309.501" width="34.3389" height="34.9852" fill="#E6E1E1"/>
<rect x="129.256" y="347.985" width="34.3389" height="25.889" fill="#E6E1E1"/>
<rect x="36.606" y="309.501" width="44.0574" height="88.5125" fill="#E6E1E1"/>
<rect x="36.606" y="250.726" width="30.1275" height="27.9882" fill="#E6E1E1"/>
<rect x="99.7776" y="250.726" width="30.1275" height="27.9882" fill="#E6E1E1"/>
<rect x="162.947" y="250.726" width="30.1275" height="27.9882" fill="#E6E1E1"/>
<path d="M36.6379 222.96C36.6379 214.618 43.4006 207.855 51.7428 207.855C60.085 207.855 66.8477 214.618 66.8477 222.96V247.422H36.6379V222.96Z" fill="#E6E1E1"/>
<path d="M99.627 222.96C99.627 214.618 106.39 207.855 114.732 207.855C123.074 207.855 129.837 214.618 129.837 222.96V247.422H99.627V222.96Z" fill="#E6E1E1"/>
<path d="M163.26 222.639C163.26 214.474 169.879 207.855 178.044 207.855C186.209 207.855 192.828 214.474 192.828 222.639V247.422H163.26V222.639Z" fill="#E6E1E1"/>
<rect x="11.9858" y="41.3882" width="206.357" height="132.244" fill="#C5BCBC"/>
<rect x="36.606" y="116.64" width="30.1275" height="27.9882" fill="#E6E1E1"/>
<rect x="99.7776" y="116.64" width="30.1275" height="27.9882" fill="#E6E1E1"/>
<rect x="162.947" y="116.64" width="30.1275" height="27.9882" fill="#E6E1E1"/>
<path d="M36.606 73.6079H66.7334V113.141H36.606V73.6079Z" fill="#E6E1E1"/>
<path d="M99.7776 73.6079H129.905V113.141H99.7776V73.6079Z" fill="#E6E1E1"/>
<path d="M162.947 73.6079H193.075V113.141H162.947V73.6079Z" fill="#E6E1E1"/>
<rect x="207" y="74" width="30" height="30" rx="15" fill="#343434"/>
<path d="M227.4 96V93.94H220.98C222.36 93.08 223.42 92.28 224.42 91.38C226.36 89.62 227.26 87.98 227.26 86.06C227.26 83.34 225.52 81.8 222.58 81.8C219.58 81.8 217.72 83.42 217.72 85.96C217.72 86.3 217.76 86.68 217.86 87.06L220.34 87.3C220.24 86.84 220.2 86.44 220.2 86.08C220.2 84.7 221.04 83.82 222.46 83.82C223.86 83.82 224.64 84.66 224.64 86.18C224.64 87.7 224.08 88.82 222.5 90.3C220.98 91.74 219.22 93.08 217.64 94.12V96H227.4Z" fill="white"/>
<rect x="207" y="202" width="30" height="30" rx="15" fill="#343434"/>
<path d="M221.78 224.3C224.88 224.3 226.84 222.7 226.84 220.08C226.84 218.16 225.76 217.04 223.76 216.72C225.38 216.34 226.4 215.1 226.4 213.52C226.4 211.2 224.72 209.8 221.78 209.8C218.72 209.8 216.8 211.48 216.8 214.18L219.2 214.58C219.2 212.76 220.08 211.74 221.64 211.74C223.08 211.74 223.9 212.5 223.9 213.8C223.9 215.14 223.1 215.96 221.46 215.96H220.74V217.76H221.52C223.38 217.76 224.3 218.54 224.3 220C224.3 221.52 223.44 222.34 221.84 222.34C220.18 222.34 219.12 221.34 219.06 219.66L216.62 219.92C216.66 222.6 218.68 224.3 221.78 224.3Z" fill="white"/>
<rect x="217" width="30" height="30" rx="15" fill="#343434"/>
<path d="M234.16 22V8.1H232.12C231.68 9.58 230.62 10.32 229.12 10.34H228.72V12.56H229.36C230.2 12.56 231.22 12.28 231.68 11.72V22H234.16Z" fill="white"/>
<rect x="218" y="389" width="30" height="30" rx="15" fill="#343434"/>
<path d="M237.54 405.84H235.36V397.1H232.64L226.5 406.02V407.68H232.96V411H235.36V407.68H237.54V405.84ZM233.02 405.84H228.78C229.16 405.44 229.44 405.02 229.92 404.32L232.12 401.04C232.54 400.4 232.8 399.98 233.02 399.42H233.06C233.02 400.02 233.02 400.32 233.02 401.26V405.84Z" fill="white"/>
</svg>
