<svg width="296" height="571" viewBox="0 0 296 571" fill="none" xmlns="http://www.w3.org/2000/svg">
<path fill-rule="evenodd" clip-rule="evenodd" d="M296 0.0791016H0V18.5127H7.43652V36.3543H288.449V18.5127H296V0.0791016Z" fill="white"/>
<rect x="1.24902" y="500.524" width="293.502" height="57.9984" fill="black"/>
<rect x="15.4033" y="211.717" width="265.193" height="285.496" fill="#E2231A"/>
<rect x="128.226" y="383.464" width="32.8889" height="44.96" fill="#E6E1E1"/>
<rect x="128.226" y="432.921" width="32.8889" height="33.2704" fill="#E6E1E1"/>
<rect x="215.234" y="383.464" width="32.8889" height="44.96" fill="#E6E1E1"/>
<rect x="215.234" y="432.921" width="32.8889" height="33.2704" fill="#E6E1E1"/>
<rect x="166.109" y="383.464" width="44.1294" height="44.96" fill="#E6E1E1"/>
<rect x="166.109" y="432.921" width="44.1294" height="33.2704" fill="#E6E1E1"/>
<rect x="47.043" y="383.464" width="56.6189" height="113.749" fill="#E6E1E1"/>
<rect x="47.043" y="307.932" width="38.7173" height="35.968" fill="#E6E1E1"/>
<rect x="128.226" y="307.932" width="38.7173" height="35.968" fill="#E6E1E1"/>
<rect x="209.406" y="307.932" width="38.7173" height="35.968" fill="#E6E1E1"/>
<path d="M47.084 272.249C47.084 261.528 55.7748 252.838 66.4955 252.838C77.2162 252.838 85.907 261.528 85.907 272.249V303.685H47.084V272.249Z" fill="#E6E1E1"/>
<path d="M128.032 272.249C128.032 261.528 136.723 252.838 147.444 252.838C158.164 252.838 166.855 261.528 166.855 272.249V303.685H128.032V272.249Z" fill="#E6E1E1"/>
<path d="M209.809 271.836C209.809 261.344 218.315 252.838 228.807 252.838C239.3 252.838 247.806 261.344 247.806 271.836V303.685H209.809V271.836Z" fill="#E6E1E1"/>
<rect x="15.4033" y="38.9077" width="265.193" height="169.949" fill="#C5BCBC"/>
<rect x="47.043" y="135.615" width="38.7173" height="35.968" fill="#E6E1E1"/>
<rect x="128.226" y="135.615" width="38.7173" height="35.968" fill="#E6E1E1"/>
<rect x="209.406" y="135.615" width="38.7173" height="35.968" fill="#E6E1E1"/>
<path d="M47.043 80.3137H85.7603V131.119H47.043V80.3137Z" fill="#E6E1E1"/>
<path d="M128.226 80.3137H166.943V131.119H128.226V80.3137Z" fill="#E6E1E1"/>
<path d="M209.406 80.3137H248.124V131.119H209.406V80.3137Z" fill="#E6E1E1"/>
</svg>
