<svg width="20" height="17" viewBox="0 0 20 17" fill="none" xmlns="http://www.w3.org/2000/svg">
<path fill-rule="evenodd" clip-rule="evenodd" d="M8 11.5V5.5L13 8.5L8 11.5ZM19.8125 3.94124C19.8125 3.94124 19.625 2.38027 19.0312 1.67073C18.2812 0.783814 17.4062 0.748337 17.0312 0.71286C14.1875 0.5 10 0.5 10 0.5C10 0.5 5.8125 0.5 3 0.71286C2.59375 0.748337 1.75 0.783814 1 1.67073C0.40625 2.34479 0.21875 3.94124 0.21875 3.94124C0.21875 3.94124 0 5.78603 0 7.63082V9.36918C0 11.214 0.1875 13.0588 0.1875 13.0588C0.1875 13.0588 0.375 14.6197 0.96875 15.3293C1.71875 16.2162 2.71875 16.2162 3.1875 16.2871C4.78125 16.4645 10 16.5 10 16.5C10 16.5 14.1875 16.5 17 16.2517C17.4062 16.2162 18.25 16.1807 19 15.2938C19.5938 14.6197 19.7812 13.0233 19.7812 13.0233C19.7812 13.0233 20 11.1785 20 9.3337V7.59534C20 5.78603 19.8125 3.94124 19.8125 3.94124Z" fill="#9CF2F2"/>
</svg>
