<svg width="10" height="21" viewBox="0 0 10 21" fill="none" xmlns="http://www.w3.org/2000/svg">
<path fill-rule="evenodd" clip-rule="evenodd" d="M7.28945 4.13322C7.79711 4.13322 8.48701 4.22309 9.04673 4.33863C9.1769 4.36431 9.32009 4.33863 9.43724 4.2616C9.55439 4.18457 9.63249 4.05619 9.64551 3.92781L9.99697 1.42435C10.023 1.19326 9.87981 0.949338 9.63249 0.885147C8.72131 0.628382 7.73203 0.5 6.70369 0.5C3.59266 0.5 2.0827 1.96356 2.0827 4.99338V6.31572H0.494642C0.221287 6.31572 0 6.53397 0 6.80358V9.37122C0 9.65366 0.221287 9.87191 0.494642 9.87191H2.0827V19.7317C2.0827 20.0013 2.30399 20.2195 2.57734 20.2195H5.83156C6.0919 20.2195 6.31319 20.0013 6.31319 19.7317V9.87191H8.9426C9.20294 9.87191 9.41121 9.6665 9.43724 9.40974L9.61948 6.84209C9.63249 6.70087 9.58043 6.57249 9.48931 6.46978C9.39819 6.36707 9.26802 6.31572 9.13785 6.31572H6.31319V5.18596C6.31319 4.33863 6.40431 4.13322 7.28945 4.13322Z" fill="#9CF2F2"/>
</svg>
