<svg width="174" height="60" viewBox="0 0 174 60" fill="none" xmlns="http://www.w3.org/2000/svg">
<rect width="174" height="60" fill="black"/>
<path d="M41 27.5L25.25 36.5933L25.25 18.4067L41 27.5Z" fill="white"/>
<path d="M57.76 22.8V37H60.34V31.5H63.36C66.42 31.5 68.34 29.8 68.34 27.12C68.34 24.5 66.4 22.8 63.38 22.8H57.76ZM60.34 29.54V24.78H62.9C64.58 24.78 65.62 25.7 65.62 27.16C65.62 28.64 64.58 29.54 62.9 29.54H60.34ZM70.4125 22.5V37H72.8125V22.5H70.4125ZM78.5384 37.24C80.1384 37.24 81.3984 36.5 81.8784 35.28C81.8984 35.9 81.9584 36.5 82.0384 37H84.4384C84.2384 36.3 84.1384 35.26 84.1384 33.9V30.92C84.1384 28.02 82.8184 26.76 79.8584 26.76C77.2784 26.76 75.5984 28.08 75.4384 30.22H77.8984C77.9784 29.08 78.6784 28.46 79.8584 28.46C81.1384 28.46 81.7184 29.1 81.7184 30.6V30.86L79.5984 31.12C78.0184 31.34 77.0584 31.6 76.3384 32.02C75.5384 32.52 75.1184 33.32 75.1184 34.28C75.1184 36.06 76.4784 37.24 78.5384 37.24ZM79.2984 35.54C78.2384 35.54 77.5984 35 77.5984 34.16C77.5984 33.3 78.1984 32.82 79.5184 32.6L81.7784 32.26V32.9C81.7784 34.48 80.7784 35.54 79.2984 35.54ZM87.2959 41C89.4359 41 90.7959 40.1 91.6959 37.56L95.4359 27H92.9559L90.9559 33.54C90.8159 34.06 90.7159 34.42 90.6559 34.72H90.6159C90.5759 34.38 90.4959 34 90.3359 33.54L88.1559 27H85.5159L89.4159 36.9L89.2159 37.5C88.8359 38.6 88.2159 39.08 87.0359 39.08C86.7959 39.08 86.5559 39.08 86.1959 39V40.9C86.6159 40.96 86.9959 41 87.2959 41ZM108.748 37L113.608 22.8H110.848L107.808 32.64C107.548 33.48 107.408 34.04 107.328 34.58H107.248C107.148 34.04 107.008 33.48 106.748 32.64L103.708 22.8H100.968L105.808 37H108.748ZM117.971 25.34V22.84H115.371V25.34H117.971ZM117.871 37V27H115.471V37H117.871ZM124.277 37.24C125.777 37.24 126.917 36.48 127.477 35.2V37H129.737V22.5H127.337V28.42C126.757 27.3 125.777 26.76 124.457 26.76C121.957 26.76 120.237 28.9 120.237 32.02C120.237 35.14 121.857 37.24 124.277 37.24ZM125.097 35.4C123.637 35.4 122.737 34.12 122.737 31.98C122.737 29.84 123.617 28.6 125.077 28.6C126.517 28.6 127.397 29.74 127.397 31.7V32.34C127.397 34.22 126.497 35.4 125.097 35.4ZM141.432 31.5C141.432 28.44 139.772 26.76 136.872 26.76C133.892 26.76 132.092 28.8 132.092 32.1C132.092 35.38 133.932 37.24 136.992 37.24C139.032 37.24 140.612 36.28 141.352 34.54L139.512 33.7C139.052 34.78 138.212 35.36 137.072 35.36C135.492 35.36 134.432 34.28 134.412 32.6H141.432V31.5ZM134.412 31.02C134.452 29.36 135.312 28.36 136.832 28.36C138.252 28.36 139.072 29.22 139.072 30.86V31.02H134.412ZM147.949 37.24C150.829 37.24 152.849 35.34 152.849 31.98C152.849 28.64 150.829 26.76 147.949 26.76C145.069 26.76 143.049 28.64 143.049 31.98C143.049 35.34 145.069 37.24 147.949 37.24ZM147.949 35.42C146.409 35.42 145.489 34.26 145.489 31.98C145.489 29.7 146.409 28.58 147.949 28.58C149.489 28.58 150.389 29.7 150.389 31.98C150.389 34.26 149.489 35.42 147.949 35.42Z" fill="white"/>
</svg>
