<svg width="20" height="19" viewBox="0 0 20 19" fill="none" xmlns="http://www.w3.org/2000/svg">
<path fill-rule="evenodd" clip-rule="evenodd" d="M20.0005 18.4997H15.5802V12.172C15.5802 10.5157 14.8888 9.38501 13.3683 9.38501C12.2054 9.38501 11.5586 10.148 11.2576 10.8834C11.1447 11.1473 11.1623 11.515 11.1623 11.8827V18.4997H6.7832C6.7832 18.4997 6.83965 7.29075 6.7832 6.27186H11.1623V8.19092C11.421 7.35184 12.8204 6.1543 15.0534 6.1543C17.8239 6.1543 20.0005 7.91315 20.0005 11.7006V18.4997ZM2.35419 4.74268H2.32596C0.914864 4.74268 0 3.80793 0 2.62307C0 1.41516 0.94191 0.5 2.38123 0.5C3.81938 0.5 4.70367 1.41285 4.73189 2.61961C4.73189 3.80448 3.81938 4.74268 2.35419 4.74268ZM0.503906 6.27246H4.40207V18.5003H0.503906V6.27246Z" fill="#9CF2F2"/>
</svg>
