<svg width="20" height="21" viewBox="0 0 20 21" fill="none" xmlns="http://www.w3.org/2000/svg">
<path fill-rule="evenodd" clip-rule="evenodd" d="M19.4846 3.95381C19.7308 4.58689 19.9027 5.31748 19.9495 6.38018C19.9964 7.44685 20.0004 7.78674 20.0004 10.5022C20.0004 13.2176 19.9886 13.5575 19.9418 14.6242C19.8949 15.6869 19.7229 16.4136 19.4768 17.0505C18.957 18.3945 17.8941 19.4572 16.5497 19.9769C15.9167 20.2231 15.1859 20.3949 14.123 20.4418C13.0562 20.4888 12.7162 20.5004 10.0003 20.5004C7.28431 20.5004 6.94421 20.4888 5.87749 20.4418C4.81443 20.3949 4.08767 20.2231 3.45066 19.9769C2.78632 19.7269 2.18061 19.3322 1.68037 18.8243C1.17235 18.3242 0.777753 17.7225 0.523743 17.0505C0.277518 16.4175 0.105481 15.6869 0.0586177 14.6242C0.0117541 13.5575 0 13.2176 0 10.5022C0 7.78674 0.0117541 7.44685 0.0625865 6.37621C0.10945 5.31351 0.281334 4.58689 0.527559 3.95C0.777753 3.28579 1.17235 2.68019 1.68037 2.18005C2.18061 1.66816 2.78235 1.27745 3.45463 1.02349C4.08767 0.777465 4.8184 0.605461 5.88131 0.558606C6.94818 0.511752 7.28813 0.5 10.0041 0.5C12.72 0.5 13.06 0.511752 14.1308 0.562575C15.1937 0.609429 15.9206 0.781281 16.5575 1.02746C17.2218 1.27745 17.8276 1.67213 18.3278 2.18005C18.8398 2.68019 19.2306 3.28182 19.4846 3.95381ZM17.8043 16.4015C17.9411 16.0499 18.1052 15.5224 18.1483 14.5456C18.1951 13.4907 18.2069 13.1781 18.2069 10.5096C18.2069 7.84098 18.1951 7.5246 18.1483 6.46968C18.1052 5.49672 17.9411 4.96545 17.8043 4.61381C17.6441 4.18006 17.3901 3.78935 17.0579 3.46503C16.7375 3.13293 16.3427 2.87897 15.909 2.71887C15.5573 2.58212 15.0298 2.41805 14.0528 2.37501C13.0015 2.32816 12.6851 2.31641 10.012 2.31641C7.34308 2.31641 7.02648 2.32816 5.97136 2.37501C4.99837 2.41805 4.46684 2.58212 4.11514 2.71887C3.6813 2.87897 3.29052 3.13293 2.96629 3.46503C2.63016 3.78554 2.37615 4.18006 2.21586 4.61381C2.07909 4.96545 1.91499 5.49291 1.87209 6.46968C1.82508 7.52063 1.81348 7.84098 1.81348 10.5096C1.81348 13.1781 1.82508 13.4947 1.87209 14.5496C1.91499 15.5224 2.07909 16.0538 2.21586 16.4055C2.37615 16.8391 2.63016 17.2298 2.96232 17.5541C3.28273 17.8862 3.67749 18.1402 4.11117 18.3004C4.46287 18.4372 4.99043 18.6012 5.96739 18.6441C7.01869 18.6911 7.33911 18.7027 10.0082 18.7027C12.6773 18.7027 12.9937 18.6911 14.0488 18.6441C15.022 18.6012 15.5534 18.4372 15.9051 18.3004C16.7766 17.9643 17.4682 17.2728 17.8043 16.4015ZM5.47079 10.6583C5.47079 8.06972 7.57131 5.96975 10.1602 5.96975C12.7492 5.96975 14.8496 8.06972 14.8496 10.6583C14.8496 13.2468 12.7492 15.3468 10.1602 15.3468C7.57131 15.3468 5.47079 13.2468 5.47079 10.6583ZM7.03329 10.6579C7.03329 12.3839 8.43344 13.7836 10.1596 13.7836C11.8858 13.7836 13.2858 12.3839 13.2858 10.6579C13.2858 8.93198 11.8858 7.53225 10.1596 7.53225C8.43344 7.53225 7.03329 8.93198 7.03329 10.6579ZM14.8501 6.36086C15.4976 6.36086 16.0224 5.83608 16.0224 5.18873C16.0224 4.54138 15.4976 4.0166 14.8501 4.0166C14.2026 4.0166 13.6777 4.54138 13.6777 5.18873C13.6777 5.83608 14.2026 6.36086 14.8501 6.36086Z" fill="#9CF2F2"/>
</svg>
