<svg width="19" height="17" viewBox="0 0 19 17" fill="none" xmlns="http://www.w3.org/2000/svg">
<path fill-rule="evenodd" clip-rule="evenodd" d="M19 2.64583C19 2.46875 18.8581 2.3125 18.6757 2.3125C18.5744 2.3125 17.8752 2.61458 17.6928 2.66667C17.936 2.375 18.4933 1.48958 18.4933 1.11458C18.4933 0.9375 18.3515 0.78125 18.1691 0.78125C18.1184 0.78125 18.0576 0.802083 18.0069 0.833333C17.3179 1.21875 16.6592 1.52083 15.8891 1.6875C15.1291 0.9375 14.0955 0.5 13.0315 0.5C10.7819 0.5 8.9376 2.38542 8.9376 4.70833C8.9376 4.875 8.94773 5.05208 8.97813 5.21875C6.7488 5.02083 4.63093 4.0625 2.96907 2.53125C2.56373 2.15625 2.2192 1.75 1.8544 1.33333C1.77333 1.23958 1.7024 1.20833 1.5808 1.20833C1.46933 1.20833 1.37813 1.29167 1.32747 1.375C0.962667 1.92708 0.770133 2.82292 0.770133 3.48958C0.770133 4.45833 1.0944 5.40625 1.7024 6.15625C1.50987 6.09375 1.216 5.89583 1.04373 5.89583C0.830933 5.89583 0.648533 6.05208 0.648533 6.27083C0.648533 7.72917 1.4288 9.08333 2.62453 9.84375C2.53333 9.83333 2.45227 9.80208 2.36107 9.80208C2.1888 9.80208 2.04693 9.95833 2.04693 10.125C2.04693 10.1667 2.05707 10.1979 2.0672 10.2396C2.51307 11.6458 3.62773 12.7083 5.02613 13.0417C3.88107 13.7708 2.56373 14.1458 1.22613 14.1458C0.922133 14.1458 0.618133 14.0938 0.324267 14.0938C0.141867 14.0938 0 14.25 0 14.4271C0 14.5417 0.0608 14.6354 0.152 14.7083C0.415467 14.9062 0.739733 15.0729 1.0336 15.2292C2.59413 16.0625 4.33707 16.5 6.10027 16.5C10.5184 16.5 14.2981 14.0625 16.1221 9.91667C16.7808 8.42708 17.1659 6.79167 17.1355 5.15625V4.8125C17.8245 4.28125 18.4933 3.59375 18.9493 2.83333C18.9797 2.78125 19 2.71875 19 2.64583Z" fill="#9CF2F2"/>
</svg>
