<svg width="689" height="156" viewBox="0 0 689 156" fill="none" xmlns="http://www.w3.org/2000/svg">
<path d="M505.196 0H669.342L689 77.8435L669.342 155.687H505.196L524.854 77.8435L505.196 0Z" fill="black"/>
<path d="M540.618 45V35.676C540.618 35.154 540.6 34.704 540.546 34.272H540.618C540.654 34.578 540.798 35.244 540.942 35.622L544.002 45H546.072L549.096 35.622C549.222 35.244 549.384 34.578 549.42 34.272H549.474C549.42 34.722 549.402 35.172 549.402 35.676V45H551.526V32.22H548.268L545.406 41.094C545.208 41.724 545.136 42.012 545.082 42.48H545.046C544.992 42.012 544.92 41.742 544.722 41.112L541.824 32.22H538.584V45H540.618ZM558.196 45.216C560.788 45.216 562.606 43.506 562.606 40.482C562.606 37.476 560.788 35.784 558.196 35.784C555.604 35.784 553.786 37.476 553.786 40.482C553.786 43.506 555.604 45.216 558.196 45.216ZM558.196 43.578C556.81 43.578 555.982 42.534 555.982 40.482C555.982 38.43 556.81 37.422 558.196 37.422C559.582 37.422 560.392 38.43 560.392 40.482C560.392 42.534 559.582 43.578 558.196 43.578ZM566.897 45V40.23C566.897 38.52 567.653 37.512 568.913 37.512C570.047 37.512 570.587 38.214 570.587 39.636V45H572.765V39.42C572.765 37.008 571.739 35.784 569.777 35.784C568.391 35.784 567.401 36.432 566.789 37.746V36H564.737V45H566.897ZM577.657 34.506V32.256H575.317V34.506H577.657ZM577.567 45V36H575.407V45H577.567ZM580.812 37.566V42.21C580.812 44.028 581.532 45.162 583.692 45.162C584.25 45.162 584.646 45.108 585.168 45V43.182C584.88 43.236 584.646 43.29 584.286 43.29C583.386 43.29 582.972 42.822 582.972 41.868V37.566H585.168V36H582.972V32.868L580.812 33.732V36H579.192V37.566H580.812ZM590.715 45.216C593.307 45.216 595.125 43.506 595.125 40.482C595.125 37.476 593.307 35.784 590.715 35.784C588.123 35.784 586.305 37.476 586.305 40.482C586.305 43.506 588.123 45.216 590.715 45.216ZM590.715 43.578C589.329 43.578 588.501 42.534 588.501 40.482C588.501 38.43 589.329 37.422 590.715 37.422C592.101 37.422 592.911 38.43 592.911 40.482C592.911 42.534 592.101 43.578 590.715 43.578ZM599.272 36H597.256V45H599.416V41.238C599.416 40.23 599.506 39.204 600.226 38.502C600.64 38.106 601.234 37.872 602.098 37.872H602.386V35.802C602.296 35.784 602.224 35.784 602.134 35.784C600.676 35.784 599.722 36.756 599.272 38.178V36Z" fill="white"/>
<path d="M547.502 72.332L544.59 67.404C546.494 66.972 547.15 65.58 547.15 64.3C547.15 62.636 546.366 60.972 543.39 60.972H539.182V72.332H540.702V67.612H543.006L545.79 72.332H547.502ZM543.214 62.252C544.958 62.252 545.55 63.132 545.55 64.3C545.55 65.436 544.974 66.332 543.214 66.332H540.702V62.252H543.214ZM555.67 67.772C555.67 65.372 554.422 64.14 552.262 64.14C549.974 64.14 548.63 65.756 548.63 68.428C548.63 71.068 549.99 72.524 552.278 72.524C553.894 72.524 555.062 71.756 555.622 70.3L554.502 69.804C554.15 70.78 553.398 71.324 552.374 71.324C550.95 71.324 550.006 70.3 549.99 68.732H555.67V67.772ZM549.99 67.628C550.022 66.124 550.822 65.212 552.23 65.212C553.542 65.212 554.294 65.98 554.294 67.452V67.628H549.99ZM560.873 72.524C562.665 72.524 563.865 71.468 564.153 69.644L562.857 69.436C562.649 70.684 561.977 71.34 560.889 71.34C559.465 71.34 558.633 70.236 558.633 68.316C558.633 66.444 559.465 65.324 560.841 65.324C561.929 65.324 562.633 65.996 562.777 67.212L564.169 67.052C563.961 65.212 562.745 64.14 560.873 64.14C558.601 64.14 557.193 65.724 557.193 68.332C557.193 70.892 558.633 72.524 560.873 72.524ZM572.655 67.772C572.655 65.372 571.407 64.14 569.247 64.14C566.959 64.14 565.615 65.756 565.615 68.428C565.615 71.068 566.975 72.524 569.263 72.524C570.879 72.524 572.047 71.756 572.607 70.3L571.487 69.804C571.135 70.78 570.383 71.324 569.359 71.324C567.935 71.324 566.991 70.3 566.975 68.732H572.655V67.772ZM566.975 67.628C567.007 66.124 567.807 65.212 569.215 65.212C570.527 65.212 571.279 65.98 571.279 67.452V67.628H566.975ZM576.353 62.844V61.132H574.801V62.844H576.353ZM576.257 72.332V64.332H574.897V72.332H576.257ZM582.204 72.332L585.1 64.332H583.628L581.836 69.724C581.692 70.156 581.58 70.572 581.5 70.94H581.452C581.372 70.572 581.26 70.156 581.116 69.724L579.324 64.332H577.852L580.748 72.332H582.204ZM592.936 67.772C592.936 65.372 591.688 64.14 589.528 64.14C587.24 64.14 585.896 65.756 585.896 68.428C585.896 71.068 587.256 72.524 589.544 72.524C591.16 72.524 592.328 71.756 592.888 70.3L591.768 69.804C591.416 70.78 590.664 71.324 589.64 71.324C588.216 71.324 587.272 70.3 587.256 68.732H592.936V67.772ZM587.256 67.628C587.288 66.124 588.088 65.212 589.496 65.212C590.808 65.212 591.56 65.98 591.56 67.452V67.628H587.256ZM601.831 72.524C602.951 72.524 603.943 71.804 604.311 70.828V72.332H605.591V64.332H604.231V68.636C604.231 70.268 603.367 71.356 602.087 71.356C601.031 71.356 600.455 70.62 600.455 69.276V64.332H599.095V69.436C599.095 71.308 599.815 72.524 601.831 72.524ZM609.835 75.452V71.068C610.187 71.852 611.051 72.524 612.283 72.524C614.219 72.524 615.595 70.892 615.595 68.332C615.595 65.804 614.299 64.14 612.363 64.14C611.195 64.14 610.267 64.716 609.755 65.82V64.332H608.475V75.452H609.835ZM611.963 71.324C610.635 71.324 609.803 70.236 609.803 68.508V68.124C609.803 66.396 610.667 65.34 612.011 65.34C613.355 65.34 614.155 66.444 614.155 68.332C614.155 70.204 613.323 71.324 611.963 71.324ZM620.285 72.524C621.533 72.524 622.397 71.916 622.877 70.844V72.332H624.157V60.732H622.797V65.516C622.285 64.572 621.501 64.14 620.445 64.14C618.445 64.14 617.037 65.868 617.037 68.332C617.037 70.844 618.349 72.524 620.285 72.524ZM620.653 71.324C619.293 71.324 618.477 70.204 618.477 68.332C618.477 66.444 619.293 65.34 620.653 65.34C621.997 65.34 622.829 66.412 622.829 68.156V68.524C622.829 70.236 621.981 71.324 620.653 71.324ZM629.022 72.524C630.334 72.524 631.342 71.9 631.71 70.876C631.726 71.388 631.774 71.916 631.838 72.332H633.262C633.07 71.708 632.99 70.86 632.99 69.628V67.468C632.99 65.132 632.03 64.14 629.838 64.14C627.966 64.14 626.686 65.212 626.574 66.844H628.03C628.094 65.836 628.766 65.26 629.854 65.26C631.086 65.26 631.614 65.852 631.614 67.324V67.452L630.126 67.628C628.814 67.788 628.046 67.98 627.438 68.284C626.718 68.684 626.318 69.372 626.318 70.172C626.318 71.596 627.39 72.524 629.022 72.524ZM629.326 71.404C628.35 71.404 627.758 70.924 627.758 70.14C627.758 69.356 628.27 68.94 629.454 68.764L631.63 68.444V68.844C631.63 70.396 630.718 71.404 629.326 71.404ZM635.951 65.452V69.932C635.951 71.42 636.399 72.476 638.127 72.476C638.639 72.476 638.959 72.428 639.311 72.332V71.084C639.039 71.148 638.831 71.196 638.479 71.196C637.663 71.196 637.311 70.796 637.311 69.884V65.452H639.311V64.332H637.311V61.66L635.951 62.236V64.332H634.463V65.452H635.951ZM647.545 67.772C647.545 65.372 646.297 64.14 644.137 64.14C641.849 64.14 640.505 65.756 640.505 68.428C640.505 71.068 641.865 72.524 644.153 72.524C645.769 72.524 646.937 71.756 647.497 70.3L646.377 69.804C646.025 70.78 645.273 71.324 644.249 71.324C642.825 71.324 641.881 70.3 641.865 68.732H647.545V67.772ZM641.865 67.628C641.897 66.124 642.697 65.212 644.105 65.212C645.417 65.212 646.169 65.98 646.169 67.452V67.628H641.865ZM652.508 72.524C654.46 72.524 655.564 71.516 655.564 70.076C655.564 68.908 654.924 68.172 653.484 67.9L651.932 67.612C651.148 67.468 650.7 67.148 650.7 66.476C650.7 65.692 651.324 65.244 652.348 65.244C653.436 65.244 654.06 65.804 654.236 66.604L655.58 66.3C655.42 64.956 654.204 64.14 652.412 64.14C650.524 64.14 649.372 65.164 649.372 66.54C649.372 67.756 650.14 68.524 651.5 68.78L653.068 69.068C653.788 69.196 654.22 69.484 654.22 70.188C654.22 70.876 653.628 71.404 652.556 71.404C651.388 71.404 650.636 70.828 650.444 69.82L649.068 70.06C649.34 71.644 650.62 72.524 652.508 72.524ZM542.03 93.524C544.286 93.524 545.758 91.94 545.758 89.332C545.758 86.724 544.286 85.14 542.03 85.14C539.774 85.14 538.302 86.724 538.302 89.332C538.302 91.94 539.774 93.524 542.03 93.524ZM542.03 92.34C540.59 92.34 539.742 91.316 539.742 89.332C539.742 87.348 540.59 86.324 542.03 86.324C543.47 86.324 544.318 87.348 544.318 89.332C544.318 91.316 543.47 92.34 542.03 92.34ZM549.273 93.332V89.156C549.273 87.38 550.089 86.308 551.417 86.308C552.585 86.308 553.177 87.028 553.177 88.436V93.332H554.537V88.356C554.537 86.228 553.625 85.14 551.865 85.14C550.601 85.14 549.721 85.716 549.193 86.916V85.332H547.913V93.332H549.273ZM562.695 96.452V92.068C563.047 92.852 563.911 93.524 565.143 93.524C567.079 93.524 568.455 91.892 568.455 89.332C568.455 86.804 567.159 85.14 565.223 85.14C564.055 85.14 563.127 85.716 562.615 86.82V85.332H561.335V96.452H562.695ZM564.823 92.324C563.495 92.324 562.663 91.236 562.663 89.508V89.124C562.663 87.396 563.527 86.34 564.871 86.34C566.215 86.34 567.015 87.444 567.015 89.332C567.015 91.204 566.183 92.324 564.823 92.324ZM571.88 85.332H570.616V93.332H571.976V89.908C571.976 88.948 572.008 87.876 572.776 87.108C573.16 86.724 573.704 86.484 574.536 86.484H574.6V85.156C574.504 85.14 574.408 85.14 574.312 85.14C573.096 85.14 572.264 86.036 571.88 87.156V85.332ZM579.296 93.524C581.552 93.524 583.024 91.94 583.024 89.332C583.024 86.724 581.552 85.14 579.296 85.14C577.04 85.14 575.568 86.724 575.568 89.332C575.568 91.94 577.04 93.524 579.296 93.524ZM579.296 92.34C577.856 92.34 577.008 91.316 577.008 89.332C577.008 87.348 577.856 86.324 579.296 86.324C580.736 86.324 581.584 87.348 581.584 89.332C581.584 91.316 580.736 92.34 579.296 92.34ZM591.246 85.204C591.47 85.204 591.662 85.236 591.822 85.268V84.084C591.646 84.036 591.47 84.02 591.294 84.02C590.222 84.02 589.63 84.66 589.39 85.476C588.942 85.268 588.43 85.14 587.822 85.14C585.966 85.14 584.862 86.292 584.862 87.844C584.862 88.628 585.134 89.3 585.646 89.796C584.974 90.052 584.51 90.596 584.51 91.396C584.51 91.972 584.766 92.484 585.438 92.788C584.59 93.06 584.142 93.7 584.142 94.452C584.142 95.588 584.926 96.644 587.742 96.644C590.526 96.644 591.71 95.604 591.71 94.1C591.71 92.66 590.798 91.844 588.99 91.844H587.038C586.046 91.844 585.71 91.476 585.71 91.028C585.71 90.66 585.95 90.388 586.286 90.244C586.718 90.452 587.23 90.58 587.822 90.58C589.678 90.58 590.782 89.396 590.782 87.844C590.782 87.092 590.526 86.436 590.046 85.956C590.238 85.444 590.638 85.204 591.246 85.204ZM587.822 89.54C586.798 89.54 586.142 88.82 586.142 87.844C586.142 86.868 586.798 86.18 587.822 86.18C588.846 86.18 589.502 86.884 589.502 87.86C589.502 88.836 588.846 89.54 587.822 89.54ZM588.686 93.044C589.79 93.044 590.35 93.444 590.35 94.196C590.35 94.916 589.854 95.524 587.902 95.524C586.462 95.524 585.47 95.204 585.47 94.212C585.47 93.732 585.742 93.268 586.318 93.012C586.526 93.028 586.75 93.044 586.99 93.044H588.686ZM594.849 85.332H593.585V93.332H594.945V89.908C594.945 88.948 594.977 87.876 595.745 87.108C596.129 86.724 596.673 86.484 597.505 86.484H597.569V85.156C597.473 85.14 597.377 85.14 597.281 85.14C596.065 85.14 595.233 86.036 594.849 87.156V85.332ZM605.577 88.772C605.577 86.372 604.329 85.14 602.169 85.14C599.881 85.14 598.537 86.756 598.537 89.428C598.537 92.068 599.897 93.524 602.185 93.524C603.801 93.524 604.969 92.756 605.529 91.3L604.409 90.804C604.057 91.78 603.305 92.324 602.281 92.324C600.857 92.324 599.913 91.3 599.897 89.732H605.577V88.772ZM599.897 88.628C599.929 87.124 600.729 86.212 602.137 86.212C603.449 86.212 604.201 86.98 604.201 88.452V88.628H599.897ZM610.539 93.524C612.491 93.524 613.595 92.516 613.595 91.076C613.595 89.908 612.955 89.172 611.515 88.9L609.963 88.612C609.179 88.468 608.731 88.148 608.731 87.476C608.731 86.692 609.355 86.244 610.379 86.244C611.467 86.244 612.091 86.804 612.267 87.604L613.611 87.3C613.451 85.956 612.235 85.14 610.443 85.14C608.555 85.14 607.403 86.164 607.403 87.54C607.403 88.756 608.171 89.524 609.531 89.78L611.099 90.068C611.819 90.196 612.251 90.484 612.251 91.188C612.251 91.876 611.659 92.404 610.587 92.404C609.419 92.404 608.667 91.828 608.475 90.82L607.099 91.06C607.371 92.644 608.651 93.524 610.539 93.524ZM618.414 93.524C620.366 93.524 621.47 92.516 621.47 91.076C621.47 89.908 620.83 89.172 619.39 88.9L617.838 88.612C617.054 88.468 616.606 88.148 616.606 87.476C616.606 86.692 617.23 86.244 618.254 86.244C619.342 86.244 619.966 86.804 620.142 87.604L621.486 87.3C621.326 85.956 620.11 85.14 618.318 85.14C616.43 85.14 615.278 86.164 615.278 87.54C615.278 88.756 616.046 89.524 617.406 89.78L618.974 90.068C619.694 90.196 620.126 90.484 620.126 91.188C620.126 91.876 619.534 92.404 618.462 92.404C617.294 92.404 616.542 91.828 616.35 90.82L614.974 91.06C615.246 92.644 616.526 93.524 618.414 93.524ZM629.866 93.524C631.178 93.524 632.186 92.9 632.554 91.876C632.57 92.388 632.618 92.916 632.682 93.332H634.106C633.914 92.708 633.834 91.86 633.834 90.628V88.468C633.834 86.132 632.874 85.14 630.682 85.14C628.81 85.14 627.53 86.212 627.418 87.844H628.874C628.938 86.836 629.61 86.26 630.698 86.26C631.93 86.26 632.458 86.852 632.458 88.324V88.452L630.97 88.628C629.658 88.788 628.89 88.98 628.282 89.284C627.562 89.684 627.162 90.372 627.162 91.172C627.162 92.596 628.234 93.524 629.866 93.524ZM630.17 92.404C629.194 92.404 628.602 91.924 628.602 91.14C628.602 90.356 629.114 89.94 630.298 89.764L632.474 89.444V89.844C632.474 91.396 631.562 92.404 630.17 92.404ZM637.867 93.332V89.156C637.867 87.38 638.683 86.308 640.011 86.308C641.179 86.308 641.771 87.028 641.771 88.436V93.332H643.131V88.356C643.131 86.228 642.219 85.14 640.459 85.14C639.195 85.14 638.315 85.716 637.787 86.916V85.332H636.507V93.332H637.867ZM648.3 93.524C649.548 93.524 650.412 92.916 650.892 91.844V93.332H652.172V81.732H650.812V86.516C650.3 85.572 649.516 85.14 648.46 85.14C646.46 85.14 645.052 86.868 645.052 89.332C645.052 91.844 646.364 93.524 648.3 93.524ZM648.668 92.324C647.308 92.324 646.492 91.204 646.492 89.332C646.492 87.444 647.308 86.34 648.668 86.34C650.012 86.34 650.844 87.412 650.844 89.156V89.524C650.844 91.236 649.996 92.324 648.668 92.324ZM539.31 107.452V111.932C539.31 113.42 539.758 114.476 541.486 114.476C541.998 114.476 542.318 114.428 542.67 114.332V113.084C542.398 113.148 542.19 113.196 541.838 113.196C541.022 113.196 540.67 112.796 540.67 111.884V107.452H542.67V106.332H540.67V103.66L539.31 104.236V106.332H537.822V107.452H539.31ZM545.927 106.332H544.663V114.332H546.023V110.908C546.023 109.948 546.055 108.876 546.823 108.108C547.207 107.724 547.751 107.484 548.583 107.484H548.647V106.156C548.551 106.14 548.455 106.14 548.359 106.14C547.143 106.14 546.311 107.036 545.927 108.156V106.332ZM552.303 114.524C553.615 114.524 554.623 113.9 554.991 112.876C555.007 113.388 555.055 113.916 555.119 114.332H556.543C556.351 113.708 556.271 112.86 556.271 111.628V109.468C556.271 107.132 555.311 106.14 553.119 106.14C551.247 106.14 549.967 107.212 549.855 108.844H551.311C551.375 107.836 552.047 107.26 553.135 107.26C554.367 107.26 554.895 107.852 554.895 109.324V109.452L553.407 109.628C552.095 109.788 551.327 109.98 550.719 110.284C549.999 110.684 549.599 111.372 549.599 112.172C549.599 113.596 550.671 114.524 552.303 114.524ZM552.607 113.404C551.631 113.404 551.039 112.924 551.039 112.14C551.039 111.356 551.551 110.94 552.735 110.764L554.911 110.444V110.844C554.911 112.396 553.999 113.404 552.607 113.404ZM561.826 114.524C563.618 114.524 564.818 113.468 565.106 111.644L563.81 111.436C563.602 112.684 562.93 113.34 561.842 113.34C560.418 113.34 559.586 112.236 559.586 110.316C559.586 108.444 560.418 107.324 561.794 107.324C562.882 107.324 563.586 107.996 563.73 109.212L565.122 109.052C564.914 107.212 563.698 106.14 561.826 106.14C559.554 106.14 558.146 107.724 558.146 110.332C558.146 112.892 559.586 114.524 561.826 114.524ZM574.2 114.332L571.08 109.42L574.008 106.332H572.232L568.648 110.268V102.732H567.288V114.332H568.648V111.884L570.104 110.412L572.52 114.332H574.2ZM583.046 114.524C585.302 114.524 586.774 112.94 586.774 110.332C586.774 107.724 585.302 106.14 583.046 106.14C580.79 106.14 579.318 107.724 579.318 110.332C579.318 112.94 580.79 114.524 583.046 114.524ZM583.046 113.34C581.606 113.34 580.758 112.316 580.758 110.332C580.758 108.348 581.606 107.324 583.046 107.324C584.486 107.324 585.334 108.348 585.334 110.332C585.334 112.316 584.486 113.34 583.046 113.34ZM591.425 114.524C592.545 114.524 593.537 113.804 593.905 112.828V114.332H595.185V106.332H593.825V110.636C593.825 112.268 592.961 113.356 591.681 113.356C590.625 113.356 590.049 112.62 590.049 111.276V106.332H588.689V111.436C588.689 113.308 589.409 114.524 591.425 114.524ZM598.357 107.452V111.932C598.357 113.42 598.805 114.476 600.533 114.476C601.045 114.476 601.365 114.428 601.717 114.332V113.084C601.445 113.148 601.237 113.196 600.885 113.196C600.069 113.196 599.717 112.796 599.717 111.884V107.452H601.717V106.332H599.717V103.66L598.357 104.236V106.332H596.869V107.452H598.357ZM606.592 114.524C608.384 114.524 609.584 113.468 609.872 111.644L608.576 111.436C608.368 112.684 607.696 113.34 606.608 113.34C605.184 113.34 604.352 112.236 604.352 110.316C604.352 108.444 605.184 107.324 606.56 107.324C607.648 107.324 608.352 107.996 608.496 109.212L609.888 109.052C609.68 107.212 608.464 106.14 606.592 106.14C604.32 106.14 602.912 107.724 602.912 110.332C602.912 112.892 604.352 114.524 606.592 114.524ZM615.062 114.524C617.318 114.524 618.79 112.94 618.79 110.332C618.79 107.724 617.318 106.14 615.062 106.14C612.806 106.14 611.334 107.724 611.334 110.332C611.334 112.94 612.806 114.524 615.062 114.524ZM615.062 113.34C613.622 113.34 612.774 112.316 612.774 110.332C612.774 108.348 613.622 107.324 615.062 107.324C616.502 107.324 617.35 108.348 617.35 110.332C617.35 112.316 616.502 113.34 615.062 113.34ZM620.944 114.332H622.304V109.66C622.304 108.204 622.992 107.308 624.112 107.308C625.072 107.308 625.616 107.964 625.616 109.132V114.332H626.976V109.596C626.976 108.14 627.632 107.308 628.768 107.308C629.776 107.308 630.288 107.948 630.288 109.196V114.332H631.648V109.084C631.648 107.228 630.752 106.14 629.216 106.14C628.128 106.14 627.312 106.668 626.784 107.74C626.416 106.7 625.616 106.14 624.512 106.14C623.44 106.14 622.672 106.668 622.224 107.724V106.332H620.944V114.332ZM640.608 109.772C640.608 107.372 639.36 106.14 637.2 106.14C634.912 106.14 633.568 107.756 633.568 110.428C633.568 113.068 634.928 114.524 637.216 114.524C638.832 114.524 640 113.756 640.56 112.3L639.44 111.804C639.088 112.78 638.336 113.324 637.312 113.324C635.888 113.324 634.944 112.3 634.928 110.732H640.608V109.772ZM634.928 109.628C634.96 108.124 635.76 107.212 637.168 107.212C638.48 107.212 639.232 107.98 639.232 109.452V109.628H634.928ZM645.57 114.524C647.522 114.524 648.626 113.516 648.626 112.076C648.626 110.908 647.986 110.172 646.546 109.9L644.994 109.612C644.21 109.468 643.762 109.148 643.762 108.476C643.762 107.692 644.386 107.244 645.41 107.244C646.498 107.244 647.122 107.804 647.298 108.604L648.642 108.3C648.482 106.956 647.266 106.14 645.474 106.14C643.586 106.14 642.434 107.164 642.434 108.54C642.434 109.756 643.202 110.524 644.562 110.78L646.13 111.068C646.85 111.196 647.282 111.484 647.282 112.188C647.282 112.876 646.69 113.404 645.618 113.404C644.45 113.404 643.698 112.828 643.506 111.82L642.13 112.06C642.402 113.644 643.682 114.524 645.57 114.524Z" fill="white"/>
<path d="M337.476 0.000488281H501.622L521.28 77.8439L501.622 155.687H337.476L357.134 77.8439L337.476 0.000488281Z" fill="white"/>
<path d="M374.66 45.306C377.774 45.306 379.52 43.488 380.06 40.932L377.756 40.464C377.432 42.264 376.316 43.362 374.678 43.362C372.338 43.362 371.078 41.364 371.078 38.574C371.078 35.712 372.374 33.822 374.624 33.822C376.388 33.822 377.45 34.974 377.666 36.792L380.042 36.45C379.7 33.732 377.882 31.914 374.696 31.914C370.862 31.914 368.684 34.614 368.684 38.592C368.684 42.462 370.646 45.306 374.66 45.306ZM382.061 31.95V45H384.221V31.95H382.061ZM390.742 45.216C393.334 45.216 395.152 43.506 395.152 40.482C395.152 37.476 393.334 35.784 390.742 35.784C388.15 35.784 386.332 37.476 386.332 40.482C386.332 43.506 388.15 45.216 390.742 45.216ZM390.742 43.578C389.356 43.578 388.528 42.534 388.528 40.482C388.528 38.43 389.356 37.422 390.742 37.422C392.128 37.422 392.938 38.43 392.938 40.482C392.938 42.534 392.128 43.578 390.742 43.578ZM400.543 45.216C402.901 45.216 404.233 44.064 404.233 42.372C404.233 40.95 403.495 40.086 401.749 39.78L399.985 39.456C399.193 39.312 398.797 39.042 398.797 38.43C398.797 37.728 399.355 37.35 400.363 37.35C401.551 37.35 402.343 37.854 402.775 38.664L404.287 37.854C403.855 36.558 402.397 35.784 400.489 35.784C398.203 35.784 396.817 36.936 396.817 38.556C396.817 39.996 397.699 40.878 399.391 41.184L400.993 41.472C401.875 41.616 402.271 41.868 402.271 42.516C402.271 43.164 401.695 43.632 400.597 43.632C399.319 43.632 398.419 43.056 398.005 42.048L396.403 42.768C396.961 44.352 398.491 45.216 400.543 45.216ZM414.074 40.05C414.074 37.296 412.58 35.784 409.97 35.784C407.288 35.784 405.668 37.62 405.668 40.59C405.668 43.542 407.324 45.216 410.078 45.216C411.914 45.216 413.336 44.352 414.002 42.786L412.346 42.03C411.932 43.002 411.176 43.524 410.15 43.524C408.728 43.524 407.774 42.552 407.756 41.04H414.074V40.05ZM407.756 39.618C407.792 38.124 408.566 37.224 409.934 37.224C411.212 37.224 411.95 37.998 411.95 39.474V39.618H407.756ZM421.234 37.566V42.21C421.234 44.028 421.954 45.162 424.114 45.162C424.672 45.162 425.068 45.108 425.59 45V43.182C425.302 43.236 425.068 43.29 424.708 43.29C423.808 43.29 423.394 42.822 423.394 41.868V37.566H425.59V36H423.394V32.868L421.234 33.732V36H419.614V37.566H421.234ZM429.731 45V40.23C429.731 38.502 430.469 37.512 431.765 37.512C432.863 37.512 433.421 38.214 433.421 39.582V45H435.599V39.402C435.599 37.026 434.573 35.784 432.629 35.784C431.261 35.784 430.271 36.414 429.731 37.656V31.95H427.571V45H429.731ZM445.891 40.05C445.891 37.296 444.397 35.784 441.787 35.784C439.105 35.784 437.485 37.62 437.485 40.59C437.485 43.542 439.141 45.216 441.895 45.216C443.731 45.216 445.153 44.352 445.819 42.786L444.163 42.03C443.749 43.002 442.993 43.524 441.967 43.524C440.545 43.524 439.591 42.552 439.573 41.04H445.891V40.05ZM439.573 39.618C439.609 38.124 440.383 37.224 441.751 37.224C443.029 37.224 443.767 37.998 443.767 39.474V39.618H439.573ZM452.672 31.95V45H454.832V31.95H452.672ZM461.354 45.216C463.946 45.216 465.764 43.506 465.764 40.482C465.764 37.476 463.946 35.784 461.354 35.784C458.762 35.784 456.944 37.476 456.944 40.482C456.944 43.506 458.762 45.216 461.354 45.216ZM461.354 43.578C459.968 43.578 459.14 42.534 459.14 40.482C459.14 38.43 459.968 37.422 461.354 37.422C462.74 37.422 463.55 38.43 463.55 40.482C463.55 42.534 462.74 43.578 461.354 43.578ZM471.549 45.216C474.141 45.216 475.959 43.506 475.959 40.482C475.959 37.476 474.141 35.784 471.549 35.784C468.957 35.784 467.139 37.476 467.139 40.482C467.139 43.506 468.957 45.216 471.549 45.216ZM471.549 43.578C470.163 43.578 469.335 42.534 469.335 40.482C469.335 38.43 470.163 37.422 471.549 37.422C472.935 37.422 473.745 38.43 473.745 40.482C473.745 42.534 472.935 43.578 471.549 43.578ZM480.25 48.51V43.704C480.736 44.586 481.636 45.216 482.914 45.216C485.128 45.216 486.64 43.38 486.64 40.482C486.64 37.638 485.182 35.784 483.022 35.784C481.744 35.784 480.7 36.396 480.142 37.566V36H478.09V48.51H480.25ZM482.284 43.56C481.006 43.56 480.196 42.462 480.196 40.734V40.284C480.196 38.466 481.006 37.44 482.302 37.44C483.616 37.44 484.39 38.556 484.39 40.482C484.39 42.408 483.58 43.56 482.284 43.56Z" fill="black"/>
<path d="M377.369 60.64H370.329V72H371.849V66.816H377.097V65.536H371.849V61.92H377.369V60.64ZM381.036 72.192C382.348 72.192 383.356 71.568 383.724 70.544C383.74 71.056 383.788 71.584 383.852 72H385.276C385.084 71.376 385.004 70.528 385.004 69.296V67.136C385.004 64.8 384.044 63.808 381.852 63.808C379.98 63.808 378.7 64.88 378.588 66.512H380.044C380.108 65.504 380.78 64.928 381.868 64.928C383.1 64.928 383.628 65.52 383.628 66.992V67.12L382.14 67.296C380.828 67.456 380.06 67.648 379.452 67.952C378.732 68.352 378.332 69.04 378.332 69.84C378.332 71.264 379.404 72.192 381.036 72.192ZM381.34 71.072C380.364 71.072 379.772 70.592 379.772 69.808C379.772 69.024 380.284 68.608 381.468 68.432L383.644 68.112V68.512C383.644 70.064 382.732 71.072 381.34 71.072ZM390.239 72.192C392.031 72.192 393.231 71.136 393.519 69.312L392.223 69.104C392.015 70.352 391.343 71.008 390.255 71.008C388.831 71.008 387.999 69.904 387.999 67.984C387.999 66.112 388.831 64.992 390.207 64.992C391.295 64.992 391.999 65.664 392.143 66.88L393.535 66.72C393.327 64.88 392.111 63.808 390.239 63.808C387.967 63.808 386.559 65.392 386.559 68C386.559 70.56 387.999 72.192 390.239 72.192ZM396.836 62.512V60.8H395.284V62.512H396.836ZM396.74 72V64H395.38V72H396.74ZM399.295 60.4V72H400.655V60.4H399.295ZM404.665 62.512V60.8H403.113V62.512H404.665ZM404.569 72V64H403.209V72H404.569ZM407.412 65.12V69.6C407.412 71.088 407.86 72.144 409.588 72.144C410.1 72.144 410.42 72.096 410.772 72V70.752C410.5 70.816 410.292 70.864 409.94 70.864C409.124 70.864 408.772 70.464 408.772 69.552V65.12H410.772V64H408.772V61.328L407.412 61.904V64H405.924V65.12H407.412ZM414.35 72.192C415.662 72.192 416.67 71.568 417.038 70.544C417.054 71.056 417.102 71.584 417.166 72H418.59C418.398 71.376 418.318 70.528 418.318 69.296V67.136C418.318 64.8 417.358 63.808 415.166 63.808C413.294 63.808 412.014 64.88 411.902 66.512H413.358C413.422 65.504 414.094 64.928 415.182 64.928C416.414 64.928 416.942 65.52 416.942 66.992V67.12L415.454 67.296C414.142 67.456 413.374 67.648 412.766 67.952C412.046 68.352 411.646 69.04 411.646 69.84C411.646 71.264 412.718 72.192 414.35 72.192ZM414.654 71.072C413.678 71.072 413.086 70.592 413.086 69.808C413.086 69.024 413.598 68.608 414.782 68.432L416.958 68.112V68.512C416.958 70.064 416.046 71.072 414.654 71.072ZM420.959 65.12V69.6C420.959 71.088 421.407 72.144 423.135 72.144C423.647 72.144 423.967 72.096 424.319 72V70.752C424.047 70.816 423.839 70.864 423.487 70.864C422.671 70.864 422.319 70.464 422.319 69.552V65.12H424.319V64H422.319V61.328L420.959 61.904V64H419.471V65.12H420.959ZM432.234 67.44C432.234 65.04 430.986 63.808 428.826 63.808C426.538 63.808 425.194 65.424 425.194 68.096C425.194 70.736 426.554 72.192 428.842 72.192C430.458 72.192 431.626 71.424 432.186 69.968L431.066 69.472C430.714 70.448 429.962 70.992 428.938 70.992C427.514 70.992 426.57 69.968 426.554 68.4H432.234V67.44ZM426.554 67.296C426.586 65.792 427.386 64.88 428.794 64.88C430.106 64.88 430.858 65.648 430.858 67.12V67.296H426.554ZM373.129 93.192C374.921 93.192 376.121 92.136 376.409 90.312L375.113 90.104C374.905 91.352 374.233 92.008 373.145 92.008C371.721 92.008 370.889 90.904 370.889 88.984C370.889 87.112 371.721 85.992 373.097 85.992C374.185 85.992 374.889 86.664 375.033 87.88L376.425 87.72C376.217 85.88 375.001 84.808 373.129 84.808C370.857 84.808 369.449 86.392 369.449 89C369.449 91.56 370.889 93.192 373.129 93.192ZM381.278 93.192C383.534 93.192 385.006 91.608 385.006 89C385.006 86.392 383.534 84.808 381.278 84.808C379.022 84.808 377.55 86.392 377.55 89C377.55 91.608 379.022 93.192 381.278 93.192ZM381.278 92.008C379.838 92.008 378.99 90.984 378.99 89C378.99 87.016 379.838 85.992 381.278 85.992C382.718 85.992 383.566 87.016 383.566 89C383.566 90.984 382.718 92.008 381.278 92.008ZM386.841 93H388.201V88.328C388.201 86.872 388.889 85.976 390.009 85.976C390.969 85.976 391.513 86.632 391.513 87.8V93H392.873V88.264C392.873 86.808 393.529 85.976 394.665 85.976C395.673 85.976 396.185 86.616 396.185 87.864V93H397.545V87.752C397.545 85.896 396.649 84.808 395.113 84.808C394.025 84.808 393.209 85.336 392.681 86.408C392.313 85.368 391.513 84.808 390.409 84.808C389.337 84.808 388.569 85.336 388.121 86.392V85H386.841V93ZM399.865 93H401.225V88.328C401.225 86.872 401.913 85.976 403.033 85.976C403.993 85.976 404.537 86.632 404.537 87.8V93H405.897V88.264C405.897 86.808 406.553 85.976 407.689 85.976C408.697 85.976 409.209 86.616 409.209 87.864V93H410.569V87.752C410.569 85.896 409.673 84.808 408.137 84.808C407.049 84.808 406.233 85.336 405.705 86.408C405.337 85.368 404.537 84.808 403.433 84.808C402.361 84.808 401.593 85.336 401.145 86.392V85H399.865V93ZM415.385 93.192C416.505 93.192 417.497 92.472 417.865 91.496V93H419.145V85H417.785V89.304C417.785 90.936 416.921 92.024 415.641 92.024C414.585 92.024 414.009 91.288 414.009 89.944V85H412.649V90.104C412.649 91.976 413.369 93.192 415.385 93.192ZM423.069 93V88.824C423.069 87.048 423.885 85.976 425.213 85.976C426.381 85.976 426.973 86.696 426.973 88.104V93H428.333V88.024C428.333 85.896 427.421 84.808 425.661 84.808C424.397 84.808 423.517 85.384 422.989 86.584V85H421.709V93H423.069ZM432.111 83.512V81.8H430.559V83.512H432.111ZM432.015 93V85H430.655V93H432.015ZM437.529 93.192C439.321 93.192 440.521 92.136 440.809 90.312L439.513 90.104C439.305 91.352 438.633 92.008 437.545 92.008C436.121 92.008 435.289 90.904 435.289 88.984C435.289 87.112 436.121 85.992 437.497 85.992C438.585 85.992 439.289 86.664 439.433 87.88L440.825 87.72C440.617 85.88 439.401 84.808 437.529 84.808C435.257 84.808 433.849 86.392 433.849 89C433.849 91.56 435.289 93.192 437.529 93.192ZM444.655 93.192C445.967 93.192 446.975 92.568 447.343 91.544C447.359 92.056 447.407 92.584 447.471 93H448.895C448.703 92.376 448.623 91.528 448.623 90.296V88.136C448.623 85.8 447.663 84.808 445.471 84.808C443.599 84.808 442.319 85.88 442.207 87.512H443.663C443.727 86.504 444.399 85.928 445.487 85.928C446.719 85.928 447.247 86.52 447.247 87.992V88.12L445.759 88.296C444.447 88.456 443.679 88.648 443.071 88.952C442.351 89.352 441.951 90.04 441.951 90.84C441.951 92.264 443.023 93.192 444.655 93.192ZM444.959 92.072C443.983 92.072 443.391 91.592 443.391 90.808C443.391 90.024 443.903 89.608 445.087 89.432L447.263 89.112V89.512C447.263 91.064 446.351 92.072 444.959 92.072ZM451.264 86.12V90.6C451.264 92.088 451.712 93.144 453.44 93.144C453.952 93.144 454.272 93.096 454.624 93V91.752C454.352 91.816 454.144 91.864 453.792 91.864C452.976 91.864 452.624 91.464 452.624 90.552V86.12H454.624V85H452.624V82.328L451.264 82.904V85H449.776V86.12H451.264ZM457.753 83.512V81.8H456.201V83.512H457.753ZM457.657 93V85H456.297V93H457.657ZM463.219 93.192C465.475 93.192 466.947 91.608 466.947 89C466.947 86.392 465.475 84.808 463.219 84.808C460.963 84.808 459.491 86.392 459.491 89C459.491 91.608 460.963 93.192 463.219 93.192ZM463.219 92.008C461.779 92.008 460.931 90.984 460.931 89C460.931 87.016 461.779 85.992 463.219 85.992C464.659 85.992 465.507 87.016 465.507 89C465.507 90.984 464.659 92.008 463.219 92.008ZM470.142 93V88.824C470.142 87.048 470.958 85.976 472.286 85.976C473.454 85.976 474.046 86.696 474.046 88.104V93H475.406V88.024C475.406 85.896 474.494 84.808 472.734 84.808C471.47 84.808 470.59 85.384 470.062 86.584V85H468.782V93H470.142ZM373.993 114.192C375.993 114.192 377.289 112.496 377.289 110C377.289 107.552 376.025 105.808 374.073 105.808C372.825 105.808 371.945 106.496 371.529 107.392V102.4H370.169V114H371.209L371.449 112.624C371.865 113.552 372.777 114.192 373.993 114.192ZM373.625 112.992C372.281 112.992 371.497 111.904 371.497 110.24V109.824C371.497 108.08 372.297 107.008 373.641 107.008C375.065 107.008 375.849 108.208 375.849 110C375.849 111.824 375.017 112.992 373.625 112.992ZM385.77 109.44C385.77 107.04 384.522 105.808 382.362 105.808C380.074 105.808 378.73 107.424 378.73 110.096C378.73 112.736 380.09 114.192 382.378 114.192C383.994 114.192 385.162 113.424 385.722 111.968L384.602 111.472C384.25 112.448 383.498 112.992 382.474 112.992C381.05 112.992 380.106 111.968 380.09 110.4H385.77V109.44ZM380.09 109.296C380.122 107.792 380.922 106.88 382.33 106.88C383.642 106.88 384.394 107.648 384.394 109.12V109.296H380.09ZM388.3 107.12V111.6C388.3 113.088 388.748 114.144 390.476 114.144C390.988 114.144 391.308 114.096 391.66 114V112.752C391.388 112.816 391.18 112.864 390.828 112.864C390.012 112.864 389.66 112.464 389.66 111.552V107.12H391.66V106H389.66V103.328L388.3 103.904V106H386.812V107.12H388.3ZM396.669 114L398.189 108.24C398.253 107.984 398.333 107.584 398.365 107.344H398.397C398.429 107.584 398.509 107.984 398.573 108.24L400.093 114H401.581L403.837 106H402.429L400.989 111.712C400.925 112 400.861 112.336 400.813 112.656H400.781C400.733 112.336 400.637 112 400.573 111.712L399.117 106H397.645L396.189 111.712C396.125 112 396.029 112.336 395.981 112.656H395.949C395.901 112.336 395.837 112 395.773 111.712L394.333 106H392.925L395.181 114H396.669ZM411.926 109.44C411.926 107.04 410.678 105.808 408.518 105.808C406.23 105.808 404.886 107.424 404.886 110.096C404.886 112.736 406.246 114.192 408.534 114.192C410.15 114.192 411.318 113.424 411.878 111.968L410.758 111.472C410.406 112.448 409.654 112.992 408.63 112.992C407.206 112.992 406.262 111.968 406.246 110.4H411.926V109.44ZM406.246 109.296C406.278 107.792 407.078 106.88 408.486 106.88C409.798 106.88 410.55 107.648 410.55 109.12V109.296H406.246ZM420.489 109.44C420.489 107.04 419.241 105.808 417.081 105.808C414.793 105.808 413.449 107.424 413.449 110.096C413.449 112.736 414.809 114.192 417.097 114.192C418.713 114.192 419.881 113.424 420.441 111.968L419.321 111.472C418.969 112.448 418.217 112.992 417.193 112.992C415.769 112.992 414.825 111.968 414.809 110.4H420.489V109.44ZM414.809 109.296C414.841 107.792 415.641 106.88 417.049 106.88C418.361 106.88 419.113 107.648 419.113 109.12V109.296H414.809ZM424.091 114V109.824C424.091 108.048 424.907 106.976 426.235 106.976C427.403 106.976 427.995 107.696 427.995 109.104V114H429.355V109.024C429.355 106.896 428.443 105.808 426.683 105.808C425.419 105.808 424.539 106.384 424.011 107.584V106H422.731V114H424.091ZM437.513 117.12V112.736C437.865 113.52 438.729 114.192 439.961 114.192C441.897 114.192 443.273 112.56 443.273 110C443.273 107.472 441.977 105.808 440.041 105.808C438.873 105.808 437.945 106.384 437.433 107.488V106H436.153V117.12H437.513ZM439.641 112.992C438.313 112.992 437.481 111.904 437.481 110.176V109.792C437.481 108.064 438.345 107.008 439.689 107.008C441.033 107.008 441.833 108.112 441.833 110C441.833 111.872 441.001 112.992 439.641 112.992ZM446.698 106H445.434V114H446.794V110.576C446.794 109.616 446.826 108.544 447.594 107.776C447.978 107.392 448.522 107.152 449.354 107.152H449.418V105.824C449.322 105.808 449.226 105.808 449.13 105.808C447.914 105.808 447.082 106.704 446.698 107.824V106ZM454.114 114.192C456.37 114.192 457.842 112.608 457.842 110C457.842 107.392 456.37 105.808 454.114 105.808C451.858 105.808 450.386 107.392 450.386 110C450.386 112.608 451.858 114.192 454.114 114.192ZM454.114 113.008C452.674 113.008 451.826 111.984 451.826 110C451.826 108.016 452.674 106.992 454.114 106.992C455.554 106.992 456.402 108.016 456.402 110C456.402 111.984 455.554 113.008 454.114 113.008ZM462.991 114L465.887 106H464.415L462.623 111.392C462.479 111.824 462.367 112.24 462.287 112.608H462.239C462.159 112.24 462.047 111.824 461.903 111.392L460.111 106H458.639L461.535 114H462.991ZM468.937 104.512V102.8H467.385V104.512H468.937ZM468.841 114V106H467.481V114H468.841ZM474.243 114.192C475.491 114.192 476.355 113.584 476.835 112.512V114H478.115V102.4H476.755V107.184C476.243 106.24 475.459 105.808 474.403 105.808C472.403 105.808 470.995 107.536 470.995 110C470.995 112.512 472.307 114.192 474.243 114.192ZM474.611 112.992C473.251 112.992 472.435 111.872 472.435 110C472.435 108.112 473.251 107.008 474.611 107.008C475.955 107.008 476.787 108.08 476.787 109.824V110.192C476.787 111.904 475.939 112.992 474.611 112.992ZM487.317 109.44C487.317 107.04 486.069 105.808 483.909 105.808C481.621 105.808 480.277 107.424 480.277 110.096C480.277 112.736 481.637 114.192 483.925 114.192C485.541 114.192 486.709 113.424 487.269 111.968L486.149 111.472C485.797 112.448 485.045 112.992 484.021 112.992C482.597 112.992 481.653 111.968 481.637 110.4H487.317V109.44ZM481.637 109.296C481.669 107.792 482.469 106.88 483.877 106.88C485.189 106.88 485.941 107.648 485.941 109.12V109.296H481.637ZM490.823 106H489.559V114H490.919V110.576C490.919 109.616 490.951 108.544 491.719 107.776C492.103 107.392 492.647 107.152 493.479 107.152H493.543V105.824C493.447 105.808 493.351 105.808 493.255 105.808C492.039 105.808 491.207 106.704 490.823 107.824V106ZM497.935 114.192C499.887 114.192 500.991 113.184 500.991 111.744C500.991 110.576 500.351 109.84 498.911 109.568L497.359 109.28C496.575 109.136 496.127 108.816 496.127 108.144C496.127 107.36 496.751 106.912 497.775 106.912C498.863 106.912 499.487 107.472 499.663 108.272L501.007 107.968C500.847 106.624 499.631 105.808 497.839 105.808C495.951 105.808 494.799 106.832 494.799 108.208C494.799 109.424 495.567 110.192 496.927 110.448L498.495 110.736C499.215 110.864 499.647 111.152 499.647 111.856C499.647 112.544 499.055 113.072 497.983 113.072C496.815 113.072 496.063 112.496 495.871 111.488L494.495 111.728C494.767 113.312 496.047 114.192 497.935 114.192ZM372.153 135.192C373.465 135.192 374.473 134.568 374.841 133.544C374.857 134.056 374.905 134.584 374.969 135H376.393C376.201 134.376 376.121 133.528 376.121 132.296V130.136C376.121 127.8 375.161 126.808 372.969 126.808C371.097 126.808 369.817 127.88 369.705 129.512H371.161C371.225 128.504 371.897 127.928 372.985 127.928C374.217 127.928 374.745 128.52 374.745 129.992V130.12L373.257 130.296C371.945 130.456 371.177 130.648 370.569 130.952C369.849 131.352 369.449 132.04 369.449 132.84C369.449 134.264 370.521 135.192 372.153 135.192ZM372.457 134.072C371.481 134.072 370.889 133.592 370.889 132.808C370.889 132.024 371.401 131.608 372.585 131.432L374.761 131.112V131.512C374.761 133.064 373.849 134.072 372.457 134.072ZM380.154 135V130.824C380.154 129.048 380.97 127.976 382.298 127.976C383.466 127.976 384.058 128.696 384.058 130.104V135H385.418V130.024C385.418 127.896 384.506 126.808 382.746 126.808C381.482 126.808 380.602 127.384 380.074 128.584V127H378.794V135H380.154ZM390.587 135.192C391.835 135.192 392.699 134.584 393.179 133.512V135H394.459V123.4H393.099V128.184C392.587 127.24 391.803 126.808 390.747 126.808C388.747 126.808 387.339 128.536 387.339 131C387.339 133.512 388.651 135.192 390.587 135.192ZM390.955 133.992C389.595 133.992 388.779 132.872 388.779 131C388.779 129.112 389.595 128.008 390.955 128.008C392.299 128.008 393.131 129.08 393.131 130.824V131.192C393.131 132.904 392.283 133.992 390.955 133.992ZM405.897 135.272C408.633 135.272 410.009 133.576 410.441 131.432L408.969 131.176C408.649 132.872 407.513 133.944 405.897 133.944C403.577 133.944 402.377 131.928 402.377 129.272C402.377 126.52 403.641 124.664 405.865 124.664C407.625 124.664 408.665 125.8 408.889 127.512L410.441 127.352C410.153 125 408.713 123.368 405.945 123.368C402.569 123.368 400.777 125.8 400.777 129.288C400.777 132.584 402.377 135.272 405.897 135.272ZM418.512 129.128C419.808 128.76 420.416 127.736 420.416 126.664C420.416 125.32 419.632 123.64 416.64 123.64H412.688V135H416.976C419.856 135 420.736 133.336 420.736 131.88C420.736 130.36 419.872 129.368 418.512 129.128ZM416.64 124.92C418.48 124.92 418.912 125.88 418.912 126.776C418.912 127.56 418.592 128.568 416.64 128.568H414.208V124.92H416.64ZM414.208 133.72V129.848H417.056C418.608 129.848 419.232 130.68 419.232 131.736C419.232 132.76 418.672 133.72 416.896 133.72H414.208ZM427.383 135.272C430.519 135.272 432.567 133 432.567 129.32C432.567 125.608 430.519 123.368 427.383 123.368C424.231 123.368 422.183 125.608 422.183 129.32C422.183 132.952 424.231 135.272 427.383 135.272ZM427.383 133.992C425.111 133.992 423.783 132.168 423.783 129.32C423.783 126.408 425.111 124.648 427.383 124.648C429.655 124.648 430.967 126.408 430.967 129.32C430.967 132.216 429.655 133.992 427.383 133.992ZM437.451 135.192C439.403 135.192 440.507 134.184 440.507 132.744C440.507 131.576 439.867 130.84 438.427 130.568L436.875 130.28C436.091 130.136 435.643 129.816 435.643 129.144C435.643 128.36 436.267 127.912 437.291 127.912C438.379 127.912 439.003 128.472 439.179 129.272L440.523 128.968C440.363 127.624 439.147 126.808 437.355 126.808C435.467 126.808 434.315 127.832 434.315 129.208C434.315 130.424 435.083 131.192 436.443 131.448L438.011 131.736C438.731 131.864 439.163 132.152 439.163 132.856C439.163 133.544 438.571 134.072 437.499 134.072C436.331 134.072 435.579 133.496 435.387 132.488L434.011 132.728C434.283 134.312 435.563 135.192 437.451 135.192Z" fill="black"/>
<path d="M169.742 0.000488281H333.888L353.546 77.8439L333.888 155.687H169.742L189.4 77.8439L169.742 0.000488281Z" fill="#FF938E"/>
<path d="M209.66 45.306C212.774 45.306 214.52 43.488 215.06 40.932L212.756 40.464C212.432 42.264 211.316 43.362 209.678 43.362C207.338 43.362 206.078 41.364 206.078 38.574C206.078 35.712 207.374 33.822 209.624 33.822C211.388 33.822 212.45 34.974 212.666 36.792L215.042 36.45C214.7 33.732 212.882 31.914 209.696 31.914C205.862 31.914 203.684 34.614 203.684 38.592C203.684 42.462 205.646 45.306 209.66 45.306ZM220.891 45.216C223.483 45.216 225.301 43.506 225.301 40.482C225.301 37.476 223.483 35.784 220.891 35.784C218.299 35.784 216.481 37.476 216.481 40.482C216.481 43.506 218.299 45.216 220.891 45.216ZM220.891 43.578C219.505 43.578 218.677 42.534 218.677 40.482C218.677 38.43 219.505 37.422 220.891 37.422C222.277 37.422 223.087 38.43 223.087 40.482C223.087 42.534 222.277 43.578 220.891 43.578ZM229.592 45V40.23C229.592 38.52 230.348 37.512 231.608 37.512C232.742 37.512 233.282 38.214 233.282 39.636V45H235.46V39.42C235.46 37.008 234.434 35.784 232.472 35.784C231.086 35.784 230.096 36.432 229.484 37.746V36H227.432V45H229.592ZM240.262 45V40.23C240.262 38.52 241.018 37.512 242.278 37.512C243.412 37.512 243.952 38.214 243.952 39.636V45H246.13V39.42C246.13 37.008 245.104 35.784 243.142 35.784C241.756 35.784 240.766 36.432 240.154 37.746V36H238.102V45H240.262ZM256.422 40.05C256.422 37.296 254.928 35.784 252.318 35.784C249.636 35.784 248.016 37.62 248.016 40.59C248.016 43.542 249.672 45.216 252.426 45.216C254.262 45.216 255.684 44.352 256.35 42.786L254.694 42.03C254.28 43.002 253.524 43.524 252.498 43.524C251.076 43.524 250.122 42.552 250.104 41.04H256.422V40.05ZM250.104 39.618C250.14 38.124 250.914 37.224 252.282 37.224C253.56 37.224 254.298 37.998 254.298 39.474V39.618H250.104ZM262.287 45.216C264.429 45.216 265.941 43.992 266.265 41.994L264.231 41.58C264.033 42.84 263.367 43.506 262.287 43.506C260.901 43.506 260.091 42.39 260.091 40.446C260.091 38.592 260.919 37.476 262.251 37.476C263.313 37.476 264.015 38.142 264.159 39.366L266.265 39.024C265.995 36.972 264.537 35.784 262.305 35.784C259.569 35.784 257.877 37.566 257.877 40.5C257.877 43.362 259.605 45.216 262.287 45.216ZM268.697 37.566V42.21C268.697 44.028 269.417 45.162 271.577 45.162C272.135 45.162 272.531 45.108 273.053 45V43.182C272.765 43.236 272.531 43.29 272.171 43.29C271.271 43.29 270.857 42.822 270.857 41.868V37.566H273.053V36H270.857V32.868L268.697 33.732V36H267.077V37.566H268.697ZM277.284 34.506V32.256H274.944V34.506H277.284ZM277.194 45V36H275.034V45H277.194ZM283.715 45.216C286.307 45.216 288.125 43.506 288.125 40.482C288.125 37.476 286.307 35.784 283.715 35.784C281.123 35.784 279.305 37.476 279.305 40.482C279.305 43.506 281.123 45.216 283.715 45.216ZM283.715 43.578C282.329 43.578 281.501 42.534 281.501 40.482C281.501 38.43 282.329 37.422 283.715 37.422C285.101 37.422 285.911 38.43 285.911 40.482C285.911 42.534 285.101 43.578 283.715 43.578ZM292.416 45V40.23C292.416 38.52 293.172 37.512 294.432 37.512C295.566 37.512 296.106 38.214 296.106 39.636V45H298.284V39.42C298.284 37.008 297.258 35.784 295.296 35.784C293.91 35.784 292.92 36.432 292.308 37.746V36H290.256V45H292.416ZM304.22 45.216C306.578 45.216 307.91 44.064 307.91 42.372C307.91 40.95 307.172 40.086 305.426 39.78L303.662 39.456C302.87 39.312 302.474 39.042 302.474 38.43C302.474 37.728 303.032 37.35 304.04 37.35C305.228 37.35 306.02 37.854 306.452 38.664L307.964 37.854C307.532 36.558 306.074 35.784 304.166 35.784C301.88 35.784 300.494 36.936 300.494 38.556C300.494 39.996 301.376 40.878 303.068 41.184L304.67 41.472C305.552 41.616 305.948 41.868 305.948 42.516C305.948 43.164 305.372 43.632 304.274 43.632C302.996 43.632 302.096 43.056 301.682 42.048L300.08 42.768C300.638 44.352 302.168 45.216 304.22 45.216Z" fill="black"/>
<path d="M204.514 60.64V72H206.034V67.36H208.546C210.898 67.36 212.402 66.048 212.402 64C212.402 61.952 210.898 60.64 208.546 60.64H204.514ZM206.034 66.08V61.92H208.386C209.858 61.92 210.802 62.736 210.802 64C210.802 65.264 209.858 66.08 208.386 66.08H206.034ZM215.587 64H214.323V72H215.683V68.576C215.683 67.616 215.715 66.544 216.483 65.776C216.867 65.392 217.411 65.152 218.243 65.152H218.307V63.824C218.211 63.808 218.115 63.808 218.019 63.808C216.803 63.808 215.971 64.704 215.587 65.824V64ZM223.003 72.192C225.259 72.192 226.731 70.608 226.731 68C226.731 65.392 225.259 63.808 223.003 63.808C220.747 63.808 219.275 65.392 219.275 68C219.275 70.608 220.747 72.192 223.003 72.192ZM223.003 71.008C221.563 71.008 220.715 69.984 220.715 68C220.715 66.016 221.563 64.992 223.003 64.992C224.443 64.992 225.291 66.016 225.291 68C225.291 69.984 224.443 71.008 223.003 71.008ZM231.879 72L234.775 64H233.303L231.511 69.392C231.367 69.824 231.255 70.24 231.175 70.608H231.127C231.047 70.24 230.935 69.824 230.791 69.392L228.999 64H227.527L230.423 72H231.879ZM237.826 62.512V60.8H236.274V62.512H237.826ZM237.73 72V64H236.37V72H237.73ZM243.132 72.192C244.38 72.192 245.244 71.584 245.724 70.512V72H247.004V60.4H245.644V65.184C245.132 64.24 244.348 63.808 243.292 63.808C241.292 63.808 239.884 65.536 239.884 68C239.884 70.512 241.196 72.192 243.132 72.192ZM243.5 70.992C242.14 70.992 241.324 69.872 241.324 68C241.324 66.112 242.14 65.008 243.5 65.008C244.844 65.008 245.676 66.08 245.676 67.824V68.192C245.676 69.904 244.828 70.992 243.5 70.992ZM256.206 67.44C256.206 65.04 254.958 63.808 252.798 63.808C250.51 63.808 249.166 65.424 249.166 68.096C249.166 70.736 250.526 72.192 252.814 72.192C254.43 72.192 255.598 71.424 256.158 69.968L255.038 69.472C254.686 70.448 253.934 70.992 252.91 70.992C251.486 70.992 250.542 69.968 250.526 68.4H256.206V67.44ZM250.526 67.296C250.558 65.792 251.358 64.88 252.766 64.88C254.078 64.88 254.83 65.648 254.83 67.12V67.296H250.526ZM263.868 64H262.604V72H263.964V68.576C263.964 67.616 263.996 66.544 264.764 65.776C265.148 65.392 265.692 65.152 266.524 65.152H266.588V63.824C266.492 63.808 266.396 63.808 266.3 63.808C265.084 63.808 264.252 64.704 263.868 65.824V64ZM274.596 67.44C274.596 65.04 273.348 63.808 271.188 63.808C268.9 63.808 267.556 65.424 267.556 68.096C267.556 70.736 268.916 72.192 271.204 72.192C272.82 72.192 273.988 71.424 274.548 69.968L273.428 69.472C273.076 70.448 272.324 70.992 271.3 70.992C269.876 70.992 268.932 69.968 268.916 68.4H274.596V67.44ZM268.916 67.296C268.948 65.792 269.748 64.88 271.156 64.88C272.468 64.88 273.22 65.648 273.22 67.12V67.296H268.916ZM278.551 64V62.928C278.551 61.952 278.887 61.504 279.703 61.504C279.959 61.504 280.263 61.536 280.551 61.584V60.416C280.247 60.336 279.911 60.304 279.527 60.304C278.103 60.304 277.191 61.28 277.191 62.736V64H275.719V65.12H277.191V72H278.551V65.12H280.551V64H278.551ZM288.471 67.44C288.471 65.04 287.223 63.808 285.063 63.808C282.775 63.808 281.431 65.424 281.431 68.096C281.431 70.736 282.791 72.192 285.079 72.192C286.695 72.192 287.863 71.424 288.423 69.968L287.303 69.472C286.951 70.448 286.199 70.992 285.175 70.992C283.751 70.992 282.807 69.968 282.791 68.4H288.471V67.44ZM282.791 67.296C282.823 65.792 283.623 64.88 285.031 64.88C286.343 64.88 287.095 65.648 287.095 67.12V67.296H282.791ZM291.978 64H290.714V72H292.074V68.576C292.074 67.616 292.106 66.544 292.874 65.776C293.258 65.392 293.802 65.152 294.634 65.152H294.698V63.824C294.602 63.808 294.506 63.808 294.41 63.808C293.194 63.808 292.362 64.704 291.978 65.824V64ZM297.728 64H296.464V72H297.824V68.576C297.824 67.616 297.856 66.544 298.624 65.776C299.008 65.392 299.552 65.152 300.384 65.152H300.448V63.824C300.352 63.808 300.256 63.808 300.16 63.808C298.944 63.808 298.112 64.704 297.728 65.824V64ZM304.104 72.192C305.416 72.192 306.424 71.568 306.792 70.544C306.808 71.056 306.856 71.584 306.92 72H308.344C308.152 71.376 308.072 70.528 308.072 69.296V67.136C308.072 64.8 307.112 63.808 304.92 63.808C303.048 63.808 301.768 64.88 301.656 66.512H303.112C303.176 65.504 303.848 64.928 304.936 64.928C306.168 64.928 306.696 65.52 306.696 66.992V67.12L305.208 67.296C303.896 67.456 303.128 67.648 302.52 67.952C301.8 68.352 301.4 69.04 301.4 69.84C301.4 71.264 302.472 72.192 304.104 72.192ZM304.408 71.072C303.432 71.072 302.84 70.592 302.84 69.808C302.84 69.024 303.352 68.608 304.536 68.432L306.712 68.112V68.512C306.712 70.064 305.8 71.072 304.408 71.072ZM310.745 60.4V72H312.105V60.4H310.745ZM317.699 72.192C319.651 72.192 320.755 71.184 320.755 69.744C320.755 68.576 320.115 67.84 318.675 67.568L317.123 67.28C316.339 67.136 315.891 66.816 315.891 66.144C315.891 65.36 316.515 64.912 317.539 64.912C318.627 64.912 319.251 65.472 319.427 66.272L320.771 65.968C320.611 64.624 319.395 63.808 317.603 63.808C315.715 63.808 314.563 64.832 314.563 66.208C314.563 67.424 315.331 68.192 316.691 68.448L318.259 68.736C318.979 68.864 319.411 69.152 319.411 69.856C319.411 70.544 318.819 71.072 317.747 71.072C316.579 71.072 315.827 70.496 315.635 69.488L314.259 69.728C314.531 71.312 315.811 72.192 317.699 72.192ZM204.642 86.12V90.6C204.642 92.088 205.09 93.144 206.818 93.144C207.33 93.144 207.65 93.096 208.002 93V91.752C207.73 91.816 207.522 91.864 207.17 91.864C206.354 91.864 206.002 91.464 206.002 90.552V86.12H208.002V85H206.002V82.328L204.642 82.904V85H203.154V86.12H204.642ZM212.925 93.192C215.181 93.192 216.653 91.608 216.653 89C216.653 86.392 215.181 84.808 212.925 84.808C210.669 84.808 209.197 86.392 209.197 89C209.197 91.608 210.669 93.192 212.925 93.192ZM212.925 92.008C211.485 92.008 210.637 90.984 210.637 89C210.637 87.016 211.485 85.992 212.925 85.992C214.365 85.992 215.213 87.016 215.213 89C215.213 90.984 214.365 92.008 212.925 92.008ZM225.684 93.192C227.636 93.192 228.74 92.184 228.74 90.744C228.74 89.576 228.1 88.84 226.66 88.568L225.108 88.28C224.324 88.136 223.876 87.816 223.876 87.144C223.876 86.36 224.5 85.912 225.524 85.912C226.612 85.912 227.236 86.472 227.412 87.272L228.756 86.968C228.596 85.624 227.38 84.808 225.588 84.808C223.7 84.808 222.548 85.832 222.548 87.208C222.548 88.424 223.316 89.192 224.676 89.448L226.244 89.736C226.964 89.864 227.396 90.152 227.396 90.856C227.396 91.544 226.804 92.072 225.732 92.072C224.564 92.072 223.812 91.496 223.62 90.488L222.244 90.728C222.516 92.312 223.796 93.192 225.684 93.192ZM237.315 88.44C237.315 86.04 236.067 84.808 233.907 84.808C231.619 84.808 230.275 86.424 230.275 89.096C230.275 91.736 231.635 93.192 233.923 93.192C235.539 93.192 236.707 92.424 237.267 90.968L236.147 90.472C235.795 91.448 235.043 91.992 234.019 91.992C232.595 91.992 231.651 90.968 231.635 89.4H237.315V88.44ZM231.635 88.296C231.667 86.792 232.467 85.88 233.875 85.88C235.187 85.88 235.939 86.648 235.939 88.12V88.296H231.635ZM240.821 85H239.557V93H240.917V89.576C240.917 88.616 240.949 87.544 241.717 86.776C242.101 86.392 242.645 86.152 243.477 86.152H243.541V84.824C243.445 84.808 243.349 84.808 243.253 84.808C242.037 84.808 241.205 85.704 240.821 86.824V85ZM248.723 93L251.619 85H250.147L248.355 90.392C248.211 90.824 248.099 91.24 248.019 91.608H247.971C247.891 91.24 247.779 90.824 247.635 90.392L245.843 85H244.371L247.267 93H248.723ZM254.67 83.512V81.8H253.118V83.512H254.67ZM254.574 93V85H253.214V93H254.574ZM260.408 93.192C262.2 93.192 263.4 92.136 263.688 90.312L262.392 90.104C262.184 91.352 261.512 92.008 260.424 92.008C259 92.008 258.168 90.904 258.168 88.984C258.168 87.112 259 85.992 260.376 85.992C261.464 85.992 262.168 86.664 262.312 87.88L263.704 87.72C263.496 85.88 262.28 84.808 260.408 84.808C258.136 84.808 256.728 86.392 256.728 89C256.728 91.56 258.168 93.192 260.408 93.192ZM272.19 88.44C272.19 86.04 270.942 84.808 268.782 84.808C266.494 84.808 265.15 86.424 265.15 89.096C265.15 91.736 266.51 93.192 268.798 93.192C270.414 93.192 271.582 92.424 272.142 90.968L271.022 90.472C270.67 91.448 269.918 91.992 268.894 91.992C267.47 91.992 266.526 90.968 266.51 89.4H272.19V88.44ZM266.51 88.296C266.542 86.792 267.342 85.88 268.75 85.88C270.062 85.88 270.814 86.648 270.814 88.12V88.296H266.51ZM277.152 93.192C279.104 93.192 280.208 92.184 280.208 90.744C280.208 89.576 279.568 88.84 278.128 88.568L276.576 88.28C275.792 88.136 275.344 87.816 275.344 87.144C275.344 86.36 275.968 85.912 276.992 85.912C278.08 85.912 278.704 86.472 278.88 87.272L280.224 86.968C280.064 85.624 278.848 84.808 277.056 84.808C275.168 84.808 274.016 85.832 274.016 87.208C274.016 88.424 274.784 89.192 276.144 89.448L277.712 89.736C278.432 89.864 278.864 90.152 278.864 90.856C278.864 91.544 278.272 92.072 277.2 92.072C276.032 92.072 275.28 91.496 275.088 90.488L273.712 90.728C273.984 92.312 275.264 93.192 277.152 93.192ZM208.178 114.192C210.178 114.192 211.474 112.496 211.474 110C211.474 107.552 210.21 105.808 208.258 105.808C207.01 105.808 206.13 106.496 205.714 107.392V102.4H204.354V114H205.394L205.634 112.624C206.05 113.552 206.962 114.192 208.178 114.192ZM207.81 112.992C206.466 112.992 205.682 111.904 205.682 110.24V109.824C205.682 108.08 206.482 107.008 207.826 107.008C209.25 107.008 210.034 108.208 210.034 110C210.034 111.824 209.202 112.992 207.81 112.992ZM215.62 114.192C216.932 114.192 217.94 113.568 218.308 112.544C218.324 113.056 218.372 113.584 218.436 114H219.86C219.668 113.376 219.588 112.528 219.588 111.296V109.136C219.588 106.8 218.628 105.808 216.436 105.808C214.564 105.808 213.284 106.88 213.172 108.512H214.628C214.692 107.504 215.364 106.928 216.452 106.928C217.684 106.928 218.212 107.52 218.212 108.992V109.12L216.724 109.296C215.412 109.456 214.644 109.648 214.036 109.952C213.316 110.352 212.916 111.04 212.916 111.84C212.916 113.264 213.988 114.192 215.62 114.192ZM215.924 113.072C214.948 113.072 214.356 112.592 214.356 111.808C214.356 111.024 214.868 110.608 216.052 110.432L218.228 110.112V110.512C218.228 112.064 217.316 113.072 215.924 113.072ZM224.981 114.192C226.933 114.192 228.037 113.184 228.037 111.744C228.037 110.576 227.397 109.84 225.957 109.568L224.405 109.28C223.621 109.136 223.173 108.816 223.173 108.144C223.173 107.36 223.797 106.912 224.821 106.912C225.909 106.912 226.533 107.472 226.709 108.272L228.053 107.968C227.893 106.624 226.677 105.808 224.885 105.808C222.997 105.808 221.845 106.832 221.845 108.208C221.845 109.424 222.613 110.192 223.973 110.448L225.541 110.736C226.261 110.864 226.693 111.152 226.693 111.856C226.693 112.544 226.101 113.072 225.029 113.072C223.861 113.072 223.109 112.496 222.917 111.488L221.541 111.728C221.813 113.312 223.093 114.192 224.981 114.192ZM236.612 109.44C236.612 107.04 235.364 105.808 233.204 105.808C230.916 105.808 229.572 107.424 229.572 110.096C229.572 112.736 230.932 114.192 233.22 114.192C234.836 114.192 236.004 113.424 236.564 111.968L235.444 111.472C235.092 112.448 234.34 112.992 233.316 112.992C231.892 112.992 230.948 111.968 230.932 110.4H236.612V109.44ZM230.932 109.296C230.964 107.792 231.764 106.88 233.172 106.88C234.484 106.88 235.236 107.648 235.236 109.12V109.296H230.932ZM241.382 114.192C242.63 114.192 243.494 113.584 243.974 112.512V114H245.254V102.4H243.894V107.184C243.382 106.24 242.598 105.808 241.542 105.808C239.542 105.808 238.134 107.536 238.134 110C238.134 112.512 239.446 114.192 241.382 114.192ZM241.75 112.992C240.39 112.992 239.574 111.872 239.574 110C239.574 108.112 240.39 107.008 241.75 107.008C243.094 107.008 243.926 108.08 243.926 109.824V110.192C243.926 111.904 243.078 112.992 241.75 112.992ZM255.3 114.192C257.556 114.192 259.028 112.608 259.028 110C259.028 107.392 257.556 105.808 255.3 105.808C253.044 105.808 251.572 107.392 251.572 110C251.572 112.608 253.044 114.192 255.3 114.192ZM255.3 113.008C253.86 113.008 253.012 111.984 253.012 110C253.012 108.016 253.86 106.992 255.3 106.992C256.74 106.992 257.588 108.016 257.588 110C257.588 111.984 256.74 113.008 255.3 113.008ZM262.542 114V109.824C262.542 108.048 263.358 106.976 264.686 106.976C265.854 106.976 266.446 107.696 266.446 109.104V114H267.806V109.024C267.806 106.896 266.894 105.808 265.134 105.808C263.87 105.808 262.99 106.384 262.462 107.584V106H261.182V114H262.542ZM275.964 114V109.824C275.964 108.048 276.78 106.976 278.108 106.976C279.276 106.976 279.868 107.696 279.868 109.104V114H281.228V109.024C281.228 106.896 280.316 105.808 278.556 105.808C277.292 105.808 276.412 106.384 275.884 107.584V106H274.604V114H275.964ZM290.19 109.44C290.19 107.04 288.942 105.808 286.782 105.808C284.494 105.808 283.15 107.424 283.15 110.096C283.15 112.736 284.51 114.192 286.798 114.192C288.414 114.192 289.582 113.424 290.142 111.968L289.022 111.472C288.67 112.448 287.918 112.992 286.894 112.992C285.47 112.992 284.526 111.968 284.51 110.4H290.19V109.44ZM284.51 109.296C284.542 107.792 285.342 106.88 286.75 106.88C288.062 106.88 288.814 107.648 288.814 109.12V109.296H284.51ZM298.752 109.44C298.752 107.04 297.504 105.808 295.344 105.808C293.056 105.808 291.712 107.424 291.712 110.096C291.712 112.736 293.072 114.192 295.36 114.192C296.976 114.192 298.144 113.424 298.704 111.968L297.584 111.472C297.232 112.448 296.48 112.992 295.456 112.992C294.032 112.992 293.088 111.968 293.072 110.4H298.752V109.44ZM293.072 109.296C293.104 107.792 293.904 106.88 295.312 106.88C296.624 106.88 297.376 107.648 297.376 109.12V109.296H293.072ZM303.523 114.192C304.771 114.192 305.635 113.584 306.115 112.512V114H307.395V102.4H306.035V107.184C305.523 106.24 304.739 105.808 303.683 105.808C301.683 105.808 300.275 107.536 300.275 110C300.275 112.512 301.587 114.192 303.523 114.192ZM303.891 112.992C302.531 112.992 301.715 111.872 301.715 110C301.715 108.112 302.531 107.008 303.891 107.008C305.235 107.008 306.067 108.08 306.067 109.824V110.192C306.067 111.904 305.219 112.992 303.891 112.992ZM312.996 114.192C314.948 114.192 316.052 113.184 316.052 111.744C316.052 110.576 315.412 109.84 313.972 109.568L312.42 109.28C311.636 109.136 311.188 108.816 311.188 108.144C311.188 107.36 311.812 106.912 312.836 106.912C313.924 106.912 314.548 107.472 314.724 108.272L316.068 107.968C315.908 106.624 314.692 105.808 312.9 105.808C311.012 105.808 309.86 106.832 309.86 108.208C309.86 109.424 310.628 110.192 311.988 110.448L313.556 110.736C314.276 110.864 314.708 111.152 314.708 111.856C314.708 112.544 314.116 113.072 313.044 113.072C311.876 113.072 311.124 112.496 310.932 111.488L309.556 111.728C309.828 113.312 311.108 114.192 312.996 114.192Z" fill="black"/>
<path d="M0 0H165.835L185.5 78L165.835 156H0V0Z" fill="#E2231A"/>
<path d="M29.3916 45.4662C32.6676 45.4662 34.3236 43.7382 34.3236 41.5422C34.3236 39.2742 32.9196 38.3022 30.8136 37.8522L28.9416 37.4562C27.5556 37.1502 26.9616 36.6102 26.9616 35.5662C26.9616 34.4862 27.8976 33.8382 29.3016 33.8382C30.9936 33.8382 32.0556 34.6842 32.4696 36.1602L34.3056 35.1882C33.7476 33.0642 31.8216 32.0742 29.4096 32.0742C26.5296 32.0742 24.7116 33.5322 24.7116 35.7462C24.7116 37.9242 26.0616 39.0042 28.0776 39.4182L29.8596 39.7962C31.2636 40.0842 32.0196 40.5162 32.0196 41.7582C32.0196 43.0902 30.7956 43.6122 29.4816 43.6122C27.4836 43.6122 26.4396 42.4602 26.0256 41.0202L24.0456 41.8842C24.5676 43.9722 26.3676 45.4662 29.3916 45.4662ZM40.0627 45.3762C42.2047 45.3762 43.7167 44.1522 44.0407 42.1542L42.0067 41.7402C41.8087 43.0002 41.1427 43.6662 40.0627 43.6662C38.6767 43.6662 37.8667 42.5502 37.8667 40.6062C37.8667 38.7522 38.6947 37.6362 40.0267 37.6362C41.0887 37.6362 41.7907 38.3022 41.9347 39.5262L44.0407 39.1842C43.7707 37.1322 42.3127 35.9442 40.0807 35.9442C37.3447 35.9442 35.6527 37.7262 35.6527 40.6602C35.6527 43.5222 37.3807 45.3762 40.0627 45.3762ZM48.1454 36.1602H46.1294V45.1602H48.2894V41.3982C48.2894 40.3902 48.3794 39.3642 49.0994 38.6622C49.5134 38.2662 50.1074 38.0322 50.9714 38.0322H51.2594V35.9622C51.1694 35.9442 51.0974 35.9442 51.0074 35.9442C49.5494 35.9442 48.5954 36.9162 48.1454 38.3382V36.1602ZM60.5997 40.2102C60.5997 37.4562 59.1057 35.9442 56.4957 35.9442C53.8137 35.9442 52.1937 37.7802 52.1937 40.7502C52.1937 43.7022 53.8497 45.3762 56.6037 45.3762C58.4397 45.3762 59.8617 44.5122 60.5277 42.9462L58.8717 42.1902C58.4577 43.1622 57.7017 43.6842 56.6757 43.6842C55.2537 43.6842 54.2997 42.7122 54.2817 41.2002H60.5997V40.2102ZM54.2817 39.7782C54.3177 38.2842 55.0917 37.3842 56.4597 37.3842C57.7377 37.3842 58.4757 38.1582 58.4757 39.6342V39.7782H54.2817ZM70.461 40.2102C70.461 37.4562 68.967 35.9442 66.357 35.9442C63.675 35.9442 62.055 37.7802 62.055 40.7502C62.055 43.7022 63.711 45.3762 66.465 45.3762C68.301 45.3762 69.723 44.5122 70.389 42.9462L68.733 42.1902C68.319 43.1622 67.563 43.6842 66.537 43.6842C65.115 43.6842 64.161 42.7122 64.143 41.2002H70.461V40.2102ZM64.143 39.7782C64.179 38.2842 64.953 37.3842 66.321 37.3842C67.599 37.3842 68.337 38.1582 68.337 39.6342V39.7782H64.143ZM74.8324 45.1602V40.3902C74.8324 38.6802 75.5884 37.6722 76.8484 37.6722C77.9824 37.6722 78.5224 38.3742 78.5224 39.7962V45.1602H80.7004V39.5802C80.7004 37.1682 79.6744 35.9442 77.7124 35.9442C76.3264 35.9442 75.3364 36.5922 74.7244 37.9062V36.1602H72.6724V45.1602H74.8324ZM85.5923 34.6662V32.4162H83.2523V34.6662H85.5923ZM85.5023 45.1602V36.1602H83.3423V45.1602H85.5023ZM90.5296 45.1602V40.3902C90.5296 38.6802 91.2856 37.6722 92.5456 37.6722C93.6796 37.6722 94.2196 38.3742 94.2196 39.7962V45.1602H96.3976V39.5802C96.3976 37.1682 95.3716 35.9442 93.4096 35.9442C92.0236 35.9442 91.0336 36.5922 90.4216 37.9062V36.1602H88.3696V45.1602H90.5296ZM106.528 36.2322C106.798 36.2322 107.032 36.2682 107.266 36.3222V34.7022C107.086 34.6662 106.942 34.6482 106.762 34.6482C105.466 34.6482 104.692 35.3322 104.404 36.3042C103.864 36.0702 103.234 35.9442 102.496 35.9442C100.21 35.9442 98.8055 37.1862 98.8055 38.9682C98.8055 39.9222 99.2015 40.7142 99.9035 41.2722C99.0395 41.6142 98.4815 42.2622 98.4815 43.1802C98.4815 43.8822 98.8235 44.4762 99.6155 44.8002C98.6435 45.1062 98.1215 45.7722 98.1215 46.5642C98.1215 47.8422 99.2555 48.8862 102.352 48.8862C105.592 48.8862 107.158 47.6802 107.158 45.8262C107.158 44.1522 106.078 43.2342 103.972 43.2342H101.614C100.624 43.2342 100.246 42.8922 100.246 42.4062C100.246 42.1002 100.426 41.8662 100.696 41.7222C101.2 41.9202 101.812 42.0462 102.496 42.0462C104.8 42.0462 106.204 40.7502 106.204 38.9682C106.204 38.0862 105.862 37.3482 105.25 36.8082C105.52 36.4122 105.934 36.2322 106.528 36.2322ZM102.496 40.7322C101.488 40.7322 100.84 39.9942 100.84 38.9682C100.84 37.9602 101.488 37.2582 102.496 37.2582C103.504 37.2582 104.152 37.9602 104.152 38.9862C104.152 39.9942 103.504 40.7322 102.496 40.7322ZM103.648 45.0882C104.674 45.0882 105.196 45.4662 105.196 46.1862C105.196 46.9242 104.548 47.4822 102.496 47.4822C100.948 47.4822 99.9215 47.1222 99.9215 46.1682C99.9215 45.7362 100.12 45.3222 100.57 45.0342C100.786 45.0702 101.038 45.0702 101.308 45.0702L103.648 45.0882Z" fill="white"/>
<path d="M29.4356 72.605C32.1716 72.605 33.5476 70.909 33.9796 68.765L32.5076 68.509C32.1876 70.205 31.0516 71.277 29.4356 71.277C27.1156 71.277 25.9156 69.261 25.9156 66.605C25.9156 63.853 27.1796 61.997 29.4036 61.997C31.1636 61.997 32.2036 63.133 32.4276 64.845L33.9796 64.685C33.6916 62.333 32.2516 60.701 29.4836 60.701C26.1076 60.701 24.3156 63.133 24.3156 66.621C24.3156 69.917 25.9156 72.605 29.4356 72.605ZM37.4268 72.333V68.157C37.4268 66.349 38.2108 65.309 39.5868 65.309C40.7388 65.309 41.3308 66.045 41.3308 67.453V72.333H42.6908V67.357C42.6908 65.245 41.7788 64.141 40.0508 64.141C38.8028 64.141 37.9068 64.717 37.4268 65.837V60.733H36.0668V72.333H37.4268ZM51.6525 67.773C51.6525 65.373 50.4045 64.141 48.2445 64.141C45.9565 64.141 44.6125 65.757 44.6125 68.429C44.6125 71.069 45.9725 72.525 48.2605 72.525C49.8765 72.525 51.0445 71.757 51.6045 70.301L50.4845 69.805C50.1325 70.781 49.3805 71.325 48.3565 71.325C46.9325 71.325 45.9885 70.301 45.9725 68.733H51.6525V67.773ZM45.9725 67.629C46.0045 66.125 46.8045 65.213 48.2125 65.213C49.5245 65.213 50.2765 65.981 50.2765 67.453V67.629H45.9725ZM56.855 72.525C58.647 72.525 59.847 71.469 60.135 69.645L58.839 69.437C58.631 70.685 57.959 71.341 56.871 71.341C55.447 71.341 54.615 70.237 54.615 68.317C54.615 66.445 55.447 65.325 56.823 65.325C57.911 65.325 58.615 65.997 58.759 67.213L60.151 67.053C59.943 65.213 58.727 64.141 56.855 64.141C54.583 64.141 53.175 65.725 53.175 68.333C53.175 70.893 54.615 72.525 56.855 72.525ZM69.2288 72.333L66.1088 67.421L69.0368 64.333H67.2608L63.6768 68.269V60.733H62.3168V72.333H63.6768V69.885L65.1328 68.413L67.5488 72.333H69.2288ZM78.8268 72.605C81.6588 72.605 82.9708 71.021 82.9708 69.261C82.9708 67.197 81.5948 66.413 79.8348 66.045L78.1708 65.693C76.9068 65.421 76.3148 64.845 76.3148 63.741C76.3148 62.589 77.2748 61.901 78.6668 61.901C80.3468 61.901 81.1948 62.733 81.3868 64.253L82.9068 63.933C82.6828 61.709 80.9548 60.701 78.6988 60.701C76.2828 60.701 74.7468 61.981 74.7468 63.885C74.7468 65.837 75.9788 66.685 77.5948 67.021L79.2428 67.357C80.5708 67.629 81.4028 68.061 81.4028 69.405C81.4028 70.845 80.1068 71.357 78.8748 71.357C76.8748 71.357 76.0108 70.125 75.8028 68.733L74.2668 68.957C74.4588 71.037 75.9308 72.605 78.8268 72.605ZM88.9072 72.333C92.2192 72.333 94.3312 69.949 94.3312 66.637C94.3312 63.261 92.2032 60.973 88.9392 60.973H85.2112V72.333H88.9072ZM86.7312 62.253H88.9072C91.3552 62.253 92.7152 64.109 92.7152 66.637C92.7152 69.069 91.3232 71.053 88.8752 71.053H86.7312V62.253ZM99.653 72.525C101.909 72.525 103.381 70.941 103.381 68.333C103.381 65.725 101.909 64.141 99.653 64.141C97.397 64.141 95.925 65.725 95.925 68.333C95.925 70.941 97.397 72.525 99.653 72.525ZM99.653 71.341C98.213 71.341 97.365 70.317 97.365 68.333C97.365 66.349 98.213 65.325 99.653 65.325C101.093 65.325 101.941 66.349 101.941 68.333C101.941 70.317 101.093 71.341 99.653 71.341ZM112.944 60.973V65.885H107.216V60.973H105.696V72.333H107.216V67.165H112.944V72.333H114.464V60.973H112.944ZM123.021 72.333V68.157C123.021 66.381 123.837 65.309 125.165 65.309C126.333 65.309 126.925 66.029 126.925 67.437V72.333H128.285V67.357C128.285 65.229 127.373 64.141 125.613 64.141C124.349 64.141 123.469 64.717 122.941 65.917V64.333H121.661V72.333H123.021ZM137.246 67.773C137.246 65.373 135.998 64.141 133.838 64.141C131.55 64.141 130.206 65.757 130.206 68.429C130.206 71.069 131.566 72.525 133.854 72.525C135.47 72.525 136.638 71.757 137.198 70.301L136.078 69.805C135.726 70.781 134.974 71.325 133.95 71.325C132.526 71.325 131.582 70.301 131.566 68.733H137.246V67.773ZM131.566 67.629C131.598 66.125 132.398 65.213 133.806 65.213C135.118 65.213 135.87 65.981 135.87 67.453V67.629H131.566ZM145.809 67.773C145.809 65.373 144.561 64.141 142.401 64.141C140.113 64.141 138.769 65.757 138.769 68.429C138.769 71.069 140.129 72.525 142.417 72.525C144.033 72.525 145.201 71.757 145.761 70.301L144.641 69.805C144.289 70.781 143.537 71.325 142.513 71.325C141.089 71.325 140.145 70.301 140.129 68.733H145.809V67.773ZM140.129 67.629C140.161 66.125 140.961 65.213 142.369 65.213C143.681 65.213 144.433 65.981 144.433 67.453V67.629H140.129ZM150.579 72.525C151.827 72.525 152.691 71.917 153.171 70.845V72.333H154.451V60.733H153.091V65.517C152.579 64.573 151.795 64.141 150.739 64.141C148.739 64.141 147.331 65.869 147.331 68.333C147.331 70.845 148.643 72.525 150.579 72.525ZM150.947 71.325C149.587 71.325 148.771 70.205 148.771 68.333C148.771 66.445 149.587 65.341 150.947 65.341C152.291 65.341 153.123 66.413 153.123 68.157V68.525C153.123 70.237 152.275 71.325 150.947 71.325ZM160.052 72.525C162.004 72.525 163.108 71.517 163.108 70.077C163.108 68.909 162.468 68.173 161.028 67.901L159.476 67.613C158.692 67.469 158.244 67.149 158.244 66.477C158.244 65.693 158.868 65.245 159.892 65.245C160.98 65.245 161.604 65.805 161.78 66.605L163.124 66.301C162.964 64.957 161.748 64.141 159.956 64.141C158.068 64.141 156.916 65.165 156.916 66.541C156.916 67.757 157.684 68.525 159.044 68.781L160.612 69.069C161.332 69.197 161.764 69.485 161.764 70.189C161.764 70.877 161.172 71.405 160.1 71.405C158.932 71.405 158.18 70.829 157.988 69.821L156.612 70.061C156.884 71.645 158.164 72.525 160.052 72.525Z" fill="white"/>
</svg>
