<svg width="331" height="693" viewBox="0 0 331 693" fill="none" xmlns="http://www.w3.org/2000/svg">
<path d="M331 171L331 335.321L165.5 355L1.57476e-05 335.321L3.05176e-05 171L165.5 190.679L331 171Z" fill="#FF938E"/>
<path d="M331 0L331 166.282L165.5 186L1.55713e-05 166.282L3.05176e-05 -7.03607e-06L331 0Z" fill="#E2231A"/>
<path d="M331 509L331 673.321L165.5 693L1.57476e-05 673.321L3.05176e-05 509L165.5 528.679L331 509Z" fill="black"/>
<path d="M331 340L331 504.321L165.5 524L1.57476e-05 504.321L3.05176e-05 340L165.5 359.679L331 340Z" fill="white"/>
<path d="M99.8466 251.442C104.345 251.442 106.867 248.816 107.647 245.124L104.319 244.448C103.851 247.048 102.239 248.634 99.8726 248.634C96.4926 248.634 94.6726 245.748 94.6726 241.718C94.6726 237.584 96.5446 234.854 99.7946 234.854C102.343 234.854 103.877 236.518 104.189 239.144L107.621 238.65C107.127 234.724 104.501 232.098 99.8986 232.098C94.3606 232.098 91.2146 235.998 91.2146 241.744C91.2146 247.334 94.0486 251.442 99.8466 251.442ZM116.069 251.312C119.813 251.312 122.439 248.842 122.439 244.474C122.439 240.132 119.813 237.688 116.069 237.688C112.325 237.688 109.699 240.132 109.699 244.474C109.699 248.842 112.325 251.312 116.069 251.312ZM116.069 248.946C114.067 248.946 112.871 247.438 112.871 244.474C112.871 241.51 114.067 240.054 116.069 240.054C118.071 240.054 119.241 241.51 119.241 244.474C119.241 247.438 118.071 248.946 116.069 248.946ZM128.638 251V244.11C128.638 241.64 129.73 240.184 131.55 240.184C133.188 240.184 133.968 241.198 133.968 243.252V251H137.114V242.94C137.114 239.456 135.632 237.688 132.798 237.688C130.796 237.688 129.366 238.624 128.482 240.522V238H125.518V251H128.638ZM144.05 251V244.11C144.05 241.64 145.142 240.184 146.962 240.184C148.6 240.184 149.38 241.198 149.38 243.252V251H152.526V242.94C152.526 239.456 151.044 237.688 148.21 237.688C146.208 237.688 144.778 238.624 143.894 240.522V238H140.93V251H144.05ZM167.392 243.85C167.392 239.872 165.234 237.688 161.464 237.688C157.59 237.688 155.25 240.34 155.25 244.63C155.25 248.894 157.642 251.312 161.62 251.312C164.272 251.312 166.326 250.064 167.288 247.802L164.896 246.71C164.298 248.114 163.206 248.868 161.724 248.868C159.67 248.868 158.292 247.464 158.266 245.28H167.392V243.85ZM158.266 243.226C158.318 241.068 159.436 239.768 161.412 239.768C163.258 239.768 164.324 240.886 164.324 243.018V243.226H158.266ZM175.864 251.312C178.958 251.312 181.142 249.544 181.61 246.658L178.672 246.06C178.386 247.88 177.424 248.842 175.864 248.842C173.862 248.842 172.692 247.23 172.692 244.422C172.692 241.744 173.888 240.132 175.812 240.132C177.346 240.132 178.36 241.094 178.568 242.862L181.61 242.368C181.22 239.404 179.114 237.688 175.89 237.688C171.938 237.688 169.494 240.262 169.494 244.5C169.494 248.634 171.99 251.312 175.864 251.312ZM185.122 240.262V246.97C185.122 249.596 186.162 251.234 189.282 251.234C190.088 251.234 190.66 251.156 191.414 251V248.374C190.998 248.452 190.66 248.53 190.14 248.53C188.84 248.53 188.242 247.854 188.242 246.476V240.262H191.414V238H188.242V233.476L185.122 234.724V238H182.782V240.262H185.122ZM197.525 235.842V232.592H194.145V235.842H197.525ZM197.395 251V238H194.275V251H197.395ZM206.815 251.312C210.559 251.312 213.185 248.842 213.185 244.474C213.185 240.132 210.559 237.688 206.815 237.688C203.071 237.688 200.445 240.132 200.445 244.474C200.445 248.842 203.071 251.312 206.815 251.312ZM206.815 248.946C204.813 248.946 203.617 247.438 203.617 244.474C203.617 241.51 204.813 240.054 206.815 240.054C208.817 240.054 209.987 241.51 209.987 244.474C209.987 247.438 208.817 248.946 206.815 248.946ZM219.384 251V244.11C219.384 241.64 220.476 240.184 222.296 240.184C223.934 240.184 224.714 241.198 224.714 243.252V251H227.86V242.94C227.86 239.456 226.378 237.688 223.544 237.688C221.542 237.688 220.112 238.624 219.228 240.522V238H216.264V251H219.384ZM236.434 251.312C239.84 251.312 241.764 249.648 241.764 247.204C241.764 245.15 240.698 243.902 238.176 243.46L235.628 242.992C234.484 242.784 233.912 242.394 233.912 241.51C233.912 240.496 234.718 239.95 236.174 239.95C237.89 239.95 239.034 240.678 239.658 241.848L241.842 240.678C241.218 238.806 239.112 237.688 236.356 237.688C233.054 237.688 231.052 239.352 231.052 241.692C231.052 243.772 232.326 245.046 234.77 245.488L237.084 245.904C238.358 246.112 238.93 246.476 238.93 247.412C238.93 248.348 238.098 249.024 236.512 249.024C234.666 249.024 233.366 248.192 232.768 246.736L230.454 247.776C231.26 250.064 233.47 251.312 236.434 251.312Z" fill="black"/>
<path d="M68.1391 268.64V280H69.6591V275.36H72.1711C74.5231 275.36 76.0271 274.048 76.0271 272C76.0271 269.952 74.5231 268.64 72.1711 268.64H68.1391ZM69.6591 274.08V269.92H72.0111C73.4831 269.92 74.4271 270.736 74.4271 272C74.4271 273.264 73.4831 274.08 72.0111 274.08H69.6591ZM79.2118 272H77.9478V280H79.3078V276.576C79.3078 275.616 79.3398 274.544 80.1078 273.776C80.4918 273.392 81.0358 273.152 81.8678 273.152H81.9318V271.824C81.8358 271.808 81.7398 271.808 81.6438 271.808C80.4278 271.808 79.5958 272.704 79.2118 273.824V272ZM86.6277 280.192C88.8837 280.192 90.3557 278.608 90.3557 276C90.3557 273.392 88.8837 271.808 86.6277 271.808C84.3717 271.808 82.8997 273.392 82.8997 276C82.8997 278.608 84.3717 280.192 86.6277 280.192ZM86.6277 279.008C85.1877 279.008 84.3397 277.984 84.3397 276C84.3397 274.016 85.1877 272.992 86.6277 272.992C88.0677 272.992 88.9157 274.016 88.9157 276C88.9157 277.984 88.0677 279.008 86.6277 279.008ZM95.5042 280L98.4002 272H96.9282L95.1362 277.392C94.9922 277.824 94.8802 278.24 94.8002 278.608H94.7522C94.6722 278.24 94.5602 277.824 94.4162 277.392L92.6242 272H91.1522L94.0482 280H95.5042ZM101.451 270.512V268.8H99.8987V270.512H101.451ZM101.355 280V272H99.9947V280H101.355ZM106.757 280.192C108.005 280.192 108.869 279.584 109.349 278.512V280H110.629V268.4H109.269V273.184C108.757 272.24 107.973 271.808 106.917 271.808C104.917 271.808 103.509 273.536 103.509 276C103.509 278.512 104.821 280.192 106.757 280.192ZM107.125 278.992C105.765 278.992 104.949 277.872 104.949 276C104.949 274.112 105.765 273.008 107.125 273.008C108.469 273.008 109.301 274.08 109.301 275.824V276.192C109.301 277.904 108.453 278.992 107.125 278.992ZM119.83 275.44C119.83 273.04 118.582 271.808 116.422 271.808C114.134 271.808 112.79 273.424 112.79 276.096C112.79 278.736 114.15 280.192 116.438 280.192C118.054 280.192 119.222 279.424 119.782 277.968L118.662 277.472C118.31 278.448 117.558 278.992 116.534 278.992C115.11 278.992 114.166 277.968 114.15 276.4H119.83V275.44ZM114.15 275.296C114.182 273.792 114.982 272.88 116.39 272.88C117.702 272.88 118.454 273.648 118.454 275.12V275.296H114.15ZM127.493 272H126.229V280H127.589V276.576C127.589 275.616 127.621 274.544 128.389 273.776C128.773 273.392 129.317 273.152 130.149 273.152H130.213V271.824C130.117 271.808 130.021 271.808 129.925 271.808C128.709 271.808 127.877 272.704 127.493 273.824V272ZM138.221 275.44C138.221 273.04 136.973 271.808 134.813 271.808C132.525 271.808 131.181 273.424 131.181 276.096C131.181 278.736 132.541 280.192 134.829 280.192C136.445 280.192 137.613 279.424 138.173 277.968L137.053 277.472C136.701 278.448 135.949 278.992 134.925 278.992C133.501 278.992 132.557 277.968 132.541 276.4H138.221V275.44ZM132.541 275.296C132.573 273.792 133.373 272.88 134.781 272.88C136.093 272.88 136.845 273.648 136.845 275.12V275.296H132.541ZM142.175 272V270.928C142.175 269.952 142.511 269.504 143.327 269.504C143.583 269.504 143.887 269.536 144.175 269.584V268.416C143.871 268.336 143.535 268.304 143.151 268.304C141.727 268.304 140.815 269.28 140.815 270.736V272H139.343V273.12H140.815V280H142.175V273.12H144.175V272H142.175ZM152.096 275.44C152.096 273.04 150.848 271.808 148.688 271.808C146.4 271.808 145.056 273.424 145.056 276.096C145.056 278.736 146.416 280.192 148.704 280.192C150.32 280.192 151.488 279.424 152.048 277.968L150.928 277.472C150.576 278.448 149.824 278.992 148.8 278.992C147.376 278.992 146.432 277.968 146.416 276.4H152.096V275.44ZM146.416 275.296C146.448 273.792 147.248 272.88 148.656 272.88C149.968 272.88 150.72 273.648 150.72 275.12V275.296H146.416ZM155.602 272H154.338V280H155.698V276.576C155.698 275.616 155.73 274.544 156.498 273.776C156.882 273.392 157.426 273.152 158.258 273.152H158.322V271.824C158.226 271.808 158.13 271.808 158.034 271.808C156.818 271.808 155.986 272.704 155.602 273.824V272ZM161.352 272H160.088V280H161.448V276.576C161.448 275.616 161.48 274.544 162.248 273.776C162.632 273.392 163.176 273.152 164.008 273.152H164.072V271.824C163.976 271.808 163.88 271.808 163.784 271.808C162.568 271.808 161.736 272.704 161.352 273.824V272ZM167.729 280.192C169.041 280.192 170.049 279.568 170.417 278.544C170.433 279.056 170.481 279.584 170.545 280H171.969C171.777 279.376 171.697 278.528 171.697 277.296V275.136C171.697 272.8 170.737 271.808 168.545 271.808C166.673 271.808 165.393 272.88 165.281 274.512H166.737C166.801 273.504 167.473 272.928 168.561 272.928C169.793 272.928 170.321 273.52 170.321 274.992V275.12L168.833 275.296C167.521 275.456 166.753 275.648 166.145 275.952C165.425 276.352 165.025 277.04 165.025 277.84C165.025 279.264 166.097 280.192 167.729 280.192ZM168.033 279.072C167.057 279.072 166.465 278.592 166.465 277.808C166.465 277.024 166.977 276.608 168.161 276.432L170.337 276.112V276.512C170.337 278.064 169.425 279.072 168.033 279.072ZM174.37 268.4V280H175.73V268.4H174.37ZM181.324 280.192C183.276 280.192 184.38 279.184 184.38 277.744C184.38 276.576 183.74 275.84 182.3 275.568L180.748 275.28C179.964 275.136 179.516 274.816 179.516 274.144C179.516 273.36 180.14 272.912 181.164 272.912C182.252 272.912 182.876 273.472 183.052 274.272L184.396 273.968C184.236 272.624 183.02 271.808 181.228 271.808C179.34 271.808 178.188 272.832 178.188 274.208C178.188 275.424 178.956 276.192 180.316 276.448L181.884 276.736C182.604 276.864 183.036 277.152 183.036 277.856C183.036 278.544 182.444 279.072 181.372 279.072C180.204 279.072 179.452 278.496 179.26 277.488L177.884 277.728C178.156 279.312 179.436 280.192 181.324 280.192ZM191.08 273.12V277.6C191.08 279.088 191.528 280.144 193.256 280.144C193.768 280.144 194.088 280.096 194.44 280V278.752C194.168 278.816 193.96 278.864 193.608 278.864C192.792 278.864 192.44 278.464 192.44 277.552V273.12H194.44V272H192.44V269.328L191.08 269.904V272H189.592V273.12H191.08ZM199.362 280.192C201.618 280.192 203.09 278.608 203.09 276C203.09 273.392 201.618 271.808 199.362 271.808C197.106 271.808 195.634 273.392 195.634 276C195.634 278.608 197.106 280.192 199.362 280.192ZM199.362 279.008C197.922 279.008 197.074 277.984 197.074 276C197.074 274.016 197.922 272.992 199.362 272.992C200.802 272.992 201.65 274.016 201.65 276C201.65 277.984 200.802 279.008 199.362 279.008ZM212.121 280.192C214.073 280.192 215.177 279.184 215.177 277.744C215.177 276.576 214.537 275.84 213.097 275.568L211.545 275.28C210.761 275.136 210.313 274.816 210.313 274.144C210.313 273.36 210.937 272.912 211.961 272.912C213.049 272.912 213.673 273.472 213.849 274.272L215.193 273.968C215.033 272.624 213.817 271.808 212.025 271.808C210.137 271.808 208.985 272.832 208.985 274.208C208.985 275.424 209.753 276.192 211.113 276.448L212.681 276.736C213.401 276.864 213.833 277.152 213.833 277.856C213.833 278.544 213.241 279.072 212.169 279.072C211.001 279.072 210.249 278.496 210.057 277.488L208.681 277.728C208.953 279.312 210.233 280.192 212.121 280.192ZM223.752 275.44C223.752 273.04 222.504 271.808 220.344 271.808C218.056 271.808 216.712 273.424 216.712 276.096C216.712 278.736 218.072 280.192 220.36 280.192C221.976 280.192 223.144 279.424 223.704 277.968L222.584 277.472C222.232 278.448 221.48 278.992 220.456 278.992C219.032 278.992 218.088 277.968 218.072 276.4H223.752V275.44ZM218.072 275.296C218.104 273.792 218.904 272.88 220.312 272.88C221.624 272.88 222.376 273.648 222.376 275.12V275.296H218.072ZM227.259 272H225.995V280H227.355V276.576C227.355 275.616 227.387 274.544 228.155 273.776C228.539 273.392 229.083 273.152 229.915 273.152H229.979V271.824C229.883 271.808 229.787 271.808 229.691 271.808C228.475 271.808 227.643 272.704 227.259 273.824V272ZM235.16 280L238.056 272H236.584L234.792 277.392C234.648 277.824 234.536 278.24 234.456 278.608H234.408C234.328 278.24 234.216 277.824 234.072 277.392L232.28 272H230.808L233.704 280H235.16ZM241.107 270.512V268.8H239.555V270.512H241.107ZM241.011 280V272H239.651V280H241.011ZM246.845 280.192C248.637 280.192 249.837 279.136 250.125 277.312L248.829 277.104C248.621 278.352 247.949 279.008 246.861 279.008C245.437 279.008 244.605 277.904 244.605 275.984C244.605 274.112 245.437 272.992 246.813 272.992C247.901 272.992 248.605 273.664 248.749 274.88L250.141 274.72C249.933 272.88 248.717 271.808 246.845 271.808C244.573 271.808 243.165 273.392 243.165 276C243.165 278.56 244.605 280.192 246.845 280.192ZM258.627 275.44C258.627 273.04 257.379 271.808 255.219 271.808C252.931 271.808 251.587 273.424 251.587 276.096C251.587 278.736 252.947 280.192 255.235 280.192C256.851 280.192 258.019 279.424 258.579 277.968L257.459 277.472C257.107 278.448 256.355 278.992 255.331 278.992C253.907 278.992 252.963 277.968 252.947 276.4H258.627V275.44ZM252.947 275.296C252.979 273.792 253.779 272.88 255.187 272.88C256.499 272.88 257.251 273.648 257.251 275.12V275.296H252.947ZM263.59 280.192C265.542 280.192 266.646 279.184 266.646 277.744C266.646 276.576 266.006 275.84 264.566 275.568L263.014 275.28C262.23 275.136 261.782 274.816 261.782 274.144C261.782 273.36 262.406 272.912 263.43 272.912C264.518 272.912 265.142 273.472 265.318 274.272L266.662 273.968C266.502 272.624 265.286 271.808 263.494 271.808C261.606 271.808 260.454 272.832 260.454 274.208C260.454 275.424 261.222 276.192 262.582 276.448L264.15 276.736C264.87 276.864 265.302 277.152 265.302 277.856C265.302 278.544 264.71 279.072 263.638 279.072C262.47 279.072 261.718 278.496 261.526 277.488L260.15 277.728C260.422 279.312 261.702 280.192 263.59 280.192ZM115.287 301.192C117.287 301.192 118.583 299.496 118.583 297C118.583 294.552 117.319 292.808 115.367 292.808C114.119 292.808 113.239 293.496 112.823 294.392V289.4H111.463V301H112.503L112.743 299.624C113.159 300.552 114.071 301.192 115.287 301.192ZM114.919 299.992C113.575 299.992 112.791 298.904 112.791 297.24V296.824C112.791 295.08 113.591 294.008 114.935 294.008C116.359 294.008 117.143 295.208 117.143 297C117.143 298.824 116.311 299.992 114.919 299.992ZM122.729 301.192C124.041 301.192 125.049 300.568 125.417 299.544C125.433 300.056 125.481 300.584 125.545 301H126.969C126.777 300.376 126.697 299.528 126.697 298.296V296.136C126.697 293.8 125.737 292.808 123.545 292.808C121.673 292.808 120.393 293.88 120.281 295.512H121.737C121.801 294.504 122.473 293.928 123.561 293.928C124.793 293.928 125.321 294.52 125.321 295.992V296.12L123.833 296.296C122.521 296.456 121.753 296.648 121.145 296.952C120.425 297.352 120.025 298.04 120.025 298.84C120.025 300.264 121.097 301.192 122.729 301.192ZM123.033 300.072C122.057 300.072 121.465 299.592 121.465 298.808C121.465 298.024 121.977 297.608 123.161 297.432L125.337 297.112V297.512C125.337 299.064 124.425 300.072 123.033 300.072ZM132.09 301.192C134.042 301.192 135.146 300.184 135.146 298.744C135.146 297.576 134.506 296.84 133.066 296.568L131.514 296.28C130.73 296.136 130.282 295.816 130.282 295.144C130.282 294.36 130.906 293.912 131.93 293.912C133.018 293.912 133.642 294.472 133.818 295.272L135.162 294.968C135.002 293.624 133.786 292.808 131.994 292.808C130.106 292.808 128.954 293.832 128.954 295.208C128.954 296.424 129.722 297.192 131.082 297.448L132.65 297.736C133.37 297.864 133.802 298.152 133.802 298.856C133.802 299.544 133.21 300.072 132.138 300.072C130.97 300.072 130.218 299.496 130.026 298.488L128.65 298.728C128.922 300.312 130.202 301.192 132.09 301.192ZM143.721 296.44C143.721 294.04 142.473 292.808 140.313 292.808C138.025 292.808 136.681 294.424 136.681 297.096C136.681 299.736 138.041 301.192 140.329 301.192C141.945 301.192 143.113 300.424 143.673 298.968L142.553 298.472C142.201 299.448 141.449 299.992 140.425 299.992C139.001 299.992 138.057 298.968 138.041 297.4H143.721V296.44ZM138.041 296.296C138.073 294.792 138.873 293.88 140.281 293.88C141.593 293.88 142.345 294.648 142.345 296.12V296.296H138.041ZM148.491 301.192C149.739 301.192 150.603 300.584 151.083 299.512V301H152.363V289.4H151.003V294.184C150.491 293.24 149.707 292.808 148.651 292.808C146.651 292.808 145.243 294.536 145.243 297C145.243 299.512 146.555 301.192 148.491 301.192ZM148.859 299.992C147.499 299.992 146.683 298.872 146.683 297C146.683 295.112 147.499 294.008 148.859 294.008C150.203 294.008 151.035 295.08 151.035 296.824V297.192C151.035 298.904 150.187 299.992 148.859 299.992ZM162.409 301.192C164.665 301.192 166.137 299.608 166.137 297C166.137 294.392 164.665 292.808 162.409 292.808C160.153 292.808 158.681 294.392 158.681 297C158.681 299.608 160.153 301.192 162.409 301.192ZM162.409 300.008C160.969 300.008 160.121 298.984 160.121 297C160.121 295.016 160.969 293.992 162.409 293.992C163.849 293.992 164.697 295.016 164.697 297C164.697 298.984 163.849 300.008 162.409 300.008ZM169.652 301V296.824C169.652 295.048 170.468 293.976 171.796 293.976C172.964 293.976 173.556 294.696 173.556 296.104V301H174.916V296.024C174.916 293.896 174.004 292.808 172.244 292.808C170.98 292.808 170.1 293.384 169.572 294.584V293H168.292V301H169.652ZM183.073 301V296.824C183.073 295.048 183.889 293.976 185.217 293.976C186.385 293.976 186.977 294.696 186.977 296.104V301H188.337V296.024C188.337 293.896 187.425 292.808 185.665 292.808C184.401 292.808 183.521 293.384 182.993 294.584V293H181.713V301H183.073ZM197.299 296.44C197.299 294.04 196.051 292.808 193.891 292.808C191.603 292.808 190.259 294.424 190.259 297.096C190.259 299.736 191.619 301.192 193.907 301.192C195.523 301.192 196.691 300.424 197.251 298.968L196.131 298.472C195.779 299.448 195.027 299.992 194.003 299.992C192.579 299.992 191.635 298.968 191.619 297.4H197.299V296.44ZM191.619 296.296C191.651 294.792 192.451 293.88 193.859 293.88C195.171 293.88 195.923 294.648 195.923 296.12V296.296H191.619ZM205.862 296.44C205.862 294.04 204.614 292.808 202.454 292.808C200.166 292.808 198.822 294.424 198.822 297.096C198.822 299.736 200.182 301.192 202.47 301.192C204.086 301.192 205.254 300.424 205.814 298.968L204.694 298.472C204.342 299.448 203.59 299.992 202.566 299.992C201.142 299.992 200.198 298.968 200.182 297.4H205.862V296.44ZM200.182 296.296C200.214 294.792 201.014 293.88 202.422 293.88C203.734 293.88 204.486 294.648 204.486 296.12V296.296H200.182ZM210.632 301.192C211.88 301.192 212.744 300.584 213.224 299.512V301H214.504V289.4H213.144V294.184C212.632 293.24 211.848 292.808 210.792 292.808C208.792 292.808 207.384 294.536 207.384 297C207.384 299.512 208.696 301.192 210.632 301.192ZM211 299.992C209.64 299.992 208.824 298.872 208.824 297C208.824 295.112 209.64 294.008 211 294.008C212.344 294.008 213.176 295.08 213.176 296.824V297.192C213.176 298.904 212.328 299.992 211 299.992ZM220.105 301.192C222.057 301.192 223.161 300.184 223.161 298.744C223.161 297.576 222.521 296.84 221.081 296.568L219.529 296.28C218.745 296.136 218.297 295.816 218.297 295.144C218.297 294.36 218.921 293.912 219.945 293.912C221.033 293.912 221.657 294.472 221.833 295.272L223.177 294.968C223.017 293.624 221.801 292.808 220.009 292.808C218.121 292.808 216.969 293.832 216.969 295.208C216.969 296.424 217.737 297.192 219.097 297.448L220.665 297.736C221.385 297.864 221.817 298.152 221.817 298.856C221.817 299.544 221.225 300.072 220.153 300.072C218.985 300.072 218.233 299.496 218.041 298.488L216.665 298.728C216.937 300.312 218.217 301.192 220.105 301.192Z" fill="black"/>
<path d="M114.226 80.442C118.958 80.442 121.35 77.946 121.35 74.774C121.35 71.498 119.322 70.094 116.28 69.444L113.576 68.872C111.574 68.43 110.716 67.65 110.716 66.142C110.716 64.582 112.068 63.646 114.096 63.646C116.54 63.646 118.074 64.868 118.672 67L121.324 65.596C120.518 62.528 117.736 61.098 114.252 61.098C110.092 61.098 107.466 63.204 107.466 66.402C107.466 69.548 109.416 71.108 112.328 71.706L114.902 72.252C116.93 72.668 118.022 73.292 118.022 75.086C118.022 77.01 116.254 77.764 114.356 77.764C111.47 77.764 109.962 76.1 109.364 74.02L106.504 75.268C107.258 78.284 109.858 80.442 114.226 80.442ZM129.64 80.312C132.734 80.312 134.918 78.544 135.386 75.658L132.448 75.06C132.162 76.88 131.2 77.842 129.64 77.842C127.638 77.842 126.468 76.23 126.468 73.422C126.468 70.744 127.664 69.132 129.588 69.132C131.122 69.132 132.136 70.094 132.344 71.862L135.386 71.368C134.996 68.404 132.89 66.688 129.666 66.688C125.714 66.688 123.27 69.262 123.27 73.5C123.27 77.634 125.766 80.312 129.64 80.312ZM141.315 67H138.403V80H141.523V74.566C141.523 73.11 141.653 71.628 142.693 70.614C143.291 70.042 144.149 69.704 145.397 69.704H145.813V66.714C145.683 66.688 145.579 66.688 145.449 66.688C143.343 66.688 141.965 68.092 141.315 70.146V67ZM159.305 72.85C159.305 68.872 157.147 66.688 153.377 66.688C149.503 66.688 147.163 69.34 147.163 73.63C147.163 77.894 149.555 80.312 153.533 80.312C156.185 80.312 158.239 79.064 159.201 76.802L156.809 75.71C156.211 77.114 155.119 77.868 153.637 77.868C151.583 77.868 150.205 76.464 150.179 74.28H159.305V72.85ZM150.179 72.226C150.231 70.068 151.349 68.768 153.325 68.768C155.171 68.768 156.237 69.886 156.237 72.018V72.226H150.179ZM173.549 72.85C173.549 68.872 171.391 66.688 167.621 66.688C163.747 66.688 161.407 69.34 161.407 73.63C161.407 77.894 163.799 80.312 167.777 80.312C170.429 80.312 172.483 79.064 173.445 76.802L171.053 75.71C170.455 77.114 169.363 77.868 167.881 77.868C165.827 77.868 164.449 76.464 164.423 74.28H173.549V72.85ZM164.423 72.226C164.475 70.068 165.593 68.768 167.569 68.768C169.415 68.768 170.481 69.886 170.481 72.018V72.226H164.423ZM179.863 80V73.11C179.863 70.64 180.955 69.184 182.775 69.184C184.413 69.184 185.193 70.198 185.193 72.252V80H188.339V71.94C188.339 68.456 186.857 66.688 184.023 66.688C182.021 66.688 180.591 67.624 179.707 69.522V67H176.743V80H179.863ZM195.405 64.842V61.592H192.025V64.842H195.405ZM195.275 80V67H192.155V80H195.275ZM202.537 80V73.11C202.537 70.64 203.629 69.184 205.449 69.184C207.087 69.184 207.867 70.198 207.867 72.252V80H211.013V71.94C211.013 68.456 209.531 66.688 206.697 66.688C204.695 66.688 203.265 67.624 202.381 69.522V67H199.417V80H202.537ZM225.645 67.104C226.035 67.104 226.373 67.156 226.711 67.234V64.894C226.451 64.842 226.243 64.816 225.983 64.816C224.111 64.816 222.993 65.804 222.577 67.208C221.797 66.87 220.887 66.688 219.821 66.688C216.519 66.688 214.491 68.482 214.491 71.056C214.491 72.434 215.063 73.578 216.077 74.384C214.829 74.878 214.023 75.814 214.023 77.14C214.023 78.154 214.517 79.012 215.661 79.48C214.257 79.922 213.503 80.884 213.503 82.028C213.503 83.874 215.141 85.382 219.613 85.382C224.293 85.382 226.555 83.64 226.555 80.962C226.555 78.544 224.995 77.218 221.953 77.218H218.547C217.117 77.218 216.571 76.724 216.571 76.022C216.571 75.58 216.831 75.242 217.221 75.034C217.949 75.32 218.833 75.502 219.821 75.502C223.149 75.502 225.177 73.63 225.177 71.056C225.177 69.782 224.683 68.716 223.799 67.936C224.189 67.364 224.787 67.104 225.645 67.104ZM219.821 73.604C218.365 73.604 217.429 72.538 217.429 71.056C217.429 69.6 218.365 68.586 219.821 68.586C221.277 68.586 222.213 69.6 222.213 71.082C222.213 72.538 221.277 73.604 219.821 73.604ZM221.485 79.896C222.967 79.896 223.721 80.442 223.721 81.482C223.721 82.548 222.785 83.354 219.821 83.354C217.585 83.354 216.103 82.834 216.103 81.456C216.103 80.832 216.389 80.234 217.039 79.818C217.351 79.87 217.715 79.87 218.105 79.87L221.485 79.896Z" fill="white"/>
<path d="M102.176 109.272C104.912 109.272 106.288 107.576 106.72 105.432L105.248 105.176C104.928 106.872 103.792 107.944 102.176 107.944C99.8559 107.944 98.6559 105.928 98.6559 103.272C98.6559 100.52 99.9199 98.664 102.144 98.664C103.904 98.664 104.944 99.8 105.168 101.512L106.72 101.352C106.432 99 104.992 97.368 102.224 97.368C98.8479 97.368 97.0559 99.8 97.0559 103.288C97.0559 106.584 98.6559 109.272 102.176 109.272ZM110.167 109V104.824C110.167 103.016 110.951 101.976 112.327 101.976C113.479 101.976 114.071 102.712 114.071 104.12V109H115.431V104.024C115.431 101.912 114.519 100.808 112.791 100.808C111.543 100.808 110.647 101.384 110.167 102.504V97.4H108.807V109H110.167ZM124.393 104.44C124.393 102.04 123.145 100.808 120.985 100.808C118.697 100.808 117.353 102.424 117.353 105.096C117.353 107.736 118.713 109.192 121.001 109.192C122.617 109.192 123.785 108.424 124.345 106.968L123.225 106.472C122.873 107.448 122.121 107.992 121.097 107.992C119.673 107.992 118.729 106.968 118.713 105.4H124.393V104.44ZM118.713 104.296C118.745 102.792 119.545 101.88 120.953 101.88C122.265 101.88 123.017 102.648 123.017 104.12V104.296H118.713ZM129.595 109.192C131.387 109.192 132.587 108.136 132.875 106.312L131.579 106.104C131.371 107.352 130.699 108.008 129.611 108.008C128.187 108.008 127.355 106.904 127.355 104.984C127.355 103.112 128.187 101.992 129.563 101.992C130.651 101.992 131.355 102.664 131.499 103.88L132.891 103.72C132.683 101.88 131.467 100.808 129.595 100.808C127.323 100.808 125.915 102.392 125.915 105C125.915 107.56 127.355 109.192 129.595 109.192ZM141.969 109L138.849 104.088L141.777 101H140.001L136.417 104.936V97.4H135.057V109H136.417V106.552L137.873 105.08L140.289 109H141.969ZM151.567 109.272C154.399 109.272 155.711 107.688 155.711 105.928C155.711 103.864 154.335 103.08 152.575 102.712L150.911 102.36C149.647 102.088 149.055 101.512 149.055 100.408C149.055 99.256 150.015 98.568 151.407 98.568C153.087 98.568 153.935 99.4 154.127 100.92L155.647 100.6C155.423 98.376 153.695 97.368 151.439 97.368C149.023 97.368 147.487 98.648 147.487 100.552C147.487 102.504 148.719 103.352 150.335 103.688L151.983 104.024C153.311 104.296 154.143 104.728 154.143 106.072C154.143 107.512 152.847 108.024 151.615 108.024C149.615 108.024 148.751 106.792 148.543 105.4L147.007 105.624C147.199 107.704 148.671 109.272 151.567 109.272ZM161.648 109C164.96 109 167.072 106.616 167.072 103.304C167.072 99.928 164.944 97.64 161.68 97.64H157.952V109H161.648ZM159.472 98.92H161.648C164.096 98.92 165.456 100.776 165.456 103.304C165.456 105.736 164.064 107.72 161.616 107.72H159.472V98.92ZM172.393 109.192C174.649 109.192 176.121 107.608 176.121 105C176.121 102.392 174.649 100.808 172.393 100.808C170.137 100.808 168.665 102.392 168.665 105C168.665 107.608 170.137 109.192 172.393 109.192ZM172.393 108.008C170.953 108.008 170.105 106.984 170.105 105C170.105 103.016 170.953 101.992 172.393 101.992C173.833 101.992 174.681 103.016 174.681 105C174.681 106.984 173.833 108.008 172.393 108.008ZM185.684 97.64V102.552H179.956V97.64H178.436V109H179.956V103.832H185.684V109H187.204V97.64H185.684ZM195.761 109V104.824C195.761 103.048 196.577 101.976 197.905 101.976C199.073 101.976 199.665 102.696 199.665 104.104V109H201.025V104.024C201.025 101.896 200.113 100.808 198.353 100.808C197.089 100.808 196.209 101.384 195.681 102.584V101H194.401V109H195.761ZM209.987 104.44C209.987 102.04 208.739 100.808 206.579 100.808C204.291 100.808 202.947 102.424 202.947 105.096C202.947 107.736 204.307 109.192 206.595 109.192C208.211 109.192 209.379 108.424 209.939 106.968L208.819 106.472C208.467 107.448 207.715 107.992 206.691 107.992C205.267 107.992 204.323 106.968 204.307 105.4H209.987V104.44ZM204.307 104.296C204.339 102.792 205.139 101.88 206.547 101.88C207.859 101.88 208.611 102.648 208.611 104.12V104.296H204.307ZM218.549 104.44C218.549 102.04 217.301 100.808 215.141 100.808C212.853 100.808 211.509 102.424 211.509 105.096C211.509 107.736 212.869 109.192 215.157 109.192C216.773 109.192 217.941 108.424 218.501 106.968L217.381 106.472C217.029 107.448 216.277 107.992 215.253 107.992C213.829 107.992 212.885 106.968 212.869 105.4H218.549V104.44ZM212.869 104.296C212.901 102.792 213.701 101.88 215.109 101.88C216.421 101.88 217.173 102.648 217.173 104.12V104.296H212.869ZM223.32 109.192C224.568 109.192 225.432 108.584 225.912 107.512V109H227.192V97.4H225.832V102.184C225.32 101.24 224.536 100.808 223.48 100.808C221.48 100.808 220.072 102.536 220.072 105C220.072 107.512 221.384 109.192 223.32 109.192ZM223.688 107.992C222.328 107.992 221.512 106.872 221.512 105C221.512 103.112 222.328 102.008 223.688 102.008C225.032 102.008 225.864 103.08 225.864 104.824V105.192C225.864 106.904 225.016 107.992 223.688 107.992ZM232.793 109.192C234.745 109.192 235.849 108.184 235.849 106.744C235.849 105.576 235.209 104.84 233.769 104.568L232.217 104.28C231.433 104.136 230.985 103.816 230.985 103.144C230.985 102.36 231.609 101.912 232.633 101.912C233.721 101.912 234.345 102.472 234.521 103.272L235.865 102.968C235.705 101.624 234.489 100.808 232.697 100.808C230.809 100.808 229.657 101.832 229.657 103.208C229.657 104.424 230.425 105.192 231.785 105.448L233.353 105.736C234.073 105.864 234.505 106.152 234.505 106.856C234.505 107.544 233.913 108.072 232.841 108.072C231.673 108.072 230.921 107.496 230.729 106.488L229.353 106.728C229.625 108.312 230.905 109.192 232.793 109.192Z" fill="white"/>
<path d="M124.258 588V574.532C124.258 573.778 124.232 573.128 124.154 572.504H124.258C124.31 572.946 124.518 573.908 124.726 574.454L129.146 588H132.136L136.504 574.454C136.686 573.908 136.92 572.946 136.972 572.504H137.05C136.972 573.154 136.946 573.804 136.946 574.532V588H140.014V569.54H135.308L131.174 582.358C130.888 583.268 130.784 583.684 130.706 584.36H130.654C130.576 583.684 130.472 583.294 130.186 582.384L126 569.54H121.32V588H124.258ZM149.648 588.312C153.392 588.312 156.018 585.842 156.018 581.474C156.018 577.132 153.392 574.688 149.648 574.688C145.904 574.688 143.278 577.132 143.278 581.474C143.278 585.842 145.904 588.312 149.648 588.312ZM149.648 585.946C147.646 585.946 146.45 584.438 146.45 581.474C146.45 578.51 147.646 577.054 149.648 577.054C151.65 577.054 152.82 578.51 152.82 581.474C152.82 584.438 151.65 585.946 149.648 585.946ZM162.217 588V581.11C162.217 578.64 163.309 577.184 165.129 577.184C166.767 577.184 167.547 578.198 167.547 580.252V588H170.693V579.94C170.693 576.456 169.211 574.688 166.377 574.688C164.375 574.688 162.945 575.624 162.061 577.522V575H159.097V588H162.217ZM177.759 572.842V569.592H174.379V572.842H177.759ZM177.629 588V575H174.509V588H177.629ZM182.316 577.262V583.97C182.316 586.596 183.356 588.234 186.476 588.234C187.282 588.234 187.854 588.156 188.608 588V585.374C188.192 585.452 187.854 585.53 187.334 585.53C186.034 585.53 185.436 584.854 185.436 583.476V577.262H188.608V575H185.436V570.476L182.316 571.724V575H179.976V577.262H182.316ZM196.621 588.312C200.365 588.312 202.991 585.842 202.991 581.474C202.991 577.132 200.365 574.688 196.621 574.688C192.877 574.688 190.251 577.132 190.251 581.474C190.251 585.842 192.877 588.312 196.621 588.312ZM196.621 585.946C194.619 585.946 193.423 584.438 193.423 581.474C193.423 578.51 194.619 577.054 196.621 577.054C198.623 577.054 199.793 578.51 199.793 581.474C199.793 584.438 198.623 585.946 196.621 585.946ZM208.981 575H206.069V588H209.189V582.566C209.189 581.11 209.319 579.628 210.359 578.614C210.957 578.042 211.815 577.704 213.063 577.704H213.479V574.714C213.349 574.688 213.245 574.688 213.115 574.688C211.009 574.688 209.631 576.092 208.981 578.146V575Z" fill="white"/>
<path d="M72.5919 617L69.6799 612.072C71.5839 611.64 72.2399 610.248 72.2399 608.968C72.2399 607.304 71.4559 605.64 68.4799 605.64H64.2719V617H65.7919V612.28H68.0959L70.8799 617H72.5919ZM68.3039 606.92C70.0479 606.92 70.6399 607.8 70.6399 608.968C70.6399 610.104 70.0639 611 68.3039 611H65.7919V606.92H68.3039ZM80.76 612.44C80.76 610.04 79.512 608.808 77.352 608.808C75.064 608.808 73.72 610.424 73.72 613.096C73.72 615.736 75.08 617.192 77.368 617.192C78.984 617.192 80.152 616.424 80.712 614.968L79.592 614.472C79.24 615.448 78.488 615.992 77.464 615.992C76.04 615.992 75.096 614.968 75.08 613.4H80.76V612.44ZM75.08 612.296C75.112 610.792 75.912 609.88 77.32 609.88C78.632 609.88 79.384 610.648 79.384 612.12V612.296H75.08ZM85.9625 617.192C87.7545 617.192 88.9545 616.136 89.2425 614.312L87.9465 614.104C87.7385 615.352 87.0665 616.008 85.9785 616.008C84.5545 616.008 83.7225 614.904 83.7225 612.984C83.7225 611.112 84.5545 609.992 85.9305 609.992C87.0185 609.992 87.7225 610.664 87.8665 611.88L89.2585 611.72C89.0505 609.88 87.8345 608.808 85.9625 608.808C83.6905 608.808 82.2825 610.392 82.2825 613C82.2825 615.56 83.7225 617.192 85.9625 617.192ZM97.7444 612.44C97.7444 610.04 96.4964 608.808 94.3364 608.808C92.0484 608.808 90.7044 610.424 90.7044 613.096C90.7044 615.736 92.0644 617.192 94.3524 617.192C95.9684 617.192 97.1364 616.424 97.6964 614.968L96.5764 614.472C96.2244 615.448 95.4724 615.992 94.4484 615.992C93.0244 615.992 92.0804 614.968 92.0644 613.4H97.7444V612.44ZM92.0644 612.296C92.0964 610.792 92.8964 609.88 94.3044 609.88C95.6164 609.88 96.3684 610.648 96.3684 612.12V612.296H92.0644ZM101.443 607.512V605.8H99.8909V607.512H101.443ZM101.347 617V609H99.9869V617H101.347ZM107.293 617L110.189 609H108.717L106.925 614.392C106.781 614.824 106.669 615.24 106.589 615.608H106.541C106.461 615.24 106.349 614.824 106.205 614.392L104.413 609H102.941L105.837 617H107.293ZM118.026 612.44C118.026 610.04 116.778 608.808 114.618 608.808C112.33 608.808 110.986 610.424 110.986 613.096C110.986 615.736 112.346 617.192 114.634 617.192C116.25 617.192 117.418 616.424 117.978 614.968L116.858 614.472C116.506 615.448 115.754 615.992 114.73 615.992C113.306 615.992 112.362 614.968 112.346 613.4H118.026V612.44ZM112.346 612.296C112.378 610.792 113.178 609.88 114.586 609.88C115.898 609.88 116.65 610.648 116.65 612.12V612.296H112.346ZM126.92 617.192C128.04 617.192 129.032 616.472 129.4 615.496V617H130.68V609H129.32V613.304C129.32 614.936 128.456 616.024 127.176 616.024C126.12 616.024 125.544 615.288 125.544 613.944V609H124.184V614.104C124.184 615.976 124.904 617.192 126.92 617.192ZM134.925 620.12V615.736C135.277 616.52 136.141 617.192 137.373 617.192C139.309 617.192 140.685 615.56 140.685 613C140.685 610.472 139.389 608.808 137.453 608.808C136.285 608.808 135.357 609.384 134.845 610.488V609H133.565V620.12H134.925ZM137.053 615.992C135.725 615.992 134.893 614.904 134.893 613.176V612.792C134.893 611.064 135.757 610.008 137.101 610.008C138.445 610.008 139.245 611.112 139.245 613C139.245 614.872 138.413 615.992 137.053 615.992ZM145.374 617.192C146.622 617.192 147.486 616.584 147.966 615.512V617H149.246V605.4H147.886V610.184C147.374 609.24 146.59 608.808 145.534 608.808C143.534 608.808 142.126 610.536 142.126 613C142.126 615.512 143.438 617.192 145.374 617.192ZM145.742 615.992C144.382 615.992 143.566 614.872 143.566 613C143.566 611.112 144.382 610.008 145.742 610.008C147.086 610.008 147.918 611.08 147.918 612.824V613.192C147.918 614.904 147.07 615.992 145.742 615.992ZM154.112 617.192C155.424 617.192 156.432 616.568 156.8 615.544C156.816 616.056 156.864 616.584 156.928 617H158.352C158.16 616.376 158.08 615.528 158.08 614.296V612.136C158.08 609.8 157.12 608.808 154.928 608.808C153.056 608.808 151.776 609.88 151.664 611.512H153.12C153.184 610.504 153.856 609.928 154.944 609.928C156.176 609.928 156.704 610.52 156.704 611.992V612.12L155.216 612.296C153.904 612.456 153.136 612.648 152.528 612.952C151.808 613.352 151.408 614.04 151.408 614.84C151.408 616.264 152.48 617.192 154.112 617.192ZM154.416 616.072C153.44 616.072 152.848 615.592 152.848 614.808C152.848 614.024 153.36 613.608 154.544 613.432L156.72 613.112V613.512C156.72 615.064 155.808 616.072 154.416 616.072ZM161.041 610.12V614.6C161.041 616.088 161.489 617.144 163.217 617.144C163.729 617.144 164.049 617.096 164.401 617V615.752C164.129 615.816 163.921 615.864 163.569 615.864C162.753 615.864 162.401 615.464 162.401 614.552V610.12H164.401V609H162.401V606.328L161.041 606.904V609H159.553V610.12H161.041ZM172.635 612.44C172.635 610.04 171.387 608.808 169.227 608.808C166.939 608.808 165.595 610.424 165.595 613.096C165.595 615.736 166.955 617.192 169.243 617.192C170.859 617.192 172.027 616.424 172.587 614.968L171.467 614.472C171.115 615.448 170.363 615.992 169.339 615.992C167.915 615.992 166.971 614.968 166.955 613.4H172.635V612.44ZM166.955 612.296C166.987 610.792 167.787 609.88 169.195 609.88C170.507 609.88 171.259 610.648 171.259 612.12V612.296H166.955ZM177.598 617.192C179.55 617.192 180.654 616.184 180.654 614.744C180.654 613.576 180.014 612.84 178.574 612.568L177.022 612.28C176.238 612.136 175.789 611.816 175.789 611.144C175.789 610.36 176.414 609.912 177.438 609.912C178.526 609.912 179.15 610.472 179.326 611.272L180.67 610.968C180.51 609.624 179.294 608.808 177.502 608.808C175.614 608.808 174.462 609.832 174.462 611.208C174.462 612.424 175.23 613.192 176.59 613.448L178.158 613.736C178.878 613.864 179.31 614.152 179.31 614.856C179.31 615.544 178.718 616.072 177.646 616.072C176.478 616.072 175.726 615.496 175.534 614.488L174.158 614.728C174.43 616.312 175.71 617.192 177.598 617.192ZM190.073 617.192C192.329 617.192 193.801 615.608 193.801 613C193.801 610.392 192.329 608.808 190.073 608.808C187.817 608.808 186.345 610.392 186.345 613C186.345 615.608 187.817 617.192 190.073 617.192ZM190.073 616.008C188.633 616.008 187.785 614.984 187.785 613C187.785 611.016 188.633 609.992 190.073 609.992C191.513 609.992 192.361 611.016 192.361 613C192.361 614.984 191.513 616.008 190.073 616.008ZM197.316 617V612.824C197.316 611.048 198.132 609.976 199.46 609.976C200.628 609.976 201.22 610.696 201.22 612.104V617H202.58V612.024C202.58 609.896 201.668 608.808 199.908 608.808C198.644 608.808 197.764 609.384 197.236 610.584V609H195.956V617H197.316ZM210.738 620.12V615.736C211.09 616.52 211.954 617.192 213.186 617.192C215.122 617.192 216.498 615.56 216.498 613C216.498 610.472 215.202 608.808 213.266 608.808C212.098 608.808 211.17 609.384 210.658 610.488V609H209.378V620.12H210.738ZM212.866 615.992C211.538 615.992 210.706 614.904 210.706 613.176V612.792C210.706 611.064 211.57 610.008 212.914 610.008C214.258 610.008 215.058 611.112 215.058 613C215.058 614.872 214.226 615.992 212.866 615.992ZM219.923 609H218.659V617H220.019V613.576C220.019 612.616 220.051 611.544 220.819 610.776C221.203 610.392 221.747 610.152 222.579 610.152H222.643V608.824C222.547 608.808 222.451 608.808 222.355 608.808C221.139 608.808 220.307 609.704 219.923 610.824V609ZM227.339 617.192C229.595 617.192 231.067 615.608 231.067 613C231.067 610.392 229.595 608.808 227.339 608.808C225.083 608.808 223.611 610.392 223.611 613C223.611 615.608 225.083 617.192 227.339 617.192ZM227.339 616.008C225.899 616.008 225.051 614.984 225.051 613C225.051 611.016 225.899 609.992 227.339 609.992C228.779 609.992 229.627 611.016 229.627 613C229.627 614.984 228.779 616.008 227.339 616.008ZM239.289 608.872C239.513 608.872 239.705 608.904 239.865 608.936V607.752C239.689 607.704 239.513 607.688 239.337 607.688C238.265 607.688 237.673 608.328 237.433 609.144C236.985 608.936 236.473 608.808 235.865 608.808C234.009 608.808 232.905 609.96 232.905 611.512C232.905 612.296 233.177 612.968 233.689 613.464C233.017 613.72 232.553 614.264 232.553 615.064C232.553 615.64 232.809 616.152 233.481 616.456C232.633 616.728 232.185 617.368 232.185 618.12C232.185 619.256 232.969 620.312 235.785 620.312C238.569 620.312 239.753 619.272 239.753 617.768C239.753 616.328 238.841 615.512 237.033 615.512H235.081C234.089 615.512 233.753 615.144 233.753 614.696C233.753 614.328 233.993 614.056 234.329 613.912C234.761 614.12 235.273 614.248 235.865 614.248C237.721 614.248 238.825 613.064 238.825 611.512C238.825 610.76 238.569 610.104 238.089 609.624C238.281 609.112 238.681 608.872 239.289 608.872ZM235.865 613.208C234.841 613.208 234.185 612.488 234.185 611.512C234.185 610.536 234.841 609.848 235.865 609.848C236.889 609.848 237.545 610.552 237.545 611.528C237.545 612.504 236.889 613.208 235.865 613.208ZM236.729 616.712C237.833 616.712 238.393 617.112 238.393 617.864C238.393 618.584 237.897 619.192 235.945 619.192C234.505 619.192 233.513 618.872 233.513 617.88C233.513 617.4 233.785 616.936 234.361 616.68C234.569 616.696 234.793 616.712 235.033 616.712H236.729ZM242.892 609H241.628V617H242.988V613.576C242.988 612.616 243.02 611.544 243.788 610.776C244.172 610.392 244.716 610.152 245.548 610.152H245.612V608.824C245.516 608.808 245.42 608.808 245.324 608.808C244.108 608.808 243.276 609.704 242.892 610.824V609ZM253.619 612.44C253.619 610.04 252.371 608.808 250.211 608.808C247.923 608.808 246.579 610.424 246.579 613.096C246.579 615.736 247.939 617.192 250.227 617.192C251.843 617.192 253.011 616.424 253.571 614.968L252.451 614.472C252.099 615.448 251.347 615.992 250.323 615.992C248.899 615.992 247.955 614.968 247.939 613.4H253.619V612.44ZM247.939 612.296C247.971 610.792 248.771 609.88 250.179 609.88C251.491 609.88 252.243 610.648 252.243 612.12V612.296H247.939ZM258.582 617.192C260.534 617.192 261.638 616.184 261.638 614.744C261.638 613.576 260.998 612.84 259.558 612.568L258.006 612.28C257.222 612.136 256.774 611.816 256.774 611.144C256.774 610.36 257.398 609.912 258.422 609.912C259.51 609.912 260.134 610.472 260.31 611.272L261.654 610.968C261.494 609.624 260.278 608.808 258.486 608.808C256.598 608.808 255.446 609.832 255.446 611.208C255.446 612.424 256.214 613.192 257.574 613.448L259.142 613.736C259.862 613.864 260.294 614.152 260.294 614.856C260.294 615.544 259.702 616.072 258.63 616.072C257.462 616.072 256.71 615.496 256.518 614.488L255.142 614.728C255.414 616.312 256.694 617.192 258.582 617.192ZM266.457 617.192C268.409 617.192 269.513 616.184 269.513 614.744C269.513 613.576 268.873 612.84 267.433 612.568L265.881 612.28C265.097 612.136 264.649 611.816 264.649 611.144C264.649 610.36 265.273 609.912 266.297 609.912C267.385 609.912 268.009 610.472 268.185 611.272L269.529 610.968C269.369 609.624 268.153 608.808 266.361 608.808C264.473 608.808 263.321 609.832 263.321 611.208C263.321 612.424 264.089 613.192 265.449 613.448L267.017 613.736C267.737 613.864 268.169 614.152 268.169 614.856C268.169 615.544 267.577 616.072 266.505 616.072C265.337 616.072 264.585 615.496 264.393 614.488L263.017 614.728C263.289 616.312 264.569 617.192 266.457 617.192ZM98.3303 638.192C99.6423 638.192 100.65 637.568 101.018 636.544C101.034 637.056 101.082 637.584 101.146 638H102.57C102.378 637.376 102.298 636.528 102.298 635.296V633.136C102.298 630.8 101.338 629.808 99.1463 629.808C97.2743 629.808 95.9943 630.88 95.8823 632.512H97.3383C97.4023 631.504 98.0743 630.928 99.1623 630.928C100.394 630.928 100.922 631.52 100.922 632.992V633.12L99.4343 633.296C98.1223 633.456 97.3543 633.648 96.7463 633.952C96.0263 634.352 95.6263 635.04 95.6263 635.84C95.6263 637.264 96.6983 638.192 98.3303 638.192ZM98.6343 637.072C97.6583 637.072 97.0663 636.592 97.0663 635.808C97.0663 635.024 97.5783 634.608 98.7623 634.432L100.938 634.112V634.512C100.938 636.064 100.026 637.072 98.6343 637.072ZM106.331 638V633.824C106.331 632.048 107.147 630.976 108.475 630.976C109.643 630.976 110.235 631.696 110.235 633.104V638H111.595V633.024C111.595 630.896 110.683 629.808 108.923 629.808C107.659 629.808 106.779 630.384 106.251 631.584V630H104.971V638H106.331ZM116.765 638.192C118.013 638.192 118.877 637.584 119.357 636.512V638H120.637V626.4H119.277V631.184C118.765 630.24 117.981 629.808 116.925 629.808C114.925 629.808 113.517 631.536 113.517 634C113.517 636.512 114.829 638.192 116.765 638.192ZM117.133 636.992C115.773 636.992 114.957 635.872 114.957 634C114.957 632.112 115.773 631.008 117.133 631.008C118.477 631.008 119.309 632.08 119.309 633.824V634.192C119.309 635.904 118.461 636.992 117.133 636.992ZM127.962 631.12V635.6C127.962 637.088 128.41 638.144 130.138 638.144C130.65 638.144 130.97 638.096 131.322 638V636.752C131.05 636.816 130.842 636.864 130.49 636.864C129.674 636.864 129.322 636.464 129.322 635.552V631.12H131.322V630H129.322V627.328L127.962 627.904V630H126.474V631.12H127.962ZM134.579 630H133.315V638H134.675V634.576C134.675 633.616 134.707 632.544 135.475 631.776C135.859 631.392 136.403 631.152 137.235 631.152H137.299V629.824C137.203 629.808 137.107 629.808 137.011 629.808C135.795 629.808 134.963 630.704 134.579 631.824V630ZM140.955 638.192C142.267 638.192 143.275 637.568 143.643 636.544C143.659 637.056 143.707 637.584 143.771 638H145.195C145.003 637.376 144.923 636.528 144.923 635.296V633.136C144.923 630.8 143.963 629.808 141.771 629.808C139.899 629.808 138.619 630.88 138.507 632.512H139.963C140.027 631.504 140.699 630.928 141.787 630.928C143.019 630.928 143.547 631.52 143.547 632.992V633.12L142.059 633.296C140.747 633.456 139.979 633.648 139.371 633.952C138.651 634.352 138.251 635.04 138.251 635.84C138.251 637.264 139.323 638.192 140.955 638.192ZM141.259 637.072C140.283 637.072 139.691 636.592 139.691 635.808C139.691 635.024 140.203 634.608 141.387 634.432L143.563 634.112V634.512C143.563 636.064 142.651 637.072 141.259 637.072ZM150.478 638.192C152.27 638.192 153.47 637.136 153.758 635.312L152.462 635.104C152.254 636.352 151.582 637.008 150.494 637.008C149.07 637.008 148.238 635.904 148.238 633.984C148.238 632.112 149.07 630.992 150.446 630.992C151.534 630.992 152.238 631.664 152.382 632.88L153.774 632.72C153.566 630.88 152.35 629.808 150.478 629.808C148.206 629.808 146.798 631.392 146.798 634C146.798 636.56 148.238 638.192 150.478 638.192ZM162.852 638L159.732 633.088L162.66 630H160.884L157.3 633.936V626.4H155.94V638H157.3V635.552L158.756 634.08L161.172 638H162.852ZM171.698 638.192C173.954 638.192 175.426 636.608 175.426 634C175.426 631.392 173.954 629.808 171.698 629.808C169.442 629.808 167.97 631.392 167.97 634C167.97 636.608 169.442 638.192 171.698 638.192ZM171.698 637.008C170.258 637.008 169.41 635.984 169.41 634C169.41 632.016 170.258 630.992 171.698 630.992C173.138 630.992 173.986 632.016 173.986 634C173.986 635.984 173.138 637.008 171.698 637.008ZM180.077 638.192C181.197 638.192 182.189 637.472 182.557 636.496V638H183.837V630H182.477V634.304C182.477 635.936 181.613 637.024 180.333 637.024C179.277 637.024 178.701 636.288 178.701 634.944V630H177.341V635.104C177.341 636.976 178.061 638.192 180.077 638.192ZM187.009 631.12V635.6C187.009 637.088 187.457 638.144 189.185 638.144C189.697 638.144 190.017 638.096 190.369 638V636.752C190.097 636.816 189.889 636.864 189.537 636.864C188.721 636.864 188.369 636.464 188.369 635.552V631.12H190.369V630H188.369V627.328L187.009 627.904V630H185.521V631.12H187.009ZM195.244 638.192C197.036 638.192 198.236 637.136 198.524 635.312L197.228 635.104C197.02 636.352 196.348 637.008 195.26 637.008C193.836 637.008 193.004 635.904 193.004 633.984C193.004 632.112 193.836 630.992 195.212 630.992C196.3 630.992 197.004 631.664 197.148 632.88L198.54 632.72C198.332 630.88 197.116 629.808 195.244 629.808C192.972 629.808 191.564 631.392 191.564 634C191.564 636.56 193.004 638.192 195.244 638.192ZM203.714 638.192C205.97 638.192 207.442 636.608 207.442 634C207.442 631.392 205.97 629.808 203.714 629.808C201.458 629.808 199.986 631.392 199.986 634C199.986 636.608 201.458 638.192 203.714 638.192ZM203.714 637.008C202.274 637.008 201.426 635.984 201.426 634C201.426 632.016 202.274 630.992 203.714 630.992C205.154 630.992 206.002 632.016 206.002 634C206.002 635.984 205.154 637.008 203.714 637.008ZM209.596 638H210.956V633.328C210.956 631.872 211.644 630.976 212.764 630.976C213.724 630.976 214.268 631.632 214.268 632.8V638H215.628V633.264C215.628 631.808 216.284 630.976 217.42 630.976C218.428 630.976 218.94 631.616 218.94 632.864V638H220.3V632.752C220.3 630.896 219.404 629.808 217.868 629.808C216.78 629.808 215.964 630.336 215.436 631.408C215.068 630.368 214.268 629.808 213.164 629.808C212.092 629.808 211.324 630.336 210.876 631.392V630H209.596V638ZM229.26 633.44C229.26 631.04 228.012 629.808 225.852 629.808C223.564 629.808 222.22 631.424 222.22 634.096C222.22 636.736 223.58 638.192 225.868 638.192C227.484 638.192 228.652 637.424 229.212 635.968L228.092 635.472C227.74 636.448 226.988 636.992 225.964 636.992C224.54 636.992 223.596 635.968 223.58 634.4H229.26V633.44ZM223.58 633.296C223.612 631.792 224.412 630.88 225.82 630.88C227.132 630.88 227.884 631.648 227.884 633.12V633.296H223.58ZM234.223 638.192C236.175 638.192 237.279 637.184 237.279 635.744C237.279 634.576 236.639 633.84 235.199 633.568L233.647 633.28C232.863 633.136 232.414 632.816 232.414 632.144C232.414 631.36 233.039 630.912 234.062 630.912C235.151 630.912 235.775 631.472 235.951 632.272L237.295 631.968C237.135 630.624 235.919 629.808 234.127 629.808C232.239 629.808 231.087 630.832 231.087 632.208C231.087 633.424 231.855 634.192 233.215 634.448L234.783 634.736C235.503 634.864 235.935 635.152 235.935 635.856C235.935 636.544 235.343 637.072 234.271 637.072C233.103 637.072 232.351 636.496 232.159 635.488L230.783 635.728C231.055 637.312 232.335 638.192 234.223 638.192Z" fill="white"/>
<path d="M90.4315 420.442C94.9295 420.442 97.4515 417.816 98.2315 414.124L94.9035 413.448C94.4355 416.048 92.8235 417.634 90.4575 417.634C87.0775 417.634 85.2575 414.748 85.2575 410.718C85.2575 406.584 87.1295 403.854 90.3795 403.854C92.9275 403.854 94.4615 405.518 94.7735 408.144L98.2055 407.65C97.7115 403.724 95.0855 401.098 90.4835 401.098C84.9455 401.098 81.7995 404.998 81.7995 410.744C81.7995 416.334 84.6335 420.442 90.4315 420.442ZM101.122 401.15V420H104.242V401.15H101.122ZM113.662 420.312C117.406 420.312 120.032 417.842 120.032 413.474C120.032 409.132 117.406 406.688 113.662 406.688C109.918 406.688 107.292 409.132 107.292 413.474C107.292 417.842 109.918 420.312 113.662 420.312ZM113.662 417.946C111.66 417.946 110.464 416.438 110.464 413.474C110.464 410.51 111.66 409.054 113.662 409.054C115.664 409.054 116.834 410.51 116.834 413.474C116.834 416.438 115.664 417.946 113.662 417.946ZM127.817 420.312C131.223 420.312 133.147 418.648 133.147 416.204C133.147 414.15 132.081 412.902 129.559 412.46L127.011 411.992C125.867 411.784 125.295 411.394 125.295 410.51C125.295 409.496 126.101 408.95 127.557 408.95C129.273 408.95 130.417 409.678 131.041 410.848L133.225 409.678C132.601 407.806 130.495 406.688 127.739 406.688C124.437 406.688 122.435 408.352 122.435 410.692C122.435 412.772 123.709 414.046 126.153 414.488L128.467 414.904C129.741 415.112 130.313 415.476 130.313 416.412C130.313 417.348 129.481 418.024 127.895 418.024C126.049 418.024 124.749 417.192 124.151 415.736L121.837 416.776C122.643 419.064 124.853 420.312 127.817 420.312ZM147.363 412.85C147.363 408.872 145.205 406.688 141.435 406.688C137.561 406.688 135.221 409.34 135.221 413.63C135.221 417.894 137.613 420.312 141.591 420.312C144.243 420.312 146.297 419.064 147.259 416.802L144.867 415.71C144.269 417.114 143.177 417.868 141.695 417.868C139.641 417.868 138.263 416.464 138.237 414.28H147.363V412.85ZM138.237 412.226C138.289 410.068 139.407 408.768 141.383 408.768C143.229 408.768 144.295 409.886 144.295 412.018V412.226H138.237ZM157.705 409.262V415.97C157.705 418.596 158.745 420.234 161.865 420.234C162.671 420.234 163.243 420.156 163.997 420V417.374C163.581 417.452 163.243 417.53 162.723 417.53C161.423 417.53 160.825 416.854 160.825 415.476V409.262H163.997V407H160.825V402.476L157.705 403.724V407H155.365V409.262H157.705ZM169.978 420V413.11C169.978 410.614 171.044 409.184 172.916 409.184C174.502 409.184 175.308 410.198 175.308 412.174V420H178.454V411.914C178.454 408.482 176.972 406.688 174.164 406.688C172.188 406.688 170.758 407.598 169.978 409.392V401.15H166.858V420H169.978ZM193.32 412.85C193.32 408.872 191.162 406.688 187.392 406.688C183.518 406.688 181.178 409.34 181.178 413.63C181.178 417.894 183.57 420.312 187.548 420.312C190.2 420.312 192.254 419.064 193.216 416.802L190.824 415.71C190.226 417.114 189.134 417.868 187.652 417.868C185.598 417.868 184.22 416.464 184.194 414.28H193.32V412.85ZM184.194 412.226C184.246 410.068 185.364 408.768 187.34 408.768C189.186 408.768 190.252 409.886 190.252 412.018V412.226H184.194ZM203.116 401.15V420H206.236V401.15H203.116ZM215.656 420.312C219.4 420.312 222.026 417.842 222.026 413.474C222.026 409.132 219.4 406.688 215.656 406.688C211.912 406.688 209.286 409.132 209.286 413.474C209.286 417.842 211.912 420.312 215.656 420.312ZM215.656 417.946C213.654 417.946 212.458 416.438 212.458 413.474C212.458 410.51 213.654 409.054 215.656 409.054C217.658 409.054 218.828 410.51 218.828 413.474C218.828 416.438 217.658 417.946 215.656 417.946ZM230.382 420.312C234.126 420.312 236.752 417.842 236.752 413.474C236.752 409.132 234.126 406.688 230.382 406.688C226.638 406.688 224.012 409.132 224.012 413.474C224.012 417.842 226.638 420.312 230.382 420.312ZM230.382 417.946C228.38 417.946 227.184 416.438 227.184 413.474C227.184 410.51 228.38 409.054 230.382 409.054C232.384 409.054 233.554 410.51 233.554 413.474C233.554 416.438 232.384 417.946 230.382 417.946ZM242.951 425.07V418.128C243.653 419.402 244.953 420.312 246.799 420.312C249.997 420.312 252.181 417.66 252.181 413.474C252.181 409.366 250.075 406.688 246.955 406.688C245.109 406.688 243.601 407.572 242.795 409.262V407H239.831V425.07H242.951ZM245.889 417.92C244.043 417.92 242.873 416.334 242.873 413.838V413.188C242.873 410.562 244.043 409.08 245.915 409.08C247.813 409.08 248.931 410.692 248.931 413.474C248.931 416.256 247.761 417.92 245.889 417.92Z" fill="black"/>
<path d="M84.1088 437.64H77.0688V449H78.5888V443.816H83.8368V442.536H78.5888V438.92H84.1088V437.64ZM88.0959 449.192C89.4079 449.192 90.4159 448.568 90.7839 447.544C90.7999 448.056 90.8479 448.584 90.9119 449H92.3359C92.1439 448.376 92.0639 447.528 92.0639 446.296V444.136C92.0639 441.8 91.1039 440.808 88.9119 440.808C87.0399 440.808 85.7599 441.88 85.6479 443.512H87.1039C87.1679 442.504 87.8399 441.928 88.9279 441.928C90.1599 441.928 90.6879 442.52 90.6879 443.992V444.12L89.1999 444.296C87.8879 444.456 87.1199 444.648 86.5119 444.952C85.7919 445.352 85.3919 446.04 85.3919 446.84C85.3919 448.264 86.4639 449.192 88.0959 449.192ZM88.3999 448.072C87.4239 448.072 86.8319 447.592 86.8319 446.808C86.8319 446.024 87.3439 445.608 88.5279 445.432L90.7039 445.112V445.512C90.7039 447.064 89.7919 448.072 88.3999 448.072ZM97.6188 449.192C99.4108 449.192 100.611 448.136 100.899 446.312L99.6028 446.104C99.3948 447.352 98.7228 448.008 97.6348 448.008C96.2108 448.008 95.3788 446.904 95.3788 444.984C95.3788 443.112 96.2108 441.992 97.5868 441.992C98.6748 441.992 99.3788 442.664 99.5228 443.88L100.915 443.72C100.707 441.88 99.4908 440.808 97.6188 440.808C95.3468 440.808 93.9388 442.392 93.9388 445C93.9388 447.56 95.3788 449.192 97.6188 449.192ZM104.537 439.512V437.8H102.985V439.512H104.537ZM104.441 449V441H103.081V449H104.441ZM107.315 437.4V449H108.675V437.4H107.315ZM113.005 439.512V437.8H111.453V439.512H113.005ZM112.909 449V441H111.549V449H112.909ZM116.072 442.12V446.6C116.072 448.088 116.52 449.144 118.248 449.144C118.76 449.144 119.08 449.096 119.432 449V447.752C119.16 447.816 118.952 447.864 118.6 447.864C117.784 447.864 117.432 447.464 117.432 446.552V442.12H119.432V441H117.432V438.328L116.072 438.904V441H114.584V442.12H116.072ZM123.33 449.192C124.642 449.192 125.65 448.568 126.018 447.544C126.034 448.056 126.082 448.584 126.146 449H127.57C127.378 448.376 127.298 447.528 127.298 446.296V444.136C127.298 441.8 126.338 440.808 124.146 440.808C122.274 440.808 120.994 441.88 120.882 443.512H122.338C122.402 442.504 123.074 441.928 124.162 441.928C125.394 441.928 125.922 442.52 125.922 443.992V444.12L124.434 444.296C123.122 444.456 122.354 444.648 121.746 444.952C121.026 445.352 120.626 446.04 120.626 446.84C120.626 448.264 121.698 449.192 123.33 449.192ZM123.634 448.072C122.658 448.072 122.066 447.592 122.066 446.808C122.066 446.024 122.578 445.608 123.762 445.432L125.938 445.112V445.512C125.938 447.064 125.026 448.072 123.634 448.072ZM130.259 442.12V446.6C130.259 448.088 130.707 449.144 132.435 449.144C132.947 449.144 133.267 449.096 133.619 449V447.752C133.347 447.816 133.139 447.864 132.787 447.864C131.971 447.864 131.619 447.464 131.619 446.552V442.12H133.619V441H131.619V438.328L130.259 438.904V441H128.771V442.12H130.259ZM141.854 444.44C141.854 442.04 140.606 440.808 138.446 440.808C136.158 440.808 134.814 442.424 134.814 445.096C134.814 447.736 136.174 449.192 138.462 449.192C140.078 449.192 141.246 448.424 141.806 446.968L140.686 446.472C140.334 447.448 139.582 447.992 138.558 447.992C137.134 447.992 136.19 446.968 136.174 445.4H141.854V444.44ZM136.174 444.296C136.206 442.792 137.006 441.88 138.414 441.88C139.726 441.88 140.478 442.648 140.478 444.12V444.296H136.174ZM151.213 449.192C153.005 449.192 154.205 448.136 154.493 446.312L153.197 446.104C152.989 447.352 152.317 448.008 151.229 448.008C149.805 448.008 148.973 446.904 148.973 444.984C148.973 443.112 149.805 441.992 151.181 441.992C152.269 441.992 152.973 442.664 153.117 443.88L154.509 443.72C154.301 441.88 153.085 440.808 151.213 440.808C148.941 440.808 147.533 442.392 147.533 445C147.533 447.56 148.973 449.192 151.213 449.192ZM159.682 449.192C161.938 449.192 163.41 447.608 163.41 445C163.41 442.392 161.938 440.808 159.682 440.808C157.426 440.808 155.954 442.392 155.954 445C155.954 447.608 157.426 449.192 159.682 449.192ZM159.682 448.008C158.242 448.008 157.394 446.984 157.394 445C157.394 443.016 158.242 441.992 159.682 441.992C161.122 441.992 161.97 443.016 161.97 445C161.97 446.984 161.122 448.008 159.682 448.008ZM165.565 449H166.925V444.328C166.925 442.872 167.613 441.976 168.733 441.976C169.693 441.976 170.237 442.632 170.237 443.8V449H171.597V444.264C171.597 442.808 172.253 441.976 173.389 441.976C174.397 441.976 174.909 442.616 174.909 443.864V449H176.269V443.752C176.269 441.896 175.373 440.808 173.837 440.808C172.749 440.808 171.933 441.336 171.405 442.408C171.037 441.368 170.237 440.808 169.133 440.808C168.061 440.808 167.293 441.336 166.845 442.392V441H165.565V449ZM178.909 449H180.269V444.328C180.269 442.872 180.957 441.976 182.077 441.976C183.037 441.976 183.581 442.632 183.581 443.8V449H184.941V444.264C184.941 442.808 185.597 441.976 186.733 441.976C187.741 441.976 188.253 442.616 188.253 443.864V449H189.613V443.752C189.613 441.896 188.717 440.808 187.181 440.808C186.093 440.808 185.277 441.336 184.749 442.408C184.381 441.368 183.581 440.808 182.477 440.808C181.405 440.808 180.637 441.336 180.189 442.392V441H178.909V449ZM194.749 449.192C195.869 449.192 196.861 448.472 197.229 447.496V449H198.509V441H197.149V445.304C197.149 446.936 196.285 448.024 195.005 448.024C193.949 448.024 193.373 447.288 193.373 445.944V441H192.013V446.104C192.013 447.976 192.733 449.192 194.749 449.192ZM202.753 449V444.824C202.753 443.048 203.569 441.976 204.897 441.976C206.065 441.976 206.657 442.696 206.657 444.104V449H208.017V444.024C208.017 441.896 207.105 440.808 205.345 440.808C204.081 440.808 203.201 441.384 202.673 442.584V441H201.393V449H202.753ZM212.115 439.512V437.8H210.563V439.512H212.115ZM212.019 449V441H210.659V449H212.019ZM217.853 449.192C219.645 449.192 220.845 448.136 221.133 446.312L219.837 446.104C219.629 447.352 218.957 448.008 217.869 448.008C216.445 448.008 215.613 446.904 215.613 444.984C215.613 443.112 216.445 441.992 217.821 441.992C218.909 441.992 219.613 442.664 219.757 443.88L221.149 443.72C220.941 441.88 219.725 440.808 217.853 440.808C215.581 440.808 214.173 442.392 214.173 445C214.173 447.56 215.613 449.192 217.853 449.192ZM225.299 449.192C226.611 449.192 227.619 448.568 227.987 447.544C228.003 448.056 228.051 448.584 228.115 449H229.539C229.347 448.376 229.267 447.528 229.267 446.296V444.136C229.267 441.8 228.307 440.808 226.115 440.808C224.243 440.808 222.963 441.88 222.851 443.512H224.307C224.371 442.504 225.043 441.928 226.131 441.928C227.363 441.928 227.891 442.52 227.891 443.992V444.12L226.403 444.296C225.091 444.456 224.323 444.648 223.715 444.952C222.995 445.352 222.595 446.04 222.595 446.84C222.595 448.264 223.667 449.192 225.299 449.192ZM225.603 448.072C224.627 448.072 224.035 447.592 224.035 446.808C224.035 446.024 224.547 445.608 225.731 445.432L227.907 445.112V445.512C227.907 447.064 226.995 448.072 225.603 448.072ZM232.228 442.12V446.6C232.228 448.088 232.676 449.144 234.404 449.144C234.916 449.144 235.236 449.096 235.588 449V447.752C235.316 447.816 235.108 447.864 234.756 447.864C233.94 447.864 233.588 447.464 233.588 446.552V442.12H235.588V441H233.588V438.328L232.228 438.904V441H230.74V442.12H232.228ZM239.037 439.512V437.8H237.485V439.512H239.037ZM238.941 449V441H237.581V449H238.941ZM244.823 449.192C247.079 449.192 248.551 447.608 248.551 445C248.551 442.392 247.079 440.808 244.823 440.808C242.567 440.808 241.095 442.392 241.095 445C241.095 447.608 242.567 449.192 244.823 449.192ZM244.823 448.008C243.383 448.008 242.535 446.984 242.535 445C242.535 443.016 243.383 441.992 244.823 441.992C246.263 441.992 247.111 443.016 247.111 445C247.111 446.984 246.263 448.008 244.823 448.008ZM252.066 449V444.824C252.066 443.048 252.882 441.976 254.21 441.976C255.378 441.976 255.97 442.696 255.97 444.104V449H257.33V444.024C257.33 441.896 256.418 440.808 254.658 440.808C253.394 440.808 252.514 441.384 251.986 442.584V441H250.706V449H252.066ZM67.3499 470.192C69.3499 470.192 70.6459 468.496 70.6459 466C70.6459 463.552 69.3819 461.808 67.4299 461.808C66.1819 461.808 65.3019 462.496 64.8859 463.392V458.4H63.5259V470H64.5659L64.8059 468.624C65.2219 469.552 66.1339 470.192 67.3499 470.192ZM66.9819 468.992C65.6379 468.992 64.8539 467.904 64.8539 466.24V465.824C64.8539 464.08 65.6539 463.008 66.9979 463.008C68.4219 463.008 69.2059 464.208 69.2059 466C69.2059 467.824 68.3739 468.992 66.9819 468.992ZM79.1272 465.44C79.1272 463.04 77.8792 461.808 75.7192 461.808C73.4312 461.808 72.0872 463.424 72.0872 466.096C72.0872 468.736 73.4472 470.192 75.7352 470.192C77.3512 470.192 78.5192 469.424 79.0792 467.968L77.9592 467.472C77.6072 468.448 76.8552 468.992 75.8312 468.992C74.4072 468.992 73.4632 467.968 73.4472 466.4H79.1272V465.44ZM73.4472 465.296C73.4792 463.792 74.2792 462.88 75.6872 462.88C76.9992 462.88 77.7512 463.648 77.7512 465.12V465.296H73.4472ZM81.6577 463.12V467.6C81.6577 469.088 82.1057 470.144 83.8337 470.144C84.3457 470.144 84.6657 470.096 85.0177 470V468.752C84.7457 468.816 84.5377 468.864 84.1857 468.864C83.3697 468.864 83.0177 468.464 83.0177 467.552V463.12H85.0177V462H83.0177V459.328L81.6577 459.904V462H80.1697V463.12H81.6577ZM90.0268 470L91.5468 464.24C91.6108 463.984 91.6908 463.584 91.7228 463.344H91.7548C91.7868 463.584 91.8668 463.984 91.9308 464.24L93.4508 470H94.9388L97.1948 462H95.7868L94.3468 467.712C94.2828 468 94.2188 468.336 94.1708 468.656H94.1388C94.0908 468.336 93.9948 468 93.9308 467.712L92.4748 462H91.0028L89.5468 467.712C89.4828 468 89.3868 468.336 89.3388 468.656H89.3068C89.2588 468.336 89.1948 468 89.1308 467.712L87.6908 462H86.2828L88.5388 470H90.0268ZM105.283 465.44C105.283 463.04 104.035 461.808 101.875 461.808C99.5874 461.808 98.2434 463.424 98.2434 466.096C98.2434 468.736 99.6034 470.192 101.891 470.192C103.507 470.192 104.675 469.424 105.235 467.968L104.115 467.472C103.763 468.448 103.011 468.992 101.987 468.992C100.563 468.992 99.6194 467.968 99.6034 466.4H105.283V465.44ZM99.6034 465.296C99.6354 463.792 100.435 462.88 101.843 462.88C103.155 462.88 103.907 463.648 103.907 465.12V465.296H99.6034ZM113.846 465.44C113.846 463.04 112.598 461.808 110.438 461.808C108.15 461.808 106.806 463.424 106.806 466.096C106.806 468.736 108.166 470.192 110.454 470.192C112.07 470.192 113.238 469.424 113.798 467.968L112.678 467.472C112.326 468.448 111.574 468.992 110.55 468.992C109.126 468.992 108.182 467.968 108.166 466.4H113.846V465.44ZM108.166 465.296C108.198 463.792 108.998 462.88 110.406 462.88C111.718 462.88 112.47 463.648 112.47 465.12V465.296H108.166ZM117.448 470V465.824C117.448 464.048 118.264 462.976 119.592 462.976C120.76 462.976 121.352 463.696 121.352 465.104V470H122.712V465.024C122.712 462.896 121.8 461.808 120.04 461.808C118.776 461.808 117.896 462.384 117.368 463.584V462H116.088V470H117.448ZM130.87 473.12V468.736C131.222 469.52 132.086 470.192 133.318 470.192C135.254 470.192 136.63 468.56 136.63 466C136.63 463.472 135.334 461.808 133.398 461.808C132.23 461.808 131.302 462.384 130.79 463.488V462H129.51V473.12H130.87ZM132.998 468.992C131.67 468.992 130.838 467.904 130.838 466.176V465.792C130.838 464.064 131.702 463.008 133.046 463.008C134.39 463.008 135.19 464.112 135.19 466C135.19 467.872 134.358 468.992 132.998 468.992ZM140.056 462H138.792V470H140.152V466.576C140.152 465.616 140.184 464.544 140.952 463.776C141.336 463.392 141.88 463.152 142.712 463.152H142.776V461.824C142.68 461.808 142.584 461.808 142.488 461.808C141.272 461.808 140.44 462.704 140.056 463.824V462ZM147.471 470.192C149.727 470.192 151.199 468.608 151.199 466C151.199 463.392 149.727 461.808 147.471 461.808C145.215 461.808 143.743 463.392 143.743 466C143.743 468.608 145.215 470.192 147.471 470.192ZM147.471 469.008C146.031 469.008 145.183 467.984 145.183 466C145.183 464.016 146.031 462.992 147.471 462.992C148.911 462.992 149.759 464.016 149.759 466C149.759 467.984 148.911 469.008 147.471 469.008ZM156.348 470L159.244 462H157.772L155.98 467.392C155.836 467.824 155.724 468.24 155.644 468.608H155.596C155.516 468.24 155.404 467.824 155.26 467.392L153.468 462H151.996L154.892 470H156.348ZM162.294 460.512V458.8H160.742V460.512H162.294ZM162.198 470V462H160.838V470H162.198ZM167.601 470.192C168.849 470.192 169.713 469.584 170.193 468.512V470H171.473V458.4H170.113V463.184C169.601 462.24 168.817 461.808 167.761 461.808C165.761 461.808 164.353 463.536 164.353 466C164.353 468.512 165.665 470.192 167.601 470.192ZM167.969 468.992C166.609 468.992 165.793 467.872 165.793 466C165.793 464.112 166.609 463.008 167.969 463.008C169.313 463.008 170.145 464.08 170.145 465.824V466.192C170.145 467.904 169.297 468.992 167.969 468.992ZM180.674 465.44C180.674 463.04 179.426 461.808 177.266 461.808C174.978 461.808 173.634 463.424 173.634 466.096C173.634 468.736 174.994 470.192 177.282 470.192C178.898 470.192 180.066 469.424 180.626 467.968L179.506 467.472C179.154 468.448 178.402 468.992 177.378 468.992C175.954 468.992 175.01 467.968 174.994 466.4H180.674V465.44ZM174.994 465.296C175.026 463.792 175.826 462.88 177.234 462.88C178.546 462.88 179.298 463.648 179.298 465.12V465.296H174.994ZM184.181 462H182.917V470H184.277V466.576C184.277 465.616 184.309 464.544 185.077 463.776C185.461 463.392 186.005 463.152 186.837 463.152H186.901V461.824C186.805 461.808 186.709 461.808 186.613 461.808C185.397 461.808 184.565 462.704 184.181 463.824V462ZM191.293 470.192C193.245 470.192 194.349 469.184 194.349 467.744C194.349 466.576 193.709 465.84 192.269 465.568L190.717 465.28C189.933 465.136 189.485 464.816 189.485 464.144C189.485 463.36 190.109 462.912 191.133 462.912C192.221 462.912 192.845 463.472 193.021 464.272L194.365 463.968C194.205 462.624 192.989 461.808 191.197 461.808C189.309 461.808 188.157 462.832 188.157 464.208C188.157 465.424 188.925 466.192 190.285 466.448L191.853 466.736C192.573 466.864 193.005 467.152 193.005 467.856C193.005 468.544 192.413 469.072 191.341 469.072C190.173 469.072 189.421 468.496 189.229 467.488L187.853 467.728C188.125 469.312 189.405 470.192 191.293 470.192ZM202.744 470.192C204.056 470.192 205.064 469.568 205.432 468.544C205.448 469.056 205.496 469.584 205.56 470H206.984C206.792 469.376 206.712 468.528 206.712 467.296V465.136C206.712 462.8 205.752 461.808 203.56 461.808C201.688 461.808 200.408 462.88 200.296 464.512H201.752C201.816 463.504 202.488 462.928 203.576 462.928C204.808 462.928 205.336 463.52 205.336 464.992V465.12L203.848 465.296C202.536 465.456 201.768 465.648 201.16 465.952C200.44 466.352 200.04 467.04 200.04 467.84C200.04 469.264 201.112 470.192 202.744 470.192ZM203.048 469.072C202.072 469.072 201.48 468.592 201.48 467.808C201.48 467.024 201.992 466.608 203.176 466.432L205.352 466.112V466.512C205.352 468.064 204.44 469.072 203.048 469.072ZM210.745 470V465.824C210.745 464.048 211.561 462.976 212.889 462.976C214.057 462.976 214.649 463.696 214.649 465.104V470H216.009V465.024C216.009 462.896 215.097 461.808 213.337 461.808C212.073 461.808 211.193 462.384 210.665 463.584V462H209.385V470H210.745ZM221.179 470.192C222.427 470.192 223.291 469.584 223.771 468.512V470H225.051V458.4H223.691V463.184C223.179 462.24 222.395 461.808 221.339 461.808C219.339 461.808 217.931 463.536 217.931 466C217.931 468.512 219.243 470.192 221.179 470.192ZM221.547 468.992C220.187 468.992 219.371 467.872 219.371 466C219.371 464.112 220.187 463.008 221.547 463.008C222.891 463.008 223.723 464.08 223.723 465.824V466.192C223.723 467.904 222.875 468.992 221.547 468.992ZM236.488 470.272C239.224 470.272 240.6 468.576 241.032 466.432L239.56 466.176C239.24 467.872 238.104 468.944 236.488 468.944C234.168 468.944 232.968 466.928 232.968 464.272C232.968 461.52 234.232 459.664 236.456 459.664C238.216 459.664 239.256 460.8 239.48 462.512L241.032 462.352C240.744 460 239.304 458.368 236.536 458.368C233.16 458.368 231.368 460.8 231.368 464.288C231.368 467.584 232.968 470.272 236.488 470.272ZM249.104 464.128C250.4 463.76 251.008 462.736 251.008 461.664C251.008 460.32 250.224 458.64 247.232 458.64H243.28V470H247.568C250.448 470 251.328 468.336 251.328 466.88C251.328 465.36 250.464 464.368 249.104 464.128ZM247.232 459.92C249.072 459.92 249.504 460.88 249.504 461.776C249.504 462.56 249.184 463.568 247.232 463.568H244.8V459.92H247.232ZM244.8 468.72V464.848H247.648C249.2 464.848 249.824 465.68 249.824 466.736C249.824 467.76 249.264 468.72 247.488 468.72H244.8ZM257.975 470.272C261.111 470.272 263.159 468 263.159 464.32C263.159 460.608 261.111 458.368 257.975 458.368C254.823 458.368 252.775 460.608 252.775 464.32C252.775 467.952 254.823 470.272 257.975 470.272ZM257.975 468.992C255.703 468.992 254.375 467.168 254.375 464.32C254.375 461.408 255.703 459.648 257.975 459.648C260.247 459.648 261.559 461.408 261.559 464.32C261.559 467.216 260.247 468.992 257.975 468.992ZM268.043 470.192C269.995 470.192 271.099 469.184 271.099 467.744C271.099 466.576 270.459 465.84 269.019 465.568L267.467 465.28C266.683 465.136 266.235 464.816 266.235 464.144C266.235 463.36 266.859 462.912 267.883 462.912C268.971 462.912 269.595 463.472 269.771 464.272L271.115 463.968C270.955 462.624 269.739 461.808 267.947 461.808C266.059 461.808 264.907 462.832 264.907 464.208C264.907 465.424 265.675 466.192 267.035 466.448L268.603 466.736C269.323 466.864 269.755 467.152 269.755 467.856C269.755 468.544 269.163 469.072 268.091 469.072C266.923 469.072 266.171 468.496 265.979 467.488L264.603 467.728C264.875 469.312 266.155 470.192 268.043 470.192Z" fill="black"/>
</svg>
