<svg width="285" height="437" viewBox="0 0 285 437" fill="none" xmlns="http://www.w3.org/2000/svg">
<rect width="285" height="437" fill="white"/>
<path d="M61.84 63C66.06 63 68.76 60.04 68.76 55.84C68.76 51.64 66.04 48.8 61.88 48.8H56.76V63H61.84ZM59.34 50.82H61.8C64.58 50.82 66.06 52.96 66.06 55.84C66.06 58.66 64.52 60.98 61.76 60.98H59.34V50.82ZM79.7875 57.5C79.7875 54.44 78.1275 52.76 75.2275 52.76C72.2475 52.76 70.4475 54.8 70.4475 58.1C70.4475 61.38 72.2875 63.24 75.3475 63.24C77.3875 63.24 78.9675 62.28 79.7075 60.54L77.8675 59.7C77.4075 60.78 76.5675 61.36 75.4275 61.36C73.8475 61.36 72.7875 60.28 72.7675 58.6H79.7875V57.5ZM72.7675 57.02C72.8075 55.36 73.6675 54.36 75.1875 54.36C76.6075 54.36 77.4275 55.22 77.4275 56.86V57.02H72.7675ZM82.6255 54.74V59.9C82.6255 61.92 83.4255 63.18 85.8255 63.18C86.4455 63.18 86.8855 63.12 87.4655 63V60.98C87.1455 61.04 86.8855 61.1 86.4855 61.1C85.4855 61.1 85.0255 60.58 85.0255 59.52V54.74H87.4655V53H85.0255V49.52L82.6255 50.48V53H80.8255V54.74H82.6255ZM98.0687 57.5C98.0687 54.44 96.4088 52.76 93.5088 52.76C90.5288 52.76 88.7288 54.8 88.7288 58.1C88.7288 61.38 90.5688 63.24 93.6288 63.24C95.6688 63.24 97.2488 62.28 97.9888 60.54L96.1488 59.7C95.6888 60.78 94.8488 61.36 93.7088 61.36C92.1288 61.36 91.0688 60.28 91.0488 58.6H98.0687V57.5ZM91.0488 57.02C91.0888 55.36 91.9488 54.36 93.4688 54.36C94.8888 54.36 95.7088 55.22 95.7088 56.86V57.02H91.0488ZM104.586 63.24C106.966 63.24 108.646 61.88 109.006 59.66L106.746 59.2C106.526 60.6 105.786 61.34 104.586 61.34C103.046 61.34 102.146 60.1 102.146 57.94C102.146 55.88 103.066 54.64 104.546 54.64C105.726 54.64 106.506 55.38 106.666 56.74L109.006 56.36C108.706 54.08 107.086 52.76 104.606 52.76C101.566 52.76 99.6858 54.74 99.6858 58C99.6858 61.18 101.606 63.24 104.586 63.24ZM111.708 54.74V59.9C111.708 61.92 112.508 63.18 114.908 63.18C115.528 63.18 115.968 63.12 116.548 63V60.98C116.228 61.04 115.968 61.1 115.567 61.1C114.568 61.1 114.108 60.58 114.108 59.52V54.74H116.548V53H114.108V49.52L111.708 50.48V53H109.908V54.74H111.708Z" fill="black"/>
<path d="M60.616 34.272C62.312 34.272 63.592 33.472 64.12 32.256L64.296 34H65.768V27.888H60.824V29.472H63.896V29.68C63.896 30.72 63.304 32.608 61 32.608C58.808 32.608 57.72 30.816 57.72 28.32C57.72 25.728 58.904 24 60.984 24C62.728 24 63.416 25.168 63.592 26.176L65.64 25.824C65.368 24.272 64.088 22.368 61.016 22.368C57.608 22.368 55.608 24.816 55.608 28.336C55.608 31.84 57.48 34.272 60.616 34.272ZM75.0019 29.6C75.0019 27.152 73.6739 25.808 71.3539 25.808C68.9699 25.808 67.5299 27.44 67.5299 30.08C67.5299 32.704 69.0019 34.192 71.4499 34.192C73.0819 34.192 74.3459 33.424 74.9379 32.032L73.4659 31.36C73.0979 32.224 72.4259 32.688 71.5139 32.688C70.2499 32.688 69.4019 31.824 69.3859 30.48H75.0019V29.6ZM69.3859 29.216C69.4179 27.888 70.1059 27.088 71.3219 27.088C72.4579 27.088 73.1139 27.776 73.1139 29.088V29.216H69.3859ZM78.8875 34V29.76C78.8875 28.24 79.5595 27.344 80.6795 27.344C81.6875 27.344 82.1675 27.968 82.1675 29.232V34H84.1035V29.04C84.1035 26.896 83.1915 25.808 81.4475 25.808C80.2155 25.808 79.3355 26.384 78.7915 27.552V26H76.9675V34H78.8875ZM93.2519 29.6C93.2519 27.152 91.9239 25.808 89.6039 25.808C87.2199 25.808 85.7799 27.44 85.7799 30.08C85.7799 32.704 87.2519 34.192 89.6999 34.192C91.3319 34.192 92.5959 33.424 93.1879 32.032L91.7159 31.36C91.3479 32.224 90.6759 32.688 89.7639 32.688C88.4999 32.688 87.6519 31.824 87.6359 30.48H93.2519V29.6ZM87.6359 29.216C87.6679 27.888 88.3559 27.088 89.5719 27.088C90.7079 27.088 91.3639 27.776 91.3639 29.088V29.216H87.6359ZM97.0095 26H95.2175V34H97.1375V30.656C97.1375 29.76 97.2175 28.848 97.8575 28.224C98.2255 27.872 98.7535 27.664 99.5215 27.664H99.7775V25.824C99.6975 25.808 99.6335 25.808 99.5535 25.808C98.2575 25.808 97.4095 26.672 97.0095 27.936V26ZM103.296 34.192C104.576 34.192 105.584 33.6 105.968 32.624C105.984 33.12 106.032 33.6 106.096 34H108.016C107.856 33.44 107.776 32.608 107.776 31.52V29.136C107.776 26.816 106.72 25.808 104.352 25.808C102.288 25.808 100.944 26.864 100.816 28.576H102.784C102.848 27.664 103.408 27.168 104.352 27.168C105.376 27.168 105.84 27.68 105.84 28.88V29.088L104.144 29.296C102.88 29.472 102.112 29.68 101.536 30.016C100.896 30.416 100.56 31.056 100.56 31.824C100.56 33.248 101.648 34.192 103.296 34.192ZM103.904 32.832C103.056 32.832 102.544 32.4 102.544 31.728C102.544 31.04 103.024 30.656 104.08 30.48L105.888 30.208V30.72C105.888 31.984 105.088 32.832 103.904 32.832ZM110.397 27.392V31.52C110.397 33.136 111.037 34.144 112.957 34.144C113.453 34.144 113.805 34.096 114.269 34V32.384C114.013 32.432 113.805 32.48 113.485 32.48C112.685 32.48 112.317 32.064 112.317 31.216V27.392H114.269V26H112.317V23.216L110.397 23.984V26H108.957V27.392H110.397ZM118.03 24.672V22.672H115.95V24.672H118.03ZM117.95 34V26H116.03V34H117.95ZM123.747 34.192C126.051 34.192 127.667 32.672 127.667 29.984C127.667 27.312 126.051 25.808 123.747 25.808C121.443 25.808 119.827 27.312 119.827 29.984C119.827 32.672 121.443 34.192 123.747 34.192ZM123.747 32.736C122.515 32.736 121.779 31.808 121.779 29.984C121.779 28.16 122.515 27.264 123.747 27.264C124.979 27.264 125.699 28.16 125.699 29.984C125.699 31.808 124.979 32.736 123.747 32.736ZM131.481 34V29.76C131.481 28.24 132.153 27.344 133.273 27.344C134.281 27.344 134.761 27.968 134.761 29.232V34H136.697V29.04C136.697 26.896 135.785 25.808 134.041 25.808C132.809 25.808 131.929 26.384 131.385 27.552V26H129.561V34H131.481ZM146.756 34V22.88H145.124C144.772 24.064 143.924 24.656 142.724 24.672H142.404V26.448H142.916C143.588 26.448 144.404 26.224 144.772 25.776V34H146.756Z" fill="black"/>
<circle cx="30.5" cy="28.5" r="10.5" fill="#E2231A"/>
<rect y="174" width="285" height="263" fill="#E6E1E1"/>
<line x1="30" y1="23" x2="30" y2="281" stroke="#E2231A" stroke-width="3"/>
<path d="M30.0001 122L30 381.31" stroke="#FF938E" stroke-width="3"/>
<path d="M29.9806 252L29.9806 383.447" stroke="white" stroke-width="3"/>
<path d="M28.9393 414.061C29.5251 414.646 30.4749 414.646 31.0607 414.061L40.6066 404.515C41.1924 403.929 41.1924 402.979 40.6066 402.393C40.0208 401.808 39.0711 401.808 38.4853 402.393L30 410.879L21.5147 402.393C20.9289 401.808 19.9792 401.808 19.3934 402.393C18.8076 402.979 18.8076 403.929 19.3934 404.515L28.9393 414.061ZM28.5 348L28.5 413L31.5 413L31.5 348L28.5 348Z" fill="black"/>
<path d="M69.36 219L65.304 211.752C67.824 211.032 68.88 209.112 68.88 207.072C68.88 204.264 67.368 201.96 62.976 201.96H56.112V219H59.208V212.16H62.208L65.952 219H69.36ZM62.448 204.312C64.776 204.312 65.64 205.44 65.64 207.072C65.64 208.68 64.776 209.856 62.448 209.856H59.208V204.312H62.448ZM81.8466 212.4C81.8466 208.728 79.8546 206.712 76.3746 206.712C72.7986 206.712 70.6386 209.16 70.6386 213.12C70.6386 217.056 72.8466 219.288 76.5186 219.288C78.9666 219.288 80.8626 218.136 81.7506 216.048L79.5426 215.04C78.9906 216.336 77.9826 217.032 76.6146 217.032C74.7186 217.032 73.4466 215.736 73.4226 213.72H81.8466V212.4ZM73.4226 211.824C73.4706 209.832 74.5026 208.632 76.3266 208.632C78.0306 208.632 79.0146 209.664 79.0146 211.632V211.824H73.4226ZM89.1401 219.288C92.2841 219.288 94.0601 217.752 94.0601 215.496C94.0601 213.6 93.0761 212.448 90.7481 212.04L88.3961 211.608C87.3401 211.416 86.8121 211.056 86.8121 210.24C86.8121 209.304 87.5561 208.8 88.9001 208.8C90.4841 208.8 91.5401 209.472 92.1161 210.552L94.1321 209.472C93.5561 207.744 91.6121 206.712 89.0681 206.712C86.0201 206.712 84.1721 208.248 84.1721 210.408C84.1721 212.328 85.3481 213.504 87.6041 213.912L89.7401 214.296C90.9161 214.488 91.4441 214.824 91.4441 215.688C91.4441 216.552 90.6761 217.176 89.2121 217.176C87.5081 217.176 86.3081 216.408 85.7561 215.064L83.6201 216.024C84.3641 218.136 86.4041 219.288 89.1401 219.288ZM107.182 212.4C107.182 208.728 105.191 206.712 101.711 206.712C98.1345 206.712 95.9745 209.16 95.9745 213.12C95.9745 217.056 98.1825 219.288 101.855 219.288C104.303 219.288 106.199 218.136 107.087 216.048L104.879 215.04C104.327 216.336 103.319 217.032 101.951 217.032C100.055 217.032 98.7825 215.736 98.7585 213.72H107.182V212.4ZM98.7585 211.824C98.8065 209.832 99.8385 208.632 101.663 208.632C103.367 208.632 104.351 209.664 104.351 211.632V211.824H98.7585ZM113.226 219.288C115.146 219.288 116.658 218.4 117.234 216.936C117.258 217.68 117.33 218.4 117.426 219H120.306C120.066 218.16 119.946 216.912 119.946 215.28V211.704C119.946 208.224 118.362 206.712 114.81 206.712C111.714 206.712 109.698 208.296 109.506 210.864H112.458C112.554 209.496 113.394 208.752 114.81 208.752C116.346 208.752 117.042 209.52 117.042 211.32V211.632L114.498 211.944C112.602 212.208 111.45 212.52 110.586 213.024C109.626 213.624 109.122 214.584 109.122 215.736C109.122 217.872 110.754 219.288 113.226 219.288ZM114.138 217.248C112.866 217.248 112.098 216.6 112.098 215.592C112.098 214.56 112.818 213.984 114.402 213.72L117.114 213.312V214.08C117.114 215.976 115.914 217.248 114.138 217.248ZM126.178 207H123.49V219H126.37V213.984C126.37 212.64 126.49 211.272 127.45 210.336C128.002 209.808 128.794 209.496 129.946 209.496H130.33V206.736C130.21 206.712 130.114 206.712 129.994 206.712C128.05 206.712 126.778 208.008 126.178 209.904V207ZM137.456 219.288C140.312 219.288 142.328 217.656 142.76 214.992L140.048 214.44C139.784 216.12 138.896 217.008 137.456 217.008C135.608 217.008 134.528 215.52 134.528 212.928C134.528 210.456 135.632 208.968 137.408 208.968C138.824 208.968 139.76 209.856 139.952 211.488L142.76 211.032C142.4 208.296 140.456 206.712 137.48 206.712C133.832 206.712 131.576 209.088 131.576 213C131.576 216.816 133.88 219.288 137.456 219.288ZM148.425 219V212.64C148.425 210.336 149.409 209.016 151.137 209.016C152.601 209.016 153.345 209.952 153.345 211.776V219H156.249V211.536C156.249 208.368 154.881 206.712 152.289 206.712C150.465 206.712 149.145 207.552 148.425 209.208V201.6H145.545V219H148.425ZM172.705 211.224C172.801 210.864 172.921 210.216 172.969 209.904H173.017C173.041 210.216 173.185 210.864 173.257 211.224L175.297 219H178.225L181.537 207H178.705L176.833 214.992C176.761 215.376 176.689 215.832 176.617 216.288H176.569C176.521 215.832 176.401 215.376 176.329 214.992L174.337 207H171.625L169.657 214.992C169.561 215.376 169.465 215.832 169.393 216.288H169.345C169.297 215.832 169.201 215.376 169.129 214.992L167.281 207H164.449L167.737 219H170.665L172.705 211.224ZM193.901 212.4C193.901 208.728 191.909 206.712 188.429 206.712C184.853 206.712 182.693 209.16 182.693 213.12C182.693 217.056 184.901 219.288 188.573 219.288C191.021 219.288 192.917 218.136 193.805 216.048L191.597 215.04C191.045 216.336 190.037 217.032 188.669 217.032C186.773 217.032 185.501 215.736 185.477 213.72H193.901V212.4ZM185.477 211.824C185.525 209.832 186.557 208.632 188.381 208.632C190.085 208.632 191.069 209.664 191.069 211.632V211.824H185.477ZM206.423 205.656C206.423 204.384 206.951 203.76 208.103 203.76C208.463 203.76 208.895 203.808 209.327 203.88V201.648C208.799 201.528 208.223 201.456 207.623 201.456C205.055 201.456 203.543 202.968 203.543 205.464V207H201.479V209.088H203.543V219H206.423V209.088H209.327V207H206.423V205.656ZM215.547 219.288C217.275 219.288 218.715 218.256 219.291 216.768V219H222.027V207H219.123V213.648C219.123 215.664 218.067 216.984 216.483 216.984C215.091 216.984 214.371 216.024 214.371 214.272V207H211.491V214.704C211.491 217.512 212.619 219.288 215.547 219.288ZM228.722 219V212.64C228.722 210.36 229.73 209.016 231.41 209.016C232.922 209.016 233.642 209.952 233.642 211.848V219H236.546V211.56C236.546 208.344 235.178 206.712 232.562 206.712C230.714 206.712 229.394 207.576 228.578 209.328V207H225.842V219H228.722ZM243.932 219.288C245.732 219.288 247.1 218.376 247.772 216.84V219H250.484V201.6H247.604V208.704C246.908 207.36 245.732 206.712 244.148 206.712C241.148 206.712 239.084 209.28 239.084 213.024C239.084 216.768 241.028 219.288 243.932 219.288ZM244.916 217.08C243.164 217.08 242.084 215.544 242.084 212.976C242.084 210.408 243.14 208.92 244.892 208.92C246.62 208.92 247.676 210.288 247.676 212.64V213.408C247.676 215.664 246.596 217.08 244.916 217.08Z" fill="black"/>
<path d="M56.28 364.8V366.9H60.58V379H63.16V366.9H67.46V364.8H56.28ZM70.4916 379.24C72.0916 379.24 73.3516 378.5 73.8316 377.28C73.8516 377.9 73.9116 378.5 73.9916 379H76.3916C76.1916 378.3 76.0916 377.26 76.0916 375.9V372.92C76.0916 370.02 74.7716 368.76 71.8116 368.76C69.2316 368.76 67.5516 370.08 67.3916 372.22H69.8516C69.9316 371.08 70.6316 370.46 71.8116 370.46C73.0916 370.46 73.6716 371.1 73.6716 372.6V372.86L71.5516 373.12C69.9716 373.34 69.0116 373.6 68.2916 374.02C67.4916 374.52 67.0716 375.32 67.0716 376.28C67.0716 378.06 68.4316 379.24 70.4916 379.24ZM71.2516 377.54C70.1916 377.54 69.5516 377 69.5516 376.16C69.5516 375.3 70.1516 374.82 71.4716 374.6L73.7316 374.26V374.9C73.7316 376.48 72.7316 377.54 71.2516 377.54ZM88.4253 379L84.6053 372.92L88.2653 369H85.3453L81.4453 373.44V364.5H79.0453V379H81.4453V376.02L82.9253 374.48L85.6453 379H88.4253ZM98.3266 373.5C98.3266 370.44 96.6666 368.76 93.7666 368.76C90.7866 368.76 88.9866 370.8 88.9866 374.1C88.9866 377.38 90.8266 379.24 93.8866 379.24C95.9266 379.24 97.5066 378.28 98.2466 376.54L96.4066 375.7C95.9466 376.78 95.1066 377.36 93.9666 377.36C92.3866 377.36 91.3266 376.28 91.3066 374.6H98.3266V373.5ZM91.3066 373.02C91.3466 371.36 92.2066 370.36 93.7266 370.36C95.1466 370.36 95.9666 371.22 95.9666 372.86V373.02H91.3066ZM109.802 364.8L104.542 379H107.162L108.442 375.26H113.982L115.262 379H117.902L112.622 364.8H109.802ZM110.762 368.5C110.922 368.04 111.062 367.54 111.202 366.98H111.242C111.362 367.54 111.502 368.04 111.662 368.5L113.302 373.3H109.122L110.762 368.5ZM123.633 379.24C126.013 379.24 127.693 377.88 128.053 375.66L125.793 375.2C125.573 376.6 124.833 377.34 123.633 377.34C122.093 377.34 121.193 376.1 121.193 373.94C121.193 371.88 122.113 370.64 123.593 370.64C124.773 370.64 125.553 371.38 125.713 372.74L128.053 372.36C127.753 370.08 126.133 368.76 123.653 368.76C120.613 368.76 118.733 370.74 118.733 374C118.733 377.18 120.653 379.24 123.633 379.24ZM130.754 370.74V375.9C130.754 377.92 131.554 379.18 133.954 379.18C134.574 379.18 135.014 379.12 135.594 379V376.98C135.274 377.04 135.014 377.1 134.614 377.1C133.614 377.1 133.154 376.58 133.154 375.52V370.74H135.594V369H133.154V365.52L130.754 366.48V369H128.954V370.74H130.754ZM140.295 367.34V364.84H137.695V367.34H140.295ZM140.195 379V369H137.795V379H140.195ZM147.441 379.24C150.321 379.24 152.341 377.34 152.341 373.98C152.341 370.64 150.321 368.76 147.441 368.76C144.561 368.76 142.541 370.64 142.541 373.98C142.541 377.34 144.561 379.24 147.441 379.24ZM147.441 377.42C145.901 377.42 144.981 376.26 144.981 373.98C144.981 371.7 145.901 370.58 147.441 370.58C148.981 370.58 149.881 371.7 149.881 373.98C149.881 376.26 148.981 377.42 147.441 377.42ZM157.109 379V373.7C157.109 371.8 157.949 370.68 159.349 370.68C160.609 370.68 161.209 371.46 161.209 373.04V379H163.629V372.8C163.629 370.12 162.489 368.76 160.309 368.76C158.769 368.76 157.669 369.48 156.989 370.94V369H154.709V379H157.109Z" fill="black"/>
<path d="M61.7034 350.272C63.3994 350.272 64.6794 349.472 65.2074 348.256L65.3834 350H66.8554V343.888H61.9114V345.472H64.9834V345.68C64.9834 346.72 64.3914 348.608 62.0874 348.608C59.8954 348.608 58.8074 346.816 58.8074 344.32C58.8074 341.728 59.9914 340 62.0714 340C63.8154 340 64.5034 341.168 64.6794 342.176L66.7274 341.824C66.4554 340.272 65.1754 338.368 62.1034 338.368C58.6954 338.368 56.6954 340.816 56.6954 344.336C56.6954 347.84 58.5674 350.272 61.7034 350.272ZM76.0893 345.6C76.0893 343.152 74.7613 341.808 72.4413 341.808C70.0573 341.808 68.6173 343.44 68.6173 346.08C68.6173 348.704 70.0893 350.192 72.5373 350.192C74.1693 350.192 75.4333 349.424 76.0253 348.032L74.5533 347.36C74.1853 348.224 73.5133 348.688 72.6013 348.688C71.3373 348.688 70.4893 347.824 70.4733 346.48H76.0893V345.6ZM70.4733 345.216C70.5053 343.888 71.1933 343.088 72.4093 343.088C73.5453 343.088 74.2013 343.776 74.2013 345.088V345.216H70.4733ZM79.9749 350V345.76C79.9749 344.24 80.6469 343.344 81.7669 343.344C82.7749 343.344 83.2549 343.968 83.2549 345.232V350H85.1909V345.04C85.1909 342.896 84.2789 341.808 82.5349 341.808C81.3029 341.808 80.4229 342.384 79.8789 343.552V342H78.0549V350H79.9749ZM94.3393 345.6C94.3393 343.152 93.0113 341.808 90.6913 341.808C88.3073 341.808 86.8673 343.44 86.8673 346.08C86.8673 348.704 88.3393 350.192 90.7873 350.192C92.4193 350.192 93.6833 349.424 94.2753 348.032L92.8033 347.36C92.4353 348.224 91.7633 348.688 90.8513 348.688C89.5873 348.688 88.7393 347.824 88.7233 346.48H94.3393V345.6ZM88.7233 345.216C88.7553 343.888 89.4433 343.088 90.6593 343.088C91.7953 343.088 92.4513 343.776 92.4513 345.088V345.216H88.7233ZM98.0969 342H96.3049V350H98.2249V346.656C98.2249 345.76 98.3049 344.848 98.9449 344.224C99.3129 343.872 99.8409 343.664 100.609 343.664H100.865V341.824C100.785 341.808 100.721 341.808 100.641 341.808C99.3449 341.808 98.4969 342.672 98.0969 343.936V342ZM104.384 350.192C105.664 350.192 106.672 349.6 107.056 348.624C107.072 349.12 107.12 349.6 107.184 350H109.104C108.944 349.44 108.864 348.608 108.864 347.52V345.136C108.864 342.816 107.808 341.808 105.44 341.808C103.376 341.808 102.032 342.864 101.904 344.576H103.872C103.936 343.664 104.496 343.168 105.44 343.168C106.464 343.168 106.928 343.68 106.928 344.88V345.088L105.232 345.296C103.968 345.472 103.2 345.68 102.624 346.016C101.984 346.416 101.648 347.056 101.648 347.824C101.648 349.248 102.736 350.192 104.384 350.192ZM104.992 348.832C104.144 348.832 103.632 348.4 103.632 347.728C103.632 347.04 104.112 346.656 105.168 346.48L106.976 346.208V346.72C106.976 347.984 106.176 348.832 104.992 348.832ZM111.485 343.392V347.52C111.485 349.136 112.125 350.144 114.045 350.144C114.541 350.144 114.893 350.096 115.357 350V348.384C115.101 348.432 114.893 348.48 114.573 348.48C113.773 348.48 113.405 348.064 113.405 347.216V343.392H115.357V342H113.405V339.216L111.485 339.984V342H110.045V343.392H111.485ZM119.117 340.672V338.672H117.037V340.672H119.117ZM119.037 350V342H117.117V350H119.037ZM124.834 350.192C127.138 350.192 128.754 348.672 128.754 345.984C128.754 343.312 127.138 341.808 124.834 341.808C122.53 341.808 120.914 343.312 120.914 345.984C120.914 348.672 122.53 350.192 124.834 350.192ZM124.834 348.736C123.602 348.736 122.866 347.808 122.866 345.984C122.866 344.16 123.602 343.264 124.834 343.264C126.066 343.264 126.786 344.16 126.786 345.984C126.786 347.808 126.066 348.736 124.834 348.736ZM132.569 350V345.76C132.569 344.24 133.241 343.344 134.361 343.344C135.369 343.344 135.849 343.968 135.849 345.232V350H137.785V345.04C137.785 342.896 136.873 341.808 135.129 341.808C133.897 341.808 133.017 342.384 132.473 343.552V342H130.649V350H132.569ZM152.148 345.872H150.404V338.88H148.228L143.316 346.016V347.344H148.484V350H150.404V347.344H152.148V345.872ZM148.532 345.872H145.14C145.444 345.552 145.668 345.216 146.052 344.656L147.812 342.032C148.148 341.52 148.356 341.184 148.532 340.736H148.564C148.532 341.216 148.532 341.456 148.532 342.208V345.872Z" fill="black"/>
<circle cx="30.5" cy="344.5" r="10.5" fill="black"/>
<path d="M57.76 273.8V288H60.34V282.5H63.36C66.42 282.5 68.34 280.8 68.34 278.12C68.34 275.5 66.4 273.8 63.38 273.8H57.76ZM60.34 280.54V275.78H62.9C64.58 275.78 65.62 276.7 65.62 278.16C65.62 279.64 64.58 280.54 62.9 280.54H60.34ZM72.6525 278H70.4125V288H72.8125V283.82C72.8125 282.7 72.9125 281.56 73.7125 280.78C74.1725 280.34 74.8325 280.08 75.7925 280.08H76.1125V277.78C76.0125 277.76 75.9325 277.76 75.8325 277.76C74.2125 277.76 73.1525 278.84 72.6525 280.42V278ZM82.0506 288.24C84.9306 288.24 86.9506 286.34 86.9506 282.98C86.9506 279.64 84.9306 277.76 82.0506 277.76C79.1706 277.76 77.1506 279.64 77.1506 282.98C77.1506 286.34 79.1706 288.24 82.0506 288.24ZM82.0506 286.42C80.5106 286.42 79.5906 285.26 79.5906 282.98C79.5906 280.7 80.5106 279.58 82.0506 279.58C83.5906 279.58 84.4906 280.7 84.4906 282.98C84.4906 285.26 83.5906 286.42 82.0506 286.42ZM93.8634 288L97.4234 278H94.9034L92.9434 284.34C92.7834 284.86 92.6634 285.36 92.5834 285.82H92.5234C92.4434 285.36 92.3234 284.86 92.1634 284.34L90.2234 278H87.7034L91.2634 288H93.8634ZM101.682 276.34V273.84H99.082V276.34H101.682ZM101.582 288V278H99.182V288H101.582ZM107.988 288.24C109.488 288.24 110.628 287.48 111.188 286.2V288H113.448V273.5H111.048V279.42C110.468 278.3 109.488 277.76 108.168 277.76C105.668 277.76 103.948 279.9 103.948 283.02C103.948 286.14 105.568 288.24 107.988 288.24ZM108.808 286.4C107.348 286.4 106.448 285.12 106.448 282.98C106.448 280.84 107.328 279.6 108.788 279.6C110.228 279.6 111.108 280.74 111.108 282.7V283.34C111.108 285.22 110.208 286.4 108.808 286.4ZM125.143 282.5C125.143 279.44 123.483 277.76 120.583 277.76C117.603 277.76 115.803 279.8 115.803 283.1C115.803 286.38 117.643 288.24 120.703 288.24C122.743 288.24 124.323 287.28 125.063 285.54L123.223 284.7C122.763 285.78 121.923 286.36 120.783 286.36C119.203 286.36 118.143 285.28 118.123 283.6H125.143V282.5ZM118.123 282.02C118.163 280.36 119.023 279.36 120.543 279.36C121.963 279.36 122.783 280.22 122.783 281.86V282.02H118.123ZM136.338 288.24C138.958 288.24 140.438 286.96 140.438 285.08C140.438 283.5 139.618 282.54 137.678 282.2L135.718 281.84C134.838 281.68 134.398 281.38 134.398 280.7C134.398 279.92 135.018 279.5 136.138 279.5C137.458 279.5 138.338 280.06 138.818 280.96L140.498 280.06C140.018 278.62 138.398 277.76 136.278 277.76C133.738 277.76 132.198 279.04 132.198 280.84C132.198 282.44 133.178 283.42 135.058 283.76L136.838 284.08C137.818 284.24 138.258 284.52 138.258 285.24C138.258 285.96 137.618 286.48 136.398 286.48C134.978 286.48 133.978 285.84 133.518 284.72L131.738 285.52C132.358 287.28 134.058 288.24 136.338 288.24ZM146.933 288.24C149.813 288.24 151.833 286.34 151.833 282.98C151.833 279.64 149.813 277.76 146.933 277.76C144.053 277.76 142.033 279.64 142.033 282.98C142.033 286.34 144.053 288.24 146.933 288.24ZM146.933 286.42C145.393 286.42 144.473 285.26 144.473 282.98C144.473 280.7 145.393 279.58 146.933 279.58C148.473 279.58 149.373 280.7 149.373 282.98C149.373 285.26 148.473 286.42 146.933 286.42ZM154.202 273.5V288H156.602V273.5H154.202ZM162.928 288.24C164.368 288.24 165.568 287.38 166.048 286.14V288H168.328V278H165.908V283.54C165.908 285.22 165.028 286.32 163.708 286.32C162.548 286.32 161.948 285.52 161.948 284.06V278H159.548V284.42C159.548 286.76 160.488 288.24 162.928 288.24ZM171.926 279.74V284.9C171.926 286.92 172.726 288.18 175.126 288.18C175.746 288.18 176.186 288.12 176.766 288V285.98C176.446 286.04 176.186 286.1 175.786 286.1C174.786 286.1 174.326 285.58 174.326 284.52V279.74H176.766V278H174.326V274.52L171.926 275.48V278H170.126V279.74H171.926ZM181.467 276.34V273.84H178.867V276.34H181.467ZM181.367 288V278H178.967V288H181.367ZM188.613 288.24C191.493 288.24 193.513 286.34 193.513 282.98C193.513 279.64 191.493 277.76 188.613 277.76C185.733 277.76 183.713 279.64 183.713 282.98C183.713 286.34 185.733 288.24 188.613 288.24ZM188.613 286.42C187.073 286.42 186.153 285.26 186.153 282.98C186.153 280.7 187.073 279.58 188.613 279.58C190.153 279.58 191.053 280.7 191.053 282.98C191.053 285.26 190.153 286.42 188.613 286.42ZM198.281 288V282.7C198.281 280.8 199.121 279.68 200.521 279.68C201.781 279.68 202.381 280.46 202.381 282.04V288H204.801V281.8C204.801 279.12 203.661 277.76 201.481 277.76C199.941 277.76 198.841 278.48 198.161 279.94V278H195.881V288H198.281ZM211.397 288.24C214.017 288.24 215.497 286.96 215.497 285.08C215.497 283.5 214.677 282.54 212.737 282.2L210.777 281.84C209.897 281.68 209.457 281.38 209.457 280.7C209.457 279.92 210.077 279.5 211.197 279.5C212.517 279.5 213.397 280.06 213.877 280.96L215.557 280.06C215.077 278.62 213.457 277.76 211.337 277.76C208.797 277.76 207.257 279.04 207.257 280.84C207.257 282.44 208.237 283.42 210.117 283.76L211.897 284.08C212.877 284.24 213.317 284.52 213.317 285.24C213.317 285.96 212.677 286.48 211.457 286.48C210.037 286.48 209.037 285.84 208.577 284.72L206.797 285.52C207.417 287.28 209.117 288.24 211.397 288.24Z" fill="black"/>
<path d="M61.8645 259.272C63.5605 259.272 64.8405 258.472 65.3685 257.256L65.5445 259H67.0165V252.888H62.0725V254.472H65.1445V254.68C65.1445 255.72 64.5525 257.608 62.2485 257.608C60.0565 257.608 58.9685 255.816 58.9685 253.32C58.9685 250.728 60.1525 249 62.2325 249C63.9765 249 64.6645 250.168 64.8405 251.176L66.8885 250.824C66.6165 249.272 65.3365 247.368 62.2645 247.368C58.8565 247.368 56.8565 249.816 56.8565 253.336C56.8565 256.84 58.7285 259.272 61.8645 259.272ZM76.2504 254.6C76.2504 252.152 74.9224 250.808 72.6024 250.808C70.2184 250.808 68.7784 252.44 68.7784 255.08C68.7784 257.704 70.2504 259.192 72.6984 259.192C74.3304 259.192 75.5944 258.424 76.1864 257.032L74.7144 256.36C74.3464 257.224 73.6744 257.688 72.7624 257.688C71.4984 257.688 70.6504 256.824 70.6344 255.48H76.2504V254.6ZM70.6344 254.216C70.6664 252.888 71.3544 252.088 72.5704 252.088C73.7064 252.088 74.3624 252.776 74.3624 254.088V254.216H70.6344ZM80.136 259V254.76C80.136 253.24 80.808 252.344 81.928 252.344C82.936 252.344 83.416 252.968 83.416 254.232V259H85.352V254.04C85.352 251.896 84.44 250.808 82.696 250.808C81.464 250.808 80.584 251.384 80.04 252.552V251H78.216V259H80.136ZM94.5004 254.6C94.5004 252.152 93.1724 250.808 90.8524 250.808C88.4684 250.808 87.0284 252.44 87.0284 255.08C87.0284 257.704 88.5004 259.192 90.9484 259.192C92.5804 259.192 93.8444 258.424 94.4364 257.032L92.9644 256.36C92.5964 257.224 91.9244 257.688 91.0124 257.688C89.7484 257.688 88.9004 256.824 88.8844 255.48H94.5004V254.6ZM88.8844 254.216C88.9164 252.888 89.6044 252.088 90.8204 252.088C91.9564 252.088 92.6124 252.776 92.6124 254.088V254.216H88.8844ZM98.258 251H96.466V259H98.386V255.656C98.386 254.76 98.466 253.848 99.106 253.224C99.474 252.872 100.002 252.664 100.77 252.664H101.026V250.824C100.946 250.808 100.882 250.808 100.802 250.808C99.506 250.808 98.658 251.672 98.258 252.936V251ZM104.545 259.192C105.825 259.192 106.833 258.6 107.217 257.624C107.233 258.12 107.281 258.6 107.345 259H109.265C109.105 258.44 109.025 257.608 109.025 256.52V254.136C109.025 251.816 107.969 250.808 105.601 250.808C103.537 250.808 102.193 251.864 102.065 253.576H104.033C104.097 252.664 104.657 252.168 105.601 252.168C106.625 252.168 107.089 252.68 107.089 253.88V254.088L105.393 254.296C104.129 254.472 103.361 254.68 102.785 255.016C102.145 255.416 101.809 256.056 101.809 256.824C101.809 258.248 102.897 259.192 104.545 259.192ZM105.153 257.832C104.305 257.832 103.793 257.4 103.793 256.728C103.793 256.04 104.273 255.656 105.329 255.48L107.137 255.208V255.72C107.137 256.984 106.337 257.832 105.153 257.832ZM111.646 252.392V256.52C111.646 258.136 112.286 259.144 114.206 259.144C114.702 259.144 115.054 259.096 115.518 259V257.384C115.262 257.432 115.054 257.48 114.734 257.48C113.934 257.48 113.566 257.064 113.566 256.216V252.392H115.518V251H113.566V248.216L111.646 248.984V251H110.206V252.392H111.646ZM119.279 249.672V247.672H117.199V249.672H119.279ZM119.199 259V251H117.279V259H119.199ZM124.995 259.192C127.299 259.192 128.915 257.672 128.915 254.984C128.915 252.312 127.299 250.808 124.995 250.808C122.691 250.808 121.075 252.312 121.075 254.984C121.075 257.672 122.691 259.192 124.995 259.192ZM124.995 257.736C123.763 257.736 123.027 256.808 123.027 254.984C123.027 253.16 123.763 252.264 124.995 252.264C126.227 252.264 126.947 253.16 126.947 254.984C126.947 256.808 126.227 257.736 124.995 257.736ZM132.73 259V254.76C132.73 253.24 133.402 252.344 134.522 252.344C135.53 252.344 136.01 252.968 136.01 254.232V259H137.946V254.04C137.946 251.896 137.034 250.808 135.29 250.808C134.058 250.808 133.178 251.384 132.634 252.552V251H130.81V259H132.73ZM147.701 259.24C150.181 259.24 151.749 257.96 151.749 255.864C151.749 254.328 150.885 253.432 149.285 253.176C150.581 252.872 151.397 251.88 151.397 250.616C151.397 248.76 150.053 247.64 147.701 247.64C145.253 247.64 143.717 248.984 143.717 251.144L145.637 251.464C145.637 250.008 146.341 249.192 147.589 249.192C148.741 249.192 149.397 249.8 149.397 250.84C149.397 251.912 148.757 252.568 147.445 252.568H146.869V254.008H147.493C148.981 254.008 149.717 254.632 149.717 255.8C149.717 257.016 149.029 257.672 147.749 257.672C146.421 257.672 145.573 256.872 145.525 255.528L143.573 255.736C143.605 257.88 145.221 259.24 147.701 259.24Z" fill="black"/>
<circle cx="30.5" cy="253.5" r="10.5" fill="white"/>
<path d="M56.7568 149.04C56.7568 152.24 58.8368 154.34 62.4768 154.34C66.1168 154.34 68.1968 152.24 68.1968 149.04V139.8H65.6168V148.9C65.6168 150.9 64.4768 152.16 62.4768 152.16C60.4768 152.16 59.3368 150.9 59.3368 148.9V139.8H56.7568V149.04ZM73.7476 154V148.7C73.7476 146.8 74.5876 145.68 75.9876 145.68C77.2476 145.68 77.8476 146.46 77.8476 148.04V154H80.2676V147.8C80.2676 145.12 79.1276 143.76 76.9476 143.76C75.4076 143.76 74.3076 144.48 73.6276 145.94V144H71.3476V154H73.7476ZM86.423 154.24C87.923 154.24 89.063 153.48 89.623 152.2V154H91.883V139.5H89.483V145.42C88.903 144.3 87.923 143.76 86.603 143.76C84.103 143.76 82.383 145.9 82.383 149.02C82.383 152.14 84.003 154.24 86.423 154.24ZM87.243 152.4C85.783 152.4 84.883 151.12 84.883 148.98C84.883 146.84 85.763 145.6 87.223 145.6C88.663 145.6 89.543 146.74 89.543 148.7V149.34C89.543 151.22 88.643 152.4 87.243 152.4ZM103.578 148.5C103.578 145.44 101.918 143.76 99.018 143.76C96.038 143.76 94.238 145.8 94.238 149.1C94.238 152.38 96.078 154.24 99.138 154.24C101.178 154.24 102.758 153.28 103.498 151.54L101.658 150.7C101.198 151.78 100.358 152.36 99.218 152.36C97.638 152.36 96.578 151.28 96.558 149.6H103.578V148.5ZM96.558 148.02C96.598 146.36 97.458 145.36 98.978 145.36C100.398 145.36 101.218 146.22 101.218 147.86V148.02H96.558ZM108.275 144H106.035V154H108.435V149.82C108.435 148.7 108.535 147.56 109.335 146.78C109.795 146.34 110.455 146.08 111.415 146.08H111.735V143.78C111.635 143.76 111.555 143.76 111.455 143.76C109.835 143.76 108.775 144.84 108.275 146.42V144ZM117.293 154.24C119.913 154.24 121.393 152.96 121.393 151.08C121.393 149.5 120.573 148.54 118.633 148.2L116.673 147.84C115.793 147.68 115.353 147.38 115.353 146.7C115.353 145.92 115.973 145.5 117.093 145.5C118.413 145.5 119.293 146.06 119.773 146.96L121.453 146.06C120.973 144.62 119.353 143.76 117.233 143.76C114.693 143.76 113.153 145.04 113.153 146.84C113.153 148.44 114.133 149.42 116.013 149.76L117.793 150.08C118.773 150.24 119.213 150.52 119.213 151.24C119.213 151.96 118.573 152.48 117.353 152.48C115.933 152.48 114.933 151.84 114.473 150.72L112.693 151.52C113.313 153.28 115.013 154.24 117.293 154.24ZM124.307 145.74V150.9C124.307 152.92 125.107 154.18 127.507 154.18C128.127 154.18 128.567 154.12 129.147 154V151.98C128.827 152.04 128.567 152.1 128.167 152.1C127.167 152.1 126.707 151.58 126.707 150.52V145.74H129.147V144H126.707V140.52L124.307 141.48V144H122.507V145.74H124.307ZM133.868 154.24C135.468 154.24 136.728 153.5 137.208 152.28C137.228 152.9 137.288 153.5 137.368 154H139.768C139.568 153.3 139.468 152.26 139.468 150.9V147.92C139.468 145.02 138.148 143.76 135.188 143.76C132.608 143.76 130.928 145.08 130.768 147.22H133.228C133.308 146.08 134.008 145.46 135.188 145.46C136.468 145.46 137.048 146.1 137.048 147.6V147.86L134.928 148.12C133.348 148.34 132.388 148.6 131.668 149.02C130.868 149.52 130.448 150.32 130.448 151.28C130.448 153.06 131.808 154.24 133.868 154.24ZM134.628 152.54C133.568 152.54 132.928 152 132.928 151.16C132.928 150.3 133.528 149.82 134.848 149.6L137.108 149.26V149.9C137.108 151.48 136.108 152.54 134.628 152.54ZM144.822 154V148.7C144.822 146.8 145.662 145.68 147.062 145.68C148.322 145.68 148.922 146.46 148.922 148.04V154H151.342V147.8C151.342 145.12 150.202 143.76 148.022 143.76C146.482 143.76 145.382 144.48 144.702 145.94V144H142.422V154H144.822ZM157.497 154.24C158.997 154.24 160.137 153.48 160.697 152.2V154H162.957V139.5H160.557V145.42C159.977 144.3 158.997 143.76 157.677 143.76C155.177 143.76 153.457 145.9 153.457 149.02C153.457 152.14 155.077 154.24 157.497 154.24ZM158.317 152.4C156.857 152.4 155.957 151.12 155.957 148.98C155.957 146.84 156.837 145.6 158.297 145.6C159.737 145.6 160.617 146.74 160.617 148.7V149.34C160.617 151.22 159.717 152.4 158.317 152.4Z" fill="black"/>
<path d="M60.616 125.272C62.312 125.272 63.592 124.472 64.12 123.256L64.296 125H65.768V118.888H60.824V120.472H63.896V120.68C63.896 121.72 63.304 123.608 61 123.608C58.808 123.608 57.72 121.816 57.72 119.32C57.72 116.728 58.904 115 60.984 115C62.728 115 63.416 116.168 63.592 117.176L65.64 116.824C65.368 115.272 64.088 113.368 61.016 113.368C57.608 113.368 55.608 115.816 55.608 119.336C55.608 122.84 57.48 125.272 60.616 125.272ZM75.0019 120.6C75.0019 118.152 73.6739 116.808 71.3539 116.808C68.9699 116.808 67.5299 118.44 67.5299 121.08C67.5299 123.704 69.0019 125.192 71.4499 125.192C73.0819 125.192 74.3459 124.424 74.9379 123.032L73.4659 122.36C73.0979 123.224 72.4259 123.688 71.5139 123.688C70.2499 123.688 69.4019 122.824 69.3859 121.48H75.0019V120.6ZM69.3859 120.216C69.4179 118.888 70.1059 118.088 71.3219 118.088C72.4579 118.088 73.1139 118.776 73.1139 120.088V120.216H69.3859ZM78.8875 125V120.76C78.8875 119.24 79.5595 118.344 80.6795 118.344C81.6875 118.344 82.1675 118.968 82.1675 120.232V125H84.1035V120.04C84.1035 117.896 83.1915 116.808 81.4475 116.808C80.2155 116.808 79.3355 117.384 78.7915 118.552V117H76.9675V125H78.8875ZM93.2519 120.6C93.2519 118.152 91.9239 116.808 89.6039 116.808C87.2199 116.808 85.7799 118.44 85.7799 121.08C85.7799 123.704 87.2519 125.192 89.6999 125.192C91.3319 125.192 92.5959 124.424 93.1879 123.032L91.7159 122.36C91.3479 123.224 90.6759 123.688 89.7639 123.688C88.4999 123.688 87.6519 122.824 87.6359 121.48H93.2519V120.6ZM87.6359 120.216C87.6679 118.888 88.3559 118.088 89.5719 118.088C90.7079 118.088 91.3639 118.776 91.3639 120.088V120.216H87.6359ZM97.0095 117H95.2175V125H97.1375V121.656C97.1375 120.76 97.2175 119.848 97.8575 119.224C98.2255 118.872 98.7535 118.664 99.5215 118.664H99.7775V116.824C99.6975 116.808 99.6335 116.808 99.5535 116.808C98.2575 116.808 97.4095 117.672 97.0095 118.936V117ZM103.296 125.192C104.576 125.192 105.584 124.6 105.968 123.624C105.984 124.12 106.032 124.6 106.096 125H108.016C107.856 124.44 107.776 123.608 107.776 122.52V120.136C107.776 117.816 106.72 116.808 104.352 116.808C102.288 116.808 100.944 117.864 100.816 119.576H102.784C102.848 118.664 103.408 118.168 104.352 118.168C105.376 118.168 105.84 118.68 105.84 119.88V120.088L104.144 120.296C102.88 120.472 102.112 120.68 101.536 121.016C100.896 121.416 100.56 122.056 100.56 122.824C100.56 124.248 101.648 125.192 103.296 125.192ZM103.904 123.832C103.056 123.832 102.544 123.4 102.544 122.728C102.544 122.04 103.024 121.656 104.08 121.48L105.888 121.208V121.72C105.888 122.984 105.088 123.832 103.904 123.832ZM110.397 118.392V122.52C110.397 124.136 111.037 125.144 112.957 125.144C113.453 125.144 113.805 125.096 114.269 125V123.384C114.013 123.432 113.805 123.48 113.485 123.48C112.685 123.48 112.317 123.064 112.317 122.216V118.392H114.269V117H112.317V114.216L110.397 114.984V117H108.957V118.392H110.397ZM118.03 115.672V113.672H115.95V115.672H118.03ZM117.95 125V117H116.03V125H117.95ZM123.747 125.192C126.051 125.192 127.667 123.672 127.667 120.984C127.667 118.312 126.051 116.808 123.747 116.808C121.443 116.808 119.827 118.312 119.827 120.984C119.827 123.672 121.443 125.192 123.747 125.192ZM123.747 123.736C122.515 123.736 121.779 122.808 121.779 120.984C121.779 119.16 122.515 118.264 123.747 118.264C124.979 118.264 125.699 119.16 125.699 120.984C125.699 122.808 124.979 123.736 123.747 123.736ZM131.481 125V120.76C131.481 119.24 132.153 118.344 133.273 118.344C134.281 118.344 134.761 118.968 134.761 120.232V125H136.697V120.04C136.697 117.896 135.785 116.808 134.041 116.808C132.809 116.808 131.929 117.384 131.385 118.552V117H129.561V125H131.481ZM150.148 125V123.352H145.012C146.116 122.664 146.964 122.024 147.764 121.304C149.316 119.896 150.036 118.584 150.036 117.048C150.036 114.872 148.644 113.64 146.292 113.64C143.892 113.64 142.404 114.936 142.404 116.968C142.404 117.24 142.436 117.544 142.516 117.848L144.5 118.04C144.42 117.672 144.388 117.352 144.388 117.064C144.388 115.96 145.06 115.256 146.196 115.256C147.316 115.256 147.94 115.928 147.94 117.144C147.94 118.36 147.492 119.256 146.228 120.44C145.012 121.592 143.604 122.664 142.34 123.496V125H150.148Z" fill="black"/>
<circle cx="30.5" cy="119.5" r="10.5" fill="#FF938E"/>
</svg>
