<svg width="1359" height="244" viewBox="0 0 1359 244" fill="none" xmlns="http://www.w3.org/2000/svg">
<rect x="679" width="680" height="244" fill="#E6E1E1"/>
<path d="M1079.45 177.28V180.64H1086.33V200H1090.46V180.64H1097.34V177.28H1079.45ZM1102.19 200.384C1104.75 200.384 1106.76 199.2 1107.53 197.248C1107.56 198.24 1107.66 199.2 1107.79 200H1111.63C1111.31 198.88 1111.15 197.216 1111.15 195.04V190.272C1111.15 185.632 1109.03 183.616 1104.3 183.616C1100.17 183.616 1097.48 185.728 1097.23 189.152H1101.16C1101.29 187.328 1102.41 186.336 1104.3 186.336C1106.35 186.336 1107.27 187.36 1107.27 189.76V190.176L1103.88 190.592C1101.35 190.944 1099.82 191.36 1098.67 192.032C1097.39 192.832 1096.71 194.112 1096.71 195.648C1096.71 198.496 1098.89 200.384 1102.19 200.384ZM1103.4 197.664C1101.71 197.664 1100.68 196.8 1100.68 195.456C1100.68 194.08 1101.64 193.312 1103.75 192.96L1107.37 192.416V193.44C1107.37 195.968 1105.77 197.664 1103.4 197.664ZM1130.88 200L1124.77 190.272L1130.62 184H1125.95L1119.71 191.104V176.8H1115.87V200H1119.71V195.232L1122.08 192.768L1126.43 200H1130.88ZM1146.72 191.2C1146.72 186.304 1144.07 183.616 1139.43 183.616C1134.66 183.616 1131.78 186.88 1131.78 192.16C1131.78 197.408 1134.72 200.384 1139.62 200.384C1142.88 200.384 1145.41 198.848 1146.59 196.064L1143.65 194.72C1142.91 196.448 1141.57 197.376 1139.75 197.376C1137.22 197.376 1135.52 195.648 1135.49 192.96H1146.72V191.2ZM1135.49 190.432C1135.55 187.776 1136.93 186.176 1139.36 186.176C1141.63 186.176 1142.95 187.552 1142.95 190.176V190.432H1135.49ZM1165.08 177.28L1156.67 200H1160.86L1162.91 194.016H1171.77L1173.82 200H1178.04L1169.59 177.28H1165.08ZM1166.62 183.2C1166.87 182.464 1167.1 181.664 1167.32 180.768H1167.39C1167.58 181.664 1167.8 182.464 1168.06 183.2L1170.68 190.88H1163.99L1166.62 183.2ZM1187.21 200.384C1191.02 200.384 1193.71 198.208 1194.28 194.656L1190.67 193.92C1190.32 196.16 1189.13 197.344 1187.21 197.344C1184.75 197.344 1183.31 195.36 1183.31 191.904C1183.31 188.608 1184.78 186.624 1187.15 186.624C1189.04 186.624 1190.28 187.808 1190.54 189.984L1194.28 189.376C1193.8 185.728 1191.21 183.616 1187.24 183.616C1182.38 183.616 1179.37 186.784 1179.37 192C1179.37 197.088 1182.44 200.384 1187.21 200.384ZM1198.61 186.784V195.04C1198.61 198.272 1199.89 200.288 1203.73 200.288C1204.72 200.288 1205.42 200.192 1206.35 200V196.768C1205.84 196.864 1205.42 196.96 1204.78 196.96C1203.18 196.96 1202.45 196.128 1202.45 194.432V186.784H1206.35V184H1202.45V178.432L1198.61 179.968V184H1195.73V186.784H1198.61ZM1213.87 181.344V177.344H1209.71V181.344H1213.87ZM1213.71 200V184H1209.87V200H1213.71ZM1225.31 200.384C1229.91 200.384 1233.15 197.344 1233.15 191.968C1233.15 186.624 1229.91 183.616 1225.31 183.616C1220.7 183.616 1217.47 186.624 1217.47 191.968C1217.47 197.344 1220.7 200.384 1225.31 200.384ZM1225.31 197.472C1222.84 197.472 1221.37 195.616 1221.37 191.968C1221.37 188.32 1222.84 186.528 1225.31 186.528C1227.77 186.528 1229.21 188.32 1229.21 191.968C1229.21 195.616 1227.77 197.472 1225.31 197.472ZM1240.78 200V191.52C1240.78 188.48 1242.12 186.688 1244.36 186.688C1246.38 186.688 1247.34 187.936 1247.34 190.464V200H1251.21V190.08C1251.21 185.792 1249.38 183.616 1245.9 183.616C1243.43 183.616 1241.67 184.768 1240.58 187.104V184H1236.94V200H1240.78Z" fill="black"/>
<path d="M1084.7 156.272C1086.4 156.272 1087.68 155.472 1088.21 154.256L1088.38 156H1089.86V149.888H1084.91V151.472H1087.98V151.68C1087.98 152.72 1087.39 154.608 1085.09 154.608C1082.9 154.608 1081.81 152.816 1081.81 150.32C1081.81 147.728 1082.99 146 1085.07 146C1086.82 146 1087.5 147.168 1087.68 148.176L1089.73 147.824C1089.46 146.272 1088.18 144.368 1085.1 144.368C1081.7 144.368 1079.7 146.816 1079.7 150.336C1079.7 153.84 1081.57 156.272 1084.7 156.272ZM1099.09 151.6C1099.09 149.152 1097.76 147.808 1095.44 147.808C1093.06 147.808 1091.62 149.44 1091.62 152.08C1091.62 154.704 1093.09 156.192 1095.54 156.192C1097.17 156.192 1098.43 155.424 1099.03 154.032L1097.55 153.36C1097.19 154.224 1096.51 154.688 1095.6 154.688C1094.34 154.688 1093.49 153.824 1093.47 152.48H1099.09V151.6ZM1093.47 151.216C1093.51 149.888 1094.19 149.088 1095.41 149.088C1096.55 149.088 1097.2 149.776 1097.2 151.088V151.216H1093.47ZM1102.97 156V151.76C1102.97 150.24 1103.65 149.344 1104.77 149.344C1105.77 149.344 1106.25 149.968 1106.25 151.232V156H1108.19V151.04C1108.19 148.896 1107.28 147.808 1105.53 147.808C1104.3 147.808 1103.42 148.384 1102.88 149.552V148H1101.05V156H1102.97ZM1117.34 151.6C1117.34 149.152 1116.01 147.808 1113.69 147.808C1111.31 147.808 1109.87 149.44 1109.87 152.08C1109.87 154.704 1111.34 156.192 1113.79 156.192C1115.42 156.192 1116.68 155.424 1117.28 154.032L1115.8 153.36C1115.44 154.224 1114.76 154.688 1113.85 154.688C1112.59 154.688 1111.74 153.824 1111.72 152.48H1117.34V151.6ZM1111.72 151.216C1111.76 149.888 1112.44 149.088 1113.66 149.088C1114.8 149.088 1115.45 149.776 1115.45 151.088V151.216H1111.72ZM1121.1 148H1119.3V156H1121.22V152.656C1121.22 151.76 1121.3 150.848 1121.94 150.224C1122.31 149.872 1122.84 149.664 1123.61 149.664H1123.86V147.824C1123.78 147.808 1123.72 147.808 1123.64 147.808C1122.34 147.808 1121.5 148.672 1121.1 149.936V148ZM1127.38 156.192C1128.66 156.192 1129.67 155.6 1130.06 154.624C1130.07 155.12 1130.12 155.6 1130.18 156H1132.1C1131.94 155.44 1131.86 154.608 1131.86 153.52V151.136C1131.86 148.816 1130.81 147.808 1128.44 147.808C1126.38 147.808 1125.03 148.864 1124.9 150.576H1126.87C1126.94 149.664 1127.5 149.168 1128.44 149.168C1129.46 149.168 1129.93 149.68 1129.93 150.88V151.088L1128.23 151.296C1126.97 151.472 1126.2 151.68 1125.62 152.016C1124.98 152.416 1124.65 153.056 1124.65 153.824C1124.65 155.248 1125.74 156.192 1127.38 156.192ZM1127.99 154.832C1127.14 154.832 1126.63 154.4 1126.63 153.728C1126.63 153.04 1127.11 152.656 1128.17 152.48L1129.98 152.208V152.72C1129.98 153.984 1129.18 154.832 1127.99 154.832ZM1134.48 149.392V153.52C1134.48 155.136 1135.12 156.144 1137.04 156.144C1137.54 156.144 1137.89 156.096 1138.36 156V154.384C1138.1 154.432 1137.89 154.48 1137.57 154.48C1136.77 154.48 1136.4 154.064 1136.4 153.216V149.392H1138.36V148H1136.4V145.216L1134.48 145.984V148H1133.04V149.392H1134.48ZM1142.12 146.672V144.672H1140.04V146.672H1142.12ZM1142.04 156V148H1140.12V156H1142.04ZM1147.83 156.192C1150.14 156.192 1151.75 154.672 1151.75 151.984C1151.75 149.312 1150.14 147.808 1147.83 147.808C1145.53 147.808 1143.91 149.312 1143.91 151.984C1143.91 154.672 1145.53 156.192 1147.83 156.192ZM1147.83 154.736C1146.6 154.736 1145.87 153.808 1145.87 151.984C1145.87 150.16 1146.6 149.264 1147.83 149.264C1149.07 149.264 1149.79 150.16 1149.79 151.984C1149.79 153.808 1149.07 154.736 1147.83 154.736ZM1155.57 156V151.76C1155.57 150.24 1156.24 149.344 1157.36 149.344C1158.37 149.344 1158.85 149.968 1158.85 151.232V156H1160.78V151.04C1160.78 148.896 1159.87 147.808 1158.13 147.808C1156.9 147.808 1156.02 148.384 1155.47 149.552V148H1153.65V156H1155.57ZM1175.15 151.872H1173.4V144.88H1171.23L1166.32 152.016V153.344H1171.48V156H1173.4V153.344H1175.15V151.872ZM1171.53 151.872H1168.14C1168.44 151.552 1168.67 151.216 1169.05 150.656L1170.81 148.032C1171.15 147.52 1171.36 147.184 1171.53 146.736H1171.56C1171.53 147.216 1171.53 147.456 1171.53 148.208V151.872Z" fill="black"/>
<path d="M721.816 175.28V198H725.944V189.2H730.776C735.672 189.2 738.744 186.48 738.744 182.192C738.744 178 735.64 175.28 730.808 175.28H721.816ZM725.944 186.064V178.448H730.04C732.728 178.448 734.392 179.92 734.392 182.256C734.392 184.624 732.728 186.064 730.04 186.064H725.944ZM745.644 182H742.06V198H745.9V191.312C745.9 189.52 746.06 187.696 747.34 186.448C748.076 185.744 749.132 185.328 750.668 185.328H751.18V181.648C751.02 181.616 750.892 181.616 750.732 181.616C748.14 181.616 746.444 183.344 745.644 185.872V182ZM760.681 198.384C765.289 198.384 768.521 195.344 768.521 189.968C768.521 184.624 765.289 181.616 760.681 181.616C756.073 181.616 752.841 184.624 752.841 189.968C752.841 195.344 756.073 198.384 760.681 198.384ZM760.681 195.472C758.217 195.472 756.745 193.616 756.745 189.968C756.745 186.32 758.217 184.528 760.681 184.528C763.145 184.528 764.585 186.32 764.585 189.968C764.585 193.616 763.145 195.472 760.681 195.472ZM779.582 198L785.278 182H781.246L778.11 192.144C777.854 192.976 777.661 193.776 777.534 194.512H777.438C777.31 193.776 777.118 192.976 776.862 192.144L773.758 182H769.726L775.422 198H779.582ZM792.091 179.344V175.344H787.931V179.344H792.091ZM791.931 198V182H788.091V198H791.931ZM802.181 198.384C804.581 198.384 806.405 197.168 807.301 195.12V198H810.917V174.8H807.077V184.272C806.149 182.48 804.581 181.616 802.469 181.616C798.469 181.616 795.717 185.04 795.717 190.032C795.717 195.024 798.309 198.384 802.181 198.384ZM803.493 195.44C801.157 195.44 799.717 193.392 799.717 189.968C799.717 186.544 801.125 184.56 803.461 184.56C805.765 184.56 807.173 186.384 807.173 189.52V190.544C807.173 193.552 805.733 195.44 803.493 195.44ZM829.629 189.2C829.629 184.304 826.973 181.616 822.333 181.616C817.565 181.616 814.685 184.88 814.685 190.16C814.685 195.408 817.629 198.384 822.525 198.384C825.789 198.384 828.317 196.848 829.501 194.064L826.557 192.72C825.821 194.448 824.477 195.376 822.653 195.376C820.125 195.376 818.429 193.648 818.397 190.96H829.629V189.2ZM818.397 188.432C818.461 185.776 819.837 184.176 822.269 184.176C824.541 184.176 825.853 185.552 825.853 188.176V188.432H818.397ZM847.541 198.384C851.733 198.384 854.101 196.336 854.101 193.328C854.101 190.8 852.789 189.264 849.685 188.72L846.549 188.144C845.141 187.888 844.437 187.408 844.437 186.32C844.437 185.072 845.429 184.4 847.221 184.4C849.333 184.4 850.741 185.296 851.509 186.736L854.197 185.296C853.429 182.992 850.837 181.616 847.445 181.616C843.381 181.616 840.917 183.664 840.917 186.544C840.917 189.104 842.485 190.672 845.493 191.216L848.341 191.728C849.909 191.984 850.613 192.432 850.613 193.584C850.613 194.736 849.589 195.568 847.637 195.568C845.365 195.568 843.765 194.544 843.029 192.752L840.181 194.032C841.173 196.848 843.893 198.384 847.541 198.384ZM864.494 198.384C869.102 198.384 872.333 195.344 872.333 189.968C872.333 184.624 869.102 181.616 864.494 181.616C859.886 181.616 856.654 184.624 856.654 189.968C856.654 195.344 859.886 198.384 864.494 198.384ZM864.494 195.472C862.03 195.472 860.558 193.616 860.558 189.968C860.558 186.32 862.03 184.528 864.494 184.528C866.958 184.528 868.398 186.32 868.398 189.968C868.398 193.616 866.958 195.472 864.494 195.472ZM876.123 174.8V198H879.963V174.8H876.123ZM890.084 198.384C892.388 198.384 894.308 197.008 895.076 195.024V198H898.724V182H894.852V190.864C894.852 193.552 893.444 195.312 891.332 195.312C889.476 195.312 888.516 194.032 888.516 191.696V182H884.676V192.272C884.676 196.016 886.18 198.384 890.084 198.384ZM904.482 184.784V193.04C904.482 196.272 905.762 198.288 909.602 198.288C910.594 198.288 911.298 198.192 912.226 198V194.768C911.714 194.864 911.298 194.96 910.658 194.96C909.058 194.96 908.322 194.128 908.322 192.432V184.784H912.226V182H908.322V176.432L904.482 177.968V182H901.602V184.784H904.482ZM919.748 179.344V175.344H915.588V179.344H919.748ZM919.588 198V182H915.748V198H919.588ZM931.181 198.384C935.789 198.384 939.021 195.344 939.021 189.968C939.021 184.624 935.789 181.616 931.181 181.616C926.573 181.616 923.341 184.624 923.341 189.968C923.341 195.344 926.573 198.384 931.181 198.384ZM931.181 195.472C928.717 195.472 927.245 193.616 927.245 189.968C927.245 186.32 928.717 184.528 931.181 184.528C933.645 184.528 935.085 186.32 935.085 189.968C935.085 193.616 933.645 195.472 931.181 195.472ZM946.65 198V189.52C946.65 186.48 947.994 184.688 950.234 184.688C952.25 184.688 953.21 185.936 953.21 188.464V198H957.082V188.08C957.082 183.792 955.258 181.616 951.77 181.616C949.306 181.616 947.546 182.768 946.458 185.104V182H942.81V198H946.65ZM967.635 198.384C971.827 198.384 974.195 196.336 974.195 193.328C974.195 190.8 972.883 189.264 969.779 188.72L966.643 188.144C965.235 187.888 964.531 187.408 964.531 186.32C964.531 185.072 965.523 184.4 967.315 184.4C969.427 184.4 970.835 185.296 971.603 186.736L974.291 185.296C973.523 182.992 970.931 181.616 967.539 181.616C963.475 181.616 961.011 183.664 961.011 186.544C961.011 189.104 962.579 190.672 965.587 191.216L968.435 191.728C970.003 191.984 970.707 192.432 970.707 193.584C970.707 194.736 969.683 195.568 967.731 195.568C965.459 195.568 963.859 194.544 963.123 192.752L960.275 194.032C961.267 196.848 963.987 198.384 967.635 198.384Z" fill="black"/>
<path d="M734.36 65L730.304 57.752C732.824 57.032 733.88 55.112 733.88 53.072C733.88 50.264 732.368 47.96 727.976 47.96H721.112V65H724.208V58.16H727.208L730.952 65H734.36ZM727.448 50.312C729.776 50.312 730.64 51.44 730.64 53.072C730.64 54.68 729.776 55.856 727.448 55.856H724.208V50.312H727.448ZM746.847 58.4C746.847 54.728 744.855 52.712 741.375 52.712C737.799 52.712 735.639 55.16 735.639 59.12C735.639 63.056 737.847 65.288 741.519 65.288C743.967 65.288 745.863 64.136 746.751 62.048L744.543 61.04C743.991 62.336 742.983 63.032 741.615 63.032C739.719 63.032 738.447 61.736 738.423 59.72H746.847V58.4ZM738.423 57.824C738.471 55.832 739.503 54.632 741.327 54.632C743.031 54.632 744.015 55.664 744.015 57.632V57.824H738.423ZM754.14 65.288C757.284 65.288 759.06 63.752 759.06 61.496C759.06 59.6 758.076 58.448 755.748 58.04L753.396 57.608C752.34 57.416 751.812 57.056 751.812 56.24C751.812 55.304 752.556 54.8 753.9 54.8C755.484 54.8 756.54 55.472 757.116 56.552L759.132 55.472C758.556 53.744 756.612 52.712 754.068 52.712C751.02 52.712 749.172 54.248 749.172 56.408C749.172 58.328 750.348 59.504 752.604 59.912L754.74 60.296C755.916 60.488 756.444 60.824 756.444 61.688C756.444 62.552 755.676 63.176 754.212 63.176C752.508 63.176 751.308 62.408 750.756 61.064L748.62 62.024C749.364 64.136 751.404 65.288 754.14 65.288ZM772.182 58.4C772.182 54.728 770.191 52.712 766.711 52.712C763.135 52.712 760.975 55.16 760.975 59.12C760.975 63.056 763.183 65.288 766.855 65.288C769.303 65.288 771.199 64.136 772.087 62.048L769.879 61.04C769.327 62.336 768.319 63.032 766.951 63.032C765.055 63.032 763.783 61.736 763.759 59.72H772.182V58.4ZM763.759 57.824C763.807 55.832 764.839 54.632 766.663 54.632C768.367 54.632 769.351 55.664 769.351 57.632V57.824H763.759ZM778.226 65.288C780.146 65.288 781.658 64.4 782.234 62.936C782.258 63.68 782.33 64.4 782.426 65H785.306C785.066 64.16 784.946 62.912 784.946 61.28V57.704C784.946 54.224 783.362 52.712 779.81 52.712C776.714 52.712 774.698 54.296 774.506 56.864H777.458C777.554 55.496 778.394 54.752 779.81 54.752C781.346 54.752 782.042 55.52 782.042 57.32V57.632L779.498 57.944C777.602 58.208 776.45 58.52 775.586 59.024C774.626 59.624 774.122 60.584 774.122 61.736C774.122 63.872 775.754 65.288 778.226 65.288ZM779.138 63.248C777.866 63.248 777.098 62.6 777.098 61.592C777.098 60.56 777.818 59.984 779.402 59.72L782.114 59.312V60.08C782.114 61.976 780.914 63.248 779.138 63.248ZM791.178 53H788.49V65H791.37V59.984C791.37 58.64 791.49 57.272 792.45 56.336C793.002 55.808 793.794 55.496 794.946 55.496H795.33V52.736C795.21 52.712 795.114 52.712 794.994 52.712C793.05 52.712 791.778 54.008 791.178 55.904V53ZM802.456 65.288C805.312 65.288 807.328 63.656 807.76 60.992L805.048 60.44C804.784 62.12 803.896 63.008 802.456 63.008C800.608 63.008 799.528 61.52 799.528 58.928C799.528 56.456 800.632 54.968 802.408 54.968C803.824 54.968 804.76 55.856 804.952 57.488L807.76 57.032C807.4 54.296 805.456 52.712 802.48 52.712C798.832 52.712 796.576 55.088 796.576 59C796.576 62.816 798.88 65.288 802.456 65.288ZM813.425 65V58.64C813.425 56.336 814.409 55.016 816.137 55.016C817.601 55.016 818.345 55.952 818.345 57.776V65H821.249V57.536C821.249 54.368 819.881 52.712 817.289 52.712C815.465 52.712 814.145 53.552 813.425 55.208V47.6H810.545V65H813.425ZM837.705 57.224C837.801 56.864 837.921 56.216 837.969 55.904H838.017C838.041 56.216 838.185 56.864 838.257 57.224L840.297 65H843.225L846.537 53H843.705L841.833 60.992C841.761 61.376 841.689 61.832 841.617 62.288H841.569C841.521 61.832 841.401 61.376 841.329 60.992L839.337 53H836.625L834.657 60.992C834.561 61.376 834.465 61.832 834.393 62.288H834.345C834.297 61.832 834.201 61.376 834.129 60.992L832.281 53H829.449L832.737 65H835.665L837.705 57.224ZM858.901 58.4C858.901 54.728 856.909 52.712 853.429 52.712C849.853 52.712 847.693 55.16 847.693 59.12C847.693 63.056 849.901 65.288 853.573 65.288C856.021 65.288 857.917 64.136 858.805 62.048L856.597 61.04C856.045 62.336 855.037 63.032 853.669 63.032C851.773 63.032 850.501 61.736 850.477 59.72H858.901V58.4ZM850.477 57.824C850.525 55.832 851.557 54.632 853.381 54.632C855.085 54.632 856.069 55.664 856.069 57.632V57.824H850.477ZM871.423 51.656C871.423 50.384 871.951 49.76 873.103 49.76C873.463 49.76 873.895 49.808 874.327 49.88V47.648C873.799 47.528 873.223 47.456 872.623 47.456C870.055 47.456 868.543 48.968 868.543 51.464V53H866.479V55.088H868.543V65H871.423V55.088H874.327V53H871.423V51.656ZM880.547 65.288C882.275 65.288 883.715 64.256 884.291 62.768V65H887.027V53H884.123V59.648C884.123 61.664 883.067 62.984 881.483 62.984C880.091 62.984 879.371 62.024 879.371 60.272V53H876.491V60.704C876.491 63.512 877.619 65.288 880.547 65.288ZM893.722 65V58.64C893.722 56.36 894.73 55.016 896.41 55.016C897.922 55.016 898.642 55.952 898.642 57.848V65H901.546V57.56C901.546 54.344 900.178 52.712 897.562 52.712C895.714 52.712 894.394 53.576 893.578 55.328V53H890.842V65H893.722ZM908.932 65.288C910.732 65.288 912.1 64.376 912.772 62.84V65H915.484V47.6H912.604V54.704C911.908 53.36 910.732 52.712 909.148 52.712C906.148 52.712 904.084 55.28 904.084 59.024C904.084 62.768 906.028 65.288 908.932 65.288ZM909.916 63.08C908.164 63.08 907.084 61.544 907.084 58.976C907.084 56.408 908.14 54.92 909.892 54.92C911.62 54.92 912.676 56.288 912.676 58.64V59.408C912.676 61.664 911.596 63.08 909.916 63.08Z" fill="black"/>
<path d="M724.865 156.272C726.561 156.272 727.841 155.472 728.369 154.256L728.545 156H730.017V149.888H725.073V151.472H728.145V151.68C728.145 152.72 727.553 154.608 725.249 154.608C723.057 154.608 721.969 152.816 721.969 150.32C721.969 147.728 723.153 146 725.233 146C726.977 146 727.665 147.168 727.841 148.176L729.889 147.824C729.617 146.272 728.337 144.368 725.265 144.368C721.857 144.368 719.857 146.816 719.857 150.336C719.857 153.84 721.729 156.272 724.865 156.272ZM739.25 151.6C739.25 149.152 737.922 147.808 735.602 147.808C733.218 147.808 731.778 149.44 731.778 152.08C731.778 154.704 733.25 156.192 735.698 156.192C737.33 156.192 738.594 155.424 739.186 154.032L737.714 153.36C737.346 154.224 736.674 154.688 735.762 154.688C734.498 154.688 733.65 153.824 733.634 152.48H739.25V151.6ZM733.634 151.216C733.666 149.888 734.354 149.088 735.57 149.088C736.706 149.088 737.362 149.776 737.362 151.088V151.216H733.634ZM743.136 156V151.76C743.136 150.24 743.808 149.344 744.928 149.344C745.936 149.344 746.416 149.968 746.416 151.232V156H748.352V151.04C748.352 148.896 747.44 147.808 745.696 147.808C744.464 147.808 743.584 148.384 743.04 149.552V148H741.216V156H743.136ZM757.5 151.6C757.5 149.152 756.172 147.808 753.852 147.808C751.468 147.808 750.028 149.44 750.028 152.08C750.028 154.704 751.5 156.192 753.948 156.192C755.58 156.192 756.844 155.424 757.436 154.032L755.964 153.36C755.596 154.224 754.924 154.688 754.012 154.688C752.748 154.688 751.9 153.824 751.884 152.48H757.5V151.6ZM751.884 151.216C751.916 149.888 752.604 149.088 753.82 149.088C754.956 149.088 755.612 149.776 755.612 151.088V151.216H751.884ZM761.258 148H759.466V156H761.386V152.656C761.386 151.76 761.466 150.848 762.106 150.224C762.474 149.872 763.002 149.664 763.77 149.664H764.026V147.824C763.946 147.808 763.882 147.808 763.802 147.808C762.506 147.808 761.658 148.672 761.258 149.936V148ZM767.545 156.192C768.825 156.192 769.833 155.6 770.217 154.624C770.233 155.12 770.281 155.6 770.345 156H772.265C772.105 155.44 772.025 154.608 772.025 153.52V151.136C772.025 148.816 770.969 147.808 768.601 147.808C766.537 147.808 765.193 148.864 765.065 150.576H767.033C767.097 149.664 767.657 149.168 768.601 149.168C769.625 149.168 770.089 149.68 770.089 150.88V151.088L768.393 151.296C767.129 151.472 766.361 151.68 765.785 152.016C765.145 152.416 764.809 153.056 764.809 153.824C764.809 155.248 765.897 156.192 767.545 156.192ZM768.153 154.832C767.305 154.832 766.793 154.4 766.793 153.728C766.793 153.04 767.273 152.656 768.329 152.48L770.137 152.208V152.72C770.137 153.984 769.337 154.832 768.153 154.832ZM774.646 149.392V153.52C774.646 155.136 775.286 156.144 777.206 156.144C777.702 156.144 778.054 156.096 778.518 156V154.384C778.262 154.432 778.054 154.48 777.734 154.48C776.934 154.48 776.566 154.064 776.566 153.216V149.392H778.518V148H776.566V145.216L774.646 145.984V148H773.206V149.392H774.646ZM782.279 146.672V144.672H780.199V146.672H782.279ZM782.199 156V148H780.279V156H782.199ZM787.995 156.192C790.299 156.192 791.915 154.672 791.915 151.984C791.915 149.312 790.299 147.808 787.995 147.808C785.691 147.808 784.075 149.312 784.075 151.984C784.075 154.672 785.691 156.192 787.995 156.192ZM787.995 154.736C786.763 154.736 786.027 153.808 786.027 151.984C786.027 150.16 786.763 149.264 787.995 149.264C789.227 149.264 789.947 150.16 789.947 151.984C789.947 153.808 789.227 154.736 787.995 154.736ZM795.73 156V151.76C795.73 150.24 796.402 149.344 797.522 149.344C798.53 149.344 799.01 149.968 799.01 151.232V156H800.946V151.04C800.946 148.896 800.034 147.808 798.29 147.808C797.058 147.808 796.178 148.384 795.634 149.552V148H793.81V156H795.73ZM810.701 156.24C813.181 156.24 814.749 154.96 814.749 152.864C814.749 151.328 813.885 150.432 812.285 150.176C813.581 149.872 814.397 148.88 814.397 147.616C814.397 145.76 813.053 144.64 810.701 144.64C808.253 144.64 806.717 145.984 806.717 148.144L808.637 148.464C808.637 147.008 809.341 146.192 810.589 146.192C811.741 146.192 812.397 146.8 812.397 147.84C812.397 148.912 811.757 149.568 810.445 149.568H809.869V151.008H810.493C811.981 151.008 812.717 151.632 812.717 152.8C812.717 154.016 812.029 154.672 810.749 154.672C809.421 154.672 808.573 153.872 808.525 152.528L806.573 152.736C806.605 154.88 808.221 156.24 810.701 156.24Z" fill="black"/>
<path d="M362.693 192.064C362.693 197.184 366.021 200.544 371.845 200.544C377.669 200.544 380.997 197.184 380.997 192.064V177.28H376.869V191.84C376.869 195.04 375.045 197.056 371.845 197.056C368.645 197.056 366.821 195.04 366.821 191.84V177.28H362.693V192.064ZM389.878 200V191.52C389.878 188.48 391.222 186.688 393.462 186.688C395.478 186.688 396.438 187.936 396.438 190.464V200H400.31V190.08C400.31 185.792 398.486 183.616 394.998 183.616C392.534 183.616 390.774 184.768 389.686 187.104V184H386.038V200H389.878ZM410.159 200.384C412.559 200.384 414.383 199.168 415.279 197.12V200H418.895V176.8H415.055V186.272C414.127 184.48 412.559 183.616 410.447 183.616C406.447 183.616 403.695 187.04 403.695 192.032C403.695 197.024 406.287 200.384 410.159 200.384ZM411.471 197.44C409.135 197.44 407.695 195.392 407.695 191.968C407.695 188.544 409.103 186.56 411.439 186.56C413.743 186.56 415.151 188.384 415.151 191.52V192.544C415.151 195.552 413.711 197.44 411.471 197.44ZM437.607 191.2C437.607 186.304 434.951 183.616 430.311 183.616C425.543 183.616 422.663 186.88 422.663 192.16C422.663 197.408 425.607 200.384 430.503 200.384C433.767 200.384 436.295 198.848 437.479 196.064L434.535 194.72C433.799 196.448 432.455 197.376 430.631 197.376C428.103 197.376 426.407 195.648 426.375 192.96H437.607V191.2ZM426.375 190.432C426.439 187.776 427.815 186.176 430.247 186.176C432.519 186.176 433.831 187.552 433.831 190.176V190.432H426.375ZM445.122 184H441.538V200H445.378V193.312C445.378 191.52 445.538 189.696 446.818 188.448C447.554 187.744 448.61 187.328 450.146 187.328H450.658V183.648C450.498 183.616 450.37 183.616 450.21 183.616C447.618 183.616 445.922 185.344 445.122 187.872V184ZM459.55 200.384C463.742 200.384 466.11 198.336 466.11 195.328C466.11 192.8 464.798 191.264 461.694 190.72L458.558 190.144C457.15 189.888 456.446 189.408 456.446 188.32C456.446 187.072 457.438 186.4 459.23 186.4C461.342 186.4 462.75 187.296 463.518 188.736L466.206 187.296C465.438 184.992 462.846 183.616 459.454 183.616C455.39 183.616 452.926 185.664 452.926 188.544C452.926 191.104 454.494 192.672 457.502 193.216L460.35 193.728C461.918 193.984 462.622 194.432 462.622 195.584C462.622 196.736 461.598 197.568 459.646 197.568C457.374 197.568 455.774 196.544 455.038 194.752L452.19 196.032C453.182 198.848 455.902 200.384 459.55 200.384ZM470.773 186.784V195.04C470.773 198.272 472.053 200.288 475.893 200.288C476.885 200.288 477.589 200.192 478.517 200V196.768C478.005 196.864 477.589 196.96 476.949 196.96C475.349 196.96 474.613 196.128 474.613 194.432V186.784H478.517V184H474.613V178.432L470.773 179.968V184H467.893V186.784H470.773ZM486.071 200.384C488.631 200.384 490.647 199.2 491.415 197.248C491.447 198.24 491.543 199.2 491.671 200H495.511C495.191 198.88 495.031 197.216 495.031 195.04V190.272C495.031 185.632 492.919 183.616 488.183 183.616C484.055 183.616 481.367 185.728 481.111 189.152H485.047C485.175 187.328 486.295 186.336 488.183 186.336C490.231 186.336 491.159 187.36 491.159 189.76V190.176L487.767 190.592C485.239 190.944 483.703 191.36 482.551 192.032C481.271 192.832 480.599 194.112 480.599 195.648C480.599 198.496 482.775 200.384 486.071 200.384ZM487.287 197.664C485.591 197.664 484.567 196.8 484.567 195.456C484.567 194.08 485.527 193.312 487.639 192.96L491.255 192.416V193.44C491.255 195.968 489.655 197.664 487.287 197.664ZM503.597 200V191.52C503.597 188.48 504.941 186.688 507.181 186.688C509.197 186.688 510.157 187.936 510.157 190.464V200H514.029V190.08C514.029 185.792 512.205 183.616 508.717 183.616C506.253 183.616 504.493 184.768 503.405 187.104V184H499.757V200H503.597ZM523.878 200.384C526.278 200.384 528.102 199.168 528.998 197.12V200H532.614V176.8H528.774V186.272C527.846 184.48 526.278 183.616 524.166 183.616C520.166 183.616 517.414 187.04 517.414 192.032C517.414 197.024 520.006 200.384 523.878 200.384ZM525.19 197.44C522.854 197.44 521.414 195.392 521.414 191.968C521.414 188.544 522.822 186.56 525.158 186.56C527.462 186.56 528.87 188.384 528.87 191.52V192.544C528.87 195.552 527.43 197.44 525.19 197.44Z" fill="black"/>
<path d="M365.616 156.272C367.312 156.272 368.592 155.472 369.12 154.256L369.296 156H370.768V149.888H365.824V151.472H368.896V151.68C368.896 152.72 368.304 154.608 366 154.608C363.808 154.608 362.72 152.816 362.72 150.32C362.72 147.728 363.904 146 365.984 146C367.728 146 368.416 147.168 368.592 148.176L370.64 147.824C370.368 146.272 369.088 144.368 366.016 144.368C362.608 144.368 360.608 146.816 360.608 150.336C360.608 153.84 362.48 156.272 365.616 156.272ZM380.002 151.6C380.002 149.152 378.674 147.808 376.354 147.808C373.97 147.808 372.53 149.44 372.53 152.08C372.53 154.704 374.002 156.192 376.45 156.192C378.082 156.192 379.346 155.424 379.938 154.032L378.466 153.36C378.098 154.224 377.426 154.688 376.514 154.688C375.25 154.688 374.402 153.824 374.386 152.48H380.002V151.6ZM374.386 151.216C374.418 149.888 375.106 149.088 376.322 149.088C377.458 149.088 378.114 149.776 378.114 151.088V151.216H374.386ZM383.888 156V151.76C383.888 150.24 384.56 149.344 385.68 149.344C386.688 149.344 387.168 149.968 387.168 151.232V156H389.104V151.04C389.104 148.896 388.192 147.808 386.448 147.808C385.216 147.808 384.336 148.384 383.792 149.552V148H381.968V156H383.888ZM398.252 151.6C398.252 149.152 396.924 147.808 394.604 147.808C392.22 147.808 390.78 149.44 390.78 152.08C390.78 154.704 392.252 156.192 394.7 156.192C396.332 156.192 397.596 155.424 398.188 154.032L396.716 153.36C396.348 154.224 395.676 154.688 394.764 154.688C393.5 154.688 392.652 153.824 392.636 152.48H398.252V151.6ZM392.636 151.216C392.668 149.888 393.356 149.088 394.572 149.088C395.708 149.088 396.364 149.776 396.364 151.088V151.216H392.636ZM402.01 148H400.218V156H402.138V152.656C402.138 151.76 402.218 150.848 402.858 150.224C403.226 149.872 403.754 149.664 404.522 149.664H404.778V147.824C404.698 147.808 404.634 147.808 404.554 147.808C403.258 147.808 402.41 148.672 402.01 149.936V148ZM408.296 156.192C409.576 156.192 410.584 155.6 410.968 154.624C410.984 155.12 411.032 155.6 411.096 156H413.016C412.856 155.44 412.776 154.608 412.776 153.52V151.136C412.776 148.816 411.72 147.808 409.352 147.808C407.288 147.808 405.944 148.864 405.816 150.576H407.784C407.848 149.664 408.408 149.168 409.352 149.168C410.376 149.168 410.84 149.68 410.84 150.88V151.088L409.144 151.296C407.88 151.472 407.112 151.68 406.536 152.016C405.896 152.416 405.56 153.056 405.56 153.824C405.56 155.248 406.648 156.192 408.296 156.192ZM408.904 154.832C408.056 154.832 407.544 154.4 407.544 153.728C407.544 153.04 408.024 152.656 409.08 152.48L410.888 152.208V152.72C410.888 153.984 410.088 154.832 408.904 154.832ZM415.397 149.392V153.52C415.397 155.136 416.037 156.144 417.957 156.144C418.453 156.144 418.805 156.096 419.269 156V154.384C419.013 154.432 418.805 154.48 418.485 154.48C417.685 154.48 417.317 154.064 417.317 153.216V149.392H419.269V148H417.317V145.216L415.397 145.984V148H413.957V149.392H415.397ZM423.03 146.672V144.672H420.95V146.672H423.03ZM422.95 156V148H421.03V156H422.95ZM428.747 156.192C431.051 156.192 432.667 154.672 432.667 151.984C432.667 149.312 431.051 147.808 428.747 147.808C426.443 147.808 424.827 149.312 424.827 151.984C424.827 154.672 426.443 156.192 428.747 156.192ZM428.747 154.736C427.515 154.736 426.779 153.808 426.779 151.984C426.779 150.16 427.515 149.264 428.747 149.264C429.979 149.264 430.699 150.16 430.699 151.984C430.699 153.808 429.979 154.736 428.747 154.736ZM436.481 156V151.76C436.481 150.24 437.153 149.344 438.273 149.344C439.281 149.344 439.761 149.968 439.761 151.232V156H441.697V151.04C441.697 148.896 440.785 147.808 439.041 147.808C437.809 147.808 436.929 148.384 436.385 149.552V148H434.561V156H436.481ZM455.148 156V154.352H450.012C451.116 153.664 451.964 153.024 452.764 152.304C454.316 150.896 455.036 149.584 455.036 148.048C455.036 145.872 453.644 144.64 451.292 144.64C448.892 144.64 447.404 145.936 447.404 147.968C447.404 148.24 447.436 148.544 447.516 148.848L449.5 149.04C449.42 148.672 449.388 148.352 449.388 148.064C449.388 146.96 450.06 146.256 451.196 146.256C452.316 146.256 452.94 146.928 452.94 148.144C452.94 149.36 452.492 150.256 451.228 151.44C450.012 152.592 448.604 153.664 447.34 154.496V156H455.148Z" fill="black"/>
<path d="M10.944 199.816C17.696 199.816 22.016 195.08 22.016 188.36C22.016 181.64 17.664 177.096 11.008 177.096H2.816V199.816H10.944ZM6.944 180.328H10.88C15.328 180.328 17.696 183.752 17.696 188.36C17.696 192.872 15.232 196.584 10.816 196.584H6.944V180.328ZM39.66 191.016C39.66 186.12 37.004 183.432 32.364 183.432C27.596 183.432 24.716 186.696 24.716 191.976C24.716 197.224 27.66 200.2 32.556 200.2C35.82 200.2 38.348 198.664 39.532 195.88L36.588 194.536C35.852 196.264 34.508 197.192 32.684 197.192C30.156 197.192 28.46 195.464 28.428 192.776H39.66V191.016ZM28.428 190.248C28.492 187.592 29.868 185.992 32.3 185.992C34.572 185.992 35.884 187.368 35.884 189.992V190.248H28.428ZM44.2008 186.6V194.856C44.2008 198.088 45.4808 200.104 49.3208 200.104C50.3128 200.104 51.0168 200.008 51.9448 199.816V196.584C51.4328 196.68 51.0168 196.776 50.3767 196.776C48.7768 196.776 48.0408 195.944 48.0408 194.248V186.6H51.9448V183.816H48.0408V178.248L44.2008 179.784V183.816H41.3208V186.6H44.2008ZM68.91 191.016C68.91 186.12 66.254 183.432 61.614 183.432C56.846 183.432 53.966 186.696 53.966 191.976C53.966 197.224 56.91 200.2 61.806 200.2C65.07 200.2 67.598 198.664 68.782 195.88L65.838 194.536C65.102 196.264 63.758 197.192 61.934 197.192C59.406 197.192 57.71 195.464 57.678 192.776H68.91V191.016ZM57.678 190.248C57.742 187.592 59.118 185.992 61.55 185.992C63.822 185.992 65.134 187.368 65.134 189.992V190.248H57.678ZM79.3373 200.2C83.1453 200.2 85.8333 198.024 86.4093 194.472L82.7933 193.736C82.4413 195.976 81.2573 197.16 79.3373 197.16C76.8733 197.16 75.4333 195.176 75.4333 191.72C75.4333 188.424 76.9053 186.44 79.2733 186.44C81.1613 186.44 82.4093 187.624 82.6653 189.8L86.4093 189.192C85.9293 185.544 83.3373 183.432 79.3693 183.432C74.5052 183.432 71.4973 186.6 71.4973 191.816C71.4973 196.904 74.5693 200.2 79.3373 200.2ZM90.732 186.6V194.856C90.732 198.088 92.012 200.104 95.852 200.104C96.844 200.104 97.548 200.008 98.476 199.816V196.584C97.964 196.68 97.548 196.776 96.908 196.776C95.308 196.776 94.572 195.944 94.572 194.248V186.6H98.476V183.816H94.572V178.248L90.732 179.784V183.816H87.852V186.6H90.732Z" fill="black"/>
<path d="M5.616 156.272C7.312 156.272 8.592 155.472 9.12 154.256L9.296 156H10.768V149.888H5.824V151.472H8.896V151.68C8.896 152.72 8.304 154.608 6 154.608C3.808 154.608 2.72 152.816 2.72 150.32C2.72 147.728 3.904 146 5.984 146C7.728 146 8.416 147.168 8.592 148.176L10.64 147.824C10.368 146.272 9.088 144.368 6.016 144.368C2.608 144.368 0.608 146.816 0.608 150.336C0.608 153.84 2.48 156.272 5.616 156.272ZM20.0019 151.6C20.0019 149.152 18.6739 147.808 16.3539 147.808C13.9699 147.808 12.5299 149.44 12.5299 152.08C12.5299 154.704 14.0019 156.192 16.4499 156.192C18.0819 156.192 19.3459 155.424 19.9379 154.032L18.4659 153.36C18.0979 154.224 17.4259 154.688 16.5139 154.688C15.2499 154.688 14.4019 153.824 14.3859 152.48H20.0019V151.6ZM14.3859 151.216C14.4179 149.888 15.1059 149.088 16.3219 149.088C17.4579 149.088 18.1139 149.776 18.1139 151.088V151.216H14.3859ZM23.8875 156V151.76C23.8875 150.24 24.5595 149.344 25.6795 149.344C26.6875 149.344 27.1675 149.968 27.1675 151.232V156H29.1035V151.04C29.1035 148.896 28.1915 147.808 26.4475 147.808C25.2155 147.808 24.3355 148.384 23.7915 149.552V148H21.9675V156H23.8875ZM38.2519 151.6C38.2519 149.152 36.9239 147.808 34.6039 147.808C32.2199 147.808 30.7799 149.44 30.7799 152.08C30.7799 154.704 32.2519 156.192 34.6999 156.192C36.3319 156.192 37.5959 155.424 38.1879 154.032L36.7159 153.36C36.3479 154.224 35.6759 154.688 34.7639 154.688C33.4999 154.688 32.6519 153.824 32.6359 152.48H38.2519V151.6ZM32.6359 151.216C32.6679 149.888 33.3559 149.088 34.5719 149.088C35.7079 149.088 36.3639 149.776 36.3639 151.088V151.216H32.6359ZM42.0095 148H40.2175V156H42.1375V152.656C42.1375 151.76 42.2175 150.848 42.8575 150.224C43.2255 149.872 43.7535 149.664 44.5215 149.664H44.7775V147.824C44.6975 147.808 44.6335 147.808 44.5535 147.808C43.2575 147.808 42.4095 148.672 42.0095 149.936V148ZM48.2964 156.192C49.5764 156.192 50.5844 155.6 50.9684 154.624C50.9844 155.12 51.0324 155.6 51.0964 156H53.0164C52.8564 155.44 52.7764 154.608 52.7764 153.52V151.136C52.7764 148.816 51.7204 147.808 49.3524 147.808C47.2884 147.808 45.9444 148.864 45.8164 150.576H47.7844C47.8484 149.664 48.4084 149.168 49.3524 149.168C50.3764 149.168 50.8404 149.68 50.8404 150.88V151.088L49.1444 151.296C47.8804 151.472 47.1124 151.68 46.5364 152.016C45.8964 152.416 45.5604 153.056 45.5604 153.824C45.5604 155.248 46.6484 156.192 48.2964 156.192ZM48.9044 154.832C48.0564 154.832 47.5444 154.4 47.5444 153.728C47.5444 153.04 48.0244 152.656 49.0804 152.48L50.8884 152.208V152.72C50.8884 153.984 50.0884 154.832 48.9044 154.832ZM55.3973 149.392V153.52C55.3973 155.136 56.0373 156.144 57.9573 156.144C58.4533 156.144 58.8053 156.096 59.2693 156V154.384C59.0133 154.432 58.8053 154.48 58.4852 154.48C57.6853 154.48 57.3173 154.064 57.3173 153.216V149.392H59.2693V148H57.3173V145.216L55.3973 145.984V148H53.9573V149.392H55.3973ZM63.03 146.672V144.672H60.95V146.672H63.03ZM62.95 156V148H61.03V156H62.95ZM68.7468 156.192C71.0508 156.192 72.6667 154.672 72.6667 151.984C72.6667 149.312 71.0508 147.808 68.7468 147.808C66.4428 147.808 64.8268 149.312 64.8268 151.984C64.8268 154.672 66.4428 156.192 68.7468 156.192ZM68.7468 154.736C67.5148 154.736 66.7788 153.808 66.7788 151.984C66.7788 150.16 67.5148 149.264 68.7468 149.264C69.9788 149.264 70.6988 150.16 70.6988 151.984C70.6988 153.808 69.9788 154.736 68.7468 154.736ZM76.4813 156V151.76C76.4813 150.24 77.1533 149.344 78.2733 149.344C79.2813 149.344 79.7613 149.968 79.7613 151.232V156H81.6973V151.04C81.6973 148.896 80.7853 147.808 79.0413 147.808C77.8093 147.808 76.9293 148.384 76.3853 149.552V148H74.5613V156H76.4813ZM91.7561 156V144.88H90.1241C89.7721 146.064 88.9241 146.656 87.7241 146.672H87.4041V148.448H87.9161C88.5881 148.448 89.4041 148.224 89.7721 147.776V156H91.7561Z" fill="black"/>
<line x1="10" y1="114.5" x2="369" y2="114.5" stroke="#E2231A" stroke-width="3"/>
<circle cx="10.5" cy="114.5" r="10.5" fill="#E2231A"/>
<circle cx="370.5" cy="114.5" r="10.5" fill="#FF938E"/>
<path d="M370.008 114.5L731.008 114.5" stroke="#FF938E" stroke-width="3"/>
<circle cx="729.5" cy="114.5" r="10.5" fill="white"/>
<path d="M731.008 114.5L1090.01 114.5" stroke="white" stroke-width="3"/>
<circle cx="1089.5" cy="114.5" r="10.5" fill="black"/>
<path d="M1312.06 116.061C1312.65 115.475 1312.65 114.525 1312.06 113.939L1302.51 104.393C1301.93 103.808 1300.98 103.808 1300.39 104.393C1299.81 104.979 1299.81 105.929 1300.39 106.515L1308.88 115L1300.39 123.485C1299.81 124.071 1299.81 125.021 1300.39 125.607C1300.98 126.192 1301.93 126.192 1302.51 125.607L1312.06 116.061ZM1090 116.5L1311 116.5V113.5L1090 113.5V116.5Z" fill="black"/>
</svg>
