<svg width="1360" height="157" viewBox="0 0 1360 157" fill="none" xmlns="http://www.w3.org/2000/svg">
<path d="M997.194 0.65625H1321.2L1360 78.4997L1321.2 156.343H997.194L1036 78.4997L997.194 0.65625Z" fill="black"/>
<path d="M1075.75 65.8159V50.2759C1075.75 49.4059 1075.72 48.6559 1075.63 47.9359H1075.75C1075.81 48.4459 1076.05 49.5559 1076.29 50.1859L1081.39 65.8159H1084.84L1089.88 50.1859C1090.09 49.5559 1090.36 48.4459 1090.42 47.9359H1090.51C1090.42 48.6859 1090.39 49.4359 1090.39 50.2759V65.8159H1093.93V44.5159H1088.5L1083.73 59.3059C1083.4 60.3559 1083.28 60.8359 1083.19 61.6159H1083.13C1083.04 60.8359 1082.92 60.3859 1082.59 59.3359L1077.76 44.5159H1072.36V65.8159H1075.75ZM1105.05 66.1759C1109.37 66.1759 1112.4 63.3259 1112.4 58.2859C1112.4 53.2759 1109.37 50.4559 1105.05 50.4559C1100.73 50.4559 1097.7 53.2759 1097.7 58.2859C1097.7 63.3259 1100.73 66.1759 1105.05 66.1759ZM1105.05 63.4459C1102.74 63.4459 1101.36 61.7059 1101.36 58.2859C1101.36 54.8659 1102.74 53.1859 1105.05 53.1859C1107.36 53.1859 1108.71 54.8659 1108.71 58.2859C1108.71 61.7059 1107.36 63.4459 1105.05 63.4459ZM1119.55 65.8159V57.8659C1119.55 55.0159 1120.81 53.3359 1122.91 53.3359C1124.8 53.3359 1125.7 54.5059 1125.7 56.8759V65.8159H1129.33V56.5159C1129.33 52.4959 1127.62 50.4559 1124.35 50.4559C1122.04 50.4559 1120.39 51.5359 1119.37 53.7259V50.8159H1115.95V65.8159H1119.55ZM1137.48 48.3259V44.5759H1133.58V48.3259H1137.48ZM1137.33 65.8159V50.8159H1133.73V65.8159H1137.33ZM1142.74 53.4259V61.1659C1142.74 64.1959 1143.94 66.0859 1147.54 66.0859C1148.47 66.0859 1149.13 65.9959 1150 65.8159V62.7859C1149.52 62.8759 1149.13 62.9659 1148.53 62.9659C1147.03 62.9659 1146.34 62.1859 1146.34 60.5959V53.4259H1150V50.8159H1146.34V45.5959L1142.74 47.0359V50.8159H1140.04V53.4259H1142.74ZM1159.24 66.1759C1163.56 66.1759 1166.59 63.3259 1166.59 58.2859C1166.59 53.2759 1163.56 50.4559 1159.24 50.4559C1154.92 50.4559 1151.89 53.2759 1151.89 58.2859C1151.89 63.3259 1154.92 66.1759 1159.24 66.1759ZM1159.24 63.4459C1156.93 63.4459 1155.55 61.7059 1155.55 58.2859C1155.55 54.8659 1156.93 53.1859 1159.24 53.1859C1161.55 53.1859 1162.9 54.8659 1162.9 58.2859C1162.9 61.7059 1161.55 63.4459 1159.24 63.4459ZM1173.51 50.8159H1170.15V65.8159H1173.75V59.5459C1173.75 57.8659 1173.9 56.1559 1175.1 54.9859C1175.79 54.3259 1176.78 53.9359 1178.22 53.9359H1178.7V50.4859C1178.55 50.4559 1178.43 50.4559 1178.28 50.4559C1175.85 50.4559 1174.26 52.0759 1173.51 54.4459V50.8159Z" fill="white"/>
<path d="M1080.01 91.9888L1077.1 87.0608C1079 86.6288 1079.66 85.2368 1079.66 83.9568C1079.66 82.2928 1078.87 80.6288 1075.9 80.6288H1071.69V91.9888H1073.21V87.2688H1075.51L1078.3 91.9888H1080.01ZM1075.72 81.9088C1077.46 81.9088 1078.06 82.7888 1078.06 83.9568C1078.06 85.0928 1077.48 85.9888 1075.72 85.9888H1073.21V81.9088H1075.72ZM1088.18 87.4288C1088.18 85.0288 1086.93 83.7968 1084.77 83.7968C1082.48 83.7968 1081.14 85.4128 1081.14 88.0848C1081.14 90.7248 1082.5 92.1808 1084.78 92.1808C1086.4 92.1808 1087.57 91.4128 1088.13 89.9568L1087.01 89.4608C1086.66 90.4368 1085.9 90.9808 1084.88 90.9808C1083.46 90.9808 1082.51 89.9568 1082.5 88.3888H1088.18V87.4288ZM1082.5 87.2848C1082.53 85.7808 1083.33 84.8688 1084.74 84.8688C1086.05 84.8688 1086.8 85.6368 1086.8 87.1088V87.2848H1082.5ZM1093.38 92.1808C1095.17 92.1808 1096.37 91.1248 1096.66 89.3008L1095.36 89.0928C1095.15 90.3408 1094.48 90.9968 1093.39 90.9968C1091.97 90.9968 1091.14 89.8928 1091.14 87.9728C1091.14 86.1008 1091.97 84.9808 1093.35 84.9808C1094.43 84.9808 1095.14 85.6528 1095.28 86.8688L1096.67 86.7088C1096.47 84.8688 1095.25 83.7968 1093.38 83.7968C1091.11 83.7968 1089.7 85.3808 1089.7 87.9888C1089.7 90.5488 1091.14 92.1808 1093.38 92.1808ZM1105.16 87.4288C1105.16 85.0288 1103.91 83.7968 1101.75 83.7968C1099.46 83.7968 1098.12 85.4128 1098.12 88.0848C1098.12 90.7248 1099.48 92.1808 1101.77 92.1808C1103.38 92.1808 1104.55 91.4128 1105.11 89.9568L1103.99 89.4608C1103.64 90.4368 1102.89 90.9808 1101.86 90.9808C1100.44 90.9808 1099.5 89.9568 1099.48 88.3888H1105.16V87.4288ZM1099.48 87.2848C1099.51 85.7808 1100.31 84.8688 1101.72 84.8688C1103.03 84.8688 1103.78 85.6368 1103.78 87.1088V87.2848H1099.48ZM1108.86 82.5008V80.7888H1107.31V82.5008H1108.86ZM1108.76 91.9888V83.9888H1107.4V91.9888H1108.76ZM1114.71 91.9888L1117.6 83.9888H1116.13L1114.34 89.3808C1114.2 89.8128 1114.08 90.2288 1114 90.5968H1113.96C1113.88 90.2288 1113.76 89.8128 1113.62 89.3808L1111.83 83.9888H1110.36L1113.25 91.9888H1114.71ZM1125.44 87.4288C1125.44 85.0288 1124.19 83.7968 1122.03 83.7968C1119.75 83.7968 1118.4 85.4128 1118.4 88.0848C1118.4 90.7248 1119.76 92.1808 1122.05 92.1808C1123.67 92.1808 1124.83 91.4128 1125.39 89.9568L1124.27 89.4608C1123.92 90.4368 1123.17 90.9808 1122.15 90.9808C1120.72 90.9808 1119.78 89.9568 1119.76 88.3888H1125.44V87.4288ZM1119.76 87.2848C1119.79 85.7808 1120.59 84.8688 1122 84.8688C1123.31 84.8688 1124.07 85.6368 1124.07 87.1088V87.2848H1119.76ZM1134.34 92.1808C1135.46 92.1808 1136.45 91.4608 1136.82 90.4848V91.9888H1138.1V83.9888H1136.74V88.2928C1136.74 89.9248 1135.87 91.0128 1134.59 91.0128C1133.54 91.0128 1132.96 90.2768 1132.96 88.9328V83.9888H1131.6V89.0928C1131.6 90.9648 1132.32 92.1808 1134.34 92.1808ZM1142.34 95.1088V90.7248C1142.69 91.5088 1143.56 92.1808 1144.79 92.1808C1146.72 92.1808 1148.1 90.5488 1148.1 87.9888C1148.1 85.4608 1146.8 83.7968 1144.87 83.7968C1143.7 83.7968 1142.77 84.3728 1142.26 85.4768V83.9888H1140.98V95.1088H1142.34ZM1144.47 90.9808C1143.14 90.9808 1142.31 89.8928 1142.31 88.1648V87.7808C1142.31 86.0528 1143.17 84.9968 1144.52 84.9968C1145.86 84.9968 1146.66 86.1008 1146.66 87.9888C1146.66 89.8608 1145.83 90.9808 1144.47 90.9808ZM1152.79 92.1808C1154.04 92.1808 1154.9 91.5728 1155.38 90.5008V91.9888H1156.66V80.3888H1155.3V85.1728C1154.79 84.2288 1154.01 83.7968 1152.95 83.7968C1150.95 83.7968 1149.54 85.5248 1149.54 87.9888C1149.54 90.5008 1150.85 92.1808 1152.79 92.1808ZM1153.16 90.9808C1151.8 90.9808 1150.98 89.8608 1150.98 87.9888C1150.98 86.1008 1151.8 84.9968 1153.16 84.9968C1154.5 84.9968 1155.33 86.0688 1155.33 87.8128V88.1808C1155.33 89.8928 1154.49 90.9808 1153.16 90.9808ZM1161.53 92.1808C1162.84 92.1808 1163.85 91.5568 1164.22 90.5328C1164.23 91.0448 1164.28 91.5728 1164.34 91.9888H1165.77C1165.58 91.3648 1165.5 90.5168 1165.5 89.2848V87.1248C1165.5 84.7888 1164.54 83.7968 1162.34 83.7968C1160.47 83.7968 1159.19 84.8688 1159.08 86.5008H1160.54C1160.6 85.4928 1161.27 84.9168 1162.36 84.9168C1163.59 84.9168 1164.12 85.5088 1164.12 86.9808V87.1088L1162.63 87.2848C1161.32 87.4448 1160.55 87.6368 1159.94 87.9408C1159.22 88.3408 1158.82 89.0288 1158.82 89.8288C1158.82 91.2528 1159.9 92.1808 1161.53 92.1808ZM1161.83 91.0608C1160.86 91.0608 1160.26 90.5808 1160.26 89.7968C1160.26 89.0128 1160.78 88.5968 1161.96 88.4208L1164.14 88.1008V88.5008C1164.14 90.0528 1163.22 91.0608 1161.83 91.0608ZM1168.46 85.1088V89.5888C1168.46 91.0768 1168.9 92.1328 1170.63 92.1328C1171.14 92.1328 1171.46 92.0848 1171.82 91.9888V90.7408C1171.54 90.8048 1171.34 90.8528 1170.98 90.8528C1170.17 90.8528 1169.82 90.4528 1169.82 89.5408V85.1088H1171.82V83.9888H1169.82V81.3168L1168.46 81.8928V83.9888H1166.97V85.1088H1168.46ZM1180.05 87.4288C1180.05 85.0288 1178.8 83.7968 1176.64 83.7968C1174.35 83.7968 1173.01 85.4128 1173.01 88.0848C1173.01 90.7248 1174.37 92.1808 1176.66 92.1808C1178.27 92.1808 1179.44 91.4128 1180 89.9568L1178.88 89.4608C1178.53 90.4368 1177.78 90.9808 1176.75 90.9808C1175.33 90.9808 1174.39 89.9568 1174.37 88.3888H1180.05V87.4288ZM1174.37 87.2848C1174.4 85.7808 1175.2 84.8688 1176.61 84.8688C1177.92 84.8688 1178.67 85.6368 1178.67 87.1088V87.2848H1174.37ZM1185.01 92.1808C1186.97 92.1808 1188.07 91.1728 1188.07 89.7328C1188.07 88.5648 1187.43 87.8288 1185.99 87.5568L1184.44 87.2688C1183.65 87.1248 1183.21 86.8048 1183.21 86.1328C1183.21 85.3488 1183.83 84.9008 1184.85 84.9008C1185.94 84.9008 1186.57 85.4608 1186.74 86.2608L1188.09 85.9568C1187.93 84.6128 1186.71 83.7968 1184.92 83.7968C1183.03 83.7968 1181.88 84.8208 1181.88 86.1968C1181.88 87.4128 1182.65 88.1808 1184.01 88.4368L1185.57 88.7248C1186.29 88.8528 1186.73 89.1408 1186.73 89.8448C1186.73 90.5328 1186.13 91.0608 1185.06 91.0608C1183.89 91.0608 1183.14 90.4848 1182.95 89.4768L1181.57 89.7168C1181.85 91.3008 1183.13 92.1808 1185.01 92.1808ZM1197.49 92.1808C1199.74 92.1808 1201.22 90.5968 1201.22 87.9888C1201.22 85.3808 1199.74 83.7968 1197.49 83.7968C1195.23 83.7968 1193.76 85.3808 1193.76 87.9888C1193.76 90.5968 1195.23 92.1808 1197.49 92.1808ZM1197.49 90.9968C1196.05 90.9968 1195.2 89.9728 1195.2 87.9888C1195.2 86.0048 1196.05 84.9808 1197.49 84.9808C1198.93 84.9808 1199.78 86.0048 1199.78 87.9888C1199.78 89.9728 1198.93 90.9968 1197.49 90.9968ZM1204.73 91.9888V87.8128C1204.73 86.0368 1205.55 84.9648 1206.88 84.9648C1208.04 84.9648 1208.64 85.6848 1208.64 87.0928V91.9888H1210V87.0128C1210 84.8848 1209.08 83.7968 1207.32 83.7968C1206.06 83.7968 1205.18 84.3728 1204.65 85.5728V83.9888H1203.37V91.9888H1204.73ZM1218.15 95.1088V90.7248C1218.51 91.5088 1219.37 92.1808 1220.6 92.1808C1222.54 92.1808 1223.91 90.5488 1223.91 87.9888C1223.91 85.4608 1222.62 83.7968 1220.68 83.7968C1219.51 83.7968 1218.59 84.3728 1218.07 85.4768V83.9888H1216.79V95.1088H1218.15ZM1220.28 90.9808C1218.95 90.9808 1218.12 89.8928 1218.12 88.1648V87.7808C1218.12 86.0528 1218.99 84.9968 1220.33 84.9968C1221.67 84.9968 1222.47 86.1008 1222.47 87.9888C1222.47 89.8608 1221.64 90.9808 1220.28 90.9808ZM1227.34 83.9888H1226.07V91.9888H1227.43V88.5648C1227.43 87.6048 1227.47 86.5328 1228.23 85.7648C1228.62 85.3808 1229.16 85.1408 1229.99 85.1408H1230.06V83.8128C1229.96 83.7968 1229.87 83.7968 1229.77 83.7968C1228.55 83.7968 1227.72 84.6928 1227.34 85.8128V83.9888ZM1234.75 92.1808C1237.01 92.1808 1238.48 90.5968 1238.48 87.9888C1238.48 85.3808 1237.01 83.7968 1234.75 83.7968C1232.5 83.7968 1231.03 85.3808 1231.03 87.9888C1231.03 90.5968 1232.5 92.1808 1234.75 92.1808ZM1234.75 90.9968C1233.31 90.9968 1232.47 89.9728 1232.47 87.9888C1232.47 86.0048 1233.31 84.9808 1234.75 84.9808C1236.19 84.9808 1237.04 86.0048 1237.04 87.9888C1237.04 89.9728 1236.19 90.9968 1234.75 90.9968ZM1246.7 83.8608C1246.93 83.8608 1247.12 83.8928 1247.28 83.9248V82.7408C1247.1 82.6928 1246.93 82.6768 1246.75 82.6768C1245.68 82.6768 1245.09 83.3168 1244.85 84.1328C1244.4 83.9248 1243.89 83.7968 1243.28 83.7968C1241.42 83.7968 1240.32 84.9488 1240.32 86.5008C1240.32 87.2848 1240.59 87.9568 1241.1 88.4528C1240.43 88.7088 1239.97 89.2528 1239.97 90.0528C1239.97 90.6288 1240.22 91.1408 1240.9 91.4448C1240.05 91.7168 1239.6 92.3568 1239.6 93.1088C1239.6 94.2448 1240.38 95.3008 1243.2 95.3008C1245.98 95.3008 1247.17 94.2608 1247.17 92.7568C1247.17 91.3168 1246.26 90.5008 1244.45 90.5008H1242.5C1241.5 90.5008 1241.17 90.1328 1241.17 89.6848C1241.17 89.3168 1241.41 89.0448 1241.74 88.9008C1242.18 89.1088 1242.69 89.2368 1243.28 89.2368C1245.14 89.2368 1246.24 88.0528 1246.24 86.5008C1246.24 85.7488 1245.98 85.0928 1245.5 84.6128C1245.7 84.1008 1246.1 83.8608 1246.7 83.8608ZM1243.28 88.1968C1242.26 88.1968 1241.6 87.4768 1241.6 86.5008C1241.6 85.5248 1242.26 84.8368 1243.28 84.8368C1244.3 84.8368 1244.96 85.5408 1244.96 86.5168C1244.96 87.4928 1244.3 88.1968 1243.28 88.1968ZM1244.14 91.7008C1245.25 91.7008 1245.81 92.1008 1245.81 92.8528C1245.81 93.5728 1245.31 94.1808 1243.36 94.1808C1241.92 94.1808 1240.93 93.8608 1240.93 92.8688C1240.93 92.3888 1241.2 91.9248 1241.78 91.6688C1241.98 91.6848 1242.21 91.7008 1242.45 91.7008H1244.14ZM1250.31 83.9888H1249.04V91.9888H1250.4V88.5648C1250.4 87.6048 1250.44 86.5328 1251.2 85.7648C1251.59 85.3808 1252.13 85.1408 1252.96 85.1408H1253.03V83.8128C1252.93 83.7968 1252.84 83.7968 1252.74 83.7968C1251.52 83.7968 1250.69 84.6928 1250.31 85.8128V83.9888ZM1261.03 87.4288C1261.03 85.0288 1259.79 83.7968 1257.63 83.7968C1255.34 83.7968 1253.99 85.4128 1253.99 88.0848C1253.99 90.7248 1255.35 92.1808 1257.64 92.1808C1259.26 92.1808 1260.43 91.4128 1260.99 89.9568L1259.87 89.4608C1259.51 90.4368 1258.76 90.9808 1257.74 90.9808C1256.31 90.9808 1255.37 89.9568 1255.35 88.3888H1261.03V87.4288ZM1255.35 87.2848C1255.39 85.7808 1256.19 84.8688 1257.59 84.8688C1258.91 84.8688 1259.66 85.6368 1259.66 87.1088V87.2848H1255.35ZM1266 92.1808C1267.95 92.1808 1269.05 91.1728 1269.05 89.7328C1269.05 88.5648 1268.41 87.8288 1266.97 87.5568L1265.42 87.2688C1264.64 87.1248 1264.19 86.8048 1264.19 86.1328C1264.19 85.3488 1264.81 84.9008 1265.84 84.9008C1266.93 84.9008 1267.55 85.4608 1267.73 86.2608L1269.07 85.9568C1268.91 84.6128 1267.69 83.7968 1265.9 83.7968C1264.01 83.7968 1262.86 84.8208 1262.86 86.1968C1262.86 87.4128 1263.63 88.1808 1264.99 88.4368L1266.56 88.7248C1267.28 88.8528 1267.71 89.1408 1267.71 89.8448C1267.71 90.5328 1267.12 91.0608 1266.05 91.0608C1264.88 91.0608 1264.13 90.4848 1263.93 89.4768L1262.56 89.7168C1262.83 91.3008 1264.11 92.1808 1266 92.1808ZM1273.87 92.1808C1275.82 92.1808 1276.93 91.1728 1276.93 89.7328C1276.93 88.5648 1276.29 87.8288 1274.85 87.5568L1273.3 87.2688C1272.51 87.1248 1272.06 86.8048 1272.06 86.1328C1272.06 85.3488 1272.69 84.9008 1273.71 84.9008C1274.8 84.9008 1275.42 85.4608 1275.6 86.2608L1276.94 85.9568C1276.78 84.6128 1275.57 83.7968 1273.78 83.7968C1271.89 83.7968 1270.74 84.8208 1270.74 86.1968C1270.74 87.4128 1271.5 88.1808 1272.86 88.4368L1274.43 88.7248C1275.15 88.8528 1275.58 89.1408 1275.58 89.8448C1275.58 90.5328 1274.99 91.0608 1273.92 91.0608C1272.75 91.0608 1272 90.4848 1271.81 89.4768L1270.43 89.7168C1270.7 91.3008 1271.98 92.1808 1273.87 92.1808ZM1073.51 113.181C1074.82 113.181 1075.83 112.557 1076.2 111.533C1076.22 112.045 1076.26 112.573 1076.33 112.989H1077.75C1077.56 112.365 1077.48 111.517 1077.48 110.285V108.125C1077.48 105.789 1076.52 104.797 1074.33 104.797C1072.46 104.797 1071.18 105.869 1071.06 107.501H1072.52C1072.58 106.493 1073.26 105.917 1074.34 105.917C1075.58 105.917 1076.1 106.509 1076.1 107.981V108.109L1074.62 108.285C1073.3 108.445 1072.54 108.637 1071.93 108.941C1071.21 109.341 1070.81 110.029 1070.81 110.829C1070.81 112.253 1071.88 113.181 1073.51 113.181ZM1073.82 112.061C1072.84 112.061 1072.25 111.581 1072.25 110.797C1072.25 110.013 1072.76 109.597 1073.94 109.421L1076.12 109.101V109.501C1076.12 111.053 1075.21 112.061 1073.82 112.061ZM1081.51 112.989V108.813C1081.51 107.037 1082.33 105.965 1083.66 105.965C1084.82 105.965 1085.42 106.685 1085.42 108.093V112.989H1086.78V108.013C1086.78 105.885 1085.86 104.797 1084.1 104.797C1082.84 104.797 1081.96 105.373 1081.43 106.573V104.989H1080.15V112.989H1081.51ZM1091.95 113.181C1093.19 113.181 1094.06 112.573 1094.54 111.501V112.989H1095.82V101.389H1094.46V106.173C1093.95 105.229 1093.16 104.797 1092.11 104.797C1090.11 104.797 1088.7 106.525 1088.7 108.989C1088.7 111.501 1090.01 113.181 1091.95 113.181ZM1092.31 111.981C1090.95 111.981 1090.14 110.861 1090.14 108.989C1090.14 107.101 1090.95 105.997 1092.31 105.997C1093.66 105.997 1094.49 107.069 1094.49 108.813V109.181C1094.49 110.893 1093.64 111.981 1092.31 111.981ZM1103.14 106.109V110.589C1103.14 112.077 1103.59 113.133 1105.32 113.133C1105.83 113.133 1106.15 113.085 1106.5 112.989V111.741C1106.23 111.805 1106.02 111.853 1105.67 111.853C1104.86 111.853 1104.5 111.453 1104.5 110.541V106.109H1106.5V104.989H1104.5V102.317L1103.14 102.893V104.989H1101.66V106.109H1103.14ZM1109.76 104.989H1108.5V112.989H1109.86V109.565C1109.86 108.605 1109.89 107.533 1110.66 106.765C1111.04 106.381 1111.58 106.141 1112.42 106.141H1112.48V104.813C1112.38 104.797 1112.29 104.797 1112.19 104.797C1110.98 104.797 1110.14 105.693 1109.76 106.813V104.989ZM1116.14 113.181C1117.45 113.181 1118.46 112.557 1118.82 111.533C1118.84 112.045 1118.89 112.573 1118.95 112.989H1120.38C1120.18 112.365 1120.1 111.517 1120.1 110.285V108.125C1120.1 105.789 1119.14 104.797 1116.95 104.797C1115.08 104.797 1113.8 105.869 1113.69 107.501H1115.14C1115.21 106.493 1115.88 105.917 1116.97 105.917C1118.2 105.917 1118.73 106.509 1118.73 107.981V108.109L1117.24 108.285C1115.93 108.445 1115.16 108.637 1114.55 108.941C1113.83 109.341 1113.43 110.029 1113.43 110.829C1113.43 112.253 1114.5 113.181 1116.14 113.181ZM1116.44 112.061C1115.46 112.061 1114.87 111.581 1114.87 110.797C1114.87 110.013 1115.38 109.597 1116.57 109.421L1118.74 109.101V109.501C1118.74 111.053 1117.83 112.061 1116.44 112.061ZM1125.66 113.181C1127.45 113.181 1128.65 112.125 1128.94 110.301L1127.64 110.093C1127.44 111.341 1126.76 111.997 1125.68 111.997C1124.25 111.997 1123.42 110.893 1123.42 108.973C1123.42 107.101 1124.25 105.981 1125.63 105.981C1126.72 105.981 1127.42 106.653 1127.56 107.869L1128.96 107.709C1128.75 105.869 1127.53 104.797 1125.66 104.797C1123.39 104.797 1121.98 106.381 1121.98 108.989C1121.98 111.549 1123.42 113.181 1125.66 113.181ZM1138.03 112.989L1134.91 108.077L1137.84 104.989H1136.07L1132.48 108.925V101.389H1131.12V112.989H1132.48V110.541L1133.94 109.069L1136.35 112.989H1138.03ZM1146.88 113.181C1149.14 113.181 1150.61 111.597 1150.61 108.989C1150.61 106.381 1149.14 104.797 1146.88 104.797C1144.62 104.797 1143.15 106.381 1143.15 108.989C1143.15 111.597 1144.62 113.181 1146.88 113.181ZM1146.88 111.997C1145.44 111.997 1144.59 110.973 1144.59 108.989C1144.59 107.005 1145.44 105.981 1146.88 105.981C1148.32 105.981 1149.17 107.005 1149.17 108.989C1149.17 110.973 1148.32 111.997 1146.88 111.997ZM1155.26 113.181C1156.38 113.181 1157.37 112.461 1157.74 111.485V112.989H1159.02V104.989H1157.66V109.293C1157.66 110.925 1156.79 112.013 1155.51 112.013C1154.46 112.013 1153.88 111.277 1153.88 109.933V104.989H1152.52V110.093C1152.52 111.965 1153.24 113.181 1155.26 113.181ZM1162.19 106.109V110.589C1162.19 112.077 1162.64 113.133 1164.37 113.133C1164.88 113.133 1165.2 113.085 1165.55 112.989V111.741C1165.28 111.805 1165.07 111.853 1164.72 111.853C1163.9 111.853 1163.55 111.453 1163.55 110.541V106.109H1165.55V104.989H1163.55V102.317L1162.19 102.893V104.989H1160.7V106.109H1162.19ZM1170.42 113.181C1172.22 113.181 1173.42 112.125 1173.7 110.301L1172.41 110.093C1172.2 111.341 1171.53 111.997 1170.44 111.997C1169.02 111.997 1168.18 110.893 1168.18 108.973C1168.18 107.101 1169.02 105.981 1170.39 105.981C1171.48 105.981 1172.18 106.653 1172.33 107.869L1173.72 107.709C1173.51 105.869 1172.3 104.797 1170.42 104.797C1168.15 104.797 1166.74 106.381 1166.74 108.989C1166.74 111.549 1168.18 113.181 1170.42 113.181ZM1178.89 113.181C1181.15 113.181 1182.62 111.597 1182.62 108.989C1182.62 106.381 1181.15 104.797 1178.89 104.797C1176.64 104.797 1175.17 106.381 1175.17 108.989C1175.17 111.597 1176.64 113.181 1178.89 113.181ZM1178.89 111.997C1177.45 111.997 1176.61 110.973 1176.61 108.989C1176.61 107.005 1177.45 105.981 1178.89 105.981C1180.33 105.981 1181.18 107.005 1181.18 108.989C1181.18 110.973 1180.33 111.997 1178.89 111.997ZM1184.78 112.989H1186.14V108.317C1186.14 106.861 1186.83 105.965 1187.95 105.965C1188.91 105.965 1189.45 106.621 1189.45 107.789V112.989H1190.81V108.253C1190.81 106.797 1191.47 105.965 1192.6 105.965C1193.61 105.965 1194.12 106.605 1194.12 107.853V112.989H1195.48V107.741C1195.48 105.885 1194.59 104.797 1193.05 104.797C1191.96 104.797 1191.15 105.325 1190.62 106.397C1190.25 105.357 1189.45 104.797 1188.35 104.797C1187.27 104.797 1186.51 105.325 1186.06 106.381V104.989H1184.78V112.989ZM1204.44 108.429C1204.44 106.029 1203.19 104.797 1201.03 104.797C1198.75 104.797 1197.4 106.413 1197.4 109.085C1197.4 111.725 1198.76 113.181 1201.05 113.181C1202.67 113.181 1203.83 112.413 1204.39 110.957L1203.27 110.461C1202.92 111.437 1202.17 111.981 1201.15 111.981C1199.72 111.981 1198.78 110.957 1198.76 109.389H1204.44V108.429ZM1198.76 108.285C1198.79 106.781 1199.59 105.869 1201 105.869C1202.31 105.869 1203.07 106.637 1203.07 108.109V108.285H1198.76ZM1209.4 113.181C1211.36 113.181 1212.46 112.173 1212.46 110.733C1212.46 109.565 1211.82 108.829 1210.38 108.557L1208.83 108.269C1208.04 108.125 1207.6 107.805 1207.6 107.133C1207.6 106.349 1208.22 105.901 1209.24 105.901C1210.33 105.901 1210.96 106.461 1211.13 107.261L1212.48 106.957C1212.32 105.613 1211.1 104.797 1209.31 104.797C1207.42 104.797 1206.27 105.821 1206.27 107.197C1206.27 108.413 1207.04 109.181 1208.4 109.437L1209.96 109.725C1210.68 109.853 1211.12 110.141 1211.12 110.845C1211.12 111.533 1210.52 112.061 1209.45 112.061C1208.28 112.061 1207.53 111.485 1207.34 110.477L1205.96 110.717C1206.24 112.301 1207.52 113.181 1209.4 113.181Z" fill="white"/>
<path d="M666.135 0.656738H990.138L1028.94 78.5002L990.138 156.344H666.135L704.938 78.5002L666.135 0.656738Z" fill="white"/>
<path d="M747.1 66.51C752.29 66.51 755.2 63.48 756.1 59.22L752.26 58.44C751.72 61.44 749.86 63.27 747.13 63.27C743.23 63.27 741.13 59.94 741.13 55.29C741.13 50.52 743.29 47.37 747.04 47.37C749.98 47.37 751.75 49.29 752.11 52.32L756.07 51.75C755.5 47.22 752.47 44.19 747.16 44.19C740.77 44.19 737.14 48.69 737.14 55.32C737.14 61.77 740.41 66.51 747.1 66.51ZM759.435 44.25V66H763.035V44.25H759.435ZM773.904 66.36C778.224 66.36 781.254 63.51 781.254 58.47C781.254 53.46 778.224 50.64 773.904 50.64C769.584 50.64 766.554 53.46 766.554 58.47C766.554 63.51 769.584 66.36 773.904 66.36ZM773.904 63.63C771.594 63.63 770.214 61.89 770.214 58.47C770.214 55.05 771.594 53.37 773.904 53.37C776.214 53.37 777.564 55.05 777.564 58.47C777.564 61.89 776.214 63.63 773.904 63.63ZM790.238 66.36C794.168 66.36 796.388 64.44 796.388 61.62C796.388 59.25 795.158 57.81 792.248 57.3L789.308 56.76C787.988 56.52 787.328 56.07 787.328 55.05C787.328 53.88 788.258 53.25 789.938 53.25C791.918 53.25 793.238 54.09 793.958 55.44L796.478 54.09C795.758 51.93 793.328 50.64 790.148 50.64C786.338 50.64 784.028 52.56 784.028 55.26C784.028 57.66 785.498 59.13 788.318 59.64L790.988 60.12C792.458 60.36 793.118 60.78 793.118 61.86C793.118 62.94 792.158 63.72 790.328 63.72C788.198 63.72 786.698 62.76 786.008 61.08L783.338 62.28C784.268 64.92 786.818 66.36 790.238 66.36ZM812.791 57.75C812.791 53.16 810.301 50.64 805.951 50.64C801.481 50.64 798.781 53.7 798.781 58.65C798.781 63.57 801.541 66.36 806.131 66.36C809.191 66.36 811.561 64.92 812.671 62.31L809.911 61.05C809.221 62.67 807.961 63.54 806.251 63.54C803.881 63.54 802.291 61.92 802.261 59.4H812.791V57.75ZM802.261 57.03C802.321 54.54 803.611 53.04 805.891 53.04C808.021 53.04 809.251 54.33 809.251 56.79V57.03H802.261ZM824.723 53.61V61.35C824.723 64.38 825.923 66.27 829.523 66.27C830.453 66.27 831.113 66.18 831.983 66V62.97C831.503 63.06 831.113 63.15 830.513 63.15C829.013 63.15 828.323 62.37 828.323 60.78V53.61H831.983V51H828.323V45.78L824.723 47.22V51H822.023V53.61H824.723ZM838.885 66V58.05C838.885 55.17 840.115 53.52 842.275 53.52C844.105 53.52 845.035 54.69 845.035 56.97V66H848.665V56.67C848.665 52.71 846.955 50.64 843.715 50.64C841.435 50.64 839.785 51.69 838.885 53.76V44.25H835.285V66H838.885ZM865.818 57.75C865.818 53.16 863.328 50.64 858.978 50.64C854.508 50.64 851.808 53.7 851.808 58.65C851.808 63.57 854.568 66.36 859.158 66.36C862.218 66.36 864.588 64.92 865.698 62.31L862.938 61.05C862.248 62.67 860.988 63.54 859.278 63.54C856.908 63.54 855.318 61.92 855.288 59.4H865.818V57.75ZM855.288 57.03C855.348 54.54 856.638 53.04 858.918 53.04C861.048 53.04 862.278 54.33 862.278 56.79V57.03H855.288ZM877.121 44.25V66H880.721V44.25H877.121ZM891.59 66.36C895.91 66.36 898.94 63.51 898.94 58.47C898.94 53.46 895.91 50.64 891.59 50.64C887.27 50.64 884.24 53.46 884.24 58.47C884.24 63.51 887.27 66.36 891.59 66.36ZM891.59 63.63C889.28 63.63 887.9 61.89 887.9 58.47C887.9 55.05 889.28 53.37 891.59 53.37C893.9 53.37 895.25 55.05 895.25 58.47C895.25 61.89 893.9 63.63 891.59 63.63ZM908.582 66.36C912.902 66.36 915.932 63.51 915.932 58.47C915.932 53.46 912.902 50.64 908.582 50.64C904.262 50.64 901.232 53.46 901.232 58.47C901.232 63.51 904.262 66.36 908.582 66.36ZM908.582 63.63C906.272 63.63 904.892 61.89 904.892 58.47C904.892 55.05 906.272 53.37 908.582 53.37C910.892 53.37 912.242 55.05 912.242 58.47C912.242 61.89 910.892 63.63 908.582 63.63ZM923.084 71.85V63.84C923.894 65.31 925.394 66.36 927.524 66.36C931.214 66.36 933.734 63.3 933.734 58.47C933.734 53.73 931.304 50.64 927.704 50.64C925.574 50.64 923.834 51.66 922.904 53.61V51H919.484V71.85H923.084ZM926.474 63.6C924.344 63.6 922.994 61.77 922.994 58.89V58.14C922.994 55.11 924.344 53.4 926.504 53.4C928.694 53.4 929.984 55.26 929.984 58.47C929.984 61.68 928.634 63.6 926.474 63.6Z" fill="black"/>
<path d="M744.889 80.6288H737.849V91.9888H739.369V86.8048H744.617V85.5248H739.369V81.9088H744.889V80.6288ZM748.876 92.1808C750.188 92.1808 751.196 91.5568 751.564 90.5328C751.58 91.0448 751.628 91.5728 751.692 91.9888H753.116C752.924 91.3648 752.844 90.5168 752.844 89.2848V87.1248C752.844 84.7888 751.884 83.7968 749.692 83.7968C747.82 83.7968 746.54 84.8688 746.428 86.5008H747.884C747.948 85.4928 748.62 84.9168 749.708 84.9168C750.94 84.9168 751.468 85.5088 751.468 86.9808V87.1088L749.98 87.2848C748.668 87.4448 747.9 87.6368 747.292 87.9408C746.572 88.3408 746.172 89.0288 746.172 89.8288C746.172 91.2528 747.244 92.1808 748.876 92.1808ZM749.18 91.0608C748.204 91.0608 747.612 90.5808 747.612 89.7968C747.612 89.0128 748.124 88.5968 749.308 88.4208L751.484 88.1008V88.5008C751.484 90.0528 750.572 91.0608 749.18 91.0608ZM758.399 92.1808C760.191 92.1808 761.391 91.1248 761.679 89.3008L760.383 89.0928C760.175 90.3408 759.503 90.9968 758.415 90.9968C756.991 90.9968 756.159 89.8928 756.159 87.9728C756.159 86.1008 756.991 84.9808 758.367 84.9808C759.455 84.9808 760.159 85.6528 760.303 86.8688L761.695 86.7088C761.487 84.8688 760.271 83.7968 758.399 83.7968C756.127 83.7968 754.719 85.3808 754.719 87.9888C754.719 90.5488 756.159 92.1808 758.399 92.1808ZM765.316 82.5008V80.7888H763.764V82.5008H765.316ZM765.22 91.9888V83.9888H763.86V91.9888H765.22ZM768.095 80.3888V91.9888H769.455V80.3888H768.095ZM773.785 82.5008V80.7888H772.233V82.5008H773.785ZM773.689 91.9888V83.9888H772.329V91.9888H773.689ZM776.852 85.1088V89.5888C776.852 91.0768 777.3 92.1328 779.028 92.1328C779.54 92.1328 779.86 92.0848 780.212 91.9888V90.7408C779.94 90.8048 779.732 90.8528 779.38 90.8528C778.564 90.8528 778.212 90.4528 778.212 89.5408V85.1088H780.212V83.9888H778.212V81.3168L776.852 81.8928V83.9888H775.364V85.1088H776.852ZM784.11 92.1808C785.422 92.1808 786.43 91.5568 786.798 90.5328C786.814 91.0448 786.862 91.5728 786.926 91.9888H788.35C788.158 91.3648 788.078 90.5168 788.078 89.2848V87.1248C788.078 84.7888 787.118 83.7968 784.926 83.7968C783.054 83.7968 781.774 84.8688 781.662 86.5008H783.118C783.182 85.4928 783.854 84.9168 784.942 84.9168C786.174 84.9168 786.702 85.5088 786.702 86.9808V87.1088L785.214 87.2848C783.902 87.4448 783.134 87.6368 782.526 87.9408C781.806 88.3408 781.406 89.0288 781.406 89.8288C781.406 91.2528 782.478 92.1808 784.11 92.1808ZM784.414 91.0608C783.438 91.0608 782.846 90.5808 782.846 89.7968C782.846 89.0128 783.358 88.5968 784.542 88.4208L786.718 88.1008V88.5008C786.718 90.0528 785.806 91.0608 784.414 91.0608ZM791.039 85.1088V89.5888C791.039 91.0768 791.487 92.1328 793.215 92.1328C793.727 92.1328 794.047 92.0848 794.399 91.9888V90.7408C794.127 90.8048 793.919 90.8528 793.567 90.8528C792.751 90.8528 792.399 90.4528 792.399 89.5408V85.1088H794.399V83.9888H792.399V81.3168L791.039 81.8928V83.9888H789.551V85.1088H791.039ZM802.634 87.4288C802.634 85.0288 801.386 83.7968 799.226 83.7968C796.938 83.7968 795.594 85.4128 795.594 88.0848C795.594 90.7248 796.954 92.1808 799.242 92.1808C800.858 92.1808 802.026 91.4128 802.586 89.9568L801.466 89.4608C801.114 90.4368 800.362 90.9808 799.338 90.9808C797.914 90.9808 796.97 89.9568 796.954 88.3888H802.634V87.4288ZM796.954 87.2848C796.986 85.7808 797.786 84.8688 799.194 84.8688C800.506 84.8688 801.258 85.6368 801.258 87.1088V87.2848H796.954ZM811.992 92.1808C813.784 92.1808 814.984 91.1248 815.272 89.3008L813.976 89.0928C813.768 90.3408 813.096 90.9968 812.008 90.9968C810.584 90.9968 809.752 89.8928 809.752 87.9728C809.752 86.1008 810.584 84.9808 811.96 84.9808C813.048 84.9808 813.752 85.6528 813.896 86.8688L815.288 86.7088C815.08 84.8688 813.864 83.7968 811.992 83.7968C809.72 83.7968 808.312 85.3808 808.312 87.9888C808.312 90.5488 809.752 92.1808 811.992 92.1808ZM820.462 92.1808C822.718 92.1808 824.19 90.5968 824.19 87.9888C824.19 85.3808 822.718 83.7968 820.462 83.7968C818.206 83.7968 816.734 85.3808 816.734 87.9888C816.734 90.5968 818.206 92.1808 820.462 92.1808ZM820.462 90.9968C819.022 90.9968 818.174 89.9728 818.174 87.9888C818.174 86.0048 819.022 84.9808 820.462 84.9808C821.902 84.9808 822.75 86.0048 822.75 87.9888C822.75 89.9728 821.902 90.9968 820.462 90.9968ZM826.345 91.9888H827.705V87.3168C827.705 85.8608 828.393 84.9648 829.513 84.9648C830.473 84.9648 831.017 85.6208 831.017 86.7888V91.9888H832.377V87.2528C832.377 85.7968 833.033 84.9648 834.169 84.9648C835.177 84.9648 835.689 85.6048 835.689 86.8528V91.9888H837.049V86.7408C837.049 84.8848 836.153 83.7968 834.617 83.7968C833.529 83.7968 832.713 84.3248 832.185 85.3968C831.817 84.3568 831.017 83.7968 829.913 83.7968C828.841 83.7968 828.073 84.3248 827.625 85.3808V83.9888H826.345V91.9888ZM839.689 91.9888H841.049V87.3168C841.049 85.8608 841.737 84.9648 842.857 84.9648C843.817 84.9648 844.361 85.6208 844.361 86.7888V91.9888H845.721V87.2528C845.721 85.7968 846.377 84.9648 847.513 84.9648C848.521 84.9648 849.033 85.6048 849.033 86.8528V91.9888H850.393V86.7408C850.393 84.8848 849.497 83.7968 847.961 83.7968C846.873 83.7968 846.057 84.3248 845.529 85.3968C845.161 84.3568 844.361 83.7968 843.257 83.7968C842.185 83.7968 841.417 84.3248 840.969 85.3808V83.9888H839.689V91.9888ZM855.528 92.1808C856.648 92.1808 857.64 91.4608 858.008 90.4848V91.9888H859.288V83.9888H857.928V88.2928C857.928 89.9248 857.064 91.0128 855.784 91.0128C854.728 91.0128 854.152 90.2768 854.152 88.9328V83.9888H852.792V89.0928C852.792 90.9648 853.512 92.1808 855.528 92.1808ZM863.533 91.9888V87.8128C863.533 86.0368 864.349 84.9648 865.677 84.9648C866.845 84.9648 867.437 85.6848 867.437 87.0928V91.9888H868.797V87.0128C868.797 84.8848 867.885 83.7968 866.125 83.7968C864.861 83.7968 863.981 84.3728 863.453 85.5728V83.9888H862.173V91.9888H863.533ZM872.895 82.5008V80.7888H871.343V82.5008H872.895ZM872.799 91.9888V83.9888H871.439V91.9888H872.799ZM878.633 92.1808C880.425 92.1808 881.625 91.1248 881.913 89.3008L880.617 89.0928C880.409 90.3408 879.737 90.9968 878.649 90.9968C877.225 90.9968 876.393 89.8928 876.393 87.9728C876.393 86.1008 877.225 84.9808 878.601 84.9808C879.689 84.9808 880.393 85.6528 880.537 86.8688L881.929 86.7088C881.721 84.8688 880.505 83.7968 878.633 83.7968C876.361 83.7968 874.953 85.3808 874.953 87.9888C874.953 90.5488 876.393 92.1808 878.633 92.1808ZM886.079 92.1808C887.391 92.1808 888.399 91.5568 888.767 90.5328C888.783 91.0448 888.831 91.5728 888.895 91.9888H890.319C890.127 91.3648 890.047 90.5168 890.047 89.2848V87.1248C890.047 84.7888 889.087 83.7968 886.895 83.7968C885.023 83.7968 883.743 84.8688 883.631 86.5008H885.087C885.151 85.4928 885.823 84.9168 886.911 84.9168C888.143 84.9168 888.671 85.5088 888.671 86.9808V87.1088L887.183 87.2848C885.871 87.4448 885.103 87.6368 884.495 87.9408C883.775 88.3408 883.375 89.0288 883.375 89.8288C883.375 91.2528 884.447 92.1808 886.079 92.1808ZM886.383 91.0608C885.407 91.0608 884.815 90.5808 884.815 89.7968C884.815 89.0128 885.327 88.5968 886.511 88.4208L888.687 88.1008V88.5008C888.687 90.0528 887.775 91.0608 886.383 91.0608ZM893.008 85.1088V89.5888C893.008 91.0768 893.456 92.1328 895.184 92.1328C895.696 92.1328 896.016 92.0848 896.368 91.9888V90.7408C896.096 90.8048 895.888 90.8528 895.536 90.8528C894.72 90.8528 894.368 90.4528 894.368 89.5408V85.1088H896.368V83.9888H894.368V81.3168L893.008 81.8928V83.9888H891.52V85.1088H893.008ZM899.816 82.5008V80.7888H898.264V82.5008H899.816ZM899.72 91.9888V83.9888H898.36V91.9888H899.72ZM905.603 92.1808C907.859 92.1808 909.331 90.5968 909.331 87.9888C909.331 85.3808 907.859 83.7968 905.603 83.7968C903.347 83.7968 901.875 85.3808 901.875 87.9888C901.875 90.5968 903.347 92.1808 905.603 92.1808ZM905.603 90.9968C904.163 90.9968 903.315 89.9728 903.315 87.9888C903.315 86.0048 904.163 84.9808 905.603 84.9808C907.043 84.9808 907.891 86.0048 907.891 87.9888C907.891 89.9728 907.043 90.9968 905.603 90.9968ZM912.845 91.9888V87.8128C912.845 86.0368 913.661 84.9648 914.989 84.9648C916.157 84.9648 916.749 85.6848 916.749 87.0928V91.9888H918.109V87.0128C918.109 84.8848 917.197 83.7968 915.437 83.7968C914.173 83.7968 913.293 84.3728 912.765 85.5728V83.9888H911.485V91.9888H912.845ZM741.513 113.181C743.513 113.181 744.809 111.485 744.809 108.989C744.809 106.541 743.545 104.797 741.593 104.797C740.345 104.797 739.465 105.485 739.049 106.381V101.389H737.689V112.989H738.729L738.969 111.613C739.385 112.541 740.297 113.181 741.513 113.181ZM741.145 111.981C739.801 111.981 739.017 110.893 739.017 109.229V108.813C739.017 107.069 739.817 105.997 741.161 105.997C742.585 105.997 743.369 107.197 743.369 108.989C743.369 110.813 742.537 111.981 741.145 111.981ZM753.29 108.429C753.29 106.029 752.042 104.797 749.882 104.797C747.594 104.797 746.25 106.413 746.25 109.085C746.25 111.725 747.61 113.181 749.898 113.181C751.514 113.181 752.682 112.413 753.242 110.957L752.122 110.461C751.77 111.437 751.018 111.981 749.994 111.981C748.57 111.981 747.626 110.957 747.61 109.389H753.29V108.429ZM747.61 108.285C747.642 106.781 748.442 105.869 749.85 105.869C751.162 105.869 751.914 106.637 751.914 108.109V108.285H747.61ZM755.82 106.109V110.589C755.82 112.077 756.268 113.133 757.996 113.133C758.508 113.133 758.828 113.085 759.18 112.989V111.741C758.908 111.805 758.7 111.853 758.348 111.853C757.532 111.853 757.18 111.453 757.18 110.541V106.109H759.18V104.989H757.18V102.317L755.82 102.893V104.989H754.332V106.109H755.82ZM764.189 112.989L765.709 107.229C765.773 106.973 765.853 106.573 765.885 106.333H765.917C765.949 106.573 766.029 106.973 766.093 107.229L767.613 112.989H769.101L771.357 104.989H769.949L768.509 110.701C768.445 110.989 768.381 111.325 768.333 111.645H768.301C768.253 111.325 768.157 110.989 768.093 110.701L766.637 104.989H765.165L763.709 110.701C763.645 110.989 763.549 111.325 763.501 111.645H763.469C763.421 111.325 763.357 110.989 763.293 110.701L761.853 104.989H760.445L762.701 112.989H764.189ZM779.446 108.429C779.446 106.029 778.198 104.797 776.038 104.797C773.75 104.797 772.406 106.413 772.406 109.085C772.406 111.725 773.766 113.181 776.054 113.181C777.67 113.181 778.838 112.413 779.398 110.957L778.278 110.461C777.926 111.437 777.174 111.981 776.15 111.981C774.726 111.981 773.782 110.957 773.766 109.389H779.446V108.429ZM773.766 108.285C773.798 106.781 774.598 105.869 776.006 105.869C777.318 105.869 778.07 106.637 778.07 108.109V108.285H773.766ZM788.009 108.429C788.009 106.029 786.761 104.797 784.601 104.797C782.313 104.797 780.969 106.413 780.969 109.085C780.969 111.725 782.329 113.181 784.617 113.181C786.233 113.181 787.401 112.413 787.961 110.957L786.841 110.461C786.489 111.437 785.737 111.981 784.713 111.981C783.289 111.981 782.345 110.957 782.329 109.389H788.009V108.429ZM782.329 108.285C782.361 106.781 783.161 105.869 784.569 105.869C785.881 105.869 786.633 106.637 786.633 108.109V108.285H782.329ZM791.611 112.989V108.813C791.611 107.037 792.427 105.965 793.755 105.965C794.923 105.965 795.515 106.685 795.515 108.093V112.989H796.875V108.013C796.875 105.885 795.963 104.797 794.203 104.797C792.939 104.797 792.059 105.373 791.531 106.573V104.989H790.251V112.989H791.611ZM805.033 116.109V111.725C805.385 112.509 806.249 113.181 807.481 113.181C809.417 113.181 810.793 111.549 810.793 108.989C810.793 106.461 809.497 104.797 807.561 104.797C806.393 104.797 805.465 105.373 804.953 106.477V104.989H803.673V116.109H805.033ZM807.161 111.981C805.833 111.981 805.001 110.893 805.001 109.165V108.781C805.001 107.053 805.865 105.997 807.209 105.997C808.553 105.997 809.353 107.101 809.353 108.989C809.353 110.861 808.521 111.981 807.161 111.981ZM814.218 104.989H812.954V112.989H814.314V109.565C814.314 108.605 814.346 107.533 815.114 106.765C815.498 106.381 816.042 106.141 816.874 106.141H816.938V104.813C816.842 104.797 816.746 104.797 816.65 104.797C815.434 104.797 814.602 105.693 814.218 106.813V104.989ZM821.634 113.181C823.89 113.181 825.362 111.597 825.362 108.989C825.362 106.381 823.89 104.797 821.634 104.797C819.378 104.797 817.906 106.381 817.906 108.989C817.906 111.597 819.378 113.181 821.634 113.181ZM821.634 111.997C820.194 111.997 819.346 110.973 819.346 108.989C819.346 107.005 820.194 105.981 821.634 105.981C823.074 105.981 823.922 107.005 823.922 108.989C823.922 110.973 823.074 111.997 821.634 111.997ZM830.511 112.989L833.407 104.989H831.935L830.143 110.381C829.999 110.813 829.887 111.229 829.807 111.597H829.759C829.679 111.229 829.567 110.813 829.423 110.381L827.631 104.989H826.159L829.055 112.989H830.511ZM836.457 103.501V101.789H834.905V103.501H836.457ZM836.361 112.989V104.989H835.001V112.989H836.361ZM841.763 113.181C843.011 113.181 843.875 112.573 844.355 111.501V112.989H845.635V101.389H844.275V106.173C843.763 105.229 842.979 104.797 841.923 104.797C839.923 104.797 838.515 106.525 838.515 108.989C838.515 111.501 839.827 113.181 841.763 113.181ZM842.131 111.981C840.771 111.981 839.955 110.861 839.955 108.989C839.955 107.101 840.771 105.997 842.131 105.997C843.475 105.997 844.307 107.069 844.307 108.813V109.181C844.307 110.893 843.459 111.981 842.131 111.981ZM854.837 108.429C854.837 106.029 853.589 104.797 851.429 104.797C849.141 104.797 847.797 106.413 847.797 109.085C847.797 111.725 849.157 113.181 851.445 113.181C853.061 113.181 854.229 112.413 854.789 110.957L853.669 110.461C853.317 111.437 852.565 111.981 851.541 111.981C850.117 111.981 849.173 110.957 849.157 109.389H854.837V108.429ZM849.157 108.285C849.189 106.781 849.989 105.869 851.397 105.869C852.709 105.869 853.461 106.637 853.461 108.109V108.285H849.157ZM858.343 104.989H857.079V112.989H858.439V109.565C858.439 108.605 858.471 107.533 859.239 106.765C859.623 106.381 860.167 106.141 860.999 106.141H861.063V104.813C860.967 104.797 860.871 104.797 860.775 104.797C859.559 104.797 858.727 105.693 858.343 106.813V104.989ZM865.455 113.181C867.407 113.181 868.511 112.173 868.511 110.733C868.511 109.565 867.871 108.829 866.431 108.557L864.879 108.269C864.095 108.125 863.647 107.805 863.647 107.133C863.647 106.349 864.271 105.901 865.295 105.901C866.383 105.901 867.007 106.461 867.183 107.261L868.527 106.957C868.367 105.613 867.151 104.797 865.359 104.797C863.471 104.797 862.319 105.821 862.319 107.197C862.319 108.413 863.087 109.181 864.447 109.437L866.015 109.725C866.735 109.853 867.167 110.141 867.167 110.845C867.167 111.533 866.575 112.061 865.503 112.061C864.335 112.061 863.583 111.485 863.391 110.477L862.015 110.717C862.287 112.301 863.567 113.181 865.455 113.181ZM876.907 113.181C878.219 113.181 879.227 112.557 879.595 111.533C879.611 112.045 879.659 112.573 879.723 112.989H881.147C880.955 112.365 880.875 111.517 880.875 110.285V108.125C880.875 105.789 879.915 104.797 877.723 104.797C875.851 104.797 874.571 105.869 874.459 107.501H875.915C875.979 106.493 876.651 105.917 877.739 105.917C878.971 105.917 879.499 106.509 879.499 107.981V108.109L878.011 108.285C876.699 108.445 875.931 108.637 875.323 108.941C874.603 109.341 874.203 110.029 874.203 110.829C874.203 112.253 875.275 113.181 876.907 113.181ZM877.211 112.061C876.235 112.061 875.643 111.581 875.643 110.797C875.643 110.013 876.155 109.597 877.339 109.421L879.515 109.101V109.501C879.515 111.053 878.603 112.061 877.211 112.061ZM884.908 112.989V108.813C884.908 107.037 885.724 105.965 887.052 105.965C888.22 105.965 888.812 106.685 888.812 108.093V112.989H890.172V108.013C890.172 105.885 889.26 104.797 887.5 104.797C886.236 104.797 885.356 105.373 884.828 106.573V104.989H883.548V112.989H884.908ZM895.342 113.181C896.59 113.181 897.454 112.573 897.934 111.501V112.989H899.214V101.389H897.854V106.173C897.342 105.229 896.558 104.797 895.502 104.797C893.502 104.797 892.094 106.525 892.094 108.989C892.094 111.501 893.406 113.181 895.342 113.181ZM895.71 111.981C894.35 111.981 893.534 110.861 893.534 108.989C893.534 107.101 894.35 105.997 895.71 105.997C897.054 105.997 897.886 107.069 897.886 108.813V109.181C897.886 110.893 897.038 111.981 895.71 111.981ZM910.651 113.261C913.387 113.261 914.763 111.565 915.195 109.421L913.723 109.165C913.403 110.861 912.267 111.933 910.651 111.933C908.331 111.933 907.131 109.917 907.131 107.261C907.131 104.509 908.395 102.653 910.619 102.653C912.379 102.653 913.419 103.789 913.643 105.501L915.195 105.341C914.907 102.989 913.467 101.357 910.699 101.357C907.323 101.357 905.531 103.789 905.531 107.277C905.531 110.573 907.131 113.261 910.651 113.261ZM923.266 107.117C924.562 106.749 925.17 105.725 925.17 104.653C925.17 103.309 924.386 101.629 921.394 101.629H917.442V112.989H921.73C924.61 112.989 925.49 111.325 925.49 109.869C925.49 108.349 924.626 107.357 923.266 107.117ZM921.394 102.909C923.234 102.909 923.666 103.869 923.666 104.765C923.666 105.549 923.346 106.557 921.394 106.557H918.962V102.909H921.394ZM918.962 111.709V107.837H921.81C923.362 107.837 923.986 108.669 923.986 109.725C923.986 110.749 923.426 111.709 921.65 111.709H918.962ZM932.137 113.261C935.273 113.261 937.321 110.989 937.321 107.309C937.321 103.597 935.273 101.357 932.137 101.357C928.985 101.357 926.937 103.597 926.937 107.309C926.937 110.941 928.985 113.261 932.137 113.261ZM932.137 111.981C929.865 111.981 928.537 110.157 928.537 107.309C928.537 104.397 929.865 102.637 932.137 102.637C934.409 102.637 935.721 104.397 935.721 107.309C935.721 110.205 934.409 111.981 932.137 111.981ZM942.205 113.181C944.157 113.181 945.261 112.173 945.261 110.733C945.261 109.565 944.621 108.829 943.181 108.557L941.629 108.269C940.845 108.125 940.397 107.805 940.397 107.133C940.397 106.349 941.021 105.901 942.045 105.901C943.133 105.901 943.757 106.461 943.933 107.261L945.277 106.957C945.117 105.613 943.901 104.797 942.109 104.797C940.221 104.797 939.069 105.821 939.069 107.197C939.069 108.413 939.837 109.181 941.197 109.437L942.765 109.725C943.485 109.853 943.917 110.141 943.917 110.845C943.917 111.533 943.325 112.061 942.253 112.061C941.085 112.061 940.333 111.485 940.141 110.477L938.765 110.717C939.037 112.301 940.317 113.181 942.205 113.181Z" fill="black"/>
<path d="M335.05 0.656738H659.053L697.856 78.5002L659.053 156.344H335.05L373.853 78.5002L335.05 0.656738Z" fill="#FF938E"/>
<path d="M420.1 66.51C425.29 66.51 428.2 63.48 429.1 59.22L425.26 58.44C424.72 61.44 422.86 63.27 420.13 63.27C416.23 63.27 414.13 59.94 414.13 55.29C414.13 50.52 416.29 47.37 420.04 47.37C422.98 47.37 424.75 49.29 425.11 52.32L429.07 51.75C428.5 47.22 425.47 44.19 420.16 44.19C413.77 44.19 410.14 48.69 410.14 55.32C410.14 61.77 413.41 66.51 420.1 66.51ZM438.818 66.36C443.138 66.36 446.168 63.51 446.168 58.47C446.168 53.46 443.138 50.64 438.818 50.64C434.498 50.64 431.468 53.46 431.468 58.47C431.468 63.51 434.498 66.36 438.818 66.36ZM438.818 63.63C436.508 63.63 435.128 61.89 435.128 58.47C435.128 55.05 436.508 53.37 438.818 53.37C441.128 53.37 442.478 55.05 442.478 58.47C442.478 61.89 441.128 63.63 438.818 63.63ZM453.32 66V58.05C453.32 55.2 454.58 53.52 456.68 53.52C458.57 53.52 459.47 54.69 459.47 57.06V66H463.1V56.7C463.1 52.68 461.39 50.64 458.12 50.64C455.81 50.64 454.16 51.72 453.14 53.91V51H449.72V66H453.32ZM471.104 66V58.05C471.104 55.2 472.364 53.52 474.464 53.52C476.354 53.52 477.254 54.69 477.254 57.06V66H480.884V56.7C480.884 52.68 479.174 50.64 475.904 50.64C473.594 50.64 471.944 51.72 470.924 53.91V51H467.504V66H471.104ZM498.037 57.75C498.037 53.16 495.547 50.64 491.197 50.64C486.727 50.64 484.027 53.7 484.027 58.65C484.027 63.57 486.787 66.36 491.377 66.36C494.437 66.36 496.807 64.92 497.917 62.31L495.157 61.05C494.467 62.67 493.207 63.54 491.497 63.54C489.127 63.54 487.537 61.92 487.507 59.4H498.037V57.75ZM487.507 57.03C487.567 54.54 488.857 53.04 491.137 53.04C493.267 53.04 494.497 54.33 494.497 56.79V57.03H487.507ZM507.812 66.36C511.382 66.36 513.902 64.32 514.442 60.99L511.052 60.3C510.722 62.4 509.612 63.51 507.812 63.51C505.502 63.51 504.152 61.65 504.152 58.41C504.152 55.32 505.532 53.46 507.752 53.46C509.522 53.46 510.692 54.57 510.932 56.61L514.442 56.04C513.992 52.62 511.562 50.64 507.842 50.64C503.282 50.64 500.462 53.61 500.462 58.5C500.462 63.27 503.342 66.36 507.812 66.36ZM518.495 53.61V61.35C518.495 64.38 519.695 66.27 523.295 66.27C524.225 66.27 524.885 66.18 525.755 66V62.97C525.275 63.06 524.885 63.15 524.285 63.15C522.785 63.15 522.095 62.37 522.095 60.78V53.61H525.755V51H522.095V45.78L518.495 47.22V51H515.795V53.61H518.495ZM532.806 48.51V44.76H528.906V48.51H532.806ZM532.656 66V51H529.056V66H532.656ZM543.525 66.36C547.845 66.36 550.875 63.51 550.875 58.47C550.875 53.46 547.845 50.64 543.525 50.64C539.205 50.64 536.175 53.46 536.175 58.47C536.175 63.51 539.205 66.36 543.525 66.36ZM543.525 63.63C541.215 63.63 539.835 61.89 539.835 58.47C539.835 55.05 541.215 53.37 543.525 53.37C545.835 53.37 547.185 55.05 547.185 58.47C547.185 61.89 545.835 63.63 543.525 63.63ZM558.027 66V58.05C558.027 55.2 559.287 53.52 561.387 53.52C563.277 53.52 564.177 54.69 564.177 57.06V66H567.807V56.7C567.807 52.68 566.097 50.64 562.827 50.64C560.517 50.64 558.867 51.72 557.847 53.91V51H554.427V66H558.027ZM577.701 66.36C581.631 66.36 583.851 64.44 583.851 61.62C583.851 59.25 582.621 57.81 579.711 57.3L576.771 56.76C575.451 56.52 574.791 56.07 574.791 55.05C574.791 53.88 575.721 53.25 577.401 53.25C579.381 53.25 580.701 54.09 581.421 55.44L583.941 54.09C583.221 51.93 580.791 50.64 577.611 50.64C573.801 50.64 571.491 52.56 571.491 55.26C571.491 57.66 572.961 59.13 575.781 59.64L578.451 60.12C579.921 60.36 580.581 60.78 580.581 61.86C580.581 62.94 579.621 63.72 577.791 63.72C575.661 63.72 574.161 62.76 573.471 61.08L570.801 62.28C571.731 64.92 574.281 66.36 577.701 66.36Z" fill="black"/>
<path d="M410.404 80.6288V91.9888H411.924V87.3488H414.436C416.788 87.3488 418.292 86.0368 418.292 83.9888C418.292 81.9408 416.788 80.6288 414.436 80.6288H410.404ZM411.924 86.0688V81.9088H414.276C415.748 81.9088 416.692 82.7248 416.692 83.9888C416.692 85.2528 415.748 86.0688 414.276 86.0688H411.924ZM421.476 83.9888H420.212V91.9888H421.572V88.5648C421.572 87.6048 421.604 86.5328 422.372 85.7648C422.756 85.3808 423.3 85.1408 424.132 85.1408H424.196V83.8128C424.1 83.7968 424.004 83.7968 423.908 83.7968C422.692 83.7968 421.86 84.6928 421.476 85.8128V83.9888ZM428.892 92.1808C431.148 92.1808 432.62 90.5968 432.62 87.9888C432.62 85.3808 431.148 83.7968 428.892 83.7968C426.636 83.7968 425.164 85.3808 425.164 87.9888C425.164 90.5968 426.636 92.1808 428.892 92.1808ZM428.892 90.9968C427.452 90.9968 426.604 89.9728 426.604 87.9888C426.604 86.0048 427.452 84.9808 428.892 84.9808C430.332 84.9808 431.18 86.0048 431.18 87.9888C431.18 89.9728 430.332 90.9968 428.892 90.9968ZM437.769 91.9888L440.665 83.9888H439.193L437.401 89.3808C437.257 89.8128 437.145 90.2288 437.065 90.5968H437.017C436.937 90.2288 436.825 89.8128 436.681 89.3808L434.889 83.9888H433.417L436.313 91.9888H437.769ZM443.715 82.5008V80.7888H442.163V82.5008H443.715ZM443.619 91.9888V83.9888H442.259V91.9888H443.619ZM449.022 92.1808C450.27 92.1808 451.134 91.5728 451.614 90.5008V91.9888H452.894V80.3888H451.534V85.1728C451.022 84.2288 450.238 83.7968 449.182 83.7968C447.182 83.7968 445.774 85.5248 445.774 87.9888C445.774 90.5008 447.086 92.1808 449.022 92.1808ZM449.39 90.9808C448.03 90.9808 447.214 89.8608 447.214 87.9888C447.214 86.1008 448.03 84.9968 449.39 84.9968C450.734 84.9968 451.566 86.0688 451.566 87.8128V88.1808C451.566 89.8928 450.718 90.9808 449.39 90.9808ZM462.095 87.4288C462.095 85.0288 460.847 83.7968 458.687 83.7968C456.399 83.7968 455.055 85.4128 455.055 88.0848C455.055 90.7248 456.415 92.1808 458.703 92.1808C460.319 92.1808 461.487 91.4128 462.047 89.9568L460.927 89.4608C460.575 90.4368 459.823 90.9808 458.799 90.9808C457.375 90.9808 456.431 89.9568 456.415 88.3888H462.095V87.4288ZM456.415 87.2848C456.447 85.7808 457.247 84.8688 458.655 84.8688C459.967 84.8688 460.719 85.6368 460.719 87.1088V87.2848H456.415ZM469.758 83.9888H468.494V91.9888H469.854V88.5648C469.854 87.6048 469.886 86.5328 470.654 85.7648C471.038 85.3808 471.582 85.1408 472.414 85.1408H472.478V83.8128C472.382 83.7968 472.286 83.7968 472.19 83.7968C470.974 83.7968 470.142 84.6928 469.758 85.8128V83.9888ZM480.486 87.4288C480.486 85.0288 479.238 83.7968 477.078 83.7968C474.79 83.7968 473.446 85.4128 473.446 88.0848C473.446 90.7248 474.806 92.1808 477.094 92.1808C478.71 92.1808 479.878 91.4128 480.438 89.9568L479.318 89.4608C478.966 90.4368 478.214 90.9808 477.19 90.9808C475.766 90.9808 474.822 89.9568 474.806 88.3888H480.486V87.4288ZM474.806 87.2848C474.838 85.7808 475.638 84.8688 477.046 84.8688C478.358 84.8688 479.11 85.6368 479.11 87.1088V87.2848H474.806ZM484.44 83.9888V82.9168C484.44 81.9408 484.776 81.4928 485.592 81.4928C485.848 81.4928 486.152 81.5248 486.44 81.5728V80.4048C486.136 80.3248 485.8 80.2928 485.416 80.2928C483.992 80.2928 483.08 81.2688 483.08 82.7248V83.9888H481.608V85.1088H483.08V91.9888H484.44V85.1088H486.44V83.9888H484.44ZM494.361 87.4288C494.361 85.0288 493.113 83.7968 490.953 83.7968C488.665 83.7968 487.321 85.4128 487.321 88.0848C487.321 90.7248 488.681 92.1808 490.969 92.1808C492.585 92.1808 493.753 91.4128 494.313 89.9568L493.193 89.4608C492.841 90.4368 492.089 90.9808 491.065 90.9808C489.641 90.9808 488.697 89.9568 488.681 88.3888H494.361V87.4288ZM488.681 87.2848C488.713 85.7808 489.513 84.8688 490.921 84.8688C492.233 84.8688 492.985 85.6368 492.985 87.1088V87.2848H488.681ZM497.867 83.9888H496.603V91.9888H497.963V88.5648C497.963 87.6048 497.995 86.5328 498.763 85.7648C499.147 85.3808 499.691 85.1408 500.523 85.1408H500.587V83.8128C500.491 83.7968 500.395 83.7968 500.299 83.7968C499.083 83.7968 498.251 84.6928 497.867 85.8128V83.9888ZM503.617 83.9888H502.353V91.9888H503.713V88.5648C503.713 87.6048 503.745 86.5328 504.513 85.7648C504.897 85.3808 505.441 85.1408 506.273 85.1408H506.337V83.8128C506.241 83.7968 506.145 83.7968 506.049 83.7968C504.833 83.7968 504.001 84.6928 503.617 85.8128V83.9888ZM509.993 92.1808C511.305 92.1808 512.313 91.5568 512.681 90.5328C512.697 91.0448 512.745 91.5728 512.809 91.9888H514.233C514.041 91.3648 513.961 90.5168 513.961 89.2848V87.1248C513.961 84.7888 513.001 83.7968 510.809 83.7968C508.937 83.7968 507.657 84.8688 507.545 86.5008H509.001C509.065 85.4928 509.737 84.9168 510.825 84.9168C512.057 84.9168 512.585 85.5088 512.585 86.9808V87.1088L511.097 87.2848C509.785 87.4448 509.017 87.6368 508.409 87.9408C507.689 88.3408 507.289 89.0288 507.289 89.8288C507.289 91.2528 508.361 92.1808 509.993 92.1808ZM510.297 91.0608C509.321 91.0608 508.729 90.5808 508.729 89.7968C508.729 89.0128 509.241 88.5968 510.425 88.4208L512.601 88.1008V88.5008C512.601 90.0528 511.689 91.0608 510.297 91.0608ZM516.634 80.3888V91.9888H517.994V80.3888H516.634ZM523.589 92.1808C525.541 92.1808 526.645 91.1728 526.645 89.7328C526.645 88.5648 526.005 87.8288 524.565 87.5568L523.013 87.2688C522.229 87.1248 521.781 86.8048 521.781 86.1328C521.781 85.3488 522.405 84.9008 523.429 84.9008C524.517 84.9008 525.141 85.4608 525.317 86.2608L526.661 85.9568C526.501 84.6128 525.285 83.7968 523.493 83.7968C521.605 83.7968 520.453 84.8208 520.453 86.1968C520.453 87.4128 521.221 88.1808 522.581 88.4368L524.149 88.7248C524.869 88.8528 525.301 89.1408 525.301 89.8448C525.301 90.5328 524.709 91.0608 523.637 91.0608C522.469 91.0608 521.717 90.4848 521.525 89.4768L520.149 89.7168C520.421 91.3008 521.701 92.1808 523.589 92.1808ZM533.344 85.1088V89.5888C533.344 91.0768 533.792 92.1328 535.52 92.1328C536.032 92.1328 536.352 92.0848 536.704 91.9888V90.7408C536.432 90.8048 536.224 90.8528 535.872 90.8528C535.056 90.8528 534.704 90.4528 534.704 89.5408V85.1088H536.704V83.9888H534.704V81.3168L533.344 81.8928V83.9888H531.856V85.1088H533.344ZM541.627 92.1808C543.883 92.1808 545.355 90.5968 545.355 87.9888C545.355 85.3808 543.883 83.7968 541.627 83.7968C539.371 83.7968 537.899 85.3808 537.899 87.9888C537.899 90.5968 539.371 92.1808 541.627 92.1808ZM541.627 90.9968C540.187 90.9968 539.339 89.9728 539.339 87.9888C539.339 86.0048 540.187 84.9808 541.627 84.9808C543.067 84.9808 543.915 86.0048 543.915 87.9888C543.915 89.9728 543.067 90.9968 541.627 90.9968ZM554.386 92.1808C556.338 92.1808 557.442 91.1728 557.442 89.7328C557.442 88.5648 556.802 87.8288 555.362 87.5568L553.81 87.2688C553.026 87.1248 552.578 86.8048 552.578 86.1328C552.578 85.3488 553.202 84.9008 554.226 84.9008C555.314 84.9008 555.938 85.4608 556.114 86.2608L557.458 85.9568C557.298 84.6128 556.082 83.7968 554.29 83.7968C552.402 83.7968 551.25 84.8208 551.25 86.1968C551.25 87.4128 552.018 88.1808 553.378 88.4368L554.946 88.7248C555.666 88.8528 556.098 89.1408 556.098 89.8448C556.098 90.5328 555.506 91.0608 554.434 91.0608C553.266 91.0608 552.514 90.4848 552.322 89.4768L550.946 89.7168C551.218 91.3008 552.498 92.1808 554.386 92.1808ZM566.017 87.4288C566.017 85.0288 564.769 83.7968 562.609 83.7968C560.321 83.7968 558.977 85.4128 558.977 88.0848C558.977 90.7248 560.337 92.1808 562.625 92.1808C564.241 92.1808 565.409 91.4128 565.969 89.9568L564.849 89.4608C564.497 90.4368 563.745 90.9808 562.721 90.9808C561.297 90.9808 560.353 89.9568 560.337 88.3888H566.017V87.4288ZM560.337 87.2848C560.369 85.7808 561.169 84.8688 562.577 84.8688C563.889 84.8688 564.641 85.6368 564.641 87.1088V87.2848H560.337ZM569.523 83.9888H568.259V91.9888H569.619V88.5648C569.619 87.6048 569.651 86.5328 570.419 85.7648C570.803 85.3808 571.347 85.1408 572.179 85.1408H572.243V83.8128C572.147 83.7968 572.051 83.7968 571.955 83.7968C570.739 83.7968 569.907 84.6928 569.523 85.8128V83.9888ZM577.425 91.9888L580.321 83.9888H578.849L577.057 89.3808C576.913 89.8128 576.801 90.2288 576.721 90.5968H576.673C576.593 90.2288 576.481 89.8128 576.337 89.3808L574.545 83.9888H573.073L575.969 91.9888H577.425ZM583.372 82.5008V80.7888H581.82V82.5008H583.372ZM583.276 91.9888V83.9888H581.916V91.9888H583.276ZM589.11 92.1808C590.902 92.1808 592.102 91.1248 592.39 89.3008L591.094 89.0928C590.886 90.3408 590.214 90.9968 589.126 90.9968C587.702 90.9968 586.87 89.8928 586.87 87.9728C586.87 86.1008 587.702 84.9808 589.078 84.9808C590.166 84.9808 590.87 85.6528 591.014 86.8688L592.406 86.7088C592.198 84.8688 590.982 83.7968 589.11 83.7968C586.838 83.7968 585.43 85.3808 585.43 87.9888C585.43 90.5488 586.87 92.1808 589.11 92.1808ZM600.892 87.4288C600.892 85.0288 599.644 83.7968 597.484 83.7968C595.196 83.7968 593.852 85.4128 593.852 88.0848C593.852 90.7248 595.212 92.1808 597.5 92.1808C599.116 92.1808 600.284 91.4128 600.844 89.9568L599.724 89.4608C599.372 90.4368 598.62 90.9808 597.596 90.9808C596.172 90.9808 595.228 89.9568 595.212 88.3888H600.892V87.4288ZM595.212 87.2848C595.244 85.7808 596.044 84.8688 597.452 84.8688C598.764 84.8688 599.516 85.6368 599.516 87.1088V87.2848H595.212ZM605.854 92.1808C607.806 92.1808 608.91 91.1728 608.91 89.7328C608.91 88.5648 608.27 87.8288 606.83 87.5568L605.278 87.2688C604.494 87.1248 604.046 86.8048 604.046 86.1328C604.046 85.3488 604.67 84.9008 605.694 84.9008C606.782 84.9008 607.406 85.4608 607.582 86.2608L608.926 85.9568C608.766 84.6128 607.55 83.7968 605.758 83.7968C603.87 83.7968 602.718 84.8208 602.718 86.1968C602.718 87.4128 603.486 88.1808 604.846 88.4368L606.414 88.7248C607.134 88.8528 607.566 89.1408 607.566 89.8448C607.566 90.5328 606.974 91.0608 605.902 91.0608C604.734 91.0608 603.982 90.4848 603.79 89.4768L602.414 89.7168C602.686 91.3008 603.966 92.1808 605.854 92.1808ZM414.068 113.181C416.068 113.181 417.364 111.485 417.364 108.989C417.364 106.541 416.1 104.797 414.148 104.797C412.9 104.797 412.02 105.485 411.604 106.381V101.389H410.244V112.989H411.284L411.524 111.613C411.94 112.541 412.852 113.181 414.068 113.181ZM413.7 111.981C412.356 111.981 411.572 110.893 411.572 109.229V108.813C411.572 107.069 412.372 105.997 413.716 105.997C415.14 105.997 415.924 107.197 415.924 108.989C415.924 110.813 415.092 111.981 413.7 111.981ZM421.509 113.181C422.821 113.181 423.829 112.557 424.197 111.533C424.213 112.045 424.261 112.573 424.325 112.989H425.749C425.557 112.365 425.477 111.517 425.477 110.285V108.125C425.477 105.789 424.517 104.797 422.325 104.797C420.453 104.797 419.173 105.869 419.061 107.501H420.517C420.581 106.493 421.253 105.917 422.341 105.917C423.573 105.917 424.101 106.509 424.101 107.981V108.109L422.613 108.285C421.301 108.445 420.533 108.637 419.925 108.941C419.205 109.341 418.805 110.029 418.805 110.829C418.805 112.253 419.877 113.181 421.509 113.181ZM421.813 112.061C420.837 112.061 420.245 111.581 420.245 110.797C420.245 110.013 420.757 109.597 421.941 109.421L424.117 109.101V109.501C424.117 111.053 423.205 112.061 421.813 112.061ZM430.87 113.181C432.822 113.181 433.926 112.173 433.926 110.733C433.926 109.565 433.286 108.829 431.846 108.557L430.294 108.269C429.51 108.125 429.062 107.805 429.062 107.133C429.062 106.349 429.686 105.901 430.71 105.901C431.798 105.901 432.422 106.461 432.598 107.261L433.942 106.957C433.782 105.613 432.566 104.797 430.774 104.797C428.886 104.797 427.734 105.821 427.734 107.197C427.734 108.413 428.502 109.181 429.862 109.437L431.43 109.725C432.15 109.853 432.582 110.141 432.582 110.845C432.582 111.533 431.99 112.061 430.918 112.061C429.75 112.061 428.998 111.485 428.806 110.477L427.43 110.717C427.702 112.301 428.982 113.181 430.87 113.181ZM442.501 108.429C442.501 106.029 441.253 104.797 439.093 104.797C436.805 104.797 435.461 106.413 435.461 109.085C435.461 111.725 436.821 113.181 439.109 113.181C440.725 113.181 441.893 112.413 442.453 110.957L441.333 110.461C440.981 111.437 440.229 111.981 439.205 111.981C437.781 111.981 436.837 110.957 436.821 109.389H442.501V108.429ZM436.821 108.285C436.853 106.781 437.653 105.869 439.061 105.869C440.373 105.869 441.125 106.637 441.125 108.109V108.285H436.821ZM447.272 113.181C448.52 113.181 449.384 112.573 449.864 111.501V112.989H451.144V101.389H449.784V106.173C449.272 105.229 448.488 104.797 447.432 104.797C445.432 104.797 444.024 106.525 444.024 108.989C444.024 111.501 445.336 113.181 447.272 113.181ZM447.64 111.981C446.28 111.981 445.464 110.861 445.464 108.989C445.464 107.101 446.28 105.997 447.64 105.997C448.984 105.997 449.816 107.069 449.816 108.813V109.181C449.816 110.893 448.968 111.981 447.64 111.981ZM461.189 113.181C463.445 113.181 464.917 111.597 464.917 108.989C464.917 106.381 463.445 104.797 461.189 104.797C458.933 104.797 457.461 106.381 457.461 108.989C457.461 111.597 458.933 113.181 461.189 113.181ZM461.189 111.997C459.749 111.997 458.901 110.973 458.901 108.989C458.901 107.005 459.749 105.981 461.189 105.981C462.629 105.981 463.477 107.005 463.477 108.989C463.477 110.973 462.629 111.997 461.189 111.997ZM468.432 112.989V108.813C468.432 107.037 469.248 105.965 470.576 105.965C471.744 105.965 472.336 106.685 472.336 108.093V112.989H473.696V108.013C473.696 105.885 472.784 104.797 471.024 104.797C469.76 104.797 468.88 105.373 468.352 106.573V104.989H467.072V112.989H468.432ZM481.854 112.989V108.813C481.854 107.037 482.67 105.965 483.998 105.965C485.166 105.965 485.758 106.685 485.758 108.093V112.989H487.118V108.013C487.118 105.885 486.206 104.797 484.446 104.797C483.182 104.797 482.302 105.373 481.774 106.573V104.989H480.494V112.989H481.854ZM496.079 108.429C496.079 106.029 494.831 104.797 492.671 104.797C490.383 104.797 489.039 106.413 489.039 109.085C489.039 111.725 490.399 113.181 492.687 113.181C494.303 113.181 495.471 112.413 496.031 110.957L494.911 110.461C494.559 111.437 493.807 111.981 492.783 111.981C491.359 111.981 490.415 110.957 490.399 109.389H496.079V108.429ZM490.399 108.285C490.431 106.781 491.231 105.869 492.639 105.869C493.951 105.869 494.703 106.637 494.703 108.109V108.285H490.399ZM504.642 108.429C504.642 106.029 503.394 104.797 501.234 104.797C498.946 104.797 497.602 106.413 497.602 109.085C497.602 111.725 498.962 113.181 501.25 113.181C502.866 113.181 504.034 112.413 504.594 110.957L503.474 110.461C503.122 111.437 502.37 111.981 501.346 111.981C499.922 111.981 498.978 110.957 498.962 109.389H504.642V108.429ZM498.962 108.285C498.994 106.781 499.794 105.869 501.202 105.869C502.514 105.869 503.266 106.637 503.266 108.109V108.285H498.962ZM509.412 113.181C510.66 113.181 511.524 112.573 512.004 111.501V112.989H513.284V101.389H511.924V106.173C511.412 105.229 510.628 104.797 509.572 104.797C507.572 104.797 506.164 106.525 506.164 108.989C506.164 111.501 507.476 113.181 509.412 113.181ZM509.78 111.981C508.42 111.981 507.604 110.861 507.604 108.989C507.604 107.101 508.42 105.997 509.78 105.997C511.124 105.997 511.956 107.069 511.956 108.813V109.181C511.956 110.893 511.108 111.981 509.78 111.981ZM518.886 113.181C520.838 113.181 521.942 112.173 521.942 110.733C521.942 109.565 521.302 108.829 519.862 108.557L518.31 108.269C517.526 108.125 517.078 107.805 517.078 107.133C517.078 106.349 517.702 105.901 518.726 105.901C519.814 105.901 520.438 106.461 520.614 107.261L521.958 106.957C521.798 105.613 520.582 104.797 518.79 104.797C516.902 104.797 515.75 105.821 515.75 107.197C515.75 108.413 516.518 109.181 517.878 109.437L519.446 109.725C520.166 109.853 520.598 110.141 520.598 110.845C520.598 111.533 520.006 112.061 518.934 112.061C517.766 112.061 517.014 111.485 516.822 110.477L515.446 110.717C515.718 112.301 516.998 113.181 518.886 113.181Z" fill="black"/>
<path d="M0 0.656738H327.89L366.771 78.5002L327.89 156.344H0V0.656738Z" fill="#E2231A"/>
<path d="M46.8241 66.3264C52.2841 66.3264 55.0441 63.4464 55.0441 59.7864C55.0441 56.0064 52.7041 54.3864 49.1941 53.6364L46.0741 52.9764C43.7641 52.4664 42.7741 51.5664 42.7741 49.8264C42.7741 48.0264 44.3341 46.9464 46.6741 46.9464C49.4941 46.9464 51.2641 48.3564 51.9541 50.8164L55.0141 49.1964C54.0841 45.6564 50.8741 44.0064 46.8541 44.0064C42.0541 44.0064 39.0241 46.4364 39.0241 50.1264C39.0241 53.7564 41.2741 55.5564 44.6341 56.2464L47.6041 56.8764C49.9441 57.3564 51.2041 58.0764 51.2041 60.1464C51.2041 62.3664 49.1641 63.2364 46.9741 63.2364C43.6441 63.2364 41.9041 61.3164 41.2141 58.9164L37.9141 60.3564C38.7841 63.8364 41.7841 66.3264 46.8241 66.3264ZM64.6091 66.1764C68.1791 66.1764 70.6991 64.1364 71.2391 60.8064L67.8491 60.1164C67.5191 62.2164 66.4091 63.3264 64.6091 63.3264C62.2991 63.3264 60.9491 61.4664 60.9491 58.2264C60.9491 55.1364 62.3291 53.2764 64.5491 53.2764C66.3191 53.2764 67.4891 54.3864 67.7291 56.4264L71.2391 55.8564C70.7891 52.4364 68.3591 50.4564 64.6391 50.4564C60.0791 50.4564 57.2591 53.4264 57.2591 58.3164C57.2591 63.0864 60.1391 66.1764 64.6091 66.1764ZM78.0803 50.8164H74.7203V65.8164H78.3203V59.5464C78.3203 57.8664 78.4703 56.1564 79.6703 54.9864C80.3603 54.3264 81.3503 53.9364 82.7903 53.9364H83.2703V50.4864C83.1203 50.4564 83.0003 50.4564 82.8503 50.4564C80.4203 50.4564 78.8303 52.0764 78.0803 54.4464V50.8164ZM98.8375 57.5664C98.8375 52.9764 96.3475 50.4564 91.9975 50.4564C87.5275 50.4564 84.8275 53.5164 84.8275 58.4664C84.8275 63.3864 87.5875 66.1764 92.1775 66.1764C95.2375 66.1764 97.6075 64.7364 98.7175 62.1264L95.9575 60.8664C95.2675 62.4864 94.0075 63.3564 92.2975 63.3564C89.9275 63.3564 88.3375 61.7364 88.3075 59.2164H98.8375V57.5664ZM88.3075 56.8464C88.3675 54.3564 89.6575 52.8564 91.9375 52.8564C94.0675 52.8564 95.2975 54.1464 95.2975 56.6064V56.8464H88.3075ZM115.273 57.5664C115.273 52.9764 112.783 50.4564 108.433 50.4564C103.963 50.4564 101.263 53.5164 101.263 58.4664C101.263 63.3864 104.023 66.1764 108.613 66.1764C111.673 66.1764 114.043 64.7364 115.153 62.1264L112.393 60.8664C111.703 62.4864 110.443 63.3564 108.733 63.3564C106.363 63.3564 104.773 61.7364 104.743 59.2164H115.273V57.5664ZM104.743 56.8464C104.803 54.3564 106.093 52.8564 108.373 52.8564C110.503 52.8564 111.733 54.1464 111.733 56.6064V56.8464H104.743ZM122.559 65.8164V57.8664C122.559 55.0164 123.819 53.3364 125.919 53.3364C127.809 53.3364 128.709 54.5064 128.709 56.8764V65.8164H132.339V56.5164C132.339 52.4964 130.629 50.4564 127.359 50.4564C125.049 50.4564 123.399 51.5364 122.379 53.7264V50.8164H118.959V65.8164H122.559ZM140.492 48.3264V44.5764H136.592V48.3264H140.492ZM140.342 65.8164V50.8164H136.742V65.8164H140.342ZM148.721 65.8164V57.8664C148.721 55.0164 149.981 53.3364 152.081 53.3364C153.971 53.3364 154.871 54.5064 154.871 56.8764V65.8164H158.501V56.5164C158.501 52.4964 156.791 50.4564 153.521 50.4564C151.211 50.4564 149.561 51.5364 148.541 53.7264V50.8164H145.121V65.8164H148.721ZM175.384 50.9364C175.834 50.9364 176.224 50.9964 176.614 51.0864V48.3864C176.314 48.3264 176.074 48.2964 175.774 48.2964C173.614 48.2964 172.324 49.4364 171.844 51.0564C170.944 50.6664 169.894 50.4564 168.664 50.4564C164.854 50.4564 162.514 52.5264 162.514 55.4964C162.514 57.0864 163.174 58.4064 164.344 59.3364C162.904 59.9064 161.974 60.9864 161.974 62.5164C161.974 63.6864 162.544 64.6764 163.864 65.2164C162.244 65.7264 161.374 66.8364 161.374 68.1564C161.374 70.2864 163.264 72.0264 168.424 72.0264C173.824 72.0264 176.434 70.0164 176.434 66.9264C176.434 64.1364 174.634 62.6064 171.124 62.6064H167.194C165.544 62.6064 164.914 62.0364 164.914 61.2264C164.914 60.7164 165.214 60.3264 165.664 60.0864C166.504 60.4164 167.524 60.6264 168.664 60.6264C172.504 60.6264 174.844 58.4664 174.844 55.4964C174.844 54.0264 174.274 52.7964 173.254 51.8964C173.704 51.2364 174.394 50.9364 175.384 50.9364ZM168.664 58.4364C166.984 58.4364 165.904 57.2064 165.904 55.4964C165.904 53.8164 166.984 52.6464 168.664 52.6464C170.344 52.6464 171.424 53.8164 171.424 55.5264C171.424 57.2064 170.344 58.4364 168.664 58.4364ZM170.584 65.6964C172.294 65.6964 173.164 66.3264 173.164 67.5264C173.164 68.7564 172.084 69.6864 168.664 69.6864C166.084 69.6864 164.374 69.0864 164.374 67.4964C164.374 66.7764 164.704 66.0864 165.454 65.6064C165.814 65.6664 166.234 65.6664 166.684 65.6664L170.584 65.6964Z" fill="white"/>
<path d="M43.0041 92.2613C45.7401 92.2613 47.1161 90.5653 47.5481 88.4213L46.0761 88.1653C45.7561 89.8613 44.6201 90.9333 43.0041 90.9333C40.6841 90.9333 39.4841 88.9173 39.4841 86.2613C39.4841 83.5093 40.7481 81.6533 42.9721 81.6533C44.7321 81.6533 45.7721 82.7893 45.9961 84.5013L47.5481 84.3413C47.2601 81.9893 45.8201 80.3573 43.0521 80.3573C39.6761 80.3573 37.8841 82.7893 37.8841 86.2773C37.8841 89.5733 39.4841 92.2613 43.0041 92.2613ZM50.9953 91.9893V87.8133C50.9953 86.0053 51.7793 84.9653 53.1553 84.9653C54.3073 84.9653 54.8993 85.7013 54.8993 87.1093V91.9893H56.2593V87.0133C56.2593 84.9013 55.3473 83.7973 53.6193 83.7973C52.3713 83.7973 51.4753 84.3733 50.9953 85.4933V80.3893H49.6353V91.9893H50.9953ZM65.2209 87.4293C65.2209 85.0293 63.9729 83.7973 61.8129 83.7973C59.5249 83.7973 58.1809 85.4133 58.1809 88.0853C58.1809 90.7253 59.5409 92.1813 61.8289 92.1813C63.4449 92.1813 64.6129 91.4133 65.1729 89.9573L64.0529 89.4613C63.7009 90.4373 62.9489 90.9813 61.9249 90.9813C60.5009 90.9813 59.5569 89.9573 59.5409 88.3893H65.2209V87.4293ZM59.5409 87.2853C59.5729 85.7813 60.3729 84.8693 61.7809 84.8693C63.0929 84.8693 63.8449 85.6373 63.8449 87.1093V87.2853H59.5409ZM70.4234 92.1813C72.2154 92.1813 73.4154 91.1253 73.7034 89.3013L72.4074 89.0933C72.1994 90.3413 71.5274 90.9973 70.4394 90.9973C69.0154 90.9973 68.1834 89.8933 68.1834 87.9733C68.1834 86.1013 69.0154 84.9813 70.3914 84.9813C71.4794 84.9813 72.1834 85.6533 72.3274 86.8693L73.7194 86.7093C73.5114 84.8693 72.2954 83.7973 70.4234 83.7973C68.1514 83.7973 66.7434 85.3813 66.7434 87.9893C66.7434 90.5493 68.1834 92.1813 70.4234 92.1813ZM82.7973 91.9893L79.6773 87.0773L82.6053 83.9893H80.8293L77.2453 87.9253V80.3893H75.8853V91.9893H77.2453V89.5413L78.7013 88.0693L81.1173 91.9893H82.7973ZM92.3953 92.2613C95.2273 92.2613 96.5393 90.6773 96.5393 88.9173C96.5393 86.8533 95.1633 86.0693 93.4033 85.7013L91.7393 85.3493C90.4753 85.0773 89.8833 84.5013 89.8833 83.3973C89.8833 82.2453 90.8433 81.5573 92.2353 81.5573C93.9153 81.5573 94.7633 82.3893 94.9553 83.9093L96.4753 83.5893C96.2513 81.3653 94.5233 80.3573 92.2673 80.3573C89.8513 80.3573 88.3153 81.6373 88.3153 83.5413C88.3153 85.4933 89.5473 86.3413 91.1633 86.6773L92.8113 87.0133C94.1393 87.2853 94.9713 87.7173 94.9713 89.0613C94.9713 90.5013 93.6753 91.0133 92.4433 91.0133C90.4433 91.0133 89.5793 89.7813 89.3713 88.3893L87.8353 88.6133C88.0273 90.6933 89.4993 92.2613 92.3953 92.2613ZM102.476 91.9893C105.788 91.9893 107.9 89.6053 107.9 86.2933C107.9 82.9173 105.772 80.6293 102.508 80.6293H98.7797V91.9893H102.476ZM100.3 81.9093H102.476C104.924 81.9093 106.284 83.7653 106.284 86.2933C106.284 88.7253 104.892 90.7093 102.444 90.7093H100.3V81.9093ZM113.221 92.1813C115.477 92.1813 116.949 90.5973 116.949 87.9893C116.949 85.3813 115.477 83.7973 113.221 83.7973C110.965 83.7973 109.493 85.3813 109.493 87.9893C109.493 90.5973 110.965 92.1813 113.221 92.1813ZM113.221 90.9973C111.781 90.9973 110.933 89.9733 110.933 87.9893C110.933 86.0053 111.781 84.9813 113.221 84.9813C114.661 84.9813 115.509 86.0053 115.509 87.9893C115.509 89.9733 114.661 90.9973 113.221 90.9973ZM126.512 80.6293V85.5413H120.784V80.6293H119.264V91.9893H120.784V86.8213H126.512V91.9893H128.032V80.6293H126.512ZM136.589 91.9893V87.8133C136.589 86.0373 137.405 84.9653 138.733 84.9653C139.901 84.9653 140.493 85.6853 140.493 87.0933V91.9893H141.853V87.0133C141.853 84.8853 140.941 83.7973 139.181 83.7973C137.917 83.7973 137.037 84.3733 136.509 85.5733V83.9893H135.229V91.9893H136.589ZM150.815 87.4293C150.815 85.0293 149.567 83.7973 147.407 83.7973C145.119 83.7973 143.775 85.4133 143.775 88.0853C143.775 90.7253 145.135 92.1813 147.423 92.1813C149.039 92.1813 150.207 91.4133 150.767 89.9573L149.647 89.4613C149.295 90.4373 148.543 90.9813 147.519 90.9813C146.095 90.9813 145.151 89.9573 145.135 88.3893H150.815V87.4293ZM145.135 87.2853C145.167 85.7813 145.967 84.8693 147.375 84.8693C148.687 84.8693 149.439 85.6373 149.439 87.1093V87.2853H145.135ZM159.377 87.4293C159.377 85.0293 158.129 83.7973 155.969 83.7973C153.681 83.7973 152.337 85.4133 152.337 88.0853C152.337 90.7253 153.697 92.1813 155.985 92.1813C157.601 92.1813 158.769 91.4133 159.329 89.9573L158.209 89.4613C157.857 90.4373 157.105 90.9813 156.081 90.9813C154.657 90.9813 153.713 89.9573 153.697 88.3893H159.377V87.4293ZM153.697 87.2853C153.729 85.7813 154.529 84.8693 155.937 84.8693C157.249 84.8693 158.001 85.6373 158.001 87.1093V87.2853H153.697ZM164.148 92.1813C165.396 92.1813 166.26 91.5733 166.74 90.5013V91.9893H168.02V80.3893H166.66V85.1733C166.148 84.2293 165.364 83.7973 164.308 83.7973C162.308 83.7973 160.9 85.5253 160.9 87.9893C160.9 90.5013 162.212 92.1813 164.148 92.1813ZM164.516 90.9813C163.156 90.9813 162.34 89.8613 162.34 87.9893C162.34 86.1013 163.156 84.9973 164.516 84.9973C165.86 84.9973 166.692 86.0693 166.692 87.8133V88.1813C166.692 89.8933 165.844 90.9813 164.516 90.9813ZM173.621 92.1813C175.573 92.1813 176.677 91.1733 176.677 89.7333C176.677 88.5653 176.037 87.8293 174.597 87.5573L173.045 87.2693C172.261 87.1253 171.813 86.8053 171.813 86.1333C171.813 85.3493 172.437 84.9013 173.461 84.9013C174.549 84.9013 175.173 85.4613 175.349 86.2613L176.693 85.9573C176.533 84.6133 175.317 83.7973 173.525 83.7973C171.637 83.7973 170.485 84.8213 170.485 86.1973C170.485 87.4133 171.253 88.1813 172.613 88.4373L174.181 88.7253C174.901 88.8533 175.333 89.1413 175.333 89.8453C175.333 90.5333 174.741 91.0613 173.669 91.0613C172.501 91.0613 171.749 90.4853 171.557 89.4773L170.181 89.7173C170.453 91.3013 171.733 92.1813 173.621 92.1813Z" fill="white"/>
</svg>
