<svg width="769" height="359" viewBox="0 0 769 359" fill="none" xmlns="http://www.w3.org/2000/svg">
<rect width="769" height="359" fill="white"/>
<rect x="371" y="46" width="360" height="221" fill="#E6E1E1"/>
<path d="M588.28 216.8V218.9H592.58V231H595.16V218.9H599.46V216.8H588.28ZM602.492 231.24C604.092 231.24 605.352 230.5 605.832 229.28C605.852 229.9 605.912 230.5 605.992 231H608.392C608.192 230.3 608.092 229.26 608.092 227.9V224.92C608.092 222.02 606.772 220.76 603.812 220.76C601.232 220.76 599.552 222.08 599.392 224.22H601.852C601.932 223.08 602.632 222.46 603.812 222.46C605.092 222.46 605.672 223.1 605.672 224.6V224.86L603.552 225.12C601.972 225.34 601.012 225.6 600.292 226.02C599.492 226.52 599.072 227.32 599.072 228.28C599.072 230.06 600.432 231.24 602.492 231.24ZM603.252 229.54C602.192 229.54 601.552 229 601.552 228.16C601.552 227.3 602.152 226.82 603.472 226.6L605.732 226.26V226.9C605.732 228.48 604.732 229.54 603.252 229.54ZM620.425 231L616.605 224.92L620.265 221H617.345L613.445 225.44V216.5H611.045V231H613.445V228.02L614.925 226.48L617.645 231H620.425ZM630.327 225.5C630.327 222.44 628.667 220.76 625.767 220.76C622.787 220.76 620.987 222.8 620.987 226.1C620.987 229.38 622.827 231.24 625.887 231.24C627.927 231.24 629.507 230.28 630.247 228.54L628.407 227.7C627.947 228.78 627.107 229.36 625.967 229.36C624.387 229.36 623.327 228.28 623.307 226.6H630.327V225.5ZM623.307 225.02C623.347 223.36 624.207 222.36 625.727 222.36C627.147 222.36 627.967 223.22 627.967 224.86V225.02H623.307ZM641.802 216.8L636.542 231H639.162L640.442 227.26H645.982L647.262 231H649.902L644.622 216.8H641.802ZM642.762 220.5C642.922 220.04 643.062 219.54 643.202 218.98H643.242C643.362 219.54 643.502 220.04 643.662 220.5L645.302 225.3H641.122L642.762 220.5ZM655.633 231.24C658.013 231.24 659.693 229.88 660.053 227.66L657.793 227.2C657.573 228.6 656.833 229.34 655.633 229.34C654.093 229.34 653.193 228.1 653.193 225.94C653.193 223.88 654.113 222.64 655.593 222.64C656.773 222.64 657.553 223.38 657.713 224.74L660.053 224.36C659.753 222.08 658.133 220.76 655.653 220.76C652.613 220.76 650.733 222.74 650.733 226C650.733 229.18 652.653 231.24 655.633 231.24ZM662.754 222.74V227.9C662.754 229.92 663.554 231.18 665.954 231.18C666.574 231.18 667.014 231.12 667.594 231V228.98C667.274 229.04 667.014 229.1 666.614 229.1C665.614 229.1 665.154 228.58 665.154 227.52V222.74H667.594V221H665.154V217.52L662.754 218.48V221H660.954V222.74H662.754ZM672.295 219.34V216.84H669.695V219.34H672.295ZM672.195 231V221H669.795V231H672.195ZM679.441 231.24C682.321 231.24 684.341 229.34 684.341 225.98C684.341 222.64 682.321 220.76 679.441 220.76C676.561 220.76 674.541 222.64 674.541 225.98C674.541 229.34 676.561 231.24 679.441 231.24ZM679.441 229.42C677.901 229.42 676.981 228.26 676.981 225.98C676.981 223.7 677.901 222.58 679.441 222.58C680.981 222.58 681.881 223.7 681.881 225.98C681.881 228.26 680.981 229.42 679.441 229.42ZM689.109 231V225.7C689.109 223.8 689.949 222.68 691.349 222.68C692.609 222.68 693.209 223.46 693.209 225.04V231H695.629V224.8C695.629 222.12 694.489 220.76 692.309 220.76C690.769 220.76 689.669 221.48 688.989 222.94V221H686.709V231H689.109Z" fill="black"/>
<path d="M593.703 202.272C595.399 202.272 596.679 201.472 597.207 200.256L597.383 202H598.855V195.888H593.911V197.472H596.983V197.68C596.983 198.72 596.391 200.608 594.087 200.608C591.895 200.608 590.807 198.816 590.807 196.32C590.807 193.728 591.991 192 594.071 192C595.815 192 596.503 193.168 596.679 194.176L598.727 193.824C598.455 192.272 597.175 190.368 594.103 190.368C590.695 190.368 588.695 192.816 588.695 196.336C588.695 199.84 590.567 202.272 593.703 202.272ZM608.089 197.6C608.089 195.152 606.761 193.808 604.441 193.808C602.057 193.808 600.617 195.44 600.617 198.08C600.617 200.704 602.089 202.192 604.537 202.192C606.169 202.192 607.433 201.424 608.025 200.032L606.553 199.36C606.185 200.224 605.513 200.688 604.601 200.688C603.337 200.688 602.489 199.824 602.473 198.48H608.089V197.6ZM602.473 197.216C602.505 195.888 603.193 195.088 604.409 195.088C605.545 195.088 606.201 195.776 606.201 197.088V197.216H602.473ZM611.975 202V197.76C611.975 196.24 612.647 195.344 613.767 195.344C614.775 195.344 615.255 195.968 615.255 197.232V202H617.191V197.04C617.191 194.896 616.279 193.808 614.535 193.808C613.303 193.808 612.423 194.384 611.879 195.552V194H610.055V202H611.975ZM626.339 197.6C626.339 195.152 625.011 193.808 622.691 193.808C620.307 193.808 618.867 195.44 618.867 198.08C618.867 200.704 620.339 202.192 622.787 202.192C624.419 202.192 625.683 201.424 626.275 200.032L624.803 199.36C624.435 200.224 623.763 200.688 622.851 200.688C621.587 200.688 620.739 199.824 620.723 198.48H626.339V197.6ZM620.723 197.216C620.755 195.888 621.443 195.088 622.659 195.088C623.795 195.088 624.451 195.776 624.451 197.088V197.216H620.723ZM630.097 194H628.305V202H630.225V198.656C630.225 197.76 630.305 196.848 630.945 196.224C631.313 195.872 631.841 195.664 632.609 195.664H632.865V193.824C632.785 193.808 632.721 193.808 632.641 193.808C631.345 193.808 630.497 194.672 630.097 195.936V194ZM636.384 202.192C637.664 202.192 638.672 201.6 639.056 200.624C639.072 201.12 639.12 201.6 639.184 202H641.104C640.944 201.44 640.864 200.608 640.864 199.52V197.136C640.864 194.816 639.808 193.808 637.44 193.808C635.376 193.808 634.032 194.864 633.904 196.576H635.872C635.936 195.664 636.496 195.168 637.44 195.168C638.464 195.168 638.928 195.68 638.928 196.88V197.088L637.232 197.296C635.968 197.472 635.2 197.68 634.624 198.016C633.984 198.416 633.648 199.056 633.648 199.824C633.648 201.248 634.736 202.192 636.384 202.192ZM636.992 200.832C636.144 200.832 635.632 200.4 635.632 199.728C635.632 199.04 636.112 198.656 637.168 198.48L638.976 198.208V198.72C638.976 199.984 638.176 200.832 636.992 200.832ZM643.485 195.392V199.52C643.485 201.136 644.125 202.144 646.045 202.144C646.541 202.144 646.893 202.096 647.357 202V200.384C647.101 200.432 646.893 200.48 646.573 200.48C645.773 200.48 645.405 200.064 645.405 199.216V195.392H647.357V194H645.405V191.216L643.485 191.984V194H642.045V195.392H643.485ZM651.117 192.672V190.672H649.037V192.672H651.117ZM651.037 202V194H649.117V202H651.037ZM656.834 202.192C659.138 202.192 660.754 200.672 660.754 197.984C660.754 195.312 659.138 193.808 656.834 193.808C654.53 193.808 652.914 195.312 652.914 197.984C652.914 200.672 654.53 202.192 656.834 202.192ZM656.834 200.736C655.602 200.736 654.866 199.808 654.866 197.984C654.866 196.16 655.602 195.264 656.834 195.264C658.066 195.264 658.786 196.16 658.786 197.984C658.786 199.808 658.066 200.736 656.834 200.736ZM664.569 202V197.76C664.569 196.24 665.241 195.344 666.361 195.344C667.369 195.344 667.849 195.968 667.849 197.232V202H669.785V197.04C669.785 194.896 668.873 193.808 667.129 193.808C665.897 193.808 665.017 194.384 664.473 195.552V194H662.649V202H664.569ZM684.148 197.872H682.404V190.88H680.228L675.316 198.016V199.344H680.484V202H682.404V199.344H684.148V197.872ZM680.532 197.872H677.14C677.444 197.552 677.668 197.216 678.052 196.656L679.812 194.032C680.148 193.52 680.356 193.184 680.532 192.736H680.564C680.532 193.216 680.532 193.456 680.532 194.208V197.872Z" fill="black"/>
<path d="M408.76 216.8V231H411.34V225.5H414.36C417.42 225.5 419.34 223.8 419.34 221.12C419.34 218.5 417.4 216.8 414.38 216.8H408.76ZM411.34 223.54V218.78H413.9C415.58 218.78 416.62 219.7 416.62 221.16C416.62 222.64 415.58 223.54 413.9 223.54H411.34ZM423.653 221H421.413V231H423.813V226.82C423.813 225.7 423.913 224.56 424.713 223.78C425.173 223.34 425.833 223.08 426.793 223.08H427.113V220.78C427.013 220.76 426.933 220.76 426.833 220.76C425.213 220.76 424.153 221.84 423.653 223.42V221ZM433.051 231.24C435.931 231.24 437.951 229.34 437.951 225.98C437.951 222.64 435.931 220.76 433.051 220.76C430.171 220.76 428.151 222.64 428.151 225.98C428.151 229.34 430.171 231.24 433.051 231.24ZM433.051 229.42C431.511 229.42 430.591 228.26 430.591 225.98C430.591 223.7 431.511 222.58 433.051 222.58C434.591 222.58 435.491 223.7 435.491 225.98C435.491 228.26 434.591 229.42 433.051 229.42ZM444.863 231L448.423 221H445.903L443.943 227.34C443.783 227.86 443.663 228.36 443.583 228.82H443.523C443.443 228.36 443.323 227.86 443.163 227.34L441.223 221H438.703L442.263 231H444.863ZM452.682 219.34V216.84H450.082V219.34H452.682ZM452.582 231V221H450.182V231H452.582ZM458.988 231.24C460.488 231.24 461.628 230.48 462.188 229.2V231H464.448V216.5H462.048V222.42C461.468 221.3 460.488 220.76 459.168 220.76C456.668 220.76 454.948 222.9 454.948 226.02C454.948 229.14 456.568 231.24 458.988 231.24ZM459.808 229.4C458.348 229.4 457.448 228.12 457.448 225.98C457.448 223.84 458.328 222.6 459.788 222.6C461.228 222.6 462.108 223.74 462.108 225.7V226.34C462.108 228.22 461.208 229.4 459.808 229.4ZM476.143 225.5C476.143 222.44 474.483 220.76 471.583 220.76C468.603 220.76 466.803 222.8 466.803 226.1C466.803 229.38 468.643 231.24 471.703 231.24C473.743 231.24 475.323 230.28 476.063 228.54L474.223 227.7C473.763 228.78 472.923 229.36 471.783 229.36C470.203 229.36 469.143 228.28 469.123 226.6H476.143V225.5ZM469.123 225.02C469.163 223.36 470.023 222.36 471.543 222.36C472.963 222.36 473.783 223.22 473.783 224.86V225.02H469.123ZM487.338 231.24C489.958 231.24 491.438 229.96 491.438 228.08C491.438 226.5 490.618 225.54 488.678 225.2L486.718 224.84C485.838 224.68 485.398 224.38 485.398 223.7C485.398 222.92 486.018 222.5 487.138 222.5C488.458 222.5 489.338 223.06 489.818 223.96L491.498 223.06C491.018 221.62 489.398 220.76 487.278 220.76C484.738 220.76 483.198 222.04 483.198 223.84C483.198 225.44 484.178 226.42 486.058 226.76L487.838 227.08C488.818 227.24 489.258 227.52 489.258 228.24C489.258 228.96 488.618 229.48 487.398 229.48C485.978 229.48 484.978 228.84 484.518 227.72L482.738 228.52C483.358 230.28 485.058 231.24 487.338 231.24ZM497.933 231.24C500.813 231.24 502.833 229.34 502.833 225.98C502.833 222.64 500.813 220.76 497.933 220.76C495.053 220.76 493.033 222.64 493.033 225.98C493.033 229.34 495.053 231.24 497.933 231.24ZM497.933 229.42C496.393 229.42 495.473 228.26 495.473 225.98C495.473 223.7 496.393 222.58 497.933 222.58C499.473 222.58 500.373 223.7 500.373 225.98C500.373 228.26 499.473 229.42 497.933 229.42ZM505.202 216.5V231H507.602V216.5H505.202ZM513.928 231.24C515.368 231.24 516.568 230.38 517.048 229.14V231H519.328V221H516.908V226.54C516.908 228.22 516.028 229.32 514.708 229.32C513.548 229.32 512.948 228.52 512.948 227.06V221H510.548V227.42C510.548 229.76 511.488 231.24 513.928 231.24ZM522.926 222.74V227.9C522.926 229.92 523.726 231.18 526.126 231.18C526.746 231.18 527.186 231.12 527.766 231V228.98C527.446 229.04 527.186 229.1 526.786 229.1C525.786 229.1 525.326 228.58 525.326 227.52V222.74H527.766V221H525.326V217.52L522.926 218.48V221H521.126V222.74H522.926ZM532.467 219.34V216.84H529.867V219.34H532.467ZM532.367 231V221H529.967V231H532.367ZM539.613 231.24C542.493 231.24 544.513 229.34 544.513 225.98C544.513 222.64 542.493 220.76 539.613 220.76C536.733 220.76 534.713 222.64 534.713 225.98C534.713 229.34 536.733 231.24 539.613 231.24ZM539.613 229.42C538.073 229.42 537.153 228.26 537.153 225.98C537.153 223.7 538.073 222.58 539.613 222.58C541.153 222.58 542.053 223.7 542.053 225.98C542.053 228.26 541.153 229.42 539.613 229.42ZM549.281 231V225.7C549.281 223.8 550.121 222.68 551.521 222.68C552.781 222.68 553.381 223.46 553.381 225.04V231H555.801V224.8C555.801 222.12 554.661 220.76 552.481 220.76C550.941 220.76 549.841 221.48 549.161 222.94V221H546.881V231H549.281ZM562.397 231.24C565.017 231.24 566.497 229.96 566.497 228.08C566.497 226.5 565.677 225.54 563.737 225.2L561.777 224.84C560.897 224.68 560.457 224.38 560.457 223.7C560.457 222.92 561.077 222.5 562.197 222.5C563.517 222.5 564.397 223.06 564.877 223.96L566.557 223.06C566.077 221.62 564.457 220.76 562.337 220.76C559.797 220.76 558.257 222.04 558.257 223.84C558.257 225.44 559.237 226.42 561.117 226.76L562.897 227.08C563.877 227.24 564.317 227.52 564.317 228.24C564.317 228.96 563.677 229.48 562.457 229.48C561.037 229.48 560.037 228.84 559.577 227.72L557.797 228.52C558.417 230.28 560.117 231.24 562.397 231.24Z" fill="black"/>
<path d="M422.36 111L418.304 103.752C420.824 103.032 421.88 101.112 421.88 99.072C421.88 96.264 420.368 93.96 415.976 93.96H409.112V111H412.208V104.16H415.208L418.952 111H422.36ZM415.448 96.312C417.776 96.312 418.64 97.44 418.64 99.072C418.64 100.68 417.776 101.856 415.448 101.856H412.208V96.312H415.448ZM434.847 104.4C434.847 100.728 432.855 98.712 429.375 98.712C425.799 98.712 423.639 101.16 423.639 105.12C423.639 109.056 425.847 111.288 429.519 111.288C431.967 111.288 433.863 110.136 434.751 108.048L432.543 107.04C431.991 108.336 430.983 109.032 429.615 109.032C427.719 109.032 426.447 107.736 426.423 105.72H434.847V104.4ZM426.423 103.824C426.471 101.832 427.503 100.632 429.327 100.632C431.031 100.632 432.015 101.664 432.015 103.632V103.824H426.423ZM442.14 111.288C445.284 111.288 447.06 109.752 447.06 107.496C447.06 105.6 446.076 104.448 443.748 104.04L441.396 103.608C440.34 103.416 439.812 103.056 439.812 102.24C439.812 101.304 440.556 100.8 441.9 100.8C443.484 100.8 444.54 101.472 445.116 102.552L447.132 101.472C446.556 99.744 444.612 98.712 442.068 98.712C439.02 98.712 437.172 100.248 437.172 102.408C437.172 104.328 438.348 105.504 440.604 105.912L442.74 106.296C443.916 106.488 444.444 106.824 444.444 107.688C444.444 108.552 443.676 109.176 442.212 109.176C440.508 109.176 439.308 108.408 438.756 107.064L436.62 108.024C437.364 110.136 439.404 111.288 442.14 111.288ZM460.182 104.4C460.182 100.728 458.191 98.712 454.711 98.712C451.135 98.712 448.975 101.16 448.975 105.12C448.975 109.056 451.183 111.288 454.855 111.288C457.303 111.288 459.199 110.136 460.087 108.048L457.879 107.04C457.327 108.336 456.319 109.032 454.951 109.032C453.055 109.032 451.783 107.736 451.759 105.72H460.182V104.4ZM451.759 103.824C451.807 101.832 452.839 100.632 454.663 100.632C456.367 100.632 457.351 101.664 457.351 103.632V103.824H451.759ZM466.226 111.288C468.146 111.288 469.658 110.4 470.234 108.936C470.258 109.68 470.33 110.4 470.426 111H473.306C473.066 110.16 472.946 108.912 472.946 107.28V103.704C472.946 100.224 471.362 98.712 467.81 98.712C464.714 98.712 462.698 100.296 462.506 102.864H465.458C465.554 101.496 466.394 100.752 467.81 100.752C469.346 100.752 470.042 101.52 470.042 103.32V103.632L467.498 103.944C465.602 104.208 464.45 104.52 463.586 105.024C462.626 105.624 462.122 106.584 462.122 107.736C462.122 109.872 463.754 111.288 466.226 111.288ZM467.138 109.248C465.866 109.248 465.098 108.6 465.098 107.592C465.098 106.56 465.818 105.984 467.402 105.72L470.114 105.312V106.08C470.114 107.976 468.914 109.248 467.138 109.248ZM479.178 99H476.49V111H479.37V105.984C479.37 104.64 479.49 103.272 480.45 102.336C481.002 101.808 481.794 101.496 482.946 101.496H483.33V98.736C483.21 98.712 483.114 98.712 482.994 98.712C481.05 98.712 479.778 100.008 479.178 101.904V99ZM490.456 111.288C493.312 111.288 495.328 109.656 495.76 106.992L493.048 106.44C492.784 108.12 491.896 109.008 490.456 109.008C488.608 109.008 487.528 107.52 487.528 104.928C487.528 102.456 488.632 100.968 490.408 100.968C491.824 100.968 492.76 101.856 492.952 103.488L495.76 103.032C495.4 100.296 493.456 98.712 490.48 98.712C486.832 98.712 484.576 101.088 484.576 105C484.576 108.816 486.88 111.288 490.456 111.288ZM501.425 111V104.64C501.425 102.336 502.409 101.016 504.137 101.016C505.601 101.016 506.345 101.952 506.345 103.776V111H509.249V103.536C509.249 100.368 507.881 98.712 505.289 98.712C503.465 98.712 502.145 99.552 501.425 101.208V93.6H498.545V111H501.425ZM525.705 103.224C525.801 102.864 525.921 102.216 525.969 101.904H526.017C526.041 102.216 526.185 102.864 526.257 103.224L528.297 111H531.225L534.537 99H531.705L529.833 106.992C529.761 107.376 529.689 107.832 529.617 108.288H529.569C529.521 107.832 529.401 107.376 529.329 106.992L527.337 99H524.625L522.657 106.992C522.561 107.376 522.465 107.832 522.393 108.288H522.345C522.297 107.832 522.201 107.376 522.129 106.992L520.281 99H517.449L520.737 111H523.665L525.705 103.224ZM546.901 104.4C546.901 100.728 544.909 98.712 541.429 98.712C537.853 98.712 535.693 101.16 535.693 105.12C535.693 109.056 537.901 111.288 541.573 111.288C544.021 111.288 545.917 110.136 546.805 108.048L544.597 107.04C544.045 108.336 543.037 109.032 541.669 109.032C539.773 109.032 538.501 107.736 538.477 105.72H546.901V104.4ZM538.477 103.824C538.525 101.832 539.557 100.632 541.381 100.632C543.085 100.632 544.069 101.664 544.069 103.632V103.824H538.477ZM559.423 97.656C559.423 96.384 559.951 95.76 561.103 95.76C561.463 95.76 561.895 95.808 562.327 95.88V93.648C561.799 93.528 561.223 93.456 560.623 93.456C558.055 93.456 556.543 94.968 556.543 97.464V99H554.479V101.088H556.543V111H559.423V101.088H562.327V99H559.423V97.656ZM568.547 111.288C570.275 111.288 571.715 110.256 572.291 108.768V111H575.027V99H572.123V105.648C572.123 107.664 571.067 108.984 569.483 108.984C568.091 108.984 567.371 108.024 567.371 106.272V99H564.491V106.704C564.491 109.512 565.619 111.288 568.547 111.288ZM581.722 111V104.64C581.722 102.36 582.73 101.016 584.41 101.016C585.922 101.016 586.642 101.952 586.642 103.848V111H589.546V103.56C589.546 100.344 588.178 98.712 585.562 98.712C583.714 98.712 582.394 99.576 581.578 101.328V99H578.842V111H581.722ZM596.932 111.288C598.732 111.288 600.1 110.376 600.772 108.84V111H603.484V93.6H600.604V100.704C599.908 99.36 598.732 98.712 597.148 98.712C594.148 98.712 592.084 101.28 592.084 105.024C592.084 108.768 594.028 111.288 596.932 111.288ZM597.916 109.08C596.164 109.08 595.084 107.544 595.084 104.976C595.084 102.408 596.14 100.92 597.892 100.92C599.62 100.92 600.676 102.288 600.676 104.64V105.408C600.676 107.664 599.596 109.08 597.916 109.08Z" fill="black"/>
<path d="M412.865 202.272C414.561 202.272 415.841 201.472 416.369 200.256L416.545 202H418.017V195.888H413.073V197.472H416.145V197.68C416.145 198.72 415.553 200.608 413.249 200.608C411.057 200.608 409.969 198.816 409.969 196.32C409.969 193.728 411.153 192 413.233 192C414.977 192 415.665 193.168 415.841 194.176L417.889 193.824C417.617 192.272 416.337 190.368 413.265 190.368C409.857 190.368 407.857 192.816 407.857 196.336C407.857 199.84 409.729 202.272 412.865 202.272ZM427.25 197.6C427.25 195.152 425.922 193.808 423.602 193.808C421.218 193.808 419.778 195.44 419.778 198.08C419.778 200.704 421.25 202.192 423.698 202.192C425.33 202.192 426.594 201.424 427.186 200.032L425.714 199.36C425.346 200.224 424.674 200.688 423.762 200.688C422.498 200.688 421.65 199.824 421.634 198.48H427.25V197.6ZM421.634 197.216C421.666 195.888 422.354 195.088 423.57 195.088C424.706 195.088 425.362 195.776 425.362 197.088V197.216H421.634ZM431.136 202V197.76C431.136 196.24 431.808 195.344 432.928 195.344C433.936 195.344 434.416 195.968 434.416 197.232V202H436.352V197.04C436.352 194.896 435.44 193.808 433.696 193.808C432.464 193.808 431.584 194.384 431.04 195.552V194H429.216V202H431.136ZM445.5 197.6C445.5 195.152 444.172 193.808 441.852 193.808C439.468 193.808 438.028 195.44 438.028 198.08C438.028 200.704 439.5 202.192 441.948 202.192C443.58 202.192 444.844 201.424 445.436 200.032L443.964 199.36C443.596 200.224 442.924 200.688 442.012 200.688C440.748 200.688 439.9 199.824 439.884 198.48H445.5V197.6ZM439.884 197.216C439.916 195.888 440.604 195.088 441.82 195.088C442.956 195.088 443.612 195.776 443.612 197.088V197.216H439.884ZM449.258 194H447.466V202H449.386V198.656C449.386 197.76 449.466 196.848 450.106 196.224C450.474 195.872 451.002 195.664 451.77 195.664H452.026V193.824C451.946 193.808 451.882 193.808 451.802 193.808C450.506 193.808 449.658 194.672 449.258 195.936V194ZM455.545 202.192C456.825 202.192 457.833 201.6 458.217 200.624C458.233 201.12 458.281 201.6 458.345 202H460.265C460.105 201.44 460.025 200.608 460.025 199.52V197.136C460.025 194.816 458.969 193.808 456.601 193.808C454.537 193.808 453.193 194.864 453.065 196.576H455.033C455.097 195.664 455.657 195.168 456.601 195.168C457.625 195.168 458.089 195.68 458.089 196.88V197.088L456.393 197.296C455.129 197.472 454.361 197.68 453.785 198.016C453.145 198.416 452.809 199.056 452.809 199.824C452.809 201.248 453.897 202.192 455.545 202.192ZM456.153 200.832C455.305 200.832 454.793 200.4 454.793 199.728C454.793 199.04 455.273 198.656 456.329 198.48L458.137 198.208V198.72C458.137 199.984 457.337 200.832 456.153 200.832ZM462.646 195.392V199.52C462.646 201.136 463.286 202.144 465.206 202.144C465.702 202.144 466.054 202.096 466.518 202V200.384C466.262 200.432 466.054 200.48 465.734 200.48C464.934 200.48 464.566 200.064 464.566 199.216V195.392H466.518V194H464.566V191.216L462.646 191.984V194H461.206V195.392H462.646ZM470.279 192.672V190.672H468.199V192.672H470.279ZM470.199 202V194H468.279V202H470.199ZM475.995 202.192C478.299 202.192 479.915 200.672 479.915 197.984C479.915 195.312 478.299 193.808 475.995 193.808C473.691 193.808 472.075 195.312 472.075 197.984C472.075 200.672 473.691 202.192 475.995 202.192ZM475.995 200.736C474.763 200.736 474.027 199.808 474.027 197.984C474.027 196.16 474.763 195.264 475.995 195.264C477.227 195.264 477.947 196.16 477.947 197.984C477.947 199.808 477.227 200.736 475.995 200.736ZM483.73 202V197.76C483.73 196.24 484.402 195.344 485.522 195.344C486.53 195.344 487.01 195.968 487.01 197.232V202H488.946V197.04C488.946 194.896 488.034 193.808 486.29 193.808C485.058 193.808 484.178 194.384 483.634 195.552V194H481.81V202H483.73ZM498.701 202.24C501.181 202.24 502.749 200.96 502.749 198.864C502.749 197.328 501.885 196.432 500.285 196.176C501.581 195.872 502.397 194.88 502.397 193.616C502.397 191.76 501.053 190.64 498.701 190.64C496.253 190.64 494.717 191.984 494.717 194.144L496.637 194.464C496.637 193.008 497.341 192.192 498.589 192.192C499.741 192.192 500.397 192.8 500.397 193.84C500.397 194.912 499.757 195.568 498.445 195.568H497.869V197.008H498.493C499.981 197.008 500.717 197.632 500.717 198.8C500.717 200.016 500.029 200.672 498.749 200.672C497.421 200.672 496.573 199.872 496.525 198.528L494.573 198.736C494.605 200.88 496.221 202.24 498.701 202.24Z" fill="black"/>
<path d="M223.757 226.04C223.757 229.24 225.837 231.34 229.477 231.34C233.117 231.34 235.197 229.24 235.197 226.04V216.8H232.617V225.9C232.617 227.9 231.477 229.16 229.477 229.16C227.477 229.16 226.337 227.9 226.337 225.9V216.8H223.757V226.04ZM240.748 231V225.7C240.748 223.8 241.588 222.68 242.988 222.68C244.248 222.68 244.848 223.46 244.848 225.04V231H247.268V224.8C247.268 222.12 246.128 220.76 243.948 220.76C242.408 220.76 241.308 221.48 240.628 222.94V221H238.348V231H240.748ZM253.423 231.24C254.923 231.24 256.063 230.48 256.623 229.2V231H258.883V216.5H256.483V222.42C255.903 221.3 254.923 220.76 253.603 220.76C251.103 220.76 249.383 222.9 249.383 226.02C249.383 229.14 251.003 231.24 253.423 231.24ZM254.243 229.4C252.783 229.4 251.883 228.12 251.883 225.98C251.883 223.84 252.763 222.6 254.223 222.6C255.663 222.6 256.543 223.74 256.543 225.7V226.34C256.543 228.22 255.643 229.4 254.243 229.4ZM270.578 225.5C270.578 222.44 268.918 220.76 266.018 220.76C263.038 220.76 261.238 222.8 261.238 226.1C261.238 229.38 263.078 231.24 266.138 231.24C268.178 231.24 269.758 230.28 270.498 228.54L268.658 227.7C268.198 228.78 267.358 229.36 266.218 229.36C264.638 229.36 263.578 228.28 263.558 226.6H270.578V225.5ZM263.558 225.02C263.598 223.36 264.458 222.36 265.978 222.36C267.398 222.36 268.218 223.22 268.218 224.86V225.02H263.558ZM275.275 221H273.035V231H275.435V226.82C275.435 225.7 275.535 224.56 276.335 223.78C276.795 223.34 277.455 223.08 278.415 223.08H278.735V220.78C278.635 220.76 278.555 220.76 278.455 220.76C276.835 220.76 275.775 221.84 275.275 223.42V221ZM284.293 231.24C286.913 231.24 288.393 229.96 288.393 228.08C288.393 226.5 287.573 225.54 285.633 225.2L283.673 224.84C282.793 224.68 282.353 224.38 282.353 223.7C282.353 222.92 282.973 222.5 284.093 222.5C285.413 222.5 286.293 223.06 286.773 223.96L288.453 223.06C287.973 221.62 286.353 220.76 284.233 220.76C281.693 220.76 280.153 222.04 280.153 223.84C280.153 225.44 281.133 226.42 283.013 226.76L284.793 227.08C285.773 227.24 286.213 227.52 286.213 228.24C286.213 228.96 285.573 229.48 284.353 229.48C282.933 229.48 281.933 228.84 281.473 227.72L279.693 228.52C280.313 230.28 282.013 231.24 284.293 231.24ZM291.307 222.74V227.9C291.307 229.92 292.107 231.18 294.507 231.18C295.127 231.18 295.567 231.12 296.147 231V228.98C295.827 229.04 295.567 229.1 295.167 229.1C294.167 229.1 293.707 228.58 293.707 227.52V222.74H296.147V221H293.707V217.52L291.307 218.48V221H289.507V222.74H291.307ZM300.868 231.24C302.468 231.24 303.728 230.5 304.208 229.28C304.228 229.9 304.288 230.5 304.368 231H306.768C306.568 230.3 306.468 229.26 306.468 227.9V224.92C306.468 222.02 305.148 220.76 302.188 220.76C299.608 220.76 297.928 222.08 297.768 224.22H300.228C300.308 223.08 301.008 222.46 302.188 222.46C303.468 222.46 304.048 223.1 304.048 224.6V224.86L301.928 225.12C300.348 225.34 299.388 225.6 298.668 226.02C297.868 226.52 297.448 227.32 297.448 228.28C297.448 230.06 298.808 231.24 300.868 231.24ZM301.628 229.54C300.568 229.54 299.928 229 299.928 228.16C299.928 227.3 300.528 226.82 301.848 226.6L304.108 226.26V226.9C304.108 228.48 303.108 229.54 301.628 229.54ZM311.822 231V225.7C311.822 223.8 312.662 222.68 314.062 222.68C315.322 222.68 315.922 223.46 315.922 225.04V231H318.342V224.8C318.342 222.12 317.202 220.76 315.022 220.76C313.482 220.76 312.382 221.48 311.702 222.94V221H309.422V231H311.822ZM324.497 231.24C325.997 231.24 327.137 230.48 327.697 229.2V231H329.957V216.5H327.557V222.42C326.977 221.3 325.997 220.76 324.677 220.76C322.177 220.76 320.457 222.9 320.457 226.02C320.457 229.14 322.077 231.24 324.497 231.24ZM325.317 229.4C323.857 229.4 322.957 228.12 322.957 225.98C322.957 223.84 323.837 222.6 325.297 222.6C326.737 222.6 327.617 223.74 327.617 225.7V226.34C327.617 228.22 326.717 229.4 325.317 229.4Z" fill="black"/>
<path d="M227.616 202.272C229.312 202.272 230.592 201.472 231.12 200.256L231.296 202H232.768V195.888H227.824V197.472H230.896V197.68C230.896 198.72 230.304 200.608 228 200.608C225.808 200.608 224.72 198.816 224.72 196.32C224.72 193.728 225.904 192 227.984 192C229.728 192 230.416 193.168 230.592 194.176L232.64 193.824C232.368 192.272 231.088 190.368 228.016 190.368C224.608 190.368 222.608 192.816 222.608 196.336C222.608 199.84 224.48 202.272 227.616 202.272ZM242.002 197.6C242.002 195.152 240.674 193.808 238.354 193.808C235.97 193.808 234.53 195.44 234.53 198.08C234.53 200.704 236.002 202.192 238.45 202.192C240.082 202.192 241.346 201.424 241.938 200.032L240.466 199.36C240.098 200.224 239.426 200.688 238.514 200.688C237.25 200.688 236.402 199.824 236.386 198.48H242.002V197.6ZM236.386 197.216C236.418 195.888 237.106 195.088 238.322 195.088C239.458 195.088 240.114 195.776 240.114 197.088V197.216H236.386ZM245.888 202V197.76C245.888 196.24 246.56 195.344 247.68 195.344C248.688 195.344 249.168 195.968 249.168 197.232V202H251.104V197.04C251.104 194.896 250.192 193.808 248.448 193.808C247.216 193.808 246.336 194.384 245.792 195.552V194H243.968V202H245.888ZM260.252 197.6C260.252 195.152 258.924 193.808 256.604 193.808C254.22 193.808 252.78 195.44 252.78 198.08C252.78 200.704 254.252 202.192 256.7 202.192C258.332 202.192 259.596 201.424 260.188 200.032L258.716 199.36C258.348 200.224 257.676 200.688 256.764 200.688C255.5 200.688 254.652 199.824 254.636 198.48H260.252V197.6ZM254.636 197.216C254.668 195.888 255.356 195.088 256.572 195.088C257.708 195.088 258.364 195.776 258.364 197.088V197.216H254.636ZM264.01 194H262.218V202H264.138V198.656C264.138 197.76 264.218 196.848 264.858 196.224C265.226 195.872 265.754 195.664 266.522 195.664H266.778V193.824C266.698 193.808 266.634 193.808 266.554 193.808C265.258 193.808 264.41 194.672 264.01 195.936V194ZM270.296 202.192C271.576 202.192 272.584 201.6 272.968 200.624C272.984 201.12 273.032 201.6 273.096 202H275.016C274.856 201.44 274.776 200.608 274.776 199.52V197.136C274.776 194.816 273.72 193.808 271.352 193.808C269.288 193.808 267.944 194.864 267.816 196.576H269.784C269.848 195.664 270.408 195.168 271.352 195.168C272.376 195.168 272.84 195.68 272.84 196.88V197.088L271.144 197.296C269.88 197.472 269.112 197.68 268.536 198.016C267.896 198.416 267.56 199.056 267.56 199.824C267.56 201.248 268.648 202.192 270.296 202.192ZM270.904 200.832C270.056 200.832 269.544 200.4 269.544 199.728C269.544 199.04 270.024 198.656 271.08 198.48L272.888 198.208V198.72C272.888 199.984 272.088 200.832 270.904 200.832ZM277.397 195.392V199.52C277.397 201.136 278.037 202.144 279.957 202.144C280.453 202.144 280.805 202.096 281.269 202V200.384C281.013 200.432 280.805 200.48 280.485 200.48C279.685 200.48 279.317 200.064 279.317 199.216V195.392H281.269V194H279.317V191.216L277.397 191.984V194H275.957V195.392H277.397ZM285.03 192.672V190.672H282.95V192.672H285.03ZM284.95 202V194H283.03V202H284.95ZM290.747 202.192C293.051 202.192 294.667 200.672 294.667 197.984C294.667 195.312 293.051 193.808 290.747 193.808C288.443 193.808 286.827 195.312 286.827 197.984C286.827 200.672 288.443 202.192 290.747 202.192ZM290.747 200.736C289.515 200.736 288.779 199.808 288.779 197.984C288.779 196.16 289.515 195.264 290.747 195.264C291.979 195.264 292.699 196.16 292.699 197.984C292.699 199.808 291.979 200.736 290.747 200.736ZM298.481 202V197.76C298.481 196.24 299.153 195.344 300.273 195.344C301.281 195.344 301.761 195.968 301.761 197.232V202H303.697V197.04C303.697 194.896 302.785 193.808 301.041 193.808C299.809 193.808 298.929 194.384 298.385 195.552V194H296.561V202H298.481ZM317.148 202V200.352H312.012C313.116 199.664 313.964 199.024 314.764 198.304C316.316 196.896 317.036 195.584 317.036 194.048C317.036 191.872 315.644 190.64 313.292 190.64C310.892 190.64 309.404 191.936 309.404 193.968C309.404 194.24 309.436 194.544 309.516 194.848L311.5 195.04C311.42 194.672 311.388 194.352 311.388 194.064C311.388 192.96 312.06 192.256 313.196 192.256C314.316 192.256 314.94 192.928 314.94 194.144C314.94 195.36 314.492 196.256 313.228 197.44C312.012 198.592 310.604 199.664 309.34 200.496V202H317.148Z" fill="black"/>
<path d="M46.84 231C51.06 231 53.76 228.04 53.76 223.84C53.76 219.64 51.04 216.8 46.88 216.8H41.76V231H46.84ZM44.34 218.82H46.8C49.58 218.82 51.06 220.96 51.06 223.84C51.06 226.66 49.52 228.98 46.76 228.98H44.34V218.82ZM64.7875 225.5C64.7875 222.44 63.1275 220.76 60.2275 220.76C57.2475 220.76 55.4475 222.8 55.4475 226.1C55.4475 229.38 57.2875 231.24 60.3475 231.24C62.3875 231.24 63.9675 230.28 64.7075 228.54L62.8675 227.7C62.4075 228.78 61.5675 229.36 60.4275 229.36C58.8475 229.36 57.7875 228.28 57.7675 226.6H64.7875V225.5ZM57.7675 225.02C57.8075 223.36 58.6675 222.36 60.1875 222.36C61.6075 222.36 62.4275 223.22 62.4275 224.86V225.02H57.7675ZM67.6255 222.74V227.9C67.6255 229.92 68.4255 231.18 70.8255 231.18C71.4455 231.18 71.8855 231.12 72.4655 231V228.98C72.1455 229.04 71.8855 229.1 71.4855 229.1C70.4855 229.1 70.0255 228.58 70.0255 227.52V222.74H72.4655V221H70.0255V217.52L67.6255 218.48V221H65.8255V222.74H67.6255ZM83.0687 225.5C83.0687 222.44 81.4088 220.76 78.5088 220.76C75.5288 220.76 73.7288 222.8 73.7288 226.1C73.7288 229.38 75.5688 231.24 78.6288 231.24C80.6688 231.24 82.2488 230.28 82.9888 228.54L81.1488 227.7C80.6888 228.78 79.8488 229.36 78.7088 229.36C77.1288 229.36 76.0688 228.28 76.0488 226.6H83.0687V225.5ZM76.0488 225.02C76.0888 223.36 76.9488 222.36 78.4688 222.36C79.8888 222.36 80.7088 223.22 80.7088 224.86V225.02H76.0488ZM89.5858 231.24C91.9658 231.24 93.6458 229.88 94.0058 227.66L91.7458 227.2C91.5258 228.6 90.7858 229.34 89.5858 229.34C88.0458 229.34 87.1458 228.1 87.1458 225.94C87.1458 223.88 88.0658 222.64 89.5458 222.64C90.7258 222.64 91.5058 223.38 91.6658 224.74L94.0058 224.36C93.7058 222.08 92.0858 220.76 89.6058 220.76C86.5658 220.76 84.6858 222.74 84.6858 226C84.6858 229.18 86.6058 231.24 89.5858 231.24ZM96.7075 222.74V227.9C96.7075 229.92 97.5075 231.18 99.9075 231.18C100.528 231.18 100.968 231.12 101.548 231V228.98C101.228 229.04 100.968 229.1 100.567 229.1C99.5675 229.1 99.1075 228.58 99.1075 227.52V222.74H101.548V221H99.1075V217.52L96.7075 218.48V221H94.9075V222.74H96.7075Z" fill="black"/>
<path d="M45.616 202.272C47.312 202.272 48.592 201.472 49.12 200.256L49.296 202H50.768V195.888H45.824V197.472H48.896V197.68C48.896 198.72 48.304 200.608 46 200.608C43.808 200.608 42.72 198.816 42.72 196.32C42.72 193.728 43.904 192 45.984 192C47.728 192 48.416 193.168 48.592 194.176L50.64 193.824C50.368 192.272 49.088 190.368 46.016 190.368C42.608 190.368 40.608 192.816 40.608 196.336C40.608 199.84 42.48 202.272 45.616 202.272ZM60.0019 197.6C60.0019 195.152 58.6739 193.808 56.3539 193.808C53.9699 193.808 52.5299 195.44 52.5299 198.08C52.5299 200.704 54.0019 202.192 56.4499 202.192C58.0819 202.192 59.3459 201.424 59.9379 200.032L58.4659 199.36C58.0979 200.224 57.4259 200.688 56.5139 200.688C55.2499 200.688 54.4019 199.824 54.3859 198.48H60.0019V197.6ZM54.3859 197.216C54.4179 195.888 55.1059 195.088 56.3219 195.088C57.4579 195.088 58.1139 195.776 58.1139 197.088V197.216H54.3859ZM63.8875 202V197.76C63.8875 196.24 64.5595 195.344 65.6795 195.344C66.6875 195.344 67.1675 195.968 67.1675 197.232V202H69.1035V197.04C69.1035 194.896 68.1915 193.808 66.4475 193.808C65.2155 193.808 64.3355 194.384 63.7915 195.552V194H61.9675V202H63.8875ZM78.2519 197.6C78.2519 195.152 76.9239 193.808 74.6039 193.808C72.2199 193.808 70.7799 195.44 70.7799 198.08C70.7799 200.704 72.2519 202.192 74.6999 202.192C76.3319 202.192 77.5959 201.424 78.1879 200.032L76.7159 199.36C76.3479 200.224 75.6759 200.688 74.7639 200.688C73.4999 200.688 72.6519 199.824 72.6359 198.48H78.2519V197.6ZM72.6359 197.216C72.6679 195.888 73.3559 195.088 74.5719 195.088C75.7079 195.088 76.3639 195.776 76.3639 197.088V197.216H72.6359ZM82.0095 194H80.2175V202H82.1375V198.656C82.1375 197.76 82.2175 196.848 82.8575 196.224C83.2255 195.872 83.7535 195.664 84.5215 195.664H84.7775V193.824C84.6975 193.808 84.6335 193.808 84.5535 193.808C83.2575 193.808 82.4095 194.672 82.0095 195.936V194ZM88.2964 202.192C89.5764 202.192 90.5844 201.6 90.9684 200.624C90.9844 201.12 91.0324 201.6 91.0964 202H93.0164C92.8564 201.44 92.7764 200.608 92.7764 199.52V197.136C92.7764 194.816 91.7204 193.808 89.3524 193.808C87.2884 193.808 85.9444 194.864 85.8164 196.576H87.7844C87.8484 195.664 88.4084 195.168 89.3524 195.168C90.3764 195.168 90.8404 195.68 90.8404 196.88V197.088L89.1444 197.296C87.8804 197.472 87.1124 197.68 86.5364 198.016C85.8964 198.416 85.5604 199.056 85.5604 199.824C85.5604 201.248 86.6484 202.192 88.2964 202.192ZM88.9044 200.832C88.0564 200.832 87.5444 200.4 87.5444 199.728C87.5444 199.04 88.0244 198.656 89.0804 198.48L90.8884 198.208V198.72C90.8884 199.984 90.0884 200.832 88.9044 200.832ZM95.3973 195.392V199.52C95.3973 201.136 96.0373 202.144 97.9573 202.144C98.4533 202.144 98.8053 202.096 99.2693 202V200.384C99.0133 200.432 98.8053 200.48 98.4852 200.48C97.6853 200.48 97.3173 200.064 97.3173 199.216V195.392H99.2693V194H97.3173V191.216L95.3973 191.984V194H93.9573V195.392H95.3973ZM103.03 192.672V190.672H100.95V192.672H103.03ZM102.95 202V194H101.03V202H102.95ZM108.747 202.192C111.051 202.192 112.667 200.672 112.667 197.984C112.667 195.312 111.051 193.808 108.747 193.808C106.443 193.808 104.827 195.312 104.827 197.984C104.827 200.672 106.443 202.192 108.747 202.192ZM108.747 200.736C107.515 200.736 106.779 199.808 106.779 197.984C106.779 196.16 107.515 195.264 108.747 195.264C109.979 195.264 110.699 196.16 110.699 197.984C110.699 199.808 109.979 200.736 108.747 200.736ZM116.481 202V197.76C116.481 196.24 117.153 195.344 118.273 195.344C119.281 195.344 119.761 195.968 119.761 197.232V202H121.697V197.04C121.697 194.896 120.785 193.808 119.041 193.808C117.809 193.808 116.929 194.384 116.385 195.552V194H114.561V202H116.481ZM131.756 202V190.88H130.124C129.772 192.064 128.924 192.656 127.724 192.672H127.404V194.448H127.916C128.588 194.448 129.404 194.224 129.772 193.776V202H131.756Z" fill="black"/>
<line x1="50" y1="160.5" x2="409" y2="160.5" stroke="#E2231A" stroke-width="3"/>
<circle cx="50.5" cy="160.5" r="10.5" fill="#E2231A"/>
<circle cx="232.5" cy="160.5" r="10.5" fill="#FF938E"/>
<path d="M232.008 160.5L593.008 160.5" stroke="#FF938E" stroke-width="3"/>
<circle cx="417.5" cy="160.5" r="10.5" fill="white"/>
<path d="M419.011 160.519L602.006 160.519" stroke="white" stroke-width="3"/>
<circle cx="598.5" cy="160.5" r="10.5" fill="black"/>
<path d="M690.061 162.061C690.646 161.475 690.646 160.525 690.061 159.939L680.515 150.393C679.929 149.808 678.979 149.808 678.393 150.393C677.808 150.979 677.808 151.929 678.393 152.515L686.879 161L678.393 169.485C677.808 170.071 677.808 171.021 678.393 171.607C678.979 172.192 679.929 172.192 680.515 171.607L690.061 162.061ZM599 162.5L689 162.5V159.5L599 159.5V162.5Z" fill="black"/>
</svg>
