<svg width="910" height="156" viewBox="0 0 910 156" fill="none" xmlns="http://www.w3.org/2000/svg">
<path d="M667.24 0H884.036L910 77.8435L884.036 155.687H667.24L693.204 77.8435L667.24 0Z" fill="black"/>
<path d="M714.994 52.1602V38.6922C714.994 37.9382 714.968 37.2882 714.89 36.6642H714.994C715.046 37.1062 715.254 38.0682 715.462 38.6142L719.882 52.1602H722.872L727.24 38.6142C727.422 38.0682 727.656 37.1062 727.708 36.6642H727.786C727.708 37.3142 727.682 37.9642 727.682 38.6922V52.1602H730.75V33.7002H726.044L721.91 46.5182C721.624 47.4282 721.52 47.8442 721.442 48.5202H721.39C721.312 47.8442 721.208 47.4542 720.922 46.5442L716.736 33.7002H712.056V52.1602H714.994Z" fill="white"/>
<path d="M740.384 52.4722C744.128 52.4722 746.754 50.0022 746.754 45.6342C746.754 41.2922 744.128 38.8482 740.384 38.8482C736.64 38.8482 734.014 41.2922 734.014 45.6342C734.014 50.0022 736.64 52.4722 740.384 52.4722ZM740.384 50.1062C738.382 50.1062 737.186 48.5982 737.186 45.6342C737.186 42.6702 738.382 41.2142 740.384 41.2142C742.386 41.2142 743.556 42.6702 743.556 45.6342C743.556 48.5982 742.386 50.1062 740.384 50.1062Z" fill="white"/>
<path d="M752.953 52.1602V45.2702C752.953 42.8002 754.045 41.3442 755.865 41.3442C757.503 41.3442 758.283 42.3582 758.283 44.4122V52.1602H761.429V44.1002C761.429 40.6162 759.947 38.8482 757.113 38.8482C755.111 38.8482 753.681 39.7842 752.797 41.6822V39.1602H749.833V52.1602H752.953Z" fill="white"/>
<path d="M768.495 37.0022V33.7522H765.115V37.0022H768.495ZM768.365 52.1602V39.1602H765.245V52.1602H768.365Z" fill="white"/>
<path d="M773.052 41.4222V48.1302C773.052 50.7562 774.092 52.3942 777.212 52.3942C778.018 52.3942 778.59 52.3162 779.344 52.1602V49.5342C778.928 49.6122 778.59 49.6902 778.07 49.6902C776.77 49.6902 776.172 49.0142 776.172 47.6362V41.4222H779.344V39.1602H776.172V34.6362L773.052 35.8842V39.1602H770.712V41.4222H773.052Z" fill="white"/>
<path d="M787.357 52.4722C791.101 52.4722 793.727 50.0022 793.727 45.6342C793.727 41.2922 791.101 38.8482 787.357 38.8482C783.613 38.8482 780.987 41.2922 780.987 45.6342C780.987 50.0022 783.613 52.4722 787.357 52.4722ZM787.357 50.1062C785.355 50.1062 784.159 48.5982 784.159 45.6342C784.159 42.6702 785.355 41.2142 787.357 41.2142C789.359 41.2142 790.529 42.6702 790.529 45.6342C790.529 48.5982 789.359 50.1062 787.357 50.1062Z" fill="white"/>
<path d="M799.717 39.1602H796.805V52.1602H799.925V46.7262C799.925 45.2702 800.055 43.7882 801.095 42.7742C801.693 42.2022 802.551 41.8642 803.799 41.8642H804.215V38.8742C804.085 38.8482 803.981 38.8482 803.851 38.8482C801.745 38.8482 800.367 40.2522 799.717 42.3062V39.1602Z" fill="white"/>
<path d="M719.934 82.3319L717.022 77.4039C718.926 76.9719 719.582 75.5799 719.582 74.2999C719.582 72.6359 718.798 70.9719 715.822 70.9719H711.614V82.3319H713.134V77.6119H715.438L718.222 82.3319H719.934ZM715.646 72.2519C717.39 72.2519 717.982 73.1319 717.982 74.2999C717.982 75.4359 717.406 76.3319 715.646 76.3319H713.134V72.2519H715.646Z" fill="white"/>
<path d="M728.102 77.7719C728.102 75.3719 726.854 74.1399 724.694 74.1399C722.406 74.1399 721.062 75.7559 721.062 78.4279C721.062 81.0679 722.422 82.5239 724.71 82.5239C726.326 82.5239 727.494 81.7559 728.054 80.2999L726.934 79.8039C726.582 80.7799 725.83 81.3239 724.806 81.3239C723.382 81.3239 722.438 80.2999 722.422 78.7319H728.102V77.7719ZM722.422 77.6279C722.454 76.1239 723.254 75.2119 724.662 75.2119C725.974 75.2119 726.726 75.9799 726.726 77.4519V77.6279H722.422Z" fill="white"/>
<path d="M733.305 82.5239C735.097 82.5239 736.297 81.4679 736.585 79.6439L735.289 79.4359C735.081 80.6839 734.409 81.3399 733.321 81.3399C731.897 81.3399 731.065 80.2359 731.065 78.3159C731.065 76.4439 731.897 75.3239 733.273 75.3239C734.361 75.3239 735.065 75.9959 735.209 77.2119L736.601 77.0519C736.393 75.2119 735.177 74.1399 733.305 74.1399C731.033 74.1399 729.625 75.7239 729.625 78.3319C729.625 80.8919 731.065 82.5239 733.305 82.5239Z" fill="white"/>
<path d="M745.087 77.7719C745.087 75.3719 743.839 74.1399 741.679 74.1399C739.391 74.1399 738.047 75.7559 738.047 78.4279C738.047 81.0679 739.407 82.5239 741.695 82.5239C743.311 82.5239 744.479 81.7559 745.039 80.2999L743.919 79.8039C743.567 80.7799 742.815 81.3239 741.791 81.3239C740.367 81.3239 739.423 80.2999 739.407 78.7319H745.087V77.7719ZM739.407 77.6279C739.439 76.1239 740.239 75.2119 741.647 75.2119C742.959 75.2119 743.711 75.9799 743.711 77.4519V77.6279H739.407Z" fill="white"/>
<path d="M748.785 72.8439V71.1319H747.233V72.8439H748.785ZM748.689 82.3319V74.3319H747.329V82.3319H748.689Z" fill="white"/>
<path d="M754.636 82.3319L757.532 74.3319H756.06L754.268 79.7239C754.124 80.1559 754.012 80.5719 753.932 80.9399H753.884C753.804 80.5719 753.692 80.1559 753.548 79.7239L751.756 74.3319H750.284L753.18 82.3319H754.636Z" fill="white"/>
<path d="M765.368 77.7719C765.368 75.3719 764.12 74.1399 761.96 74.1399C759.672 74.1399 758.328 75.7559 758.328 78.4279C758.328 81.0679 759.688 82.5239 761.976 82.5239C763.592 82.5239 764.76 81.7559 765.32 80.2999L764.2 79.8039C763.848 80.7799 763.096 81.3239 762.072 81.3239C760.648 81.3239 759.704 80.2999 759.688 78.7319H765.368V77.7719ZM759.688 77.6279C759.72 76.1239 760.52 75.2119 761.928 75.2119C763.24 75.2119 763.992 75.9799 763.992 77.4519V77.6279H759.688Z" fill="white"/>
<path d="M774.263 82.5239C775.383 82.5239 776.375 81.8039 776.743 80.8279V82.3319H778.023V74.3319H776.663V78.6359C776.663 80.2679 775.799 81.3559 774.519 81.3559C773.463 81.3559 772.887 80.6199 772.887 79.2759V74.3319H771.527V79.4359C771.527 81.3079 772.247 82.5239 774.263 82.5239Z" fill="white"/>
<path d="M782.267 85.4519V81.0679C782.619 81.8519 783.483 82.5239 784.715 82.5239C786.651 82.5239 788.027 80.8919 788.027 78.3319C788.027 75.8039 786.731 74.1399 784.795 74.1399C783.627 74.1399 782.699 74.7159 782.187 75.8199V74.3319H780.907V85.4519H782.267ZM784.395 81.3239C783.067 81.3239 782.235 80.2359 782.235 78.5079V78.1239C782.235 76.3959 783.099 75.3399 784.443 75.3399C785.787 75.3399 786.587 76.4439 786.587 78.3319C786.587 80.2039 785.755 81.3239 784.395 81.3239Z" fill="white"/>
<path d="M792.717 82.5239C793.965 82.5239 794.829 81.9159 795.309 80.8439V82.3319H796.589V70.7319H795.229V75.5159C794.717 74.5719 793.933 74.1399 792.877 74.1399C790.877 74.1399 789.469 75.8679 789.469 78.3319C789.469 80.8439 790.781 82.5239 792.717 82.5239ZM793.085 81.3239C791.725 81.3239 790.909 80.2039 790.909 78.3319C790.909 76.4439 791.725 75.3399 793.085 75.3399C794.429 75.3399 795.261 76.4119 795.261 78.1559V78.5239C795.261 80.2359 794.413 81.3239 793.085 81.3239Z" fill="white"/>
<path d="M801.454 82.5239C802.766 82.5239 803.774 81.8999 804.142 80.8759C804.158 81.3879 804.206 81.9159 804.27 82.3319H805.694C805.502 81.7079 805.422 80.8599 805.422 79.6279V77.4679C805.422 75.1319 804.462 74.1399 802.27 74.1399C800.398 74.1399 799.118 75.2119 799.006 76.8439H800.462C800.526 75.8359 801.198 75.2599 802.286 75.2599C803.518 75.2599 804.046 75.8519 804.046 77.3239V77.4519L802.558 77.6279C801.246 77.7879 800.478 77.9799 799.87 78.2839C799.15 78.6839 798.75 79.3719 798.75 80.1719C798.75 81.5959 799.822 82.5239 801.454 82.5239ZM801.758 81.4039C800.782 81.4039 800.19 80.9239 800.19 80.1399C800.19 79.3559 800.702 78.9399 801.886 78.7639L804.062 78.4439V78.8439C804.062 80.3959 803.15 81.4039 801.758 81.4039Z" fill="white"/>
<path d="M808.383 75.4519V79.9319C808.383 81.4199 808.831 82.4759 810.559 82.4759C811.071 82.4759 811.391 82.4279 811.743 82.3319V81.0839C811.471 81.1479 811.263 81.1959 810.911 81.1959C810.095 81.1959 809.743 80.7959 809.743 79.8839V75.4519H811.743V74.3319H809.743V71.6599L808.383 72.2359V74.3319H806.895V75.4519H808.383Z" fill="white"/>
<path d="M819.977 77.7719C819.977 75.3719 818.729 74.1399 816.569 74.1399C814.281 74.1399 812.937 75.7559 812.937 78.4279C812.937 81.0679 814.297 82.5239 816.585 82.5239C818.201 82.5239 819.369 81.7559 819.929 80.2999L818.809 79.8039C818.457 80.7799 817.705 81.3239 816.681 81.3239C815.257 81.3239 814.313 80.2999 814.297 78.7319H819.977V77.7719ZM814.297 77.6279C814.329 76.1239 815.129 75.2119 816.537 75.2119C817.849 75.2119 818.601 75.9799 818.601 77.4519V77.6279H814.297Z" fill="white"/>
<path d="M824.94 82.5239C826.892 82.5239 827.996 81.5159 827.996 80.0759C827.996 78.9079 827.356 78.1719 825.916 77.8999L824.364 77.6119C823.58 77.4679 823.132 77.1479 823.132 76.4759C823.132 75.6919 823.756 75.2439 824.78 75.2439C825.868 75.2439 826.492 75.8039 826.668 76.6039L828.012 76.2999C827.852 74.9559 826.636 74.1399 824.844 74.1399C822.956 74.1399 821.804 75.1639 821.804 76.5399C821.804 77.7559 822.572 78.5239 823.932 78.7799L825.5 79.0679C826.22 79.1959 826.652 79.4839 826.652 80.1879C826.652 80.8759 826.06 81.4039 824.988 81.4039C823.82 81.4039 823.068 80.8279 822.876 79.8199L821.5 80.0599C821.772 81.6439 823.052 82.5239 824.94 82.5239Z" fill="white"/>
<path d="M837.415 82.5239C839.671 82.5239 841.143 80.9399 841.143 78.3319C841.143 75.7239 839.671 74.1399 837.415 74.1399C835.159 74.1399 833.687 75.7239 833.687 78.3319C833.687 80.9399 835.159 82.5239 837.415 82.5239ZM837.415 81.3399C835.975 81.3399 835.127 80.3159 835.127 78.3319C835.127 76.3479 835.975 75.3239 837.415 75.3239C838.855 75.3239 839.703 76.3479 839.703 78.3319C839.703 80.3159 838.855 81.3399 837.415 81.3399Z" fill="white"/>
<path d="M844.658 82.3319V78.1559C844.658 76.3799 845.474 75.3079 846.802 75.3079C847.97 75.3079 848.562 76.0279 848.562 77.4359V82.3319H849.922V77.3559C849.922 75.2279 849.01 74.1399 847.25 74.1399C845.986 74.1399 845.106 74.7159 844.578 75.9159V74.3319H843.298V82.3319H844.658Z" fill="white"/>
<path d="M712.814 106.452V102.068C713.166 102.852 714.03 103.524 715.262 103.524C717.198 103.524 718.574 101.892 718.574 99.3319C718.574 96.8039 717.278 95.1399 715.342 95.1399C714.174 95.1399 713.246 95.7159 712.734 96.8199V95.3319H711.454V106.452H712.814ZM714.942 102.324C713.614 102.324 712.782 101.236 712.782 99.5079V99.1239C712.782 97.3959 713.646 96.3399 714.99 96.3399C716.334 96.3399 717.134 97.4439 717.134 99.3319C717.134 101.204 716.302 102.324 714.942 102.324Z" fill="white"/>
<path d="M722 95.3319H720.736V103.332H722.096V99.9079C722.096 98.9479 722.128 97.8759 722.896 97.1079C723.28 96.7239 723.824 96.4839 724.656 96.4839H724.72V95.1559C724.624 95.1399 724.528 95.1399 724.432 95.1399C723.216 95.1399 722.384 96.0359 722 97.1559V95.3319Z" fill="white"/>
<path d="M729.415 103.524C731.671 103.524 733.143 101.94 733.143 99.3319C733.143 96.7239 731.671 95.1399 729.415 95.1399C727.159 95.1399 725.687 96.7239 725.687 99.3319C725.687 101.94 727.159 103.524 729.415 103.524ZM729.415 102.34C727.975 102.34 727.127 101.316 727.127 99.3319C727.127 97.3479 727.975 96.3239 729.415 96.3239C730.855 96.3239 731.703 97.3479 731.703 99.3319C731.703 101.316 730.855 102.34 729.415 102.34Z" fill="white"/>
<path d="M741.366 95.2039C741.59 95.2039 741.782 95.2359 741.942 95.2679V94.0839C741.766 94.0359 741.59 94.0199 741.414 94.0199C740.342 94.0199 739.75 94.6599 739.51 95.4759C739.062 95.2679 738.55 95.1399 737.942 95.1399C736.086 95.1399 734.982 96.2919 734.982 97.8439C734.982 98.6279 735.254 99.2999 735.766 99.7959C735.094 100.052 734.63 100.596 734.63 101.396C734.63 101.972 734.886 102.484 735.558 102.788C734.71 103.06 734.262 103.7 734.262 104.452C734.262 105.588 735.046 106.644 737.862 106.644C740.646 106.644 741.83 105.604 741.83 104.1C741.83 102.66 740.918 101.844 739.11 101.844H737.158C736.166 101.844 735.83 101.476 735.83 101.028C735.83 100.66 736.07 100.388 736.406 100.244C736.838 100.452 737.35 100.58 737.942 100.58C739.798 100.58 740.902 99.3959 740.902 97.8439C740.902 97.0919 740.646 96.4359 740.166 95.9559C740.358 95.4439 740.758 95.2039 741.366 95.2039ZM737.942 99.5399C736.918 99.5399 736.262 98.8199 736.262 97.8439C736.262 96.8679 736.918 96.1799 737.942 96.1799C738.966 96.1799 739.622 96.8839 739.622 97.8599C739.622 98.8359 738.966 99.5399 737.942 99.5399ZM738.806 103.044C739.91 103.044 740.47 103.444 740.47 104.196C740.47 104.916 739.974 105.524 738.022 105.524C736.582 105.524 735.59 105.204 735.59 104.212C735.59 103.732 735.862 103.268 736.438 103.012C736.646 103.028 736.87 103.044 737.11 103.044H738.806Z" fill="white"/>
<path d="M744.968 95.3319H743.704V103.332H745.064V99.9079C745.064 98.9479 745.096 97.8759 745.864 97.1079C746.248 96.7239 746.792 96.4839 747.624 96.4839H747.688V95.1559C747.592 95.1399 747.496 95.1399 747.4 95.1399C746.184 95.1399 745.352 96.0359 744.968 97.1559V95.3319Z" fill="white"/>
<path d="M755.696 98.7719C755.696 96.3719 754.448 95.1399 752.288 95.1399C750 95.1399 748.656 96.7559 748.656 99.4279C748.656 102.068 750.016 103.524 752.304 103.524C753.92 103.524 755.088 102.756 755.648 101.3L754.528 100.804C754.176 101.78 753.424 102.324 752.4 102.324C750.976 102.324 750.032 101.3 750.016 99.7319H755.696V98.7719ZM750.016 98.6279C750.048 97.1239 750.848 96.2119 752.256 96.2119C753.568 96.2119 754.32 96.9799 754.32 98.4519V98.6279H750.016Z" fill="white"/>
<path d="M760.659 103.524C762.611 103.524 763.715 102.516 763.715 101.076C763.715 99.9079 763.075 99.1719 761.635 98.8999L760.083 98.6119C759.299 98.4679 758.851 98.1479 758.851 97.4759C758.851 96.6919 759.475 96.2439 760.499 96.2439C761.587 96.2439 762.211 96.8039 762.387 97.6039L763.731 97.2999C763.571 95.9559 762.355 95.1399 760.563 95.1399C758.675 95.1399 757.523 96.1639 757.523 97.5399C757.523 98.7559 758.291 99.5239 759.651 99.7799L761.219 100.068C761.939 100.196 762.371 100.484 762.371 101.188C762.371 101.876 761.779 102.404 760.707 102.404C759.539 102.404 758.787 101.828 758.595 100.82L757.219 101.06C757.491 102.644 758.771 103.524 760.659 103.524Z" fill="white"/>
<path d="M768.534 103.524C770.486 103.524 771.59 102.516 771.59 101.076C771.59 99.9079 770.95 99.1719 769.51 98.8999L767.958 98.6119C767.174 98.4679 766.726 98.1479 766.726 97.4759C766.726 96.6919 767.35 96.2439 768.374 96.2439C769.462 96.2439 770.086 96.8039 770.262 97.6039L771.606 97.2999C771.446 95.9559 770.23 95.1399 768.438 95.1399C766.55 95.1399 765.398 96.1639 765.398 97.5399C765.398 98.7559 766.166 99.5239 767.526 99.7799L769.094 100.068C769.814 100.196 770.246 100.484 770.246 101.188C770.246 101.876 769.654 102.404 768.582 102.404C767.414 102.404 766.662 101.828 766.47 100.82L765.094 101.06C765.366 102.644 766.646 103.524 768.534 103.524Z" fill="white"/>
<path d="M779.985 103.524C781.297 103.524 782.305 102.9 782.673 101.876C782.689 102.388 782.737 102.916 782.801 103.332H784.225C784.033 102.708 783.953 101.86 783.953 100.628V98.4679C783.953 96.1319 782.993 95.1399 780.801 95.1399C778.929 95.1399 777.649 96.2119 777.537 97.8439H778.993C779.057 96.8359 779.729 96.2599 780.817 96.2599C782.049 96.2599 782.577 96.8519 782.577 98.3239V98.4519L781.089 98.6279C779.777 98.7879 779.009 98.9799 778.401 99.2839C777.681 99.6839 777.281 100.372 777.281 101.172C777.281 102.596 778.353 103.524 779.985 103.524ZM780.289 102.404C779.313 102.404 778.721 101.924 778.721 101.14C778.721 100.356 779.233 99.9399 780.417 99.7639L782.593 99.4439V99.8439C782.593 101.396 781.681 102.404 780.289 102.404Z" fill="white"/>
<path d="M787.986 103.332V99.1559C787.986 97.3799 788.802 96.3079 790.13 96.3079C791.298 96.3079 791.89 97.0279 791.89 98.4359V103.332H793.25V98.3559C793.25 96.2279 792.338 95.1399 790.578 95.1399C789.314 95.1399 788.434 95.7159 787.906 96.9159V95.3319H786.626V103.332H787.986Z" fill="white"/>
<path d="M798.42 103.524C799.668 103.524 800.532 102.916 801.012 101.844V103.332H802.292V91.7319H800.932V96.5159C800.42 95.5719 799.636 95.1399 798.58 95.1399C796.58 95.1399 795.172 96.8679 795.172 99.3319C795.172 101.844 796.484 103.524 798.42 103.524ZM798.788 102.324C797.428 102.324 796.612 101.204 796.612 99.3319C796.612 97.4439 797.428 96.3399 798.788 96.3399C800.132 96.3399 800.964 97.4119 800.964 99.1559V99.5239C800.964 101.236 800.116 102.324 798.788 102.324Z" fill="white"/>
<path d="M809.617 96.4519V100.932C809.617 102.42 810.065 103.476 811.793 103.476C812.305 103.476 812.625 103.428 812.977 103.332V102.084C812.705 102.148 812.497 102.196 812.145 102.196C811.329 102.196 810.977 101.796 810.977 100.884V96.4519H812.977V95.3319H810.977V92.6599L809.617 93.2359V95.3319H808.129V96.4519H809.617Z" fill="white"/>
<path d="M816.234 95.3319H814.97V103.332H816.33V99.9079C816.33 98.9479 816.362 97.8759 817.13 97.1079C817.514 96.7239 818.058 96.4839 818.89 96.4839H818.954V95.1559C818.858 95.1399 818.762 95.1399 818.666 95.1399C817.45 95.1399 816.618 96.0359 816.234 97.1559V95.3319Z" fill="white"/>
<path d="M822.61 103.524C823.922 103.524 824.93 102.9 825.298 101.876C825.314 102.388 825.362 102.916 825.426 103.332H826.85C826.658 102.708 826.578 101.86 826.578 100.628V98.4679C826.578 96.1319 825.618 95.1399 823.426 95.1399C821.554 95.1399 820.274 96.2119 820.162 97.8439H821.618C821.682 96.8359 822.354 96.2599 823.442 96.2599C824.674 96.2599 825.202 96.8519 825.202 98.3239V98.4519L823.714 98.6279C822.402 98.7879 821.634 98.9799 821.026 99.2839C820.306 99.6839 819.906 100.372 819.906 101.172C819.906 102.596 820.978 103.524 822.61 103.524ZM822.914 102.404C821.938 102.404 821.346 101.924 821.346 101.14C821.346 100.356 821.858 99.9399 823.042 99.7639L825.218 99.4439V99.8439C825.218 101.396 824.306 102.404 822.914 102.404Z" fill="white"/>
<path d="M832.133 103.524C833.925 103.524 835.125 102.468 835.413 100.644L834.117 100.436C833.909 101.684 833.237 102.34 832.149 102.34C830.725 102.34 829.893 101.236 829.893 99.3159C829.893 97.4439 830.725 96.3239 832.101 96.3239C833.189 96.3239 833.893 96.9959 834.037 98.2119L835.429 98.0519C835.221 96.2119 834.005 95.1399 832.133 95.1399C829.861 95.1399 828.453 96.7239 828.453 99.3319C828.453 101.892 829.893 103.524 832.133 103.524Z" fill="white"/>
<path d="M844.507 103.332L841.387 98.4199L844.315 95.3319H842.539L838.955 99.2679V91.7319H837.595V103.332H838.955V100.884L840.411 99.4119L842.827 103.332H844.507Z" fill="white"/>
<path d="M714.462 124.524C716.718 124.524 718.19 122.94 718.19 120.332C718.19 117.724 716.718 116.14 714.462 116.14C712.206 116.14 710.734 117.724 710.734 120.332C710.734 122.94 712.206 124.524 714.462 124.524ZM714.462 123.34C713.022 123.34 712.174 122.316 712.174 120.332C712.174 118.348 713.022 117.324 714.462 117.324C715.902 117.324 716.75 118.348 716.75 120.332C716.75 122.316 715.902 123.34 714.462 123.34Z" fill="white"/>
<path d="M722.841 124.524C723.961 124.524 724.953 123.804 725.321 122.828V124.332H726.601V116.332H725.241V120.636C725.241 122.268 724.377 123.356 723.097 123.356C722.041 123.356 721.465 122.62 721.465 121.276V116.332H720.105V121.436C720.105 123.308 720.825 124.524 722.841 124.524Z" fill="white"/>
<path d="M729.774 117.452V121.932C729.774 123.42 730.222 124.476 731.95 124.476C732.462 124.476 732.782 124.428 733.134 124.332V123.084C732.862 123.148 732.654 123.196 732.302 123.196C731.486 123.196 731.134 122.796 731.134 121.884V117.452H733.134V116.332H731.134V113.66L729.774 114.236V116.332H728.286V117.452H729.774Z" fill="white"/>
<path d="M738.008 124.524C739.8 124.524 741 123.468 741.288 121.644L739.992 121.436C739.784 122.684 739.112 123.34 738.024 123.34C736.6 123.34 735.768 122.236 735.768 120.316C735.768 118.444 736.6 117.324 737.976 117.324C739.064 117.324 739.768 117.996 739.912 119.212L741.304 119.052C741.096 117.212 739.88 116.14 738.008 116.14C735.736 116.14 734.328 117.724 734.328 120.332C734.328 122.892 735.768 124.524 738.008 124.524Z" fill="white"/>
<path d="M746.478 124.524C748.734 124.524 750.206 122.94 750.206 120.332C750.206 117.724 748.734 116.14 746.478 116.14C744.222 116.14 742.75 117.724 742.75 120.332C742.75 122.94 744.222 124.524 746.478 124.524ZM746.478 123.34C745.038 123.34 744.19 122.316 744.19 120.332C744.19 118.348 745.038 117.324 746.478 117.324C747.918 117.324 748.766 118.348 748.766 120.332C748.766 122.316 747.918 123.34 746.478 123.34Z" fill="white"/>
<path d="M752.361 124.332H753.721V119.66C753.721 118.204 754.409 117.308 755.529 117.308C756.489 117.308 757.033 117.964 757.033 119.132V124.332H758.393V119.596C758.393 118.14 759.049 117.308 760.185 117.308C761.193 117.308 761.705 117.948 761.705 119.196V124.332H763.065V119.084C763.065 117.228 762.169 116.14 760.633 116.14C759.545 116.14 758.729 116.668 758.201 117.74C757.833 116.7 757.033 116.14 755.929 116.14C754.857 116.14 754.089 116.668 753.641 117.724V116.332H752.361V124.332Z" fill="white"/>
<path d="M772.024 119.772C772.024 117.372 770.776 116.14 768.616 116.14C766.328 116.14 764.984 117.756 764.984 120.428C764.984 123.068 766.344 124.524 768.632 124.524C770.248 124.524 771.416 123.756 771.976 122.3L770.856 121.804C770.504 122.78 769.752 123.324 768.728 123.324C767.304 123.324 766.36 122.3 766.344 120.732H772.024V119.772ZM766.344 119.628C766.376 118.124 767.176 117.212 768.584 117.212C769.896 117.212 770.648 117.98 770.648 119.452V119.628H766.344Z" fill="white"/>
<path d="M776.987 124.524C778.939 124.524 780.043 123.516 780.043 122.076C780.043 120.908 779.403 120.172 777.963 119.9L776.411 119.612C775.627 119.468 775.179 119.148 775.179 118.476C775.179 117.692 775.803 117.244 776.827 117.244C777.915 117.244 778.539 117.804 778.715 118.604L780.059 118.3C779.899 116.956 778.683 116.14 776.891 116.14C775.003 116.14 773.851 117.164 773.851 118.54C773.851 119.756 774.619 120.524 775.979 120.78L777.547 121.068C778.267 121.196 778.699 121.484 778.699 122.188C778.699 122.876 778.107 123.404 777.035 123.404C775.867 123.404 775.115 122.828 774.923 121.82L773.547 122.06C773.819 123.644 775.099 124.524 776.987 124.524Z" fill="white"/>
<path d="M445.723 0.000488281H662.519L688.483 77.8439L662.519 155.687H445.723L471.687 77.8439L445.723 0.000488281Z" fill="white"/>
<path d="M495.62 52.4421C500.118 52.4421 502.64 49.8161 503.42 46.1241L500.092 45.4481C499.624 48.0481 498.012 49.6341 495.646 49.6341C492.266 49.6341 490.446 46.7481 490.446 42.7181C490.446 38.5841 492.318 35.8541 495.568 35.8541C498.116 35.8541 499.65 37.5181 499.962 40.1441L503.394 39.6501C502.9 35.7241 500.274 33.0981 495.672 33.0981C490.134 33.0981 486.988 36.9981 486.988 42.7441C486.988 48.3341 489.822 52.4421 495.62 52.4421Z" fill="black"/>
<path d="M506.31 33.1501V52.0001H509.43V33.1501H506.31Z" fill="black"/>
<path d="M518.85 52.3121C522.594 52.3121 525.22 49.8421 525.22 45.4741C525.22 41.1321 522.594 38.6881 518.85 38.6881C515.106 38.6881 512.48 41.1321 512.48 45.4741C512.48 49.8421 515.106 52.3121 518.85 52.3121ZM518.85 49.9461C516.848 49.9461 515.652 48.4381 515.652 45.4741C515.652 42.5101 516.848 41.0541 518.85 41.0541C520.852 41.0541 522.022 42.5101 522.022 45.4741C522.022 48.4381 520.852 49.9461 518.85 49.9461Z" fill="black"/>
<path d="M533.006 52.3121C536.412 52.3121 538.336 50.6481 538.336 48.2041C538.336 46.1501 537.27 44.9021 534.748 44.4601L532.2 43.9921C531.056 43.7841 530.484 43.3941 530.484 42.5101C530.484 41.4961 531.29 40.9501 532.746 40.9501C534.462 40.9501 535.606 41.6781 536.23 42.8481L538.414 41.6781C537.79 39.8061 535.684 38.6881 532.928 38.6881C529.626 38.6881 527.624 40.3521 527.624 42.6921C527.624 44.7721 528.898 46.0461 531.342 46.4881L533.656 46.9041C534.93 47.1121 535.502 47.4761 535.502 48.4121C535.502 49.3481 534.67 50.0241 533.084 50.0241C531.238 50.0241 529.938 49.1921 529.34 47.7361L527.026 48.7761C527.832 51.0641 530.042 52.3121 533.006 52.3121Z" fill="black"/>
<path d="M552.552 44.8501C552.552 40.8721 550.394 38.6881 546.624 38.6881C542.75 38.6881 540.41 41.3401 540.41 45.6301C540.41 49.8941 542.802 52.3121 546.78 52.3121C549.432 52.3121 551.486 51.0641 552.448 48.8021L550.056 47.7101C549.458 49.1141 548.366 49.8681 546.884 49.8681C544.83 49.8681 543.452 48.4641 543.426 46.2801H552.552V44.8501ZM543.426 44.2261C543.478 42.0681 544.596 40.7681 546.572 40.7681C548.418 40.7681 549.484 41.8861 549.484 44.0181V44.2261H543.426Z" fill="black"/>
<path d="M562.894 41.2621V47.9701C562.894 50.5961 563.934 52.2341 567.054 52.2341C567.86 52.2341 568.432 52.1561 569.186 52.0001V49.3741C568.77 49.4521 568.432 49.5301 567.912 49.5301C566.612 49.5301 566.014 48.8541 566.014 47.4761V41.2621H569.186V39.0001H566.014V34.4761L562.894 35.7241V39.0001H560.554V41.2621H562.894Z" fill="black"/>
<path d="M575.167 52.0001V45.1101C575.167 42.6141 576.233 41.1841 578.105 41.1841C579.691 41.1841 580.497 42.1981 580.497 44.1741V52.0001H583.643V43.9141C583.643 40.4821 582.161 38.6881 579.353 38.6881C577.377 38.6881 575.947 39.5981 575.167 41.3921V33.1501H572.047V52.0001H575.167Z" fill="black"/>
<path d="M598.509 44.8501C598.509 40.8721 596.351 38.6881 592.581 38.6881C588.707 38.6881 586.367 41.3401 586.367 45.6301C586.367 49.8941 588.759 52.3121 592.737 52.3121C595.389 52.3121 597.443 51.0641 598.405 48.8021L596.013 47.7101C595.415 49.1141 594.323 49.8681 592.841 49.8681C590.787 49.8681 589.409 48.4641 589.383 46.2801H598.509V44.8501ZM589.383 44.2261C589.435 42.0681 590.553 40.7681 592.529 40.7681C594.375 40.7681 595.441 41.8861 595.441 44.0181V44.2261H589.383Z" fill="black"/>
<path d="M608.305 33.1501V52.0001H611.425V33.1501H608.305Z" fill="black"/>
<path d="M620.844 52.3121C624.588 52.3121 627.214 49.8421 627.214 45.4741C627.214 41.1321 624.588 38.6881 620.844 38.6881C617.1 38.6881 614.474 41.1321 614.474 45.4741C614.474 49.8421 617.1 52.3121 620.844 52.3121ZM620.844 49.9461C618.842 49.9461 617.646 48.4381 617.646 45.4741C617.646 42.5101 618.842 41.0541 620.844 41.0541C622.846 41.0541 624.016 42.5101 624.016 45.4741C624.016 48.4381 622.846 49.9461 620.844 49.9461Z" fill="black"/>
<path d="M635.571 52.3121C639.315 52.3121 641.941 49.8421 641.941 45.4741C641.941 41.1321 639.315 38.6881 635.571 38.6881C631.827 38.6881 629.201 41.1321 629.201 45.4741C629.201 49.8421 631.827 52.3121 635.571 52.3121ZM635.571 49.9461C633.569 49.9461 632.373 48.4381 632.373 45.4741C632.373 42.5101 633.569 41.0541 635.571 41.0541C637.573 41.0541 638.743 42.5101 638.743 45.4741C638.743 48.4381 637.573 49.9461 635.571 49.9461Z" fill="black"/>
<path d="M648.139 57.0701V50.1281C648.841 51.4021 650.141 52.3121 651.987 52.3121C655.185 52.3121 657.369 49.6601 657.369 45.4741C657.369 41.3661 655.263 38.6881 652.143 38.6881C650.297 38.6881 648.789 39.5721 647.983 41.2621V39.0001H645.019V57.0701H648.139ZM651.077 49.9201C649.231 49.9201 648.061 48.3341 648.061 45.8381V45.1881C648.061 42.5621 649.231 41.0801 651.103 41.0801C653.001 41.0801 654.119 42.6921 654.119 45.4741C654.119 48.2561 652.949 49.9201 651.077 49.9201Z" fill="black"/>
<path d="M495.64 70.6399H488.6V81.9999H490.12V76.8159H495.368V75.5359H490.12V71.9199H495.64V70.6399Z" fill="black"/>
<path d="M499.307 82.1919C500.619 82.1919 501.627 81.5679 501.995 80.5439C502.011 81.0559 502.059 81.5839 502.123 81.9999H503.547C503.355 81.3759 503.275 80.5279 503.275 79.2959V77.1359C503.275 74.7999 502.315 73.8079 500.123 73.8079C498.251 73.8079 496.971 74.8799 496.859 76.5119H498.315C498.379 75.5039 499.051 74.9279 500.139 74.9279C501.371 74.9279 501.899 75.5199 501.899 76.9919V77.1199L500.411 77.2959C499.099 77.4559 498.331 77.6479 497.723 77.9519C497.003 78.3519 496.603 79.0399 496.603 79.8399C496.603 81.2639 497.675 82.1919 499.307 82.1919ZM499.611 81.0719C498.635 81.0719 498.043 80.5919 498.043 79.8079C498.043 79.0239 498.555 78.6079 499.739 78.4319L501.915 78.1119V78.5119C501.915 80.0639 501.003 81.0719 499.611 81.0719Z" fill="black"/>
<path d="M508.51 82.1919C510.302 82.1919 511.502 81.1359 511.79 79.3119L510.494 79.1039C510.286 80.3519 509.614 81.0079 508.526 81.0079C507.102 81.0079 506.27 79.9039 506.27 77.9839C506.27 76.1119 507.102 74.9919 508.478 74.9919C509.566 74.9919 510.27 75.6639 510.414 76.8799L511.806 76.7199C511.598 74.8799 510.382 73.8079 508.51 73.8079C506.238 73.8079 504.83 75.3919 504.83 77.9999C504.83 80.5599 506.27 82.1919 508.51 82.1919Z" fill="black"/>
<path d="M515.108 72.5119V70.7999H513.556V72.5119H515.108ZM515.012 81.9999V73.9999H513.652V81.9999H515.012Z" fill="black"/>
<path d="M517.566 70.3999V81.9999H518.926V70.3999H517.566Z" fill="black"/>
<path d="M522.937 72.5119V70.7999H521.385V72.5119H522.937ZM522.841 81.9999V73.9999H521.481V81.9999H522.841Z" fill="black"/>
<path d="M525.683 75.1199V79.5999C525.683 81.0879 526.131 82.1439 527.859 82.1439C528.371 82.1439 528.691 82.0959 529.043 81.9999V80.7519C528.771 80.8159 528.563 80.8639 528.211 80.8639C527.395 80.8639 527.043 80.4639 527.043 79.5519V75.1199H529.043V73.9999H527.043V71.3279L525.683 71.9039V73.9999H524.195V75.1199H525.683Z" fill="black"/>
<path d="M532.621 82.1919C533.933 82.1919 534.941 81.5679 535.309 80.5439C535.325 81.0559 535.374 81.5839 535.438 81.9999H536.861C536.669 81.3759 536.59 80.5279 536.59 79.2959V77.1359C536.59 74.7999 535.63 73.8079 533.438 73.8079C531.565 73.8079 530.285 74.8799 530.174 76.5119H531.629C531.693 75.5039 532.365 74.9279 533.453 74.9279C534.686 74.9279 535.213 75.5199 535.213 76.9919V77.1199L533.725 77.2959C532.413 77.4559 531.646 77.6479 531.037 77.9519C530.317 78.3519 529.917 79.0399 529.917 79.8399C529.917 81.2639 530.989 82.1919 532.621 82.1919ZM532.925 81.0719C531.949 81.0719 531.357 80.5919 531.357 79.8079C531.357 79.0239 531.869 78.6079 533.053 78.4319L535.229 78.1119V78.5119C535.229 80.0639 534.317 81.0719 532.925 81.0719Z" fill="black"/>
<path d="M539.23 75.1199V79.5999C539.23 81.0879 539.678 82.1439 541.406 82.1439C541.918 82.1439 542.238 82.0959 542.59 81.9999V80.7519C542.319 80.8159 542.111 80.8639 541.758 80.8639C540.942 80.8639 540.59 80.4639 540.59 79.5519V75.1199H542.59V73.9999H540.59V71.3279L539.23 71.9039V73.9999H537.743V75.1199H539.23Z" fill="black"/>
<path d="M550.505 77.4399C550.505 75.0399 549.257 73.8079 547.097 73.8079C544.809 73.8079 543.465 75.4239 543.465 78.0959C543.465 80.7359 544.825 82.1919 547.113 82.1919C548.729 82.1919 549.897 81.4239 550.457 79.9679L549.337 79.4719C548.985 80.4479 548.233 80.9919 547.209 80.9919C545.785 80.9919 544.841 79.9679 544.825 78.3999H550.505V77.4399ZM544.825 77.2959C544.857 75.7919 545.657 74.8799 547.065 74.8799C548.377 74.8799 549.129 75.6479 549.129 77.1199V77.2959H544.825Z" fill="black"/>
<path d="M559.224 82.1919C561.016 82.1919 562.216 81.1359 562.504 79.3119L561.208 79.1039C561 80.3519 560.328 81.0079 559.24 81.0079C557.816 81.0079 556.984 79.9039 556.984 77.9839C556.984 76.1119 557.816 74.9919 559.192 74.9919C560.28 74.9919 560.984 75.6639 561.128 76.8799L562.52 76.7199C562.312 74.8799 561.096 73.8079 559.224 73.8079C556.952 73.8079 555.544 75.3919 555.544 77.9999C555.544 80.5599 556.984 82.1919 559.224 82.1919Z" fill="black"/>
<path d="M567.374 82.1919C569.63 82.1919 571.102 80.6079 571.102 77.9999C571.102 75.3919 569.63 73.8079 567.374 73.8079C565.118 73.8079 563.646 75.3919 563.646 77.9999C563.646 80.6079 565.118 82.1919 567.374 82.1919ZM567.374 81.0079C565.934 81.0079 565.086 79.9839 565.086 77.9999C565.086 76.0159 565.934 74.9919 567.374 74.9919C568.814 74.9919 569.662 76.0159 569.662 77.9999C569.662 79.9839 568.814 81.0079 567.374 81.0079Z" fill="black"/>
<path d="M572.936 81.9999H574.296V77.3279C574.296 75.8719 574.984 74.9759 576.104 74.9759C577.064 74.9759 577.608 75.6319 577.608 76.7999V81.9999H578.968V77.2639C578.968 75.8079 579.624 74.9759 580.76 74.9759C581.768 74.9759 582.28 75.6159 582.28 76.8639V81.9999H583.64V76.7519C583.64 74.8959 582.744 73.8079 581.208 73.8079C580.12 73.8079 579.304 74.3359 578.776 75.4079C578.408 74.3679 577.608 73.8079 576.504 73.8079C575.432 73.8079 574.664 74.3359 574.216 75.3919V73.9999H572.936V81.9999Z" fill="black"/>
<path d="M585.96 81.9999H587.32V77.3279C587.32 75.8719 588.008 74.9759 589.128 74.9759C590.088 74.9759 590.632 75.6319 590.632 76.7999V81.9999H591.992V77.2639C591.992 75.8079 592.648 74.9759 593.784 74.9759C594.792 74.9759 595.304 75.6159 595.304 76.8639V81.9999H596.664V76.7519C596.664 74.8959 595.768 73.8079 594.232 73.8079C593.144 73.8079 592.328 74.3359 591.8 75.4079C591.432 74.3679 590.632 73.8079 589.528 73.8079C588.456 73.8079 587.688 74.3359 587.24 75.3919V73.9999H585.96V81.9999Z" fill="black"/>
<path d="M601.48 82.1919C602.6 82.1919 603.592 81.4719 603.96 80.4959V81.9999H605.24V73.9999H603.88V78.3039C603.88 79.9359 603.016 81.0239 601.736 81.0239C600.68 81.0239 600.104 80.2879 600.104 78.9439V73.9999H598.744V79.1039C598.744 80.9759 599.464 82.1919 601.48 82.1919Z" fill="black"/>
<path d="M609.164 81.9999V77.8239C609.164 76.0479 609.98 74.9759 611.308 74.9759C612.476 74.9759 613.068 75.6959 613.068 77.1039V81.9999H614.428V77.0239C614.428 74.8959 613.516 73.8079 611.756 73.8079C610.492 73.8079 609.612 74.3839 609.084 75.5839V73.9999H607.804V81.9999H609.164Z" fill="black"/>
<path d="M618.206 72.5119V70.7999H616.654V72.5119H618.206ZM618.11 81.9999V73.9999H616.75V81.9999H618.11Z" fill="black"/>
<path d="M623.624 82.1919C625.416 82.1919 626.616 81.1359 626.904 79.3119L625.608 79.1039C625.4 80.3519 624.728 81.0079 623.64 81.0079C622.216 81.0079 621.384 79.9039 621.384 77.9839C621.384 76.1119 622.216 74.9919 623.592 74.9919C624.68 74.9919 625.384 75.6639 625.528 76.8799L626.92 76.7199C626.712 74.8799 625.496 73.8079 623.624 73.8079C621.352 73.8079 619.944 75.3919 619.944 77.9999C619.944 80.5599 621.384 82.1919 623.624 82.1919Z" fill="black"/>
<path d="M630.75 82.1919C632.062 82.1919 633.07 81.5679 633.438 80.5439C633.454 81.0559 633.502 81.5839 633.566 81.9999H634.99C634.798 81.3759 634.718 80.5279 634.718 79.2959V77.1359C634.718 74.7999 633.758 73.8079 631.566 73.8079C629.694 73.8079 628.414 74.8799 628.302 76.5119H629.758C629.822 75.5039 630.494 74.9279 631.582 74.9279C632.814 74.9279 633.342 75.5199 633.342 76.9919V77.1199L631.854 77.2959C630.542 77.4559 629.774 77.6479 629.166 77.9519C628.446 78.3519 628.046 79.0399 628.046 79.8399C628.046 81.2639 629.118 82.1919 630.75 82.1919ZM631.054 81.0719C630.078 81.0719 629.486 80.5919 629.486 79.8079C629.486 79.0239 629.998 78.6079 631.182 78.4319L633.358 78.1119V78.5119C633.358 80.0639 632.446 81.0719 631.054 81.0719Z" fill="black"/>
<path d="M637.359 75.1199V79.5999C637.359 81.0879 637.807 82.1439 639.535 82.1439C640.047 82.1439 640.367 82.0959 640.719 81.9999V80.7519C640.447 80.8159 640.239 80.8639 639.887 80.8639C639.071 80.8639 638.719 80.4639 638.719 79.5519V75.1199H640.719V73.9999H638.719V71.3279L637.359 71.9039V73.9999H635.871V75.1199H637.359Z" fill="black"/>
<path d="M643.848 72.5119V70.7999H642.296V72.5119H643.848ZM643.752 81.9999V73.9999H642.392V81.9999H643.752Z" fill="black"/>
<path d="M649.314 82.1919C651.57 82.1919 653.042 80.6079 653.042 77.9999C653.042 75.3919 651.57 73.8079 649.314 73.8079C647.058 73.8079 645.586 75.3919 645.586 77.9999C645.586 80.6079 647.058 82.1919 649.314 82.1919ZM649.314 81.0079C647.874 81.0079 647.026 79.9839 647.026 77.9999C647.026 76.0159 647.874 74.9919 649.314 74.9919C650.754 74.9919 651.602 76.0159 651.602 77.9999C651.602 79.9839 650.754 81.0079 649.314 81.0079Z" fill="black"/>
<path d="M656.237 81.9999V77.8239C656.237 76.0479 657.053 74.9759 658.381 74.9759C659.549 74.9759 660.141 75.6959 660.141 77.1039V81.9999H661.501V77.0239C661.501 74.8959 660.589 73.8079 658.829 73.8079C657.565 73.8079 656.685 74.3839 656.157 75.5839V73.9999H654.877V81.9999H656.237Z" fill="black"/>
<path d="M492.264 103.192C494.264 103.192 495.56 101.496 495.56 98.9999C495.56 96.5519 494.296 94.8079 492.344 94.8079C491.096 94.8079 490.216 95.4959 489.8 96.3919V91.3999H488.44V103H489.48L489.72 101.624C490.136 102.552 491.048 103.192 492.264 103.192ZM491.896 101.992C490.552 101.992 489.768 100.904 489.768 99.2399V98.8239C489.768 97.0799 490.568 96.0079 491.912 96.0079C493.336 96.0079 494.12 97.2079 494.12 98.9999C494.12 100.824 493.288 101.992 491.896 101.992Z" fill="black"/>
<path d="M504.041 98.4399C504.041 96.0399 502.793 94.8079 500.633 94.8079C498.345 94.8079 497.001 96.4239 497.001 99.0959C497.001 101.736 498.361 103.192 500.649 103.192C502.265 103.192 503.433 102.424 503.993 100.968L502.873 100.472C502.521 101.448 501.769 101.992 500.745 101.992C499.321 101.992 498.377 100.968 498.361 99.3999H504.041V98.4399ZM498.361 98.2959C498.393 96.7919 499.193 95.8799 500.601 95.8799C501.913 95.8799 502.665 96.6479 502.665 98.1199V98.2959H498.361Z" fill="black"/>
<path d="M506.572 96.1199V100.6C506.572 102.088 507.02 103.144 508.748 103.144C509.26 103.144 509.58 103.096 509.932 103V101.752C509.66 101.816 509.452 101.864 509.1 101.864C508.284 101.864 507.932 101.464 507.932 100.552V96.1199H509.932V94.9999H507.932V92.3279L506.572 92.9039V94.9999H505.084V96.1199H506.572Z" fill="black"/>
<path d="M514.941 103L516.461 97.2399C516.525 96.9839 516.605 96.5839 516.637 96.3439H516.669C516.701 96.5839 516.781 96.9839 516.845 97.2399L518.365 103H519.853L522.109 94.9999H520.701L519.261 100.712C519.197 101 519.133 101.336 519.085 101.656H519.053C519.005 101.336 518.909 101 518.845 100.712L517.389 94.9999H515.917L514.461 100.712C514.397 101 514.301 101.336 514.253 101.656H514.221C514.173 101.336 514.109 101 514.045 100.712L512.605 94.9999H511.197L513.453 103H514.941Z" fill="black"/>
<path d="M530.198 98.4399C530.198 96.0399 528.95 94.8079 526.79 94.8079C524.502 94.8079 523.158 96.4239 523.158 99.0959C523.158 101.736 524.518 103.192 526.806 103.192C528.422 103.192 529.59 102.424 530.15 100.968L529.029 100.472C528.677 101.448 527.925 101.992 526.902 101.992C525.478 101.992 524.534 100.968 524.518 99.3999H530.198V98.4399ZM524.518 98.2959C524.55 96.7919 525.349 95.8799 526.757 95.8799C528.069 95.8799 528.821 96.6479 528.821 98.1199V98.2959H524.518Z" fill="black"/>
<path d="M538.76 98.4399C538.76 96.0399 537.512 94.8079 535.352 94.8079C533.064 94.8079 531.72 96.4239 531.72 99.0959C531.72 101.736 533.08 103.192 535.368 103.192C536.984 103.192 538.152 102.424 538.712 100.968L537.592 100.472C537.24 101.448 536.488 101.992 535.464 101.992C534.04 101.992 533.096 100.968 533.08 99.3999H538.76V98.4399ZM533.08 98.2959C533.112 96.7919 533.912 95.8799 535.32 95.8799C536.632 95.8799 537.384 96.6479 537.384 98.1199V98.2959H533.08Z" fill="black"/>
<path d="M542.362 103V98.8239C542.362 97.0479 543.179 95.9759 544.507 95.9759C545.674 95.9759 546.267 96.6959 546.267 98.1039V103H547.626V98.0239C547.626 95.8959 546.715 94.8079 544.954 94.8079C543.69 94.8079 542.811 95.3839 542.283 96.5839V94.9999H541.002V103H542.362Z" fill="black"/>
<path d="M555.784 106.12V101.736C556.136 102.52 557 103.192 558.232 103.192C560.168 103.192 561.544 101.56 561.544 98.9999C561.544 96.4719 560.248 94.8079 558.312 94.8079C557.144 94.8079 556.216 95.3839 555.704 96.4879V94.9999H554.424V106.12H555.784ZM557.912 101.992C556.584 101.992 555.752 100.904 555.752 99.1759V98.7919C555.752 97.0639 556.616 96.0079 557.96 96.0079C559.304 96.0079 560.104 97.1119 560.104 98.9999C560.104 100.872 559.272 101.992 557.912 101.992Z" fill="black"/>
<path d="M564.97 94.9999H563.706V103H565.066V99.5759C565.066 98.6159 565.098 97.5439 565.866 96.7759C566.25 96.3919 566.794 96.1519 567.626 96.1519H567.69V94.8239C567.594 94.8079 567.498 94.8079 567.402 94.8079C566.186 94.8079 565.354 95.7039 564.97 96.8239V94.9999Z" fill="black"/>
<path d="M572.385 103.192C574.641 103.192 576.114 101.608 576.114 98.9999C576.114 96.3919 574.641 94.8079 572.385 94.8079C570.13 94.8079 568.658 96.3919 568.658 98.9999C568.658 101.608 570.13 103.192 572.385 103.192ZM572.385 102.008C570.945 102.008 570.098 100.984 570.098 98.9999C570.098 97.0159 570.945 95.9919 572.385 95.9919C573.826 95.9919 574.674 97.0159 574.674 98.9999C574.674 100.984 573.826 102.008 572.385 102.008Z" fill="black"/>
<path d="M581.262 103L584.158 94.9999H582.686L580.894 100.392C580.75 100.824 580.638 101.24 580.558 101.608H580.51C580.43 101.24 580.318 100.824 580.174 100.392L578.382 94.9999H576.91L579.806 103H581.262Z" fill="black"/>
<path d="M587.209 93.5119V91.7999H585.657V93.5119H587.209ZM587.113 103V94.9999H585.753V103H587.113Z" fill="black"/>
<path d="M592.515 103.192C593.763 103.192 594.627 102.584 595.107 101.512V103H596.387V91.3999H595.027V96.1839C594.515 95.2399 593.731 94.8079 592.675 94.8079C590.675 94.8079 589.267 96.5359 589.267 98.9999C589.267 101.512 590.579 103.192 592.515 103.192ZM592.883 101.992C591.523 101.992 590.707 100.872 590.707 98.9999C590.707 97.1119 591.523 96.0079 592.883 96.0079C594.227 96.0079 595.059 97.0799 595.059 98.8239V99.1919C595.059 100.904 594.211 101.992 592.883 101.992Z" fill="black"/>
<path d="M605.588 98.4399C605.588 96.0399 604.34 94.8079 602.18 94.8079C599.892 94.8079 598.548 96.4239 598.548 99.0959C598.548 101.736 599.908 103.192 602.196 103.192C603.812 103.192 604.98 102.424 605.54 100.968L604.42 100.472C604.068 101.448 603.316 101.992 602.292 101.992C600.868 101.992 599.924 100.968 599.908 99.3999H605.588V98.4399ZM599.908 98.2959C599.94 96.7919 600.74 95.8799 602.148 95.8799C603.46 95.8799 604.212 96.6479 604.212 98.1199V98.2959H599.908Z" fill="black"/>
<path d="M609.095 94.9999H607.831V103H609.191V99.5759C609.191 98.6159 609.223 97.5439 609.991 96.7759C610.375 96.3919 610.919 96.1519 611.751 96.1519H611.815V94.8239C611.719 94.8079 611.623 94.8079 611.527 94.8079C610.311 94.8079 609.479 95.7039 609.095 96.8239V94.9999Z" fill="black"/>
<path d="M616.207 103.192C618.159 103.192 619.263 102.184 619.263 100.744C619.263 99.5759 618.623 98.8399 617.183 98.5679L615.631 98.2799C614.847 98.1359 614.399 97.8159 614.399 97.1439C614.399 96.3599 615.023 95.9119 616.047 95.9119C617.135 95.9119 617.759 96.4719 617.935 97.2719L619.279 96.9679C619.119 95.6239 617.903 94.8079 616.111 94.8079C614.223 94.8079 613.071 95.8319 613.071 97.2079C613.071 98.4239 613.839 99.1919 615.199 99.4479L616.767 99.7359C617.487 99.8639 617.919 100.152 617.919 100.856C617.919 101.544 617.327 102.072 616.255 102.072C615.087 102.072 614.335 101.496 614.143 100.488L612.767 100.728C613.039 102.312 614.319 103.192 616.207 103.192Z" fill="black"/>
<path d="M627.658 103.192C628.97 103.192 629.978 102.568 630.346 101.544C630.362 102.056 630.41 102.584 630.474 103H631.898C631.706 102.376 631.626 101.528 631.626 100.296V98.1359C631.626 95.7999 630.666 94.8079 628.474 94.8079C626.602 94.8079 625.322 95.8799 625.21 97.5119H626.666C626.73 96.5039 627.402 95.9279 628.49 95.9279C629.722 95.9279 630.25 96.5199 630.25 97.9919V98.1199L628.762 98.2959C627.45 98.4559 626.682 98.6479 626.074 98.9519C625.354 99.3519 624.954 100.04 624.954 100.84C624.954 102.264 626.026 103.192 627.658 103.192ZM627.962 102.072C626.986 102.072 626.394 101.592 626.394 100.808C626.394 100.024 626.906 99.6079 628.09 99.4319L630.266 99.1119V99.5119C630.266 101.064 629.354 102.072 627.962 102.072Z" fill="black"/>
<path d="M635.659 103V98.8239C635.659 97.0479 636.475 95.9759 637.803 95.9759C638.971 95.9759 639.563 96.6959 639.563 98.1039V103H640.923V98.0239C640.923 95.8959 640.011 94.8079 638.251 94.8079C636.987 94.8079 636.107 95.3839 635.579 96.5839V94.9999H634.299V103H635.659Z" fill="black"/>
<path d="M646.093 103.192C647.341 103.192 648.205 102.584 648.685 101.512V103H649.965V91.3999H648.605V96.1839C648.093 95.2399 647.309 94.8079 646.253 94.8079C644.253 94.8079 642.845 96.5359 642.845 98.9999C642.845 101.512 644.157 103.192 646.093 103.192ZM646.461 101.992C645.101 101.992 644.285 100.872 644.285 98.9999C644.285 97.1119 645.101 96.0079 646.461 96.0079C647.805 96.0079 648.637 97.0799 648.637 98.8239V99.1919C648.637 100.904 647.789 101.992 646.461 101.992Z" fill="black"/>
<path d="M492.84 124.272C495.576 124.272 496.952 122.576 497.384 120.432L495.912 120.176C495.592 121.872 494.456 122.944 492.84 122.944C490.52 122.944 489.32 120.928 489.32 118.272C489.32 115.52 490.584 113.664 492.808 113.664C494.568 113.664 495.608 114.8 495.832 116.512L497.384 116.352C497.096 114 495.656 112.368 492.888 112.368C489.512 112.368 487.72 114.8 487.72 118.288C487.72 121.584 489.32 124.272 492.84 124.272Z" fill="black"/>
<path d="M505.455 118.128C506.751 117.76 507.359 116.736 507.359 115.664C507.359 114.32 506.575 112.64 503.583 112.64H499.631V124H503.919C506.799 124 507.679 122.336 507.679 120.88C507.679 119.36 506.815 118.368 505.455 118.128ZM503.583 113.92C505.423 113.92 505.855 114.88 505.855 115.776C505.855 116.56 505.535 117.568 503.583 117.568H501.151V113.92H503.583ZM501.151 122.72V118.848H503.999C505.551 118.848 506.175 119.68 506.175 120.736C506.175 121.76 505.615 122.72 503.839 122.72H501.151Z" fill="black"/>
<path d="M514.326 124.272C517.462 124.272 519.51 122 519.51 118.32C519.51 114.608 517.462 112.368 514.326 112.368C511.174 112.368 509.126 114.608 509.126 118.32C509.126 121.952 511.174 124.272 514.326 124.272ZM514.326 122.992C512.054 122.992 510.726 121.168 510.726 118.32C510.726 115.408 512.054 113.648 514.326 113.648C516.598 113.648 517.91 115.408 517.91 118.32C517.91 121.216 516.598 122.992 514.326 122.992Z" fill="black"/>
<path d="M524.394 124.192C526.346 124.192 527.45 123.184 527.45 121.744C527.45 120.576 526.81 119.84 525.37 119.568L523.818 119.28C523.034 119.136 522.586 118.816 522.586 118.144C522.586 117.36 523.21 116.912 524.234 116.912C525.322 116.912 525.946 117.472 526.122 118.272L527.466 117.968C527.306 116.624 526.09 115.808 524.298 115.808C522.41 115.808 521.258 116.832 521.258 118.208C521.258 119.424 522.026 120.192 523.386 120.448L524.954 120.736C525.674 120.864 526.106 121.152 526.106 121.856C526.106 122.544 525.514 123.072 524.442 123.072C523.274 123.072 522.522 122.496 522.33 121.488L520.954 121.728C521.226 123.312 522.506 124.192 524.394 124.192Z" fill="black"/>
<path d="M224.188 0.000488281H440.984L466.948 77.8439L440.984 155.687H224.188L250.152 77.8439L224.188 0.000488281Z" fill="#FF938E"/>
<path d="M277.62 52.4421C282.118 52.4421 284.64 49.8161 285.42 46.1241L282.092 45.4481C281.624 48.0481 280.012 49.6341 277.646 49.6341C274.266 49.6341 272.446 46.7481 272.446 42.7181C272.446 38.5841 274.318 35.8541 277.568 35.8541C280.116 35.8541 281.65 37.5181 281.962 40.1441L285.394 39.6501C284.9 35.7241 282.274 33.0981 277.672 33.0981C272.134 33.0981 268.988 36.9981 268.988 42.7441C268.988 48.3341 271.822 52.4421 277.62 52.4421Z" fill="black"/>
<path d="M293.842 52.3121C297.586 52.3121 300.212 49.8421 300.212 45.4741C300.212 41.1321 297.586 38.6881 293.842 38.6881C290.098 38.6881 287.472 41.1321 287.472 45.4741C287.472 49.8421 290.098 52.3121 293.842 52.3121ZM293.842 49.9461C291.84 49.9461 290.644 48.4381 290.644 45.4741C290.644 42.5101 291.84 41.0541 293.842 41.0541C295.844 41.0541 297.014 42.5101 297.014 45.4741C297.014 48.4381 295.844 49.9461 293.842 49.9461Z" fill="black"/>
<path d="M306.411 52.0001V45.1101C306.411 42.6401 307.503 41.1841 309.323 41.1841C310.961 41.1841 311.741 42.1981 311.741 44.2521V52.0001H314.887V43.9401C314.887 40.4561 313.405 38.6881 310.571 38.6881C308.569 38.6881 307.139 39.6241 306.255 41.5221V39.0001H303.291V52.0001H306.411Z" fill="black"/>
<path d="M321.823 52.0001V45.1101C321.823 42.6401 322.915 41.1841 324.735 41.1841C326.373 41.1841 327.153 42.1981 327.153 44.2521V52.0001H330.299V43.9401C330.299 40.4561 328.817 38.6881 325.983 38.6881C323.981 38.6881 322.551 39.6241 321.667 41.5221V39.0001H318.703V52.0001H321.823Z" fill="black"/>
<path d="M345.165 44.8501C345.165 40.8721 343.007 38.6881 339.237 38.6881C335.363 38.6881 333.023 41.3401 333.023 45.6301C333.023 49.8941 335.415 52.3121 339.393 52.3121C342.045 52.3121 344.099 51.0641 345.061 48.8021L342.669 47.7101C342.071 49.1141 340.979 49.8681 339.497 49.8681C337.443 49.8681 336.065 48.4641 336.039 46.2801H345.165V44.8501ZM336.039 44.2261C336.091 42.0681 337.209 40.7681 339.185 40.7681C341.031 40.7681 342.097 41.8861 342.097 44.0181V44.2261H336.039Z" fill="black"/>
<path d="M353.637 52.3121C356.731 52.3121 358.915 50.5441 359.383 47.6581L356.445 47.0601C356.159 48.8801 355.197 49.8421 353.637 49.8421C351.635 49.8421 350.465 48.2301 350.465 45.4221C350.465 42.7441 351.661 41.1321 353.585 41.1321C355.119 41.1321 356.133 42.0941 356.341 43.8621L359.383 43.3681C358.993 40.4041 356.887 38.6881 353.663 38.6881C349.711 38.6881 347.267 41.2621 347.267 45.5001C347.267 49.6341 349.763 52.3121 353.637 52.3121Z" fill="black"/>
<path d="M362.896 41.2621V47.9701C362.896 50.5961 363.936 52.2341 367.056 52.2341C367.862 52.2341 368.434 52.1561 369.188 52.0001V49.3741C368.772 49.4521 368.434 49.5301 367.914 49.5301C366.614 49.5301 366.016 48.8541 366.016 47.4761V41.2621H369.188V39.0001H366.016V34.4761L362.896 35.7241V39.0001H360.556V41.2621H362.896Z" fill="black"/>
<path d="M375.299 36.8421V33.5921H371.919V36.8421H375.299ZM375.169 52.0001V39.0001H372.049V52.0001H375.169Z" fill="black"/>
<path d="M384.588 52.3121C388.332 52.3121 390.958 49.8421 390.958 45.4741C390.958 41.1321 388.332 38.6881 384.588 38.6881C380.844 38.6881 378.218 41.1321 378.218 45.4741C378.218 49.8421 380.844 52.3121 384.588 52.3121ZM384.588 49.9461C382.586 49.9461 381.39 48.4381 381.39 45.4741C381.39 42.5101 382.586 41.0541 384.588 41.0541C386.59 41.0541 387.76 42.5101 387.76 45.4741C387.76 48.4381 386.59 49.9461 384.588 49.9461Z" fill="black"/>
<path d="M397.157 52.0001V45.1101C397.157 42.6401 398.249 41.1841 400.069 41.1841C401.707 41.1841 402.487 42.1981 402.487 44.2521V52.0001H405.633V43.9401C405.633 40.4561 404.151 38.6881 401.317 38.6881C399.315 38.6881 397.885 39.6241 397.001 41.5221V39.0001H394.037V52.0001H397.157Z" fill="black"/>
<path d="M414.207 52.3121C417.613 52.3121 419.537 50.6481 419.537 48.2041C419.537 46.1501 418.471 44.9021 415.949 44.4601L413.401 43.9921C412.257 43.7841 411.685 43.3941 411.685 42.5101C411.685 41.4961 412.491 40.9501 413.947 40.9501C415.663 40.9501 416.807 41.6781 417.431 42.8481L419.615 41.6781C418.991 39.8061 416.885 38.6881 414.129 38.6881C410.827 38.6881 408.825 40.3521 408.825 42.6921C408.825 44.7721 410.099 46.0461 412.543 46.4881L414.857 46.9041C416.131 47.1121 416.703 47.4761 416.703 48.4121C416.703 49.3481 415.871 50.0241 414.285 50.0241C412.439 50.0241 411.139 49.1921 410.541 47.7361L408.227 48.7761C409.033 51.0641 411.243 52.3121 414.207 52.3121Z" fill="black"/>
<path d="M269.6 70.6402V82.0002H271.12V77.3602H273.632C275.984 77.3602 277.488 76.0482 277.488 74.0002C277.488 71.9522 275.984 70.6402 273.632 70.6402H269.6ZM271.12 76.0802V71.9202H273.472C274.944 71.9202 275.888 72.7362 275.888 74.0002C275.888 75.2642 274.944 76.0802 273.472 76.0802H271.12Z" fill="black"/>
<path d="M280.673 74.0002H279.409V82.0002H280.769V78.5762C280.769 77.6162 280.801 76.5442 281.569 75.7762C281.953 75.3922 282.497 75.1522 283.329 75.1522H283.393V73.8242C283.297 73.8082 283.201 73.8082 283.105 73.8082C281.889 73.8082 281.057 74.7042 280.673 75.8242V74.0002Z" fill="black"/>
<path d="M288.089 82.1922C290.345 82.1922 291.817 80.6082 291.817 78.0002C291.817 75.3922 290.345 73.8082 288.089 73.8082C285.833 73.8082 284.361 75.3922 284.361 78.0002C284.361 80.6082 285.833 82.1922 288.089 82.1922ZM288.089 81.0082C286.649 81.0082 285.801 79.9842 285.801 78.0002C285.801 76.0162 286.649 74.9922 288.089 74.9922C289.529 74.9922 290.377 76.0162 290.377 78.0002C290.377 79.9842 289.529 81.0082 288.089 81.0082Z" fill="black"/>
<path d="M296.965 82.0002L299.861 74.0002H298.389L296.597 79.3922C296.453 79.8242 296.341 80.2402 296.261 80.6082H296.213C296.133 80.2402 296.021 79.8242 295.877 79.3922L294.085 74.0002H292.613L295.509 82.0002H296.965Z" fill="black"/>
<path d="M302.912 72.5122V70.8002H301.36V72.5122H302.912ZM302.816 82.0002V74.0002H301.456V82.0002H302.816Z" fill="black"/>
<path d="M308.218 82.1922C309.466 82.1922 310.33 81.5842 310.81 80.5122V82.0002H312.09V70.4002H310.73V75.1842C310.218 74.2402 309.434 73.8082 308.378 73.8082C306.378 73.8082 304.97 75.5362 304.97 78.0002C304.97 80.5122 306.282 82.1922 308.218 82.1922ZM308.586 80.9922C307.226 80.9922 306.41 79.8722 306.41 78.0002C306.41 76.1122 307.226 75.0082 308.586 75.0082C309.93 75.0082 310.762 76.0802 310.762 77.8242V78.1922C310.762 79.9042 309.914 80.9922 308.586 80.9922Z" fill="black"/>
<path d="M321.291 77.4402C321.291 75.0402 320.043 73.8082 317.883 73.8082C315.595 73.8082 314.251 75.4242 314.251 78.0962C314.251 80.7362 315.611 82.1922 317.899 82.1922C319.515 82.1922 320.683 81.4242 321.243 79.9682L320.123 79.4722C319.771 80.4482 319.019 80.9922 317.995 80.9922C316.571 80.9922 315.627 79.9682 315.611 78.4002H321.291V77.4402ZM315.611 77.2962C315.643 75.7922 316.443 74.8802 317.851 74.8802C319.163 74.8802 319.915 75.6482 319.915 77.1202V77.2962H315.611Z" fill="black"/>
<path d="M328.954 74.0002H327.69V82.0002H329.05V78.5762C329.05 77.6162 329.082 76.5442 329.85 75.7762C330.234 75.3922 330.778 75.1522 331.61 75.1522H331.674V73.8242C331.578 73.8082 331.482 73.8082 331.386 73.8082C330.17 73.8082 329.338 74.7042 328.954 75.8242V74.0002Z" fill="black"/>
<path d="M339.682 77.4402C339.682 75.0402 338.434 73.8082 336.274 73.8082C333.986 73.8082 332.642 75.4242 332.642 78.0962C332.642 80.7362 334.002 82.1922 336.29 82.1922C337.906 82.1922 339.074 81.4242 339.634 79.9682L338.514 79.4722C338.162 80.4482 337.41 80.9922 336.386 80.9922C334.962 80.9922 334.018 79.9682 334.002 78.4002H339.682V77.4402ZM334.002 77.2962C334.034 75.7922 334.834 74.8802 336.242 74.8802C337.554 74.8802 338.306 75.6482 338.306 77.1202V77.2962H334.002Z" fill="black"/>
<path d="M343.636 74.0002V72.9282C343.636 71.9522 343.972 71.5042 344.788 71.5042C345.044 71.5042 345.348 71.5362 345.636 71.5842V70.4162C345.332 70.3362 344.996 70.3042 344.612 70.3042C343.188 70.3042 342.276 71.2802 342.276 72.7362V74.0002H340.804V75.1202H342.276V82.0002H343.636V75.1202H345.636V74.0002H343.636Z" fill="black"/>
<path d="M353.557 77.4402C353.557 75.0402 352.309 73.8082 350.149 73.8082C347.861 73.8082 346.517 75.4242 346.517 78.0962C346.517 80.7362 347.877 82.1922 350.165 82.1922C351.781 82.1922 352.949 81.4242 353.509 79.9682L352.389 79.4722C352.037 80.4482 351.285 80.9922 350.261 80.9922C348.837 80.9922 347.893 79.9682 347.877 78.4002H353.557V77.4402ZM347.877 77.2962C347.909 75.7922 348.709 74.8802 350.117 74.8802C351.429 74.8802 352.181 75.6482 352.181 77.1202V77.2962H347.877Z" fill="black"/>
<path d="M357.063 74.0002H355.799V82.0002H357.159V78.5762C357.159 77.6162 357.191 76.5442 357.959 75.7762C358.343 75.3922 358.887 75.1522 359.719 75.1522H359.783V73.8242C359.687 73.8082 359.591 73.8082 359.495 73.8082C358.279 73.8082 357.447 74.7042 357.063 75.8242V74.0002Z" fill="black"/>
<path d="M362.813 74.0002H361.549V82.0002H362.909V78.5762C362.909 77.6162 362.941 76.5442 363.709 75.7762C364.093 75.3922 364.637 75.1522 365.469 75.1522H365.533V73.8242C365.437 73.8082 365.341 73.8082 365.245 73.8082C364.029 73.8082 363.197 74.7042 362.813 75.8242V74.0002Z" fill="black"/>
<path d="M369.19 82.1922C370.502 82.1922 371.51 81.5682 371.878 80.5442C371.894 81.0562 371.942 81.5842 372.006 82.0002H373.43C373.238 81.3762 373.158 80.5282 373.158 79.2962V77.1362C373.158 74.8002 372.198 73.8082 370.006 73.8082C368.134 73.8082 366.854 74.8802 366.742 76.5122H368.198C368.262 75.5042 368.934 74.9282 370.022 74.9282C371.254 74.9282 371.782 75.5202 371.782 76.9922V77.1202L370.294 77.2962C368.982 77.4562 368.214 77.6482 367.606 77.9522C366.886 78.3522 366.486 79.0402 366.486 79.8402C366.486 81.2642 367.558 82.1922 369.19 82.1922ZM369.494 81.0722C368.518 81.0722 367.926 80.5922 367.926 79.8082C367.926 79.0242 368.438 78.6082 369.622 78.4322L371.798 78.1122V78.5122C371.798 80.0642 370.886 81.0722 369.494 81.0722Z" fill="black"/>
<path d="M375.831 70.4002V82.0002H377.191V70.4002H375.831Z" fill="black"/>
<path d="M382.785 82.1922C384.737 82.1922 385.841 81.1842 385.841 79.7442C385.841 78.5762 385.201 77.8402 383.761 77.5682L382.209 77.2802C381.425 77.1362 380.977 76.8162 380.977 76.1442C380.977 75.3602 381.601 74.9122 382.625 74.9122C383.713 74.9122 384.337 75.4722 384.513 76.2722L385.857 75.9682C385.697 74.6242 384.481 73.8082 382.689 73.8082C380.801 73.8082 379.649 74.8322 379.649 76.2082C379.649 77.4242 380.417 78.1922 381.777 78.4482L383.345 78.7362C384.065 78.8642 384.497 79.1522 384.497 79.8562C384.497 80.5442 383.905 81.0722 382.833 81.0722C381.665 81.0722 380.913 80.4962 380.721 79.4882L379.345 79.7282C379.617 81.3122 380.897 82.1922 382.785 82.1922Z" fill="black"/>
<path d="M392.54 75.1202V79.6002C392.54 81.0882 392.989 82.1442 394.716 82.1442C395.229 82.1442 395.549 82.0962 395.9 82.0002V80.7522C395.628 80.8162 395.42 80.8642 395.068 80.8642C394.252 80.8642 393.9 80.4642 393.9 79.5522V75.1202H395.9V74.0002H393.9V71.3282L392.54 71.9042V74.0002H391.052V75.1202H392.54Z" fill="black"/>
<path d="M400.823 82.1922C403.079 82.1922 404.551 80.6082 404.551 78.0002C404.551 75.3922 403.079 73.8082 400.823 73.8082C398.567 73.8082 397.095 75.3922 397.095 78.0002C397.095 80.6082 398.567 82.1922 400.823 82.1922ZM400.823 81.0082C399.383 81.0082 398.535 79.9842 398.535 78.0002C398.535 76.0162 399.383 74.9922 400.823 74.9922C402.263 74.9922 403.111 76.0162 403.111 78.0002C403.111 79.9842 402.263 81.0082 400.823 81.0082Z" fill="black"/>
<path d="M272.16 103.192C274.112 103.192 275.216 102.184 275.216 100.744C275.216 99.5762 274.576 98.8402 273.136 98.5682L271.584 98.2802C270.8 98.1362 270.352 97.8162 270.352 97.1442C270.352 96.3602 270.976 95.9122 272 95.9122C273.088 95.9122 273.712 96.4722 273.888 97.2722L275.232 96.9682C275.072 95.6242 273.856 94.8082 272.064 94.8082C270.176 94.8082 269.024 95.8322 269.024 97.2082C269.024 98.4242 269.792 99.1922 271.152 99.4482L272.72 99.7362C273.44 99.8642 273.872 100.152 273.872 100.856C273.872 101.544 273.28 102.072 272.208 102.072C271.04 102.072 270.288 101.496 270.096 100.488L268.72 100.728C268.992 102.312 270.272 103.192 272.16 103.192Z" fill="black"/>
<path d="M283.791 98.4402C283.791 96.0402 282.543 94.8082 280.383 94.8082C278.095 94.8082 276.751 96.4242 276.751 99.0962C276.751 101.736 278.111 103.192 280.399 103.192C282.015 103.192 283.183 102.424 283.743 100.968L282.623 100.472C282.271 101.448 281.519 101.992 280.495 101.992C279.071 101.992 278.127 100.968 278.111 99.4002H283.791V98.4402ZM278.111 98.2962C278.143 96.7922 278.943 95.8802 280.351 95.8802C281.663 95.8802 282.415 96.6482 282.415 98.1202V98.2962H278.111Z" fill="black"/>
<path d="M287.298 95.0002H286.034V103H287.394V99.5762C287.394 98.6162 287.426 97.5442 288.194 96.7762C288.578 96.3922 289.122 96.1522 289.954 96.1522H290.018V94.8242C289.922 94.8082 289.826 94.8082 289.73 94.8082C288.514 94.8082 287.682 95.7042 287.298 96.8242V95.0002Z" fill="black"/>
<path d="M295.2 103L298.096 95.0002H296.624L294.832 100.392C294.688 100.824 294.576 101.24 294.496 101.608H294.448C294.368 101.24 294.256 100.824 294.112 100.392L292.32 95.0002H290.848L293.744 103H295.2Z" fill="black"/>
<path d="M301.146 93.5122V91.8002H299.594V93.5122H301.146ZM301.05 103V95.0002H299.69V103H301.05Z" fill="black"/>
<path d="M306.884 103.192C308.676 103.192 309.876 102.136 310.164 100.312L308.868 100.104C308.66 101.352 307.988 102.008 306.9 102.008C305.476 102.008 304.644 100.904 304.644 98.9842C304.644 97.1122 305.476 95.9922 306.852 95.9922C307.94 95.9922 308.644 96.6642 308.788 97.8802L310.18 97.7202C309.972 95.8802 308.756 94.8082 306.884 94.8082C304.612 94.8082 303.204 96.3922 303.204 99.0002C303.204 101.56 304.644 103.192 306.884 103.192Z" fill="black"/>
<path d="M318.666 98.4402C318.666 96.0402 317.418 94.8082 315.258 94.8082C312.97 94.8082 311.626 96.4242 311.626 99.0962C311.626 101.736 312.986 103.192 315.274 103.192C316.89 103.192 318.058 102.424 318.618 100.968L317.498 100.472C317.146 101.448 316.394 101.992 315.37 101.992C313.946 101.992 313.002 100.968 312.986 99.4002H318.666V98.4402ZM312.986 98.2962C313.018 96.7922 313.818 95.8802 315.226 95.8802C316.538 95.8802 317.29 96.6482 317.29 98.1202V98.2962H312.986Z" fill="black"/>
<path d="M323.629 103.192C325.581 103.192 326.685 102.184 326.685 100.744C326.685 99.5762 326.045 98.8402 324.605 98.5682L323.053 98.2802C322.269 98.1362 321.821 97.8162 321.821 97.1442C321.821 96.3602 322.445 95.9122 323.469 95.9122C324.557 95.9122 325.181 96.4722 325.357 97.2722L326.701 96.9682C326.541 95.6242 325.325 94.8082 323.533 94.8082C321.645 94.8082 320.493 95.8322 320.493 97.2082C320.493 98.4242 321.261 99.1922 322.621 99.4482L324.189 99.7362C324.909 99.8642 325.341 100.152 325.341 100.856C325.341 101.544 324.749 102.072 323.677 102.072C322.509 102.072 321.757 101.496 321.565 100.488L320.189 100.728C320.461 102.312 321.741 103.192 323.629 103.192Z" fill="black"/>
<path d="M336.92 103.192C338.92 103.192 340.216 101.496 340.216 99.0002C340.216 96.5522 338.952 94.8082 337 94.8082C335.752 94.8082 334.872 95.4962 334.456 96.3922V91.4002H333.096V103H334.136L334.376 101.624C334.792 102.552 335.704 103.192 336.92 103.192ZM336.552 101.992C335.208 101.992 334.424 100.904 334.424 99.2402V98.8242C334.424 97.0802 335.224 96.0082 336.568 96.0082C337.992 96.0082 338.776 97.2082 338.776 99.0002C338.776 100.824 337.944 101.992 336.552 101.992Z" fill="black"/>
<path d="M344.362 103.192C345.674 103.192 346.682 102.568 347.049 101.544C347.065 102.056 347.113 102.584 347.177 103H348.602C348.41 102.376 348.329 101.528 348.329 100.296V98.1362C348.329 95.8002 347.369 94.8082 345.177 94.8082C343.305 94.8082 342.025 95.8802 341.913 97.5122H343.369C343.434 96.5042 344.105 95.9282 345.193 95.9282C346.425 95.9282 346.953 96.5202 346.953 97.9922V98.1202L345.465 98.2962C344.154 98.4562 343.385 98.6482 342.777 98.9522C342.057 99.3522 341.658 100.04 341.658 100.84C341.658 102.264 342.729 103.192 344.362 103.192ZM344.665 102.072C343.689 102.072 343.098 101.592 343.098 100.808C343.098 100.024 343.61 99.6082 344.794 99.4322L346.969 99.1122V99.5122C346.969 101.064 346.057 102.072 344.665 102.072Z" fill="black"/>
<path d="M353.723 103.192C355.675 103.192 356.779 102.184 356.779 100.744C356.779 99.5762 356.139 98.8402 354.699 98.5682L353.146 98.2802C352.363 98.1362 351.914 97.8162 351.914 97.1442C351.914 96.3602 352.538 95.9122 353.562 95.9122C354.65 95.9122 355.274 96.4722 355.451 97.2722L356.795 96.9682C356.635 95.6242 355.419 94.8082 353.627 94.8082C351.739 94.8082 350.587 95.8322 350.587 97.2082C350.587 98.4242 351.354 99.1922 352.715 99.4482L354.283 99.7362C355.003 99.8642 355.435 100.152 355.435 100.856C355.435 101.544 354.842 102.072 353.771 102.072C352.603 102.072 351.851 101.496 351.659 100.488L350.283 100.728C350.555 102.312 351.835 103.192 353.723 103.192Z" fill="black"/>
<path d="M365.354 98.4402C365.354 96.0402 364.106 94.8082 361.946 94.8082C359.658 94.8082 358.314 96.4242 358.314 99.0962C358.314 101.736 359.674 103.192 361.962 103.192C363.578 103.192 364.746 102.424 365.306 100.968L364.186 100.472C363.834 101.448 363.082 101.992 362.058 101.992C360.634 101.992 359.69 100.968 359.674 99.4002H365.354V98.4402ZM359.674 98.2962C359.706 96.7922 360.506 95.8802 361.914 95.8802C363.226 95.8802 363.978 96.6482 363.978 98.1202V98.2962H359.674Z" fill="black"/>
<path d="M370.124 103.192C371.372 103.192 372.236 102.584 372.716 101.512V103H373.996V91.4002H372.636V96.1842C372.124 95.2402 371.34 94.8082 370.284 94.8082C368.284 94.8082 366.876 96.5362 366.876 99.0002C366.876 101.512 368.188 103.192 370.124 103.192ZM370.492 101.992C369.132 101.992 368.316 100.872 368.316 99.0002C368.316 97.1122 369.132 96.0082 370.492 96.0082C371.836 96.0082 372.668 97.0802 372.668 98.8242V99.1922C372.668 100.904 371.82 101.992 370.492 101.992Z" fill="black"/>
<path d="M384.042 103.192C386.298 103.192 387.77 101.608 387.77 99.0002C387.77 96.3922 386.298 94.8082 384.042 94.8082C381.786 94.8082 380.314 96.3922 380.314 99.0002C380.314 101.608 381.786 103.192 384.042 103.192ZM384.042 102.008C382.602 102.008 381.754 100.984 381.754 99.0002C381.754 97.0162 382.602 95.9922 384.042 95.9922C385.482 95.9922 386.33 97.0162 386.33 99.0002C386.33 100.984 385.482 102.008 384.042 102.008Z" fill="black"/>
<path d="M391.284 103V98.8242C391.284 97.0482 392.1 95.9762 393.428 95.9762C394.596 95.9762 395.188 96.6962 395.188 98.1042V103H396.548V98.0242C396.548 95.8962 395.636 94.8082 393.876 94.8082C392.612 94.8082 391.732 95.3842 391.204 96.5842V95.0002H389.924V103H391.284Z" fill="black"/>
<path d="M270.8 124V119.824C270.8 118.048 271.616 116.976 272.944 116.976C274.112 116.976 274.704 117.696 274.704 119.104V124H276.064V119.024C276.064 116.896 275.152 115.808 273.392 115.808C272.128 115.808 271.248 116.384 270.72 117.584V116H269.44V124H270.8Z" fill="black"/>
<path d="M285.026 119.44C285.026 117.04 283.778 115.808 281.618 115.808C279.33 115.808 277.986 117.424 277.986 120.096C277.986 122.736 279.346 124.192 281.634 124.192C283.25 124.192 284.418 123.424 284.978 121.968L283.858 121.472C283.506 122.448 282.754 122.992 281.73 122.992C280.306 122.992 279.362 121.968 279.346 120.4H285.026V119.44ZM279.346 119.296C279.378 117.792 280.178 116.88 281.586 116.88C282.898 116.88 283.65 117.648 283.65 119.12V119.296H279.346Z" fill="black"/>
<path d="M293.588 119.44C293.588 117.04 292.34 115.808 290.18 115.808C287.892 115.808 286.548 117.424 286.548 120.096C286.548 122.736 287.908 124.192 290.196 124.192C291.812 124.192 292.98 123.424 293.54 121.968L292.42 121.472C292.068 122.448 291.316 122.992 290.292 122.992C288.868 122.992 287.924 121.968 287.908 120.4H293.588V119.44ZM287.908 119.296C287.94 117.792 288.74 116.88 290.148 116.88C291.46 116.88 292.212 117.648 292.212 119.12V119.296H287.908Z" fill="black"/>
<path d="M298.359 124.192C299.607 124.192 300.471 123.584 300.951 122.512V124H302.231V112.4H300.871V117.184C300.359 116.24 299.575 115.808 298.519 115.808C296.519 115.808 295.111 117.536 295.111 120C295.111 122.512 296.423 124.192 298.359 124.192ZM298.727 122.992C297.367 122.992 296.551 121.872 296.551 120C296.551 118.112 297.367 117.008 298.727 117.008C300.071 117.008 300.903 118.08 300.903 119.824V120.192C300.903 121.904 300.055 122.992 298.727 122.992Z" fill="black"/>
<path d="M307.832 124.192C309.784 124.192 310.888 123.184 310.888 121.744C310.888 120.576 310.248 119.84 308.808 119.568L307.256 119.28C306.472 119.136 306.024 118.816 306.024 118.144C306.024 117.36 306.648 116.912 307.672 116.912C308.76 116.912 309.384 117.472 309.56 118.272L310.904 117.968C310.744 116.624 309.528 115.808 307.736 115.808C305.848 115.808 304.696 116.832 304.696 118.208C304.696 119.424 305.464 120.192 306.824 120.448L308.392 120.736C309.112 120.864 309.544 121.152 309.544 121.856C309.544 122.544 308.952 123.072 307.88 123.072C306.712 123.072 305.96 122.496 305.768 121.488L304.392 121.728C304.664 123.312 305.944 124.192 307.832 124.192Z" fill="black"/>
<path d="M0 0H219.028L245 78L219.028 156H0V0Z" fill="#E2231A"/>
<path d="M39.5361 52.6023C44.2681 52.6023 46.6601 50.1063 46.6601 46.9343C46.6601 43.6583 44.6321 42.2543 41.5901 41.6043L38.8861 41.0323C36.8841 40.5903 36.0261 39.8103 36.0261 38.3023C36.0261 36.7423 37.3781 35.8063 39.4061 35.8063C41.8501 35.8063 43.3841 37.0283 43.9821 39.1603L46.6341 37.7563C45.8281 34.6883 43.0461 33.2583 39.5621 33.2583C35.4021 33.2583 32.7761 35.3643 32.7761 38.5623C32.7761 41.7083 34.7261 43.2683 37.6381 43.8663L40.2121 44.4123C42.2401 44.8283 43.3321 45.4523 43.3321 47.2463C43.3321 49.1703 41.5641 49.9243 39.6661 49.9243C36.7801 49.9243 35.2721 48.2603 34.6741 46.1803L31.8141 47.4283C32.5681 50.4443 35.1681 52.6023 39.5361 52.6023Z" fill="white"/>
<path d="M54.9498 52.4723C58.0438 52.4723 60.2278 50.7043 60.6958 47.8183L57.7578 47.2203C57.4718 49.0403 56.5098 50.0023 54.9498 50.0023C52.9478 50.0023 51.7778 48.3903 51.7778 45.5823C51.7778 42.9043 52.9738 41.2923 54.8978 41.2923C56.4318 41.2923 57.4458 42.2543 57.6538 44.0223L60.6958 43.5283C60.3058 40.5643 58.1998 38.8483 54.9758 38.8483C51.0238 38.8483 48.5798 41.4223 48.5798 45.6603C48.5798 49.7943 51.0758 52.4723 54.9498 52.4723Z" fill="white"/>
<path d="M66.6248 39.1603H63.7128V52.1603H66.8328V46.7263C66.8328 45.2703 66.9628 43.7883 68.0028 42.7743C68.6008 42.2023 69.4588 41.8643 70.7068 41.8643H71.1228V38.8743C70.9928 38.8483 70.8888 38.8483 70.7588 38.8483C68.6528 38.8483 67.2748 40.2523 66.6248 42.3063V39.1603Z" fill="white"/>
<path d="M84.6144 45.0103C84.6144 41.0323 82.4564 38.8483 78.6864 38.8483C74.8124 38.8483 72.4724 41.5003 72.4724 45.7903C72.4724 50.0543 74.8644 52.4723 78.8424 52.4723C81.4944 52.4723 83.5484 51.2243 84.5104 48.9623L82.1184 47.8703C81.5204 49.2743 80.4284 50.0283 78.9464 50.0283C76.8924 50.0283 75.5144 48.6243 75.4884 46.4403H84.6144V45.0103ZM75.4884 44.3863C75.5404 42.2283 76.6584 40.9283 78.6344 40.9283C80.4804 40.9283 81.5464 42.0463 81.5464 44.1783V44.3863H75.4884Z" fill="white"/>
<path d="M98.8585 45.0103C98.8585 41.0323 96.7005 38.8483 92.9305 38.8483C89.0565 38.8483 86.7165 41.5003 86.7165 45.7903C86.7165 50.0543 89.1085 52.4723 93.0865 52.4723C95.7385 52.4723 97.7925 51.2243 98.7545 48.9623L96.3625 47.8703C95.7645 49.2743 94.6725 50.0283 93.1905 50.0283C91.1365 50.0283 89.7585 48.6243 89.7325 46.4403H98.8585V45.0103ZM89.7325 44.3863C89.7845 42.2283 90.9025 40.9283 92.8785 40.9283C94.7245 40.9283 95.7905 42.0463 95.7905 44.1783V44.3863H89.7325Z" fill="white"/>
<path d="M105.173 52.1603V45.2703C105.173 42.8003 106.265 41.3443 108.085 41.3443C109.723 41.3443 110.503 42.3583 110.503 44.4123V52.1603H113.649V44.1003C113.649 40.6163 112.167 38.8483 109.333 38.8483C107.331 38.8483 105.901 39.7843 105.017 41.6823V39.1603H102.053V52.1603H105.173Z" fill="white"/>
<path d="M120.715 37.0023V33.7523H117.335V37.0023H120.715ZM120.585 52.1603V39.1603H117.465V52.1603H120.585Z" fill="white"/>
<path d="M127.847 52.1603V45.2703C127.847 42.8003 128.939 41.3443 130.759 41.3443C132.397 41.3443 133.177 42.3583 133.177 44.4123V52.1603H136.323V44.1003C136.323 40.6163 134.841 38.8483 132.007 38.8483C130.005 38.8483 128.575 39.7843 127.691 41.6823V39.1603H124.727V52.1603H127.847Z" fill="white"/>
<path d="M150.955 39.2643C151.345 39.2643 151.683 39.3163 152.021 39.3943V37.0543C151.761 37.0023 151.553 36.9763 151.293 36.9763C149.421 36.9763 148.303 37.9643 147.887 39.3683C147.107 39.0303 146.197 38.8483 145.131 38.8483C141.829 38.8483 139.801 40.6423 139.801 43.2163C139.801 44.5943 140.373 45.7383 141.387 46.5443C140.139 47.0383 139.333 47.9743 139.333 49.3003C139.333 50.3143 139.827 51.1723 140.971 51.6403C139.567 52.0823 138.813 53.0443 138.813 54.1883C138.813 56.0343 140.451 57.5423 144.923 57.5423C149.603 57.5423 151.865 55.8003 151.865 53.1223C151.865 50.7043 150.305 49.3783 147.263 49.3783H143.857C142.427 49.3783 141.881 48.8843 141.881 48.1823C141.881 47.7403 142.141 47.4023 142.531 47.1943C143.259 47.4803 144.143 47.6623 145.131 47.6623C148.459 47.6623 150.487 45.7903 150.487 43.2163C150.487 41.9423 149.993 40.8763 149.109 40.0963C149.499 39.5243 150.097 39.2643 150.955 39.2643ZM145.131 45.7643C143.675 45.7643 142.739 44.6983 142.739 43.2163C142.739 41.7603 143.675 40.7463 145.131 40.7463C146.587 40.7463 147.523 41.7603 147.523 43.2423C147.523 44.6983 146.587 45.7643 145.131 45.7643ZM146.795 52.0563C148.277 52.0563 149.031 52.6023 149.031 53.6423C149.031 54.7083 148.095 55.5143 145.131 55.5143C142.895 55.5143 141.413 54.9943 141.413 53.6163C141.413 52.9923 141.699 52.3943 142.349 51.9783C142.661 52.0303 143.025 52.0303 143.415 52.0303L146.795 52.0563Z" fill="white"/>
<path d="M37.0039 82.6052C39.7399 82.6052 41.1159 80.9092 41.5479 78.7652L40.0759 78.5092C39.7559 80.2052 38.6199 81.2772 37.0039 81.2772C34.6839 81.2772 33.4839 79.2612 33.4839 76.6052C33.4839 73.8532 34.7479 71.9972 36.9719 71.9972C38.7319 71.9972 39.7719 73.1332 39.9959 74.8452L41.5479 74.6852C41.2599 72.3332 39.8199 70.7012 37.0519 70.7012C33.6759 70.7012 31.8839 73.1332 31.8839 76.6212C31.8839 79.9172 33.4839 82.6052 37.0039 82.6052Z" fill="white"/>
<path d="M44.9952 82.3332V78.1572C44.9952 76.3492 45.7792 75.3092 47.1552 75.3092C48.3072 75.3092 48.8992 76.0452 48.8992 77.4532V82.3332H50.2592V77.3572C50.2592 75.2452 49.3472 74.1412 47.6192 74.1412C46.3712 74.1412 45.4752 74.7172 44.9952 75.8372V70.7332H43.6352V82.3332H44.9952Z" fill="white"/>
<path d="M59.2208 77.7732C59.2208 75.3732 57.9728 74.1412 55.8128 74.1412C53.5248 74.1412 52.1808 75.7572 52.1808 78.4292C52.1808 81.0692 53.5408 82.5252 55.8288 82.5252C57.4448 82.5252 58.6128 81.7572 59.1728 80.3012L58.0528 79.8052C57.7008 80.7812 56.9488 81.3252 55.9248 81.3252C54.5008 81.3252 53.5568 80.3012 53.5408 78.7332H59.2208V77.7732ZM53.5408 77.6292C53.5728 76.1252 54.3728 75.2132 55.7808 75.2132C57.0928 75.2132 57.8448 75.9812 57.8448 77.4532V77.6292H53.5408Z" fill="white"/>
<path d="M64.4233 82.5252C66.2153 82.5252 67.4153 81.4692 67.7033 79.6452L66.4073 79.4372C66.1993 80.6852 65.5273 81.3412 64.4393 81.3412C63.0153 81.3412 62.1833 80.2372 62.1833 78.3172C62.1833 76.4452 63.0153 75.3252 64.3913 75.3252C65.4793 75.3252 66.1833 75.9972 66.3273 77.2132L67.7193 77.0532C67.5113 75.2132 66.2953 74.1412 64.4233 74.1412C62.1513 74.1412 60.7433 75.7252 60.7433 78.3332C60.7433 80.8932 62.1833 82.5252 64.4233 82.5252Z" fill="white"/>
<path d="M76.7972 82.3332L73.6772 77.4212L76.6052 74.3332H74.8292L71.2452 78.2692V70.7332H69.8852V82.3332H71.2452V79.8852L72.7012 78.4132L75.1172 82.3332H76.7972Z" fill="white"/>
<path d="M86.3952 82.6052C89.2272 82.6052 90.5392 81.0212 90.5392 79.2612C90.5392 77.1972 89.1632 76.4132 87.4032 76.0452L85.7392 75.6932C84.4752 75.4212 83.8832 74.8452 83.8832 73.7412C83.8832 72.5892 84.8432 71.9012 86.2352 71.9012C87.9152 71.9012 88.7632 72.7332 88.9552 74.2532L90.4752 73.9332C90.2512 71.7092 88.5232 70.7012 86.2672 70.7012C83.8512 70.7012 82.3152 71.9812 82.3152 73.8852C82.3152 75.8372 83.5472 76.6852 85.1632 77.0212L86.8112 77.3572C88.1392 77.6292 88.9712 78.0612 88.9712 79.4052C88.9712 80.8452 87.6752 81.3572 86.4432 81.3572C84.4432 81.3572 83.5792 80.1252 83.3712 78.7332L81.8352 78.9572C82.0272 81.0372 83.4992 82.6052 86.3952 82.6052Z" fill="white"/>
<path d="M96.4755 82.3332C99.7875 82.3332 101.9 79.9492 101.9 76.6372C101.9 73.2612 99.7715 70.9732 96.5075 70.9732H92.7795V82.3332H96.4755ZM94.2995 72.2532H96.4755C98.9235 72.2532 100.284 74.1092 100.284 76.6372C100.284 79.0692 98.8915 81.0532 96.4435 81.0532H94.2995V72.2532Z" fill="white"/>
<path d="M107.221 82.5252C109.477 82.5252 110.949 80.9412 110.949 78.3332C110.949 75.7252 109.477 74.1412 107.221 74.1412C104.965 74.1412 103.493 75.7252 103.493 78.3332C103.493 80.9412 104.965 82.5252 107.221 82.5252ZM107.221 81.3412C105.781 81.3412 104.933 80.3172 104.933 78.3332C104.933 76.3492 105.781 75.3252 107.221 75.3252C108.661 75.3252 109.509 76.3492 109.509 78.3332C109.509 80.3172 108.661 81.3412 107.221 81.3412Z" fill="white"/>
<path d="M120.512 70.9732V75.8852H114.784V70.9732H113.264V82.3332H114.784V77.1652H120.512V82.3332H122.032V70.9732H120.512Z" fill="white"/>
<path d="M130.589 82.3332V78.1572C130.589 76.3812 131.405 75.3092 132.733 75.3092C133.901 75.3092 134.493 76.0292 134.493 77.4372V82.3332H135.853V77.3572C135.853 75.2292 134.941 74.1412 133.181 74.1412C131.917 74.1412 131.037 74.7172 130.509 75.9172V74.3332H129.229V82.3332H130.589Z" fill="white"/>
<path d="M144.815 77.7732C144.815 75.3732 143.567 74.1412 141.407 74.1412C139.119 74.1412 137.775 75.7572 137.775 78.4292C137.775 81.0692 139.135 82.5252 141.423 82.5252C143.039 82.5252 144.207 81.7572 144.767 80.3012L143.647 79.8052C143.295 80.7812 142.543 81.3252 141.519 81.3252C140.095 81.3252 139.151 80.3012 139.135 78.7332H144.815V77.7732ZM139.135 77.6292C139.167 76.1252 139.967 75.2132 141.375 75.2132C142.687 75.2132 143.439 75.9812 143.439 77.4532V77.6292H139.135Z" fill="white"/>
<path d="M153.377 77.7732C153.377 75.3732 152.129 74.1412 149.969 74.1412C147.681 74.1412 146.337 75.7572 146.337 78.4292C146.337 81.0692 147.697 82.5252 149.985 82.5252C151.601 82.5252 152.769 81.7572 153.329 80.3012L152.209 79.8052C151.857 80.7812 151.105 81.3252 150.081 81.3252C148.657 81.3252 147.713 80.3012 147.697 78.7332H153.377V77.7732ZM147.697 77.6292C147.729 76.1252 148.529 75.2132 149.937 75.2132C151.249 75.2132 152.001 75.9812 152.001 77.4532V77.6292H147.697Z" fill="white"/>
<path d="M158.148 82.5252C159.396 82.5252 160.26 81.9172 160.74 80.8452V82.3332H162.02V70.7332H160.66V75.5172C160.148 74.5732 159.364 74.1412 158.308 74.1412C156.308 74.1412 154.9 75.8692 154.9 78.3332C154.9 80.8452 156.212 82.5252 158.148 82.5252ZM158.516 81.3252C157.156 81.3252 156.34 80.2052 156.34 78.3332C156.34 76.4452 157.156 75.3412 158.516 75.3412C159.86 75.3412 160.692 76.4132 160.692 78.1572V78.5252C160.692 80.2372 159.844 81.3252 158.516 81.3252Z" fill="white"/>
<path d="M167.621 82.5252C169.573 82.5252 170.677 81.5172 170.677 80.0772C170.677 78.9092 170.037 78.1732 168.597 77.9012L167.045 77.6132C166.261 77.4692 165.813 77.1492 165.813 76.4772C165.813 75.6932 166.437 75.2452 167.461 75.2452C168.549 75.2452 169.173 75.8052 169.349 76.6052L170.693 76.3012C170.533 74.9572 169.317 74.1412 167.525 74.1412C165.637 74.1412 164.485 75.1652 164.485 76.5412C164.485 77.7572 165.253 78.5252 166.613 78.7812L168.181 79.0692C168.901 79.1972 169.333 79.4852 169.333 80.1892C169.333 80.8772 168.741 81.4052 167.669 81.4052C166.501 81.4052 165.749 80.8292 165.557 79.8212L164.181 80.0612C164.453 81.6452 165.733 82.5252 167.621 82.5252Z" fill="white"/>
</svg>
