<svg width="206" height="44" viewBox="0 0 206 44" fill="none" xmlns="http://www.w3.org/2000/svg">
<path fill-rule="evenodd" clip-rule="evenodd" d="M89.3112 43.1947H90.5022V0.330933H89.3112V43.1947Z" fill="#EAADFF"/>
<path fill-rule="evenodd" clip-rule="evenodd" d="M59.4024 0.331543L41.8916 43.1953H43.0826L60.595 0.331543H59.4024Z" fill="#EAADFF"/>
<path fill-rule="evenodd" clip-rule="evenodd" d="M29.5377 43.1947H30.7463V0.330933H29.5377V43.1947Z" fill="#EAADFF"/>
<path fill-rule="evenodd" clip-rule="evenodd" d="M4.1336 43.1947H5.32621V0.330933H4.1336V43.1947Z" fill="#EAADFF"/>
<path fill-rule="evenodd" clip-rule="evenodd" d="M61.7285 5.89888L76.961 43.1966H78.152L62.324 4.43958L61.7285 5.89888Z" fill="#EAADFF"/>
<path fill-rule="evenodd" clip-rule="evenodd" d="M8.85645 22.3835H26.0096V21.1986H8.85645V22.3835Z" fill="#EAADFF"/>
<path fill-rule="evenodd" clip-rule="evenodd" d="M52.2684 29.4641L51.7256 30.6651H68.3359L67.7899 29.4641H52.2684Z" fill="#EAADFF"/>
<path fill-rule="evenodd" clip-rule="evenodd" d="M93.4468 43.1947H94.6378V0.330933H93.4468V43.1947ZM85.1782 43.1947H86.3692V0.330933H85.1782V43.1947ZM63.5342 0.330933L46.0266 43.1947H47.2352L50.6374 34.8425H69.4046L72.826 43.1947H74.0154L60.6588 10.3701L64.1967 1.72405L81.0928 43.1947H82.2855L64.7938 0.330933H63.5342ZM60.0649 11.881L65.5745 25.3554H54.6015L60.0649 11.881ZM54.0571 26.5579H66.0534L68.9272 33.6914H51.1307L54.0571 26.5579ZM55.2658 0.330933L37.7566 43.1947H38.9476L56.4568 0.330933H55.2658ZM33.6739 43.1947H34.8825V0.330933H33.6739V43.1947ZM25.404 0.330933V16.9676H9.46103V0.330933H8.27002V43.1947H9.46103V26.558H25.404V43.1947H26.6126V0.330933H25.404ZM9.46091 25.3554H25.4023V18.2235H9.46091V25.3554ZM0 43.1947H1.18942V0.330933H0V43.1947Z" fill="#73D9FF"/>
<path fill-rule="evenodd" clip-rule="evenodd" d="M111.914 25.0719V21.6593H108.033V25.0719H106.982V17.3864H108.033V20.6714H111.914V17.3864H112.965V25.0719H111.914Z" fill="white"/>
<path fill-rule="evenodd" clip-rule="evenodd" d="M116.665 25.2341C115.464 25.2341 114.734 24.3253 114.734 23.142V19.8602H115.743V22.9903C115.743 23.707 116.064 24.335 116.91 24.335C117.726 24.335 118.133 23.7926 118.133 23.0016V19.8602H119.142V24.109C119.142 24.5206 119.173 24.8871 119.195 25.0711H118.229C118.208 24.9516 118.188 24.6611 118.188 24.4448C117.908 24.9872 117.265 25.2341 116.665 25.2341Z" fill="white"/>
<path fill-rule="evenodd" clip-rule="evenodd" d="M120.858 25.0721V19.8596H121.823V20.5522C122.145 19.9791 122.787 19.7079 123.387 19.7079C124.031 19.7079 124.653 20.0211 124.933 20.6926C125.34 19.9452 126.004 19.7079 126.659 19.7079C127.557 19.7079 128.439 20.3262 128.439 21.6902V25.0721H127.441V21.8C127.441 21.1171 127.109 20.6054 126.347 20.6054C125.64 20.6054 125.156 21.1704 125.156 21.9194V25.0721H124.15V21.8C124.15 21.1284 123.826 20.6054 123.055 20.6054C122.338 20.6054 121.855 21.1478 121.855 21.9307V25.0721H120.858Z" fill="white"/>
<path fill-rule="evenodd" clip-rule="evenodd" d="M133.081 22.8397V22.6008L131.506 22.8397C131.076 22.9043 130.755 23.1545 130.755 23.6194C130.755 24.0101 131.076 24.3797 131.59 24.3797C132.417 24.3797 133.081 23.9778 133.081 22.8397ZM131.292 22.0924L132.686 21.8857C132.995 21.8421 133.081 21.6807 133.081 21.4951C133.081 20.9866 132.749 20.5636 131.967 20.5636C131.258 20.5636 130.862 21.0076 130.797 21.6145L129.833 21.3869C129.94 20.3893 130.83 19.6968 131.945 19.6968C133.49 19.6968 134.091 20.5862 134.091 21.6032V24.2167C134.091 24.672 134.132 24.9432 134.154 25.0723H133.168C133.147 24.9432 133.115 24.7478 133.115 24.3685C132.888 24.7365 132.374 25.2353 131.451 25.2353C130.401 25.2353 129.726 24.4976 129.726 23.6743C129.726 22.7413 130.401 22.2215 131.292 22.0924Z" fill="white"/>
<path fill-rule="evenodd" clip-rule="evenodd" d="M136.664 25.072H135.656V19.8595H136.643V20.6053C137.018 19.9564 137.628 19.7078 138.227 19.7078C139.462 19.7078 140.074 20.6053 140.074 21.766V25.072H139.066V21.9419C139.066 21.2123 138.765 20.6279 137.866 20.6279C137.072 20.6279 136.664 21.2688 136.664 22.0598V25.072Z" fill="white"/>
<path fill-rule="evenodd" clip-rule="evenodd" d="M141.306 22.406H144.21V21.5166H141.306V22.406Z" fill="white"/>
<path fill-rule="evenodd" clip-rule="evenodd" d="M145.179 21.2239C145.179 18.6556 147.066 17.2238 148.951 17.2238C150.688 17.2238 151.911 18.1778 152.298 19.6629L151.322 20.01C151.032 18.8509 150.197 18.202 148.951 18.202C147.569 18.202 146.25 19.2206 146.25 21.2239C146.25 23.2288 147.569 24.2604 148.951 24.2604C150.249 24.2604 151.065 23.4694 151.375 22.4169L152.309 22.7639C151.9 24.2071 150.7 25.2338 148.951 25.2338C146.991 25.2338 145.179 23.7938 145.179 21.2239Z" fill="white"/>
<path fill-rule="evenodd" clip-rule="evenodd" d="M156.855 21.9302C156.833 21.1812 156.352 20.5968 155.441 20.5968C154.593 20.5968 154.079 21.257 154.036 21.9302H156.855ZM157.874 23.5864C157.585 24.5098 156.756 25.2362 155.559 25.2362C154.175 25.2362 152.963 24.2176 152.963 22.4484C152.963 20.8147 154.133 19.696 155.426 19.696C157.016 19.696 157.906 20.8034 157.906 22.429C157.906 22.5581 157.893 22.6889 157.885 22.7535H154.004C154.026 23.6865 154.69 24.3355 155.559 24.3355C156.395 24.3355 156.814 23.8689 157.005 23.2846L157.874 23.5864Z" fill="white"/>
<path fill-rule="evenodd" clip-rule="evenodd" d="M160.202 25.072H159.194V19.8595H160.181V20.6053C160.556 19.9564 161.166 19.7078 161.765 19.7078C163 19.7078 163.612 20.6053 163.612 21.766V25.072H162.605V21.9419C162.605 21.2123 162.303 20.6279 161.404 20.6279C160.61 20.6279 160.202 21.2688 160.202 22.0598V25.072Z" fill="white"/>
<path fill-rule="evenodd" clip-rule="evenodd" d="M166.572 19.8587H167.687V20.7789H166.572V23.4892C166.572 23.9655 166.765 24.2044 167.291 24.2044C167.418 24.2044 167.602 24.185 167.687 24.1624V25.0293C167.602 25.0632 167.343 25.1277 167.002 25.1277C166.122 25.1277 165.563 24.5853 165.563 23.6426V20.7789H164.578V19.8587H164.856C165.413 19.8587 165.649 19.5117 165.649 19.0581V18.2106H166.572V19.8587Z" fill="white"/>
<path fill-rule="evenodd" clip-rule="evenodd" d="M172.449 21.9302C172.426 21.1811 171.944 20.5968 171.033 20.5968C170.187 20.5968 169.672 21.257 169.628 21.9302H172.449ZM173.468 23.5864C173.177 24.5098 172.35 25.2362 171.153 25.2362C169.768 25.2362 168.557 24.2176 168.557 22.4484C168.557 20.8147 169.725 19.696 171.02 19.696C172.61 19.696 173.5 20.8034 173.5 22.429C173.5 22.5581 173.488 22.6889 173.479 22.7535H169.598C169.618 23.6865 170.284 24.3355 171.153 24.3355C171.988 24.3355 172.406 23.8689 172.599 23.2846L173.468 23.5864Z" fill="white"/>
<path fill-rule="evenodd" clip-rule="evenodd" d="M177.648 20.8881C177.5 20.8655 177.35 20.8559 177.211 20.8559C176.361 20.8559 175.795 21.3127 175.795 22.4621V25.0739H174.787V19.8582H175.772V20.7703C176.149 19.968 176.791 19.7743 177.316 19.7743C177.457 19.7743 177.595 19.7937 177.648 19.805V20.8881Z" fill="white"/>
<path fill-rule="evenodd" clip-rule="evenodd" d="M182.14 21.9302C182.12 21.1812 181.637 20.5968 180.726 20.5968C179.878 20.5968 179.364 21.257 179.321 21.9302H182.14ZM183.159 23.5864C182.87 24.5098 182.041 25.2362 180.844 25.2362C179.46 25.2362 178.248 24.2176 178.248 22.4484C178.248 20.8147 179.418 19.696 180.715 19.696C182.302 19.696 183.191 20.8034 183.191 22.429C183.191 22.5581 183.178 22.6889 183.17 22.7535H179.289C179.311 23.6865 179.975 24.3355 180.844 24.3355C181.681 24.3355 182.099 23.8689 182.292 23.2846L183.159 23.5864Z" fill="white"/>
<path fill-rule="evenodd" clip-rule="evenodd" d="M186.592 24.3136C187.514 24.3136 188.083 23.5016 188.083 22.4281C188.083 21.3547 187.525 20.6169 186.604 20.6169C185.681 20.6169 185.08 21.3773 185.08 22.4491C185.08 23.5226 185.628 24.3136 186.592 24.3136ZM188.09 24.2797C187.846 24.7801 187.3 25.2128 186.493 25.2128C184.983 25.2128 184.051 23.9988 184.051 22.4491C184.051 20.9753 185.037 19.7178 186.493 19.7178C187.407 19.7178 187.9 20.173 188.072 20.5959V17.2253H189.069V24.1086C189.069 24.6058 189.112 24.9868 189.121 25.0723H188.147C188.125 24.9529 188.09 24.6833 188.09 24.3685V24.2797Z" fill="white"/>
<path fill-rule="evenodd" clip-rule="evenodd" d="M110.701 6.89105C110.648 6.53268 110.357 5.92571 109.436 5.92571C108.804 5.92571 108.397 6.32767 108.397 6.75061C108.397 7.12027 108.62 7.39147 109.146 7.48671L110.166 7.68204C111.612 7.95324 112.363 8.89597 112.363 9.99206C112.363 11.1947 111.366 12.4199 109.554 12.4199C107.453 12.4199 106.551 11.0413 106.444 9.95817L107.999 9.57881C108.065 10.2859 108.536 10.9009 109.575 10.9009C110.241 10.9009 110.648 10.5764 110.648 10.0986C110.648 9.70957 110.337 9.42707 109.832 9.33183L108.794 9.1365C107.506 8.88467 106.724 8.01781 106.724 6.87975C106.724 5.42852 107.99 4.40991 109.447 4.40991C111.344 4.40991 112.064 5.55927 112.224 6.45681L110.701 6.89105Z" fill="white"/>
<path fill-rule="evenodd" clip-rule="evenodd" d="M115.506 6.87042H116.545V8.31197H115.506V10.3282C115.506 10.7721 115.739 10.89 116.095 10.89C116.268 10.89 116.427 10.8593 116.525 10.8383V12.204C116.461 12.2347 116.192 12.3525 115.675 12.3525C114.574 12.3525 113.897 11.6923 113.897 10.6188V8.31197H112.953V6.87042H113.221C113.78 6.87042 114.047 6.49107 114.047 5.99065V5.29651H115.506V6.87042Z" fill="white"/>
<path fill-rule="evenodd" clip-rule="evenodd" d="M120.642 10.143V9.90406L119.634 10.0671C119.291 10.1204 119.034 10.2834 119.034 10.6628C119.034 10.9453 119.216 11.2165 119.666 11.2165C120.148 11.2165 120.642 10.9776 120.642 10.143ZM119.002 9.14544L120.255 8.95011C120.543 8.90652 120.642 8.76608 120.642 8.58206C120.642 8.26727 120.374 7.99607 119.86 7.99607C119.291 7.99607 118.98 8.38673 118.946 8.78868L117.533 8.49488C117.597 7.72488 118.304 6.70789 119.871 6.70789C121.597 6.70789 122.229 7.68291 122.229 8.78868V11.4216C122.229 11.8445 122.281 12.2029 122.293 12.2561H120.824C120.813 12.2126 120.771 12.0188 120.771 11.6492C120.492 12.1044 119.978 12.4079 119.27 12.4079C118.1 12.4079 117.425 11.6282 117.425 10.771C117.425 9.81697 118.122 9.27619 119.002 9.14544Z" fill="white"/>
<path fill-rule="evenodd" clip-rule="evenodd" d="M125.232 12.2555H123.602V6.86871H125.179V7.48859C125.466 6.97687 126.122 6.72827 126.669 6.72827C128.008 6.72827 128.608 7.69361 128.608 8.87364V12.2555H126.98V9.15614C126.98 8.62666 126.7 8.2247 126.111 8.2247C125.575 8.2247 125.232 8.62666 125.232 9.16744V12.2555Z" fill="white"/>
<path fill-rule="evenodd" clip-rule="evenodd" d="M131.858 8.25625V12.258H130.228V8.25625H129.382V6.8712H130.228V6.40468C130.228 5.16814 130.967 4.32227 132.267 4.32227C132.599 4.32227 132.888 4.36747 133.038 4.44334V5.78641C132.953 5.76381 132.813 5.73314 132.556 5.73314C132.267 5.73314 131.858 5.86228 131.858 6.45956V6.8712H133.017V8.25625H131.858Z" fill="white"/>
<path fill-rule="evenodd" clip-rule="evenodd" d="M137.447 9.5566C137.447 8.64776 136.867 8.22482 136.244 8.22482C135.634 8.22482 135.044 8.64776 135.044 9.5566C135.044 10.459 135.634 10.9029 136.244 10.9029C136.867 10.9029 137.447 10.467 137.447 9.5566ZM139.076 9.55662C139.076 11.2258 137.842 12.4187 136.244 12.4187C134.659 12.4187 133.415 11.2258 133.415 9.55662C133.415 7.88907 134.659 6.70581 136.244 6.70581C137.842 6.70581 139.076 7.88907 139.076 9.55662Z" fill="white"/>
<path fill-rule="evenodd" clip-rule="evenodd" d="M143.516 8.49576C143.334 8.45218 143.161 8.44088 143.002 8.44088C142.347 8.44088 141.756 8.83153 141.756 9.90502V12.257H140.128V6.87019H141.702V7.595C141.982 6.98803 142.658 6.81531 143.085 6.81531C143.248 6.81531 143.409 6.83791 143.516 6.87019V8.49576Z" fill="white"/>
<path fill-rule="evenodd" clip-rule="evenodd" d="M146.893 10.9013C147.525 10.9013 148.093 10.446 148.093 9.55658C148.093 8.65743 147.525 8.22481 146.893 8.22481C146.261 8.22481 145.692 8.65743 145.692 9.55658C145.692 10.446 146.261 10.9013 146.893 10.9013ZM149.681 11.2919C149.681 11.7794 149.714 12.1378 149.724 12.2556H148.159C148.148 12.1911 148.116 11.9522 148.116 11.7358C147.868 12.1055 147.332 12.3767 146.69 12.3767C145.189 12.3767 144.053 11.2048 144.053 9.54689C144.053 7.94231 145.124 6.73967 146.636 6.73967C147.548 6.73967 147.943 7.08674 148.073 7.29175V4.41028H149.681V11.2919Z" fill="white"/>
<path fill-rule="evenodd" clip-rule="evenodd" d="M153.832 9.48117V4.57056H155.526V9.34073C155.526 10.2722 156.04 10.7387 156.845 10.7387C157.649 10.7387 158.163 10.2722 158.163 9.34073V4.57056H159.854V9.48117C159.854 11.4102 158.518 12.4288 156.845 12.4288C155.172 12.4288 153.832 11.4102 153.832 9.48117Z" fill="white"/>
<path fill-rule="evenodd" clip-rule="evenodd" d="M162.914 12.2555H161.284V6.86871H162.86V7.48859C163.149 6.97687 163.805 6.72827 164.35 6.72827C165.691 6.72827 166.291 7.69361 166.291 8.87364V12.2555H164.662V9.15614C164.662 8.62666 164.383 8.2247 163.794 8.2247C163.257 8.2247 162.914 8.62666 162.914 9.16744V12.2555Z" fill="white"/>
<path fill-rule="evenodd" clip-rule="evenodd" d="M167.664 12.2557H169.294V6.86889H167.664V12.2557ZM168.469 4.25696C169.005 4.25696 169.433 4.6912 169.433 5.22391C169.433 5.755 169.005 6.18763 168.469 6.18763C167.955 6.18763 167.525 5.755 167.525 5.22391C167.525 4.6912 167.955 4.25696 168.469 4.25696Z" fill="white"/>
<path fill-rule="evenodd" clip-rule="evenodd" d="M173.937 12.2555H172.297L170.111 6.86865H171.879L173.11 10.2183L174.246 6.86865H175.964L173.937 12.2555Z" fill="white"/>
<path fill-rule="evenodd" clip-rule="evenodd" d="M179.996 8.91839C179.973 8.50675 179.697 8.00794 178.924 8.00794C178.236 8.00794 177.895 8.51643 177.863 8.91839H179.996ZM181.476 10.707C181.219 11.6384 180.371 12.4197 179.02 12.4197C177.551 12.4197 176.242 11.3575 176.242 9.54791C176.242 7.81256 177.519 6.70679 178.9 6.70679C180.554 6.70679 181.571 7.73669 181.571 9.47042C181.571 9.69803 181.551 9.94825 181.539 9.98053H177.831C177.863 10.5875 178.409 11.0217 179.041 11.0217C179.63 11.0217 179.962 10.7392 180.114 10.3163L181.476 10.707Z" fill="white"/>
<path fill-rule="evenodd" clip-rule="evenodd" d="M186.011 8.49576C185.829 8.45218 185.656 8.44088 185.497 8.44088C184.845 8.44088 184.252 8.83153 184.252 9.90502V12.257H182.623V6.87019H184.199V7.595C184.478 6.98803 185.154 6.81531 185.581 6.81531C185.743 6.81531 185.906 6.83791 186.011 6.87019V8.49576Z" fill="white"/>
<path fill-rule="evenodd" clip-rule="evenodd" d="M187.984 10.4788C188.007 10.8485 188.264 11.2052 188.821 11.2052C189.239 11.2052 189.442 10.9776 189.442 10.7387C189.442 10.545 189.314 10.3804 188.918 10.2948L188.307 10.1544C187.17 9.90414 186.72 9.25359 186.72 8.49489C186.72 7.50856 187.577 6.70789 188.766 6.70789C190.312 6.70789 190.847 7.68291 190.901 8.31086L189.549 8.56107C189.507 8.2027 189.281 7.89922 188.789 7.89922C188.479 7.89922 188.211 8.08325 188.211 8.36574C188.211 8.59336 188.393 8.72411 188.628 8.76608L189.336 8.90652C190.44 9.13414 190.976 9.80729 190.976 10.5983C190.976 11.5216 190.278 12.4192 188.853 12.4192C187.181 12.4192 186.645 11.3247 186.602 10.7274L187.984 10.4788Z" fill="white"/>
<path fill-rule="evenodd" clip-rule="evenodd" d="M192.039 12.2557H193.669V6.86889H192.039V12.2557ZM192.844 4.25696C193.38 4.25696 193.808 4.6912 193.808 5.22391C193.808 5.755 193.38 6.18763 192.844 6.18763C192.328 6.18763 191.9 5.755 191.9 5.22391C191.9 4.6912 192.328 4.25696 192.844 4.25696Z" fill="white"/>
<path fill-rule="evenodd" clip-rule="evenodd" d="M197.047 6.87042H198.086V8.31197H197.047V10.3282C197.047 10.7721 197.28 10.89 197.636 10.89C197.809 10.89 197.968 10.8593 198.066 10.8383V12.204C198.002 12.2347 197.734 12.3525 197.218 12.3525C196.115 12.3525 195.439 11.6923 195.439 10.6188V8.31197H194.494V6.87042H194.762C195.321 6.87042 195.589 6.49107 195.589 5.99065V5.29651H197.047V6.87042Z" fill="white"/>
<path fill-rule="evenodd" clip-rule="evenodd" d="M199.77 14.3271L200.981 11.5312L198.738 6.86914H200.563L201.861 9.75384L203.039 6.86914H204.765L201.484 14.3271H199.77Z" fill="white"/>
<path fill-rule="evenodd" clip-rule="evenodd" d="M108.579 34.9136H111.195L109.875 31.4671L108.579 34.9136ZM111.569 35.8999H108.204L107.399 38.0453H106.273L109.297 30.3613H110.509L113.534 38.0453H112.396L111.569 35.8999Z" fill="white"/>
<path fill-rule="evenodd" clip-rule="evenodd" d="M117.309 33.8623C117.157 33.8413 117.008 33.83 116.868 33.83C116.02 33.83 115.453 34.2852 115.453 35.4346V38.0465H114.444V32.8324H115.431V33.7428C115.808 32.9405 116.45 32.7468 116.975 32.7468C117.114 32.7468 117.254 32.7678 117.309 32.7791V33.8623Z" fill="white"/>
<path fill-rule="evenodd" clip-rule="evenodd" d="M119.999 32.8329H121.113V33.7546H119.999V36.4634C119.999 36.9396 120.192 37.1785 120.717 37.1785C120.845 37.1785 121.029 37.1575 121.113 37.1365V38.0034C121.029 38.0357 120.77 38.1002 120.428 38.1002C119.549 38.1002 118.99 37.5578 118.99 36.6151V33.7546H118.005V32.8329H118.283C118.84 32.8329 119.076 32.4858 119.076 32.0306V31.1847H119.999V32.8329Z" fill="white"/>
<path fill-rule="evenodd" clip-rule="evenodd" d="M122.455 38.045H123.453V32.8325H122.455V38.045ZM122.947 30.1222C123.356 30.1222 123.677 30.4499 123.677 30.8599C123.677 31.2603 123.356 31.5863 122.947 31.5863C122.551 31.5863 122.229 31.2603 122.229 30.8599C122.229 30.4499 122.551 30.1222 122.947 30.1222Z" fill="white"/>
<path fill-rule="evenodd" clip-rule="evenodd" d="M129.424 30.1025C129.832 30.1025 130.154 30.4254 130.154 30.8386C130.154 31.239 129.832 31.5635 129.424 31.5635C129.028 31.5635 128.706 31.239 128.706 30.8386C128.706 30.4254 129.028 30.1025 129.424 30.1025ZM127.773 30.2736V31.1857C127.721 31.1631 127.591 31.1211 127.331 31.1211C126.98 31.1211 126.518 31.2809 126.518 31.9993V32.8322H129.925V38.0463H128.928V33.7556H126.518V38.0463H125.479V33.7556H124.524V32.8322H125.479V31.9541C125.479 30.7966 126.241 30.1671 127.173 30.1671C127.516 30.1671 127.729 30.2429 127.773 30.2736Z" fill="white"/>
<path fill-rule="evenodd" clip-rule="evenodd" d="M132.245 35.4338C132.245 36.6267 132.986 37.266 133.821 37.266C134.787 37.266 135.14 36.6041 135.259 36.1925L136.147 36.5832C135.901 37.3306 135.162 38.2087 133.821 38.2087C132.32 38.2087 131.214 37.0158 131.214 35.4338C131.214 33.8082 132.343 32.6702 133.808 32.6702C135.183 32.6702 135.89 33.537 136.106 34.328L135.194 34.7187C135.066 34.2086 134.69 33.6129 133.808 33.6129C132.997 33.6129 132.245 34.2199 132.245 35.4338Z" fill="white"/>
<path fill-rule="evenodd" clip-rule="evenodd" d="M137.327 38.045H138.325V32.8326H137.327V38.045ZM137.822 30.1222C138.229 30.1222 138.55 30.4499 138.55 30.8599C138.55 31.2603 138.229 31.5863 137.822 31.5863C137.424 31.5863 137.102 31.2603 137.102 30.8599C137.102 30.4499 137.424 30.1222 137.822 30.1222Z" fill="white"/>
<path fill-rule="evenodd" clip-rule="evenodd" d="M143.076 35.8139V35.5766L141.5 35.8139C141.071 35.8801 140.748 36.127 140.748 36.592C140.748 36.9842 141.071 37.3523 141.585 37.3523C142.412 37.3523 143.076 36.9503 143.076 35.8139ZM141.285 35.0649L142.678 34.8582C142.99 34.8163 143.076 34.6532 143.076 34.4692C143.076 33.9607 142.744 33.5378 141.96 33.5378C141.253 33.5378 140.855 33.9801 140.791 34.587L139.827 34.3627C139.934 33.3634 140.825 32.6709 141.939 32.6709C143.483 32.6709 144.083 33.5604 144.083 34.5774V37.1909C144.083 37.6461 144.126 37.9173 144.147 38.0464H143.162C143.14 37.9173 143.108 37.722 143.108 37.341C142.883 37.7107 142.369 38.2079 141.446 38.2079C140.395 38.2079 139.717 37.4701 139.717 36.6485C139.717 35.7138 140.395 35.194 141.285 35.0649Z" fill="white"/>
<path fill-rule="evenodd" clip-rule="evenodd" d="M145.65 38.0451H146.657V30.1981H145.65V38.0451Z" fill="white"/>
<path fill-rule="evenodd" clip-rule="evenodd" d="M151.161 38.0468H152.234V30.3612H151.161V38.0468Z" fill="white"/>
<path fill-rule="evenodd" clip-rule="evenodd" d="M155.064 38.0461H154.057V32.8337H155.043V33.5811C155.418 32.9305 156.028 32.6803 156.627 32.6803C157.863 32.6803 158.474 33.5811 158.474 34.7401V38.0461H157.467V34.9161C157.467 34.188 157.165 33.602 156.265 33.602C155.473 33.602 155.064 34.2413 155.064 35.0323V38.0461Z" fill="white"/>
<path fill-rule="evenodd" clip-rule="evenodd" d="M161.434 32.8329H162.549V33.7546H161.434V36.4634C161.434 36.9396 161.626 37.1785 162.153 37.1785C162.281 37.1785 162.464 37.1575 162.549 37.1365V38.0034C162.464 38.0357 162.206 38.1002 161.864 38.1002C160.984 38.1002 160.425 37.5578 160.425 36.6151V33.7546H159.44V32.8329H159.718C160.275 32.8329 160.512 32.4858 160.512 32.0306V31.1847H161.434V32.8329Z" fill="white"/>
<path fill-rule="evenodd" clip-rule="evenodd" d="M167.311 34.9027C167.289 34.1553 166.807 33.5693 165.895 33.5693C165.049 33.5693 164.533 34.2312 164.49 34.9027H167.311ZM168.33 36.5606C168.039 37.4823 167.214 38.2087 166.015 38.2087C164.631 38.2087 163.419 37.1901 163.419 35.4225C163.419 33.7872 164.588 32.6702 165.882 32.6702C167.473 32.6702 168.362 33.7759 168.362 35.4015C168.362 35.5323 168.351 35.6614 168.341 35.726H164.46C164.481 36.659 165.146 37.3096 166.015 37.3096C166.85 37.3096 167.268 36.8431 167.461 36.2571L168.33 36.5606Z" fill="white"/>
<path fill-rule="evenodd" clip-rule="evenodd" d="M169.647 38.0451H170.656V30.1981H169.647V38.0451Z" fill="white"/>
<path fill-rule="evenodd" clip-rule="evenodd" d="M172.372 38.0451H173.381V30.1981H172.372V38.0451Z" fill="white"/>
<path fill-rule="evenodd" clip-rule="evenodd" d="M175.095 38.0451H176.093V32.8326H175.095V38.0451ZM175.59 30.1223C175.997 30.1223 176.318 30.45 176.318 30.86C176.318 31.2604 175.997 31.5865 175.59 31.5865C175.192 31.5865 174.871 31.2604 174.871 30.86C174.871 30.45 175.192 30.1223 175.59 30.1223Z" fill="white"/>
<path fill-rule="evenodd" clip-rule="evenodd" d="M181.433 35.2714C181.433 34.2625 180.833 33.6023 179.964 33.6023C179.072 33.6023 178.473 34.2625 178.473 35.2714C178.473 36.2901 179.053 36.9406 179.964 36.9406C180.833 36.9406 181.433 36.2804 181.433 35.2714ZM178.407 38.0997C178.483 38.8261 179.03 39.3782 179.812 39.3782C180.896 39.3782 181.39 38.8148 181.39 37.6881V36.9407C181.142 37.4169 180.585 37.7962 179.812 37.7962C178.441 37.7962 177.445 36.7453 177.445 35.2715C177.445 33.8622 178.398 32.7355 179.812 32.7355C180.606 32.7355 181.142 33.039 181.399 33.5588V32.8323H182.397V37.6558C182.397 38.9779 181.754 40.2677 179.812 40.2677C178.527 40.2677 177.561 39.4444 177.434 38.3273L178.407 38.0997Z" fill="white"/>
<path fill-rule="evenodd" clip-rule="evenodd" d="M187.48 34.9027C187.458 34.1553 186.975 33.5693 186.064 33.5693C185.218 33.5693 184.704 34.2312 184.659 34.9027H187.48ZM188.499 36.5606C188.208 37.4823 187.383 38.2087 186.184 38.2087C184.8 38.2087 183.588 37.1901 183.588 35.4225C183.588 33.7872 184.757 32.6702 186.053 32.6702C187.641 32.6702 188.531 33.7759 188.531 35.4015C188.531 35.5323 188.52 35.6614 188.512 35.726H184.629C184.651 36.659 185.315 37.3096 186.184 37.3096C187.019 37.3096 187.437 36.8431 187.63 36.2571L188.499 36.5606Z" fill="white"/>
<path fill-rule="evenodd" clip-rule="evenodd" d="M190.828 38.0461H189.82V32.8337H190.805V33.5811C191.182 32.9305 191.792 32.6803 192.392 32.6803C193.626 32.6803 194.238 33.5811 194.238 34.7401V38.0461H193.229V34.9161C193.229 34.188 192.929 33.602 192.028 33.602C191.235 33.602 190.828 34.2413 190.828 35.0323V38.0461Z" fill="white"/>
<path fill-rule="evenodd" clip-rule="evenodd" d="M196.445 35.4338C196.445 36.6267 197.185 37.266 198.021 37.266C198.987 37.266 199.34 36.6041 199.458 36.1925L200.347 36.5832C200.101 37.3306 199.361 38.2087 198.021 38.2087C196.52 38.2087 195.414 37.0158 195.414 35.4338C195.414 33.8082 196.543 32.6702 198.008 32.6702C199.383 32.6702 200.09 33.537 200.306 34.328L199.394 34.7187C199.266 34.2086 198.89 33.6129 198.008 33.6129C197.196 33.6129 196.445 34.2199 196.445 35.4338Z" fill="white"/>
<path fill-rule="evenodd" clip-rule="evenodd" d="M204.949 34.9027C204.926 34.1553 204.446 33.5693 203.533 33.5693C202.686 33.5693 202.172 34.2312 202.128 34.9027H204.949ZM205.968 36.5606C205.679 37.4823 204.85 38.2087 203.653 38.2087C202.268 38.2087 201.057 37.1901 201.057 35.4225C201.057 33.7872 202.225 32.6702 203.523 32.6702C205.11 32.6702 206 33.7759 206 35.4015C206 35.5323 205.988 35.6614 205.979 35.726H202.098C202.12 36.659 202.784 37.3096 203.653 37.3096C204.488 37.3096 204.906 36.8431 205.099 36.2571L205.968 36.5606Z" fill="white"/>
</svg>
