<svg width="114" height="49" viewBox="0 0 114 49" fill="none" xmlns="http://www.w3.org/2000/svg">
<g clip-path="url(#clip0_1568_1464)">
<path d="M31.3499 25.7359C27.6082 25.7359 27.311 22.8859 27.311 22.0467C27.311 21.05 27.5383 19.1967 29.9686 18.3049C32.399 17.4132 32.9235 17.3083 34.6545 16.7663V16.3467C34.6545 15.5074 34.6545 15.35 34.4622 14.808C34.1649 13.8463 33.2208 13.1994 31.9094 13.1994C30.668 13.1994 29.6014 13.8988 29.1119 14.9304L28.4125 14.5108C28.8321 12.9721 30.4232 11.4335 33.1508 11.4335C35.0392 11.4335 36.3505 11.9755 37.1199 13.1644C37.6968 14.1261 37.7668 15.42 37.7668 16.7313C37.7668 17.9203 37.6968 19.2316 37.6968 20.2982C37.6968 20.9976 37.6269 21.6795 37.6269 22.0641C37.6269 23.0258 37.8192 23.7951 38.5886 23.7951C38.9383 23.7951 39.0082 23.6727 39.2879 23.4979L39.7076 24.0399C39.0082 25.0016 38.1689 25.7709 36.7876 25.7709C35.7211 25.7709 34.9518 25.2289 34.637 24.3546C34.1999 24.9666 33.0634 25.7359 31.3499 25.7359ZM34.6545 18.4798C32.8186 19.0218 32.1542 19.319 31.6297 19.5988C30.7904 20.0184 30.4407 20.7878 30.4407 21.7844C30.4407 22.5537 30.7379 23.7951 32.5214 23.7951C33.0984 23.7951 33.9376 23.6727 34.707 23.1482V18.4623H34.6545V18.4798ZM3.75911 25.0016C3.75911 23.6203 3.75911 22.4488 3.63672 21.0325H4.47598C4.47598 21.9243 4.70328 22.5712 5.12292 22.9908C5.69991 23.6378 7.0812 24.0574 8.32261 24.0574C10.9278 24.0574 12.1692 23.0608 12.1692 20.9101C12.1692 19.0743 11.0502 18.3049 9.51157 17.2209L9.28427 17.0286L7.62322 15.9095C5.31525 14.3709 4.12629 13.1819 4.12629 10.7516C4.12629 9.5626 4.59838 5.64604 10.3508 5.64604C11.837 5.64604 13.7254 5.83837 14.8619 5.99573C14.8619 6.18807 14.7919 7.0623 14.7919 7.83162C14.7919 8.72334 14.7919 8.95064 14.8619 10.0172H14.1625C14.1625 9.05555 13.8652 8.47856 13.4631 8.05892C12.9211 7.5169 11.6971 7.21966 10.3858 7.21966C7.3085 7.21966 6.9588 8.75831 6.9588 9.94727C6.9588 11.5559 7.79807 12.1328 9.61647 13.3218L11.6971 14.7031C13.4631 15.8921 15.1241 17.0111 15.1241 19.9835C15.1241 24.9666 10.4383 25.4911 8.47997 25.4911C6.67905 25.7359 5.17537 25.4736 3.75911 25.0016ZM41.0014 12.3252C41.7008 12.3951 42.7674 12.3252 43.799 12.1329C44.6907 11.9405 44.9879 11.8356 45.6349 11.5559L45.9321 11.7482V12.8148C46.6315 12.2727 48.0128 11.5034 49.9711 11.5034C52.4714 11.5034 54.08 12.6924 54.5346 14.773C54.657 15.3151 54.7269 16.539 54.7269 17.2733V21.3123C54.7269 23.5678 54.8493 24.2322 55.2689 24.6344C55.4962 24.8267 55.9683 25.054 56.6502 25.054V25.701C55.7585 25.631 54.1499 25.5786 53.2232 25.5786C51.9818 25.5786 50.5656 25.6485 49.7962 25.701V25.054C50.4956 24.9841 50.9153 24.7568 51.1775 24.5819C51.5972 24.1623 51.6496 23.393 51.7195 21.662C51.7195 21.12 51.7895 20.0534 51.7895 19.2841C51.7895 18.2875 51.7895 17.2034 51.6671 16.1368C51.4748 14.3709 50.5481 13.5316 48.7472 13.5316C47.5057 13.5316 46.7364 13.8289 46.1419 14.1086V21.3473C46.1419 23.6028 46.2643 24.2672 46.684 24.6693C46.9113 24.8617 47.4533 25.089 47.9953 25.089V25.7359C46.8763 25.666 45.495 25.6135 44.6208 25.6135C42.7849 25.6135 42.1904 25.6835 41.1238 25.7359V25.054C41.7008 25.054 42.3128 24.8267 42.61 24.477C43.0297 24.0049 43.0821 22.816 43.0821 20.508V16.3991C43.0821 14.6681 43.0122 13.9687 42.7849 13.6016C42.5925 13.3043 42.1379 13.0595 41.1763 13.0595V12.2902H41.0539V12.3252H41.0014ZM58.1539 24.9666C58.7309 24.9666 59.3429 24.7743 59.6401 24.3896C60.0597 23.9175 60.1122 22.7286 60.1122 20.4206V13.5141H58.3462V12.7448C59.1156 12.4476 59.7625 12.0979 60.1122 11.7832C60.1122 10.5417 60.1821 8.98561 60.3395 8.09389C60.8815 5.24389 62.7174 3.82764 65.8472 3.82764C67.2284 3.82764 68.5048 4.29972 69.3441 4.94665L69.414 5.24389L68.0327 7.13224H67.683C67.211 6.01322 66.4941 5.36628 65.2527 5.36628C64.833 5.36628 64.256 5.48868 63.8714 5.83837C63.2944 6.41537 63.172 7.32457 63.172 9.108V11.7657H66.2493V13.4967H63.172V21.1549C63.172 22.9908 63.2419 23.8825 63.4692 24.2322C63.8189 24.8092 65.0778 24.8792 65.6548 24.8792V25.5786C64.6582 25.5086 63.0496 25.4562 61.9131 25.4562C60.1821 25.4562 59.0631 25.5261 58.1714 25.5786L58.1539 24.9666ZM74.0475 25.8408C69.8511 25.8408 67.3508 23.2356 67.3508 18.847C67.3508 15.42 69.1867 11.4335 74.3447 11.4335C78.541 11.4335 81.0413 14.0387 81.0413 18.4273C81.0413 21.8543 79.188 25.8408 74.0475 25.8408ZM74.2223 13.0246C73.383 13.0246 72.7361 13.2519 72.264 13.6715C71.145 14.6332 70.603 16.2767 70.603 18.7071C70.603 19.6687 70.7953 24.2847 74.1699 24.2847C75.0091 24.2847 75.6561 24.0574 76.1281 23.6378C77.2472 22.6761 77.7892 21.0325 77.7892 18.6022C77.7717 17.658 77.6143 13.0246 74.2223 13.0246ZM82.4576 12.2552C83.4192 12.3252 84.4159 12.1853 85.4824 12.0279C86.3217 11.9055 86.8637 11.7307 87.1435 11.5559L87.3708 11.6782V12.8672C88.0177 12.2203 89.1018 11.5559 90.5705 11.5559C91.637 11.5559 92.3364 11.8531 93.0008 12.3951V12.8148L91.8119 14.9654H91.2349C90.8852 14.3184 90.1683 13.724 88.9269 13.724C88.3499 13.724 87.8603 13.8463 87.4407 14.1436V21.2074C87.4407 23.0433 87.5107 23.8651 87.738 24.2322C88.0876 24.8092 89.2766 24.8792 89.9235 24.8092V25.5786C88.9619 25.5086 87.3183 25.4562 86.1818 25.4562C84.8705 25.4562 83.5241 25.4562 82.4401 25.5786V24.8792C83.2094 24.8092 83.6291 24.6519 83.9263 24.3022C84.3459 23.8301 84.3984 22.6936 84.3984 20.3332V16.4865C84.3984 14.7555 84.3984 14.0562 84.1011 13.689C83.8738 13.3917 83.4018 13.2169 82.4926 13.2169V12.3252L82.4576 12.2552ZM101.866 4.6669C102.705 4.6669 103.754 4.47457 105.135 4.24727C105.905 4.12487 106.377 3.95003 106.621 3.89757L106.849 4.01997C106.726 5.13898 106.726 7.70923 106.726 9.52764V20.7878C106.726 22.4488 106.726 23.5154 106.954 23.8651C107.181 24.1623 107.653 24.4071 108.562 24.4071V25.1065C107.67 25.1065 106.674 25.2289 105.607 25.4037C104.908 25.5261 104.366 25.631 104.069 25.7534L103.719 25.631V24.4421C103.02 24.9841 101.708 25.7534 99.8723 25.7534C96.0781 25.7534 93.6478 23.1482 93.6478 19.0568C93.6478 17.6755 93.8751 16.4516 94.3472 15.3151C95.5361 12.8148 97.914 11.3985 100.921 11.3985C102.04 11.3985 103.002 11.5209 103.579 11.6258V8.70586C103.579 6.97487 103.579 6.10064 103.282 5.68101C103.089 5.38377 102.81 5.26138 101.796 5.20892V4.64942H101.866V4.6669ZM101.376 23.8126C102.338 23.8126 102.985 23.6902 103.632 23.2706V14.0387C103.404 13.8114 102.565 13.077 100.904 13.077C98.2462 13.077 96.9349 14.9129 96.9349 18.7246C96.8824 20.3157 97.3545 23.8126 101.376 23.8126ZM25.9471 24.2322C25.5275 24.7743 24.461 25.8408 22.2054 25.8408C20.0548 25.8408 18.8833 25.0715 18.3588 23.3405C18.1315 22.6936 18.1315 21.3298 18.1315 20.543C18.1315 18.3574 18.1315 16.574 18.2014 14.4933V13.5316H16.3481V12.9896C17.0475 12.6924 17.5895 12.4126 18.0791 12.0279C19.1456 11.1887 19.845 10.1921 20.6318 8.70586H21.2088V11.7832H25.8947V13.5141H21.2088V20.7528C21.2088 22.9384 21.6284 24.1273 23.6392 24.1273C24.6008 24.1273 25.2478 23.8301 25.5975 23.5853L25.9471 24.2322Z" fill="white"/>
<path d="M91.673 37.1709C91.4457 37.1709 91.131 37.2408 90.9736 37.3982C90.7813 37.5206 90.7813 37.6954 90.7813 37.8178C90.7813 38.0451 90.8513 38.2374 91.0086 38.7095L92.32 42.1365C92.5123 42.6785 92.6697 43.0982 92.7396 43.3779L94.3482 38.692C94.5405 38.15 94.5755 38.0451 94.5755 37.8003C94.5755 37.6779 94.5055 37.573 94.3832 37.4506C94.1908 37.3282 93.9635 37.2233 93.6838 37.2233V36.6813C93.8761 36.6813 94.2608 36.6813 94.4531 36.7512C94.6454 36.7512 94.9951 36.8212 95.2924 36.8212C95.8694 36.8212 96.7086 36.7512 97.0583 36.7512V37.2933C96.831 37.3632 96.289 37.2233 95.8169 38.6046L92.4424 47.6092C91.9703 48.9206 91.3233 50.5292 89.0154 50.5292C88.0537 50.5292 87.4068 50.3019 86.8647 49.8298V49.6025L87.704 48.6058H87.9313C88.1586 49.1479 88.6307 49.3752 89.3126 49.3752C90.3792 49.3752 90.8513 48.4135 91.5681 46.5252L91.7605 45.9831L88.9279 38.5871C88.9279 38.5172 88.858 38.3948 88.8055 38.2899C88.7356 38.0976 88.5782 37.7479 88.5782 37.7479C88.3859 37.3982 88.1062 37.2758 87.739 37.2758V36.7338C88.281 36.8037 89.2252 36.8037 89.6973 36.8037C89.9945 36.8037 90.4666 36.8037 90.9387 36.7338C91.166 36.7338 91.5856 36.6638 91.7779 36.6638V37.1359H91.708V37.1709H91.673ZM60.2706 37.0485C60.8476 37.1184 61.512 36.9785 62.1589 36.8562C62.7009 36.7338 62.9982 36.6638 63.2255 36.5589L63.4178 36.6289V37.3982C63.8375 36.9785 64.4844 36.5589 65.4286 36.5589C66.1279 36.5589 66.5476 36.7512 66.9672 37.1009V37.3982L66.2678 38.7795H65.9181C65.6908 38.3598 65.2712 38.0101 64.4319 38.0101C64.0822 38.0101 63.785 38.1325 63.4703 38.3074V42.766C63.4703 43.9549 63.5402 44.4969 63.6626 44.7242C63.8899 45.0739 64.6243 45.1439 65.0439 45.1439V45.616C64.4669 45.546 63.3828 45.546 62.666 45.546C61.8267 45.546 60.935 45.546 60.2881 45.6684V45.1963C60.7601 45.1963 61.0574 45.004 61.2497 44.8466C61.547 44.5494 61.547 43.85 61.547 42.2939V39.7936C61.547 38.727 61.547 38.2549 61.3546 38.0276C61.2322 37.8353 60.8825 37.7304 60.358 37.7304V37.0834H60.2706V37.0485ZM20.7902 45.6509C18.2899 45.6509 16.8212 44.8816 16.2792 43.2206C15.9819 42.3813 15.9819 41.3322 15.9819 40.493V35.7546C15.9819 34.3384 15.912 34.0936 15.6322 33.8663C15.5098 33.7439 15.2126 33.639 14.793 33.569V33.0969C15.37 33.1669 16.4016 33.2193 16.9786 33.2193C17.9752 33.2193 18.5871 33.2193 19.2341 33.0969V33.639C18.8144 33.639 18.5347 33.7614 18.2724 33.9887C17.9752 34.2859 17.9752 34.8279 17.9752 36.3666V40.5629C17.9752 43.0632 18.2025 44.6718 21 44.6718C23.85 44.6718 24.0249 43.0108 24.0249 40.4755V35.8595C24.0249 34.4433 23.9549 34.1985 23.6752 33.9712C23.4828 33.8488 23.2031 33.7439 22.8359 33.6739V33.2019C23.3779 33.2019 24.0773 33.2718 24.7942 33.2718C25.4411 33.2718 26.1055 33.2718 26.8749 33.1494V33.6914C26.4552 33.6914 26.1755 33.8138 25.9132 34.0411C25.616 34.3384 25.616 34.8804 25.616 36.419V39.9859C25.616 41.1049 25.616 42.3638 25.2663 43.3604C24.7068 44.8816 23.273 45.6509 20.7902 45.6509ZM37.6979 45.1089C38.17 45.039 38.4672 44.9865 38.6945 44.7592C38.9917 44.462 38.9917 43.7626 38.9917 42.2065V39.7061C38.9917 38.6396 38.9917 38.0976 38.7994 37.8703C38.677 37.6779 38.4497 37.573 37.8028 37.5206V36.9785C38.1525 37.0485 39.1141 36.9086 39.8135 36.7862C40.1632 36.7163 40.5129 36.5939 40.7752 36.489L40.9675 36.6813C40.8976 37.2583 40.8976 38.5172 40.8976 40.1782V42.731C40.8976 43.92 40.9675 44.462 41.0899 44.6893C41.2822 44.9166 41.6319 45.1089 42.1565 45.1089V45.5285C41.6844 45.4586 40.7752 45.4586 40.0059 45.4586C39.1141 45.4586 38.17 45.5285 37.6979 45.581V45.1089ZM39.8835 34.9678C39.1841 34.9678 38.7644 34.5482 38.7644 33.9012C38.7644 33.2543 39.2365 32.7822 39.9534 32.7822C40.6528 32.7822 41.0724 33.2019 41.0724 33.8488C41.0549 34.5482 40.5828 34.9678 39.8835 34.9678ZM75.185 45.1089C75.6571 45.039 75.9543 44.9865 76.1816 44.7592C76.4789 44.462 76.4789 43.7626 76.4789 42.2065V39.7061C76.4789 38.6396 76.4789 38.0976 76.2865 37.8703C76.1641 37.6779 75.9368 37.573 75.2899 37.5206V36.9785C75.6396 37.0485 76.6013 36.9086 77.3006 36.7862C77.6503 36.7163 78.07 36.5939 78.2623 36.489L78.4546 36.6813C78.3847 37.2583 78.3847 38.5172 78.3847 40.1782V42.731C78.3847 43.92 78.4546 44.462 78.577 44.6893C78.7694 44.9166 79.119 45.1089 79.6436 45.1089V45.5285C79.1016 45.4586 78.2273 45.4586 77.458 45.4586C76.5663 45.4586 75.6221 45.5285 75.15 45.581V45.1089H75.185ZM77.3706 34.9678C76.6712 34.9678 76.2516 34.5482 76.2516 33.9012C76.2516 33.2543 76.7236 32.7822 77.4405 32.7822C78.1399 32.7822 78.5595 33.2019 78.5595 33.8488C78.5595 34.5482 78.07 34.9678 77.3706 34.9678ZM67.9988 45.2313C67.9988 44.3396 67.9289 43.3954 67.8764 42.9233H68.4534C68.4534 43.3954 68.5758 43.815 68.8031 44.0423C69.1528 44.462 69.5724 44.6193 70.3417 44.6193H70.4641C71.4258 44.6193 71.9503 44.1997 71.9503 43.3779C71.9503 42.731 71.5307 42.4163 70.8313 41.9966L69.5899 41.2273C68.943 40.8077 68.1736 40.2307 68.1736 38.9718C68.1736 37.9752 68.5933 37.2058 69.4151 36.7862C69.9571 36.489 70.7963 36.489 71.181 36.489C71.8804 36.489 72.912 36.6114 73.489 36.7163C73.419 36.9436 73.419 37.5555 73.419 37.7828C73.419 37.9752 73.419 38.7795 73.489 38.9718H72.912C72.912 38.6221 72.7896 38.2724 72.5623 37.9752C72.335 37.6779 71.793 37.5031 71.146 37.5031C70.2543 37.5031 69.7647 37.8528 69.7647 38.6221C69.7647 39.1991 70.2368 39.5138 70.6565 39.8111H70.7264L71.9154 40.5104C72.6847 40.9825 73.6813 41.577 73.6813 42.9408C73.6813 45.2488 71.5307 45.5985 70.3068 45.5985C69.6074 45.581 68.8381 45.5285 67.9988 45.2313ZM86.62 44.6543C86.3227 44.9516 85.6583 45.6509 84.2421 45.6509C82.8608 45.6509 82.0914 45.1789 81.8117 44.0423C81.6893 43.6227 81.6893 42.731 81.6893 42.2764C81.6893 40.8601 81.6893 39.7236 81.6893 38.4298V37.8528H80.5003V37.5031C80.9724 37.3108 81.2697 37.1534 81.6193 36.9261C82.2663 36.3841 82.7384 35.7371 83.2804 34.7755H83.7V36.7338H86.6549V37.8003H83.7V42.4163C83.7 43.7976 83.9273 44.6019 85.2387 44.6019C85.8157 44.6019 86.2353 44.4095 86.4801 44.2522L86.62 44.6543ZM46.5101 36.6988C46.3178 36.6988 45.9332 36.6988 45.6709 36.7687C45.1988 36.7687 44.7092 36.8387 44.3595 36.8387C43.7126 36.8387 42.7509 36.7687 42.4712 36.7687V37.3108C42.5936 37.3108 43.0482 37.2408 43.3629 37.8528C43.4853 38.0801 43.5552 38.2724 43.5902 38.3948C43.6602 38.5172 43.7126 38.6221 43.7126 38.692L46.5626 45.8083L47.4543 45.616L50.6016 38.6221C50.6016 38.5522 50.6715 38.4997 50.724 38.3948C50.7939 38.3249 50.7939 38.2025 51.0212 37.8528C51.2135 37.5031 51.5982 37.3108 51.9129 37.3108V36.7687C51.5632 36.7687 50.7939 36.8387 50.1819 36.8387C49.8847 36.8387 49.6049 36.8387 49.2902 36.7687C49.0629 36.7687 48.7132 36.6988 48.4509 36.6988V37.1709C48.7482 37.1709 49.0279 37.2933 49.1503 37.3982C49.2203 37.4681 49.3427 37.6255 49.3427 37.7479C49.3427 37.9402 49.2727 38.0976 49.1154 38.6396L47.3844 42.8359C47.3144 42.6086 47.192 42.2589 47.0347 41.7693L45.8457 38.6221C45.6534 38.15 45.6184 37.9752 45.6184 37.7304C45.6184 37.608 45.6184 37.5031 45.7408 37.4331C45.9332 37.2408 46.2129 37.1359 46.5101 37.1359V36.6638V36.6988ZM27.1371 37.0485C27.6092 37.1184 28.2562 37.0485 28.9031 36.9261C29.4451 36.8037 29.6724 36.7338 30.0921 36.5764L30.2844 36.6988V37.3982C30.704 37.0485 31.6657 36.5589 32.8371 36.5589C34.4457 36.5589 35.4424 37.3282 35.7571 38.6396C35.827 38.9893 35.8795 39.7586 35.8795 40.2482V42.8009C35.8795 44.2172 35.9494 44.6368 36.2292 44.9515C36.3516 45.0739 36.7013 45.1789 37.0684 45.1789V45.5985C36.4914 45.5985 35.4598 45.5285 34.8828 45.5285C34.0436 45.5285 33.1519 45.5985 32.6973 45.6509V45.2313C33.1169 45.1614 33.3967 45.039 33.589 44.9341C33.8163 44.7068 33.8862 44.1647 33.9387 43.0982C33.9387 42.7485 33.9387 42.1015 33.9387 41.5595C33.9387 40.9126 33.9387 40.1782 33.8687 39.5488C33.7463 38.4298 33.1693 37.8877 32.0328 37.8877C31.2635 37.8877 30.7215 38.0801 30.3718 38.2374V42.8884C30.3718 44.3046 30.4417 44.7242 30.7215 45.039C30.8439 45.1614 31.1936 45.2663 31.5608 45.2663V45.6859C30.7914 45.4936 29.8997 45.4936 29.3052 45.4936C28.1163 45.4936 27.7666 45.4936 27.1197 45.616V45.1963C27.4694 45.1963 27.889 45.0739 28.0813 44.8466C28.3086 44.5494 28.3786 43.7801 28.3786 42.2939V39.7936C28.3786 38.727 28.3786 38.2549 28.1862 38.0276C28.0638 37.8353 27.7666 37.6779 27.1896 37.7304V37.066H27.1371V37.0485ZM55.9519 45.6509C53.2942 45.6509 51.843 44.1123 51.843 41.3147C51.843 40.8427 51.9654 36.5065 55.9868 36.5065C57.1758 36.5065 58.2424 36.9785 58.7144 37.8178C59.2565 38.6571 59.2914 39.4789 59.2914 40.1957V40.7377H53.7838C53.7838 41.2098 53.8537 41.577 53.9062 41.8568C54.2034 43.5877 55.1476 44.4095 56.8261 44.4095C57.7878 44.4095 58.3647 44.2172 58.9068 43.8675L59.1341 44.2871C58.5746 45.0739 57.3856 45.6509 55.9519 45.6509ZM53.8187 39.7236H57.2457C57.2457 38.6571 57.0534 37.4681 55.5147 37.4681C54.1684 37.5381 53.8887 38.8144 53.8187 39.7236Z" fill="white"/>
</g>
<defs>
<clipPath id="clip0_1568_1464">
<rect width="114" height="47.908" fill="white" transform="translate(0 0.750366)"/>
</clipPath>
</defs>
</svg>
