<svg width="48" height="30" viewBox="0 0 48 30" fill="none" xmlns="http://www.w3.org/2000/svg">
<path d="M15.6853 2.11826L15.1532 1.05913L14.6212 0C7.83231 1.56667 0.00226477 7.23069 0.00226477 17.4952C13.4263 21.3965 13.7047 23.4564 10.9656 9.92222C12.1035 6.00686 13.0545 4.17778 15.6853 2.11826Z" fill="#EAADFF"/>
<path d="M20.9692 17.7153C20.9692 23.5058 16.2751 28.1999 10.4846 28.1999C4.69412 28.1999 0 23.5058 0 17.7153C0 11.9248 4.69412 7.23069 10.4846 7.23069C16.2751 7.23069 20.9692 11.9248 20.9692 17.7153Z" fill="#EAADFF"/>
<path d="M41.7966 2.11826L41.2646 1.05913L40.7325 0C33.9436 1.56667 26.1136 7.23069 26.1136 17.4952C39.5377 21.3965 39.8161 23.4564 37.077 9.92222C38.2148 6.00686 39.1659 4.17778 41.7966 2.11826Z" fill="#EAADFF"/>
<path d="M47.0806 17.7153C47.0806 23.5058 42.3864 28.1999 36.5959 28.1999C30.8055 28.1999 26.1113 23.5058 26.1113 17.7153C26.1113 11.9248 30.8055 7.23069 36.5959 7.23069C42.3864 7.23069 47.0806 11.9248 47.0806 17.7153Z" fill="#EAADFF"/>
</svg>
