<svg width="48" height="30" viewBox="0 0 48 30" fill="none" xmlns="http://www.w3.org/2000/svg">
<path d="M32.3147 27.371L32.8468 28.4301L33.3788 29.4893C40.1677 27.9226 47.9977 22.2586 47.9977 11.9941C34.5737 8.09279 34.2953 6.03288 37.0344 19.567C35.8965 23.4824 34.9455 25.3115 32.3147 27.371Z" fill="#EAADFF"/>
<path d="M27.0308 11.774C27.0308 5.98346 31.7249 1.28934 37.5154 1.28934C43.3059 1.28934 48 5.98346 48 11.774C48 17.5644 43.3059 22.2586 37.5154 22.2586C31.7249 22.2586 27.0308 17.5644 27.0308 11.774Z" fill="#EAADFF"/>
<path d="M6.2034 27.371L6.73543 28.4301L7.26747 29.4893C14.0564 27.9226 21.8864 22.2586 21.8864 11.9941C8.46232 8.09279 8.18394 6.03288 10.923 19.567C9.78515 23.4824 8.83414 25.3115 6.2034 27.371Z" fill="#EAADFF"/>
<path d="M0.919441 11.774C0.919441 5.98346 5.61356 1.28934 11.4041 1.28934C17.1945 1.28934 21.8887 5.98346 21.8887 11.774C21.8887 17.5644 17.1945 22.2586 11.4041 22.2586C5.61356 22.2586 0.919441 17.5644 0.919441 11.774Z" fill="#EAADFF"/>
</svg>
