<svg width="226" height="124" viewBox="0 0 226 124" fill="none" xmlns="http://www.w3.org/2000/svg">
<path d="M5.96832 105.671V100.523H11.1523V98.525H5.96832V94.943H11.7463V92.909H3.80832V105.671H5.96832ZM14.5082 100.325C14.5802 99.389 15.3362 98.381 16.6502 98.381C18.0902 98.381 18.7742 99.299 18.8102 100.325H14.5082ZM19.0442 102.611C18.7562 103.475 18.1082 104.141 16.8482 104.141C15.5522 104.141 14.5082 103.187 14.4542 101.855H20.8622C20.8802 101.819 20.9162 101.531 20.9162 101.189C20.9162 98.417 19.3322 96.635 16.6322 96.635C14.4182 96.635 12.3662 98.471 12.3662 101.243C12.3662 104.213 14.4722 105.941 16.8482 105.941C18.9542 105.941 20.3402 104.699 20.8082 103.169L19.0442 102.611ZM24.9815 105.671V96.905H22.9115V105.671H24.9815ZM22.5875 93.827C22.5875 94.583 23.1995 95.177 23.9375 95.177C24.6935 95.177 25.3055 94.583 25.3055 93.827C25.3055 93.071 24.6935 92.459 23.9375 92.459C23.1995 92.459 22.5875 93.071 22.5875 93.827ZM32.2112 101.333V99.479H27.1352V101.333H32.2112ZM36.7125 105.671V100.523H41.8965V98.525H36.7125V94.943H42.4905V92.909H34.5525V105.671H36.7125ZM45.2523 100.325C45.3243 99.389 46.0803 98.381 47.3943 98.381C48.8343 98.381 49.5183 99.299 49.5543 100.325H45.2523ZM49.7883 102.611C49.5003 103.475 48.8523 104.141 47.5923 104.141C46.2963 104.141 45.2523 103.187 45.1983 101.855H51.6063C51.6243 101.819 51.6603 101.531 51.6603 101.189C51.6603 98.417 50.0763 96.635 47.3763 96.635C45.1623 96.635 43.1103 98.471 43.1103 101.243C43.1103 104.213 45.2163 105.941 47.5923 105.941C49.6983 105.941 51.0843 104.699 51.5523 103.169L49.7883 102.611ZM55.7257 105.671V96.905H53.6557V105.671H55.7257ZM53.3317 93.827C53.3317 94.583 53.9437 95.177 54.6817 95.177C55.4377 95.177 56.0497 94.583 56.0497 93.827C56.0497 93.071 55.4377 92.459 54.6817 92.459C53.9437 92.459 53.3317 93.071 53.3317 93.827ZM71.0742 105.671V103.619H65.2242V92.909H63.0642V105.671H71.0742ZM74.9386 105.671V96.905H72.8686V105.671H74.9386ZM72.5446 93.827C72.5446 94.583 73.1566 95.177 73.8946 95.177C74.6506 95.177 75.2626 94.583 75.2626 93.827C75.2626 93.071 74.6506 92.459 73.8946 92.459C73.1566 92.459 72.5446 93.071 72.5446 93.827Z" fill="#006CB6"/>
<path fill-rule="evenodd" clip-rule="evenodd" d="M32.2287 39.7453C32.4539 39.5803 32.6841 39.4197 32.9144 39.2592C33.4219 38.9054 33.9295 38.5515 34.3825 38.1501C35.7608 36.9293 37.093 35.6666 38.4158 34.3988L38.5058 34.3127C39.1789 33.6692 39.8634 33.0147 40.1864 32.0161C39.9203 32.2344 39.6544 32.4514 39.3893 32.6677C36.7067 34.8568 34.0999 36.9839 32.2287 39.7453ZM10.3276 50.3103C9.95712 51.0576 9.58476 51.8015 9.21327 52.5436C8.29444 54.3791 7.38087 56.2042 6.51331 58.0458C6.09758 58.9281 5.7898 59.8507 5.48262 60.7715L5.48261 60.7716C5.40621 61.0006 5.32985 61.2295 5.25187 61.4576C4.61787 63.3123 4.0056 65.1726 3.39989 67.0345L3.36514 67.1409C3.10059 67.9501 2.83527 68.7616 3.15085 69.6228C3.18431 69.7148 2.99804 69.958 2.87386 69.9837C2.69587 70.0207 2.38025 69.9771 2.30437 69.8699C2.17639 69.6882 2.1488 69.429 2.15087 69.2031C2.16161 68.0692 2.52998 67.0007 2.89801 65.9333L2.89812 65.9329C2.97917 65.6978 3.0602 65.4628 3.13739 65.2271C3.2991 64.7332 3.45883 64.2386 3.61857 63.7441C4.14237 62.1223 4.66629 60.5001 5.26049 58.8984C5.64165 57.8711 6.13838 56.8754 6.63418 55.8814C6.75128 55.6467 6.86834 55.412 6.98381 55.1771C7.43946 54.2502 7.91314 53.3301 8.38681 52.41C8.631 51.9357 8.87519 51.4614 9.11691 50.9861C9.19058 50.8409 9.25663 50.6928 9.32781 50.5332C9.3626 50.4552 9.39862 50.3745 9.43736 50.29C9.3672 50.2693 9.30156 50.2471 9.23861 50.2258C9.11092 50.1827 8.99433 50.1433 8.87372 50.1277C6.51848 49.8228 4.54785 48.8756 2.89697 47.3898C2.85464 47.3518 2.81314 47.3128 2.77161 47.2738C2.66323 47.172 2.55475 47.0701 2.4313 46.9856C1.43744 46.3045 0.891335 45.358 0.344758 44.4106C0.26419 44.271 0.183612 44.1313 0.101588 43.9925C-0.0277644 43.7742 -0.0677773 43.5776 0.189547 43.4272C0.467568 43.2649 0.646936 43.4214 0.79457 43.6134C0.854589 43.6921 0.908399 43.7769 0.949447 43.8644C1.81007 45.713 3.47578 46.9765 5.1984 48.1401C6.50813 49.0243 8.11486 49.3937 9.83093 49.4964L10.296 48.6064C10.7253 47.7846 11.1501 46.9715 11.5767 46.159C11.6275 46.062 11.677 45.9643 11.7265 45.8666C11.8654 45.592 12.0045 45.3172 12.1755 45.0586C12.9874 43.8306 13.5481 42.5111 14.1094 41.1904L14.1094 41.1903L14.1095 41.1902L14.1095 41.19L14.1096 41.1899L14.1097 41.1898C14.2626 40.8297 14.4157 40.4696 14.5738 40.1113C14.9328 39.2982 15.3282 38.4976 15.7235 37.697L15.7236 37.6969L15.7237 37.6967C16.0653 37.0048 16.407 36.3129 16.7252 35.6129C17.1132 34.7595 17.4769 33.8976 17.8406 33.0356L17.8407 33.0354C18.1482 32.3066 18.4558 31.5779 18.778 30.8542C19.3443 29.5826 19.924 28.3156 20.5037 27.0485L20.5037 27.0484L20.5037 27.0483L20.5038 27.0482L20.5038 27.0482L20.5039 27.0481C20.8887 26.207 21.2735 25.3659 21.6544 24.5234C21.8186 24.1596 21.9739 23.7927 22.1291 23.4258C22.3055 23.009 22.4818 22.5922 22.6713 22.1801C23.102 21.2439 23.5376 20.3094 23.9732 19.3748C24.5682 18.0984 25.1632 16.8219 25.7457 15.541C26.0473 14.878 26.3233 14.2061 26.5994 13.5342L26.5994 13.5341C26.767 13.1262 26.9346 12.7183 27.1079 12.3123C27.4188 11.5841 27.734 10.8574 28.0492 10.1307C28.2665 9.62964 28.4838 9.12858 28.6998 8.62703C28.745 8.52165 28.7667 8.40841 28.6677 8.23006C28.5691 8.34538 28.4717 8.46151 28.3742 8.57762C28.1609 8.83194 27.9476 9.08622 27.7219 9.33193C27.5293 9.54133 27.3389 9.7526 27.1484 9.9639L27.1483 9.96401C26.5955 10.5773 26.0425 11.191 25.4353 11.76C24.4474 12.686 23.4312 13.6025 22.3184 14.4074C21.516 14.9878 20.6278 15.4792 19.742 15.9694C19.5198 16.0924 19.2976 16.2153 19.077 16.3395C16.9325 17.547 14.518 17.8132 12.0382 17.9007C10.4767 17.9558 8.94237 17.8353 7.41394 17.5985C7.08413 17.5475 6.76132 17.4613 6.43847 17.3752L6.43843 17.3752C6.29196 17.3361 6.14547 17.297 5.99832 17.2612C5.90185 17.2377 5.80431 17.2163 5.70677 17.1948C5.46669 17.1421 5.22656 17.0894 5.00213 17.005C4.83484 16.9424 4.60028 16.7598 4.61304 16.6505C4.62891 16.5121 4.84553 16.3183 5.01145 16.2847C5.23221 16.2396 5.51816 16.2726 5.72305 16.364C6.99691 16.9318 8.37736 17.0514 9.76539 17.1467C12.1775 17.3121 14.5559 17.1486 16.8677 16.5024C17.4306 16.3452 17.9629 16.0809 18.4779 15.8181C19.9397 15.0723 21.3964 14.3244 22.574 13.2216C23.0527 12.7734 23.5519 12.341 24.0509 11.9087C24.8146 11.2471 25.578 10.5858 26.2669 9.86878C27.2701 8.82452 28.1839 7.71348 29.0971 6.6031C29.3651 6.27719 29.6331 5.95133 29.9033 5.62724C30.7701 4.58775 31.2327 3.39081 31.591 2.15419C31.738 1.64611 31.9281 1.14377 32.1523 0.657786C32.4144 0.0891387 32.818 -0.107072 33.2512 0.0546202C33.7104 0.226304 33.8694 0.615395 33.6082 1.15164C33.5245 1.32351 33.4423 1.49652 33.36 1.66969L33.36 1.66989L33.3598 1.67011L33.3597 1.67034C33.0217 2.38202 32.6823 3.09651 32.2271 3.74659C31.5529 4.7096 31.0392 5.73456 30.5256 6.7592C30.2733 7.26262 30.021 7.76597 29.7498 8.26186C29.0391 9.56065 28.5168 10.9186 27.9945 12.2762C27.6455 13.1835 27.2966 14.0905 26.8916 14.9796C26.6443 15.523 26.3777 16.0596 26.1111 16.5962L26.111 16.5963C25.833 17.1561 25.5549 17.7158 25.2987 18.2831C24.792 19.4053 24.301 20.533 23.81 21.6607C23.4949 22.3847 23.1797 23.1087 22.8603 23.8312C22.6563 24.2927 22.4426 24.7509 22.2289 25.2091L22.2288 25.2092C22.0815 25.5251 21.9341 25.8409 21.79 26.1579C21.5739 26.6329 21.3571 27.1076 21.1404 27.5824L21.1392 27.5848L21.1392 27.5849L21.1391 27.5851L21.1391 27.5852L21.139 27.5853L21.139 27.5854C20.4944 28.997 19.8498 30.4087 19.224 31.8268C19.0115 32.3081 18.8207 32.7977 18.6299 33.2872L18.6299 33.2873C18.3178 34.0878 18.006 34.8878 17.6003 35.6499C16.5926 37.5424 15.744 39.4874 14.8952 41.433L14.8952 41.4331C14.6437 42.0096 14.3921 42.5861 14.1365 43.1613C13.9356 43.6132 13.6852 44.0482 13.4348 44.4832L13.4348 44.4832C13.3033 44.7116 13.1718 44.9401 13.0475 45.1709C12.3021 46.5541 11.5615 47.9394 10.8223 49.3253C10.8091 49.3498 10.8118 49.3811 10.8154 49.4217C10.8173 49.4437 10.8195 49.4685 10.8195 49.4964C11.6988 49.5064 12.5428 49.3662 13.3821 49.1742C17.5089 48.2298 21.365 46.7337 24.9251 44.6874C26.5177 43.7723 28.0154 42.7235 29.4986 41.6731C29.8756 41.4063 30.1494 41.0186 30.4179 40.6386C30.4843 40.5445 30.5504 40.451 30.6176 40.3599C32.1778 38.2433 33.9121 36.2485 35.969 34.4841C37.2753 33.3638 38.6171 32.2749 39.9686 31.1967C40.2604 30.9641 40.6426 30.7858 41.0186 30.6768C41.4304 30.5578 41.665 30.7586 41.5988 31.1319C41.5536 31.3872 41.4473 31.6433 41.3162 31.8765C40.675 33.0156 39.9144 34.0799 38.901 35.0068C38.1398 35.7029 37.4021 36.4189 36.6643 37.1349L36.6642 37.135L36.6641 37.1351L36.664 37.1352L36.6639 37.1353L36.6637 37.1354L36.6637 37.1355L36.6636 37.1355L36.6635 37.1356L36.6634 37.1357L36.6633 37.1358C36.2674 37.52 35.8715 37.9042 35.472 38.2854C35.2508 38.4965 35.0173 38.7024 34.7638 38.8825L34.3952 39.1443C33.2264 39.9745 32.0574 40.8049 30.8694 41.6137C30.1702 42.09 29.7831 42.7539 29.4018 43.4078L29.3669 43.4677C28.1358 45.5767 27.5294 47.8059 27.8309 50.1925C28.004 51.5654 29.0351 52.3856 30.6035 52.4201C32.5479 52.4634 34.2226 51.7882 35.7893 50.8986C36.5866 50.446 37.3322 49.9221 38.0772 49.3988L38.0772 49.3987L38.0778 49.3983C38.3124 49.2335 38.5469 49.0687 38.783 48.9062C39.1016 48.687 39.4126 48.4591 39.7235 48.2312L39.7238 48.2311L39.7238 48.231L39.7239 48.231L39.7239 48.2309L39.724 48.2309L39.724 48.2309C40.1462 47.9214 40.5684 47.612 41.0093 47.3247C42.3481 46.452 43.4698 45.3878 44.5914 44.3237L44.5914 44.3237C44.9505 43.9831 45.3095 43.6425 45.6756 43.3082C46.3548 42.688 47.026 42.0513 47.6066 41.3609C47.9933 40.9009 48.3228 40.4039 48.6524 39.9069L48.6526 39.9065C48.8033 39.6793 48.954 39.452 49.1101 39.2283C49.136 39.1912 49.1604 39.1514 49.1849 39.1114C49.2537 38.9992 49.3235 38.8853 49.4306 38.8244C49.5655 38.7478 49.8242 38.7133 49.9445 38.779C50.0584 38.8407 50.1308 39.069 50.0998 39.202C50.0715 39.3217 49.9878 39.4308 49.9038 39.5403L49.9038 39.5403C49.8637 39.5926 49.8235 39.6449 49.7893 39.6985C49.5057 40.1415 49.2105 40.5799 48.9153 41.0184C48.2519 42.0035 47.5886 42.9888 47.056 44.0258C45.7477 46.5744 44.5597 49.1751 43.7805 51.8993C43.7589 51.9746 43.7422 52.0508 43.7226 52.1396L43.7226 52.1398L43.7221 52.1417C43.7159 52.17 43.7094 52.1995 43.7024 52.2307L43.6887 52.2902C43.7405 52.3023 43.7906 52.3124 43.8389 52.3222L43.839 52.3222C43.9481 52.3443 44.0484 52.3645 44.1399 52.4017C44.2299 52.438 44.3251 52.5116 44.3634 52.5891C44.4776 52.8216 43.9978 53.4403 43.6439 53.5371C43.3138 53.6277 43.0451 53.4984 42.9409 53.1144C42.863 52.8262 42.8129 52.4977 42.8905 52.2173C43.1603 51.2444 43.4324 50.2664 43.8126 49.3241C44.249 48.2407 44.727 47.1704 45.205 46.1L45.205 46.0999L45.2051 46.0998L45.2051 46.0997L45.2052 46.0995L45.2052 46.0994C45.4132 45.6337 45.6211 45.1681 45.8256 44.7013C45.862 44.6183 45.8944 44.534 45.9388 44.4186L45.9388 44.4185C45.9644 44.352 45.994 44.2752 46.0305 44.1823C45.9604 44.2194 45.9041 44.2461 45.8583 44.2678L45.8582 44.2678C45.7832 44.3033 45.7364 44.3256 45.7032 44.3582C44.0654 45.973 42.2679 47.4328 40.3014 48.7379C39.6922 49.1422 39.097 49.5631 38.5019 49.9839L38.5017 49.984L38.5015 49.9842L38.5013 49.9843L38.5011 49.9844L38.5009 49.9846L38.5008 49.9847L38.5006 49.9848L38.5005 49.9849L38.5003 49.985L38.5002 49.9851C37.8654 50.434 37.2307 50.8828 36.5789 51.3116C35.2746 52.1697 33.7762 52.7166 32.2026 53.0285C31.0043 53.2655 29.7677 53.2898 28.6408 52.6687C27.6687 52.1331 27.1455 51.3573 27.0268 50.3775C26.7629 48.1934 27.093 46.0845 28.1403 44.0754C28.23 43.9038 28.3031 43.7257 28.2976 43.4505C28.1423 43.5423 27.983 43.6302 27.8237 43.718C27.471 43.9126 27.1183 44.1071 26.8092 44.3449C25.6491 45.2373 24.3353 45.9204 22.9886 46.5496C20.5316 47.6972 18.0294 48.7636 15.3317 49.4222C15.0553 49.4897 14.7806 49.5635 14.5059 49.6372L14.5057 49.6373C13.9713 49.7808 13.4372 49.9242 12.8923 50.0214C12.3233 50.123 11.743 50.1762 11.1429 50.2312L11.1428 50.2312L11.1427 50.2312L11.1426 50.2312L11.1425 50.2312L11.1425 50.2312C10.875 50.2557 10.6037 50.2806 10.3276 50.3103ZM97.0496 13.0204C97.1533 13.0015 97.2242 12.9906 97.2747 12.9828C97.3478 12.9716 97.378 12.967 97.4025 12.9541C97.5663 12.8678 97.7278 12.7778 97.885 12.6831C100.852 10.8951 103.469 8.77854 105.555 6.19843C106.211 5.38724 106.716 4.47281 107.2 3.56836C107.474 3.05573 107.717 2.4892 107.563 1.77612C107.423 1.84904 107.286 1.91212 107.156 1.9724L107.156 1.97248C106.889 2.09541 106.648 2.2067 106.459 2.36597C106.178 2.60414 105.893 2.83996 105.607 3.07591C104.66 3.85928 103.711 4.64416 102.893 5.52168C101.413 7.10954 99.9626 8.73039 98.8064 10.5314C98.4556 11.0776 98.071 11.6072 97.6581 12.1757L97.658 12.1758L97.6578 12.1762L97.6559 12.1788C97.46 12.4485 97.2577 12.7271 97.0496 13.0204ZM93.035 46.6007L93.0354 46.6005C93.4348 46.4286 93.8097 46.2673 94.1597 46.0719C95.0555 45.5714 95.9452 45.0628 96.8349 44.5542L96.8354 44.5539L96.8359 44.5536L96.8364 44.5534L96.8369 44.5531L96.8374 44.5528C97.9305 43.9279 99.0236 43.303 100.128 42.6933C101.136 42.1362 101.969 41.4319 102.724 40.6373C102.88 40.4728 103.049 40.3179 103.219 40.1631L103.219 40.163L103.219 40.1629L103.219 40.1628L103.219 40.1627L103.219 40.1626C103.352 40.0417 103.484 39.9209 103.61 39.7952C104.259 39.1491 104.877 38.4957 105.208 37.6533C105.476 36.9687 105.293 36.5075 104.392 36.466C103.394 36.4203 102.379 36.4376 101.389 36.5472C100.823 36.6096 100.27 36.827 99.7341 37.0378C99.6776 37.06 99.6214 37.0821 99.5653 37.104C99.2948 37.2095 99.0455 37.3562 98.7959 37.5031C98.6606 37.5827 98.5252 37.6624 98.3863 37.7356C98.2367 37.8145 98.0822 37.8872 97.9277 37.96L97.9275 37.9601C97.6484 38.0915 97.3696 38.2227 97.1214 38.3894C94.5367 40.1226 93.0218 42.4332 92.4588 45.2243C92.391 45.5607 92.4079 45.9101 92.4262 46.2879L92.4263 46.2881C92.4351 46.4714 92.4443 46.6614 92.4443 46.8597C92.6468 46.7677 92.8437 46.683 93.035 46.6007ZM94.7275 15.4975C94.0667 15.8106 93.4199 16.123 92.7808 16.4317C91.3591 17.1184 89.9757 17.7866 88.5624 18.4022C86.0623 19.4911 83.4473 20.3183 80.6602 20.652C79.6026 20.7786 78.5357 20.8706 77.4923 20.6145C76.2819 20.3168 75.4326 19.6861 75.1581 18.5421C74.9684 17.7533 74.9642 16.9812 75.1712 16.1982C75.2381 15.9454 75.3609 15.7921 75.6655 15.8563C75.9669 15.9199 76.0132 16.1207 75.9521 16.3626C75.7848 17.026 75.7931 17.6861 75.9556 18.3538C76.1608 19.1965 76.7717 19.6715 77.6751 19.9059C78.6082 20.1484 79.5527 20.0467 80.4891 19.946L80.5181 19.9429C82.3983 19.7403 84.191 19.2395 85.9416 18.6248C89.0681 17.5269 91.9852 16.0813 94.8134 14.4883C95.2646 14.2343 95.5919 13.916 95.8606 13.5124C96.1363 13.0987 96.4082 12.6825 96.6801 12.2663L96.6802 12.2662L96.6803 12.266L96.6804 12.2658L96.6806 12.2655L96.6809 12.265C97.4948 11.0191 98.309 9.77263 99.2282 8.58927C100.408 7.07076 101.745 5.63884 103.102 4.23599C103.833 3.48155 104.681 2.81132 105.525 2.1451L105.525 2.14496L105.526 2.1444C105.635 2.05816 105.744 1.97198 105.853 1.8857C106.229 1.58715 106.69 1.33825 107.161 1.1705C107.949 0.890115 108.493 1.20623 108.442 1.94929C108.401 2.55851 108.242 3.18136 108.004 3.75667C107.258 5.56193 105.97 7.08196 104.517 8.48723C103.548 9.42468 102.54 10.3443 101.448 11.1679C100.272 12.0545 99.0282 12.8911 97.7178 13.6157C96.5857 14.2412 95.7658 14.981 95.299 16.1019C95.0123 16.7907 94.5789 17.436 94.1487 18.0766L94.1483 18.0772L94.1479 18.0778L94.1475 18.0784L94.1471 18.0791C94.0634 18.2036 93.9799 18.328 93.8976 18.4525C92.421 20.6874 91.1851 23.0261 89.9492 25.3649L89.9488 25.3656L89.9485 25.3662L89.9482 25.3668L89.9479 25.3674C89.704 25.8289 89.4601 26.2905 89.2143 26.7512C88.6735 27.7651 88.1407 28.7824 87.608 29.7998L87.6076 29.8006L87.6071 29.8014L87.6067 29.8022L87.6063 29.803L87.6058 29.8038C86.7276 31.481 85.8493 33.1582 84.9347 34.8201C82.8699 38.572 80.7757 42.3121 78.6254 46.0268C77.8917 47.2943 77.0867 48.53 76.2816 49.7657L76.2815 49.7658L76.2812 49.7663L76.2809 49.7667L76.2806 49.7672L76.2803 49.7677L76.28 49.7681C75.9081 50.3391 75.5361 50.91 75.1712 51.484C75.1483 51.52 75.1308 51.5585 75.1041 51.6175L75.1039 51.6177L75.1039 51.6178C75.0879 51.653 75.0686 51.6956 75.0429 51.7493C80.9772 51.2978 86.4214 49.7 91.5768 47.2243C91.5768 47.1966 91.577 47.1688 91.5773 47.1411L91.5786 47.0455C91.5806 46.9174 91.5825 46.7897 91.5754 46.6623C91.4268 43.9517 92.6765 41.682 94.4957 39.603C95.4215 38.5444 96.5657 37.7048 97.9547 37.131C98.1592 37.0464 98.3483 36.9335 98.5378 36.8204L98.5378 36.8204C98.6637 36.7452 98.7897 36.67 98.9206 36.6029C98.985 36.5698 99.0493 36.536 99.1138 36.502C99.3763 36.3637 99.6407 36.2244 99.9243 36.1354C101.578 35.617 103.276 35.5038 104.989 35.849C105.941 36.0406 106.325 36.602 106.073 37.4544C105.912 38.0018 105.709 38.5877 105.332 39.0301C103.976 40.6219 102.507 42.1153 100.62 43.2786C98.1148 44.822 95.5622 46.2854 92.8396 47.5156C92.7952 47.5358 92.7572 47.5672 92.7065 47.6092C92.6933 47.6202 92.6792 47.6318 92.6639 47.6442C92.6464 47.6583 92.6273 47.6734 92.6061 47.6894C93.1439 49.3333 94.1342 50.5863 96.1266 51.1322C97.7747 51.584 99.3766 51.541 101.033 51.1779C103.302 50.6801 105.405 49.8689 107.424 48.8509C110.39 47.3554 113.11 45.5677 115.779 43.6971C117.219 42.6876 118.757 41.7528 120.474 41.1L120.502 41.0895L120.523 41.0813L120.544 41.0731L120.603 41.0492L120.604 41.0491C120.941 40.9138 121.305 40.7677 121.615 41.0479C121.93 41.3329 121.943 41.7198 121.785 42.1129C121.051 43.9393 120.235 45.734 119.363 47.515C119.228 47.7898 119.088 48.0636 118.949 48.3377C118.388 49.4359 117.825 50.5401 117.568 51.7414C117.383 52.6065 117.206 53.4625 117.345 54.35C117.368 54.4981 117.241 54.7506 117.101 54.8139C116.829 54.9371 116.648 54.7476 116.565 54.5193C116.549 54.4759 116.531 54.432 116.513 54.3878L116.513 54.3877C116.455 54.2472 116.396 54.104 116.407 53.967C116.534 52.3373 116.897 50.7558 117.638 49.2443C117.864 48.7825 118.093 48.322 118.323 47.8615L118.323 47.8609L118.324 47.8597L118.324 47.8594C119.24 46.0238 120.156 44.1878 120.838 42.27C120.872 42.1739 120.896 42.0748 120.927 41.9425L120.927 41.9422C120.945 41.8683 120.965 41.784 120.991 41.6841C119.858 42.1413 118.899 42.6188 118.006 43.2002C117.264 43.6838 116.527 44.1739 115.79 44.6639L115.789 44.6643L115.788 44.6647L115.788 44.6651L115.787 44.6654L115.787 44.6658C114.199 45.721 112.612 46.7762 110.974 47.7666C107.77 49.7036 104.381 51.342 100.506 52.0366C98.2438 52.4421 96.1017 52.1699 94.1425 51.0859C93.1118 50.5154 92.5592 49.5913 92.1032 48.6299C92.0399 48.4965 91.9885 48.3588 91.9319 48.207L91.9317 48.2065L91.9315 48.2062L91.9315 48.206L91.9314 48.2057C91.9044 48.1336 91.8763 48.0582 91.8452 47.9786C91.5269 48.1068 91.2097 48.2316 90.8942 48.3557C90.2104 48.6246 89.5344 48.8905 88.8728 49.1816C84.698 51.0187 80.2407 51.957 75.6313 52.4167L75.5882 52.4209C74.3343 52.5458 74.3295 52.5463 73.7159 53.5942C73.4465 54.0543 73.1803 54.5159 72.9141 54.9774L72.9141 54.9775C71.6913 57.0976 70.4694 59.2162 68.9502 61.1813L68.9655 61.1946C69.4838 61.643 69.4995 61.6565 69.1924 62.1654C68.8201 62.782 68.4405 63.3952 68.0608 64.0085L68.0607 64.0087L68.0605 64.009L68.0604 64.0093L68.0602 64.0096L68.06 64.0098C67.7241 64.5525 67.3881 65.0952 67.0572 65.6403C66.8951 65.9074 66.6995 66.0766 66.3487 65.9425C66.0189 65.8165 65.9396 65.5673 66.0472 65.283C66.1026 65.1373 66.1561 64.9908 66.2096 64.8443C66.3724 64.3984 66.5354 63.9521 66.7519 63.5271C67.5211 62.0183 68.4366 60.5791 69.4166 59.1641C70.1 58.1773 70.7056 57.1485 71.3109 56.1201L71.3115 56.1191C71.5071 55.7868 71.7027 55.4547 71.9008 55.1239C72.2414 54.5555 72.5672 53.9802 72.9023 53.3886L72.9029 53.3876L72.904 53.3856L72.9044 53.3848L72.9045 53.3846L72.9048 53.3841C73.0556 53.1179 73.2083 52.8482 73.3651 52.5744C73.3069 52.5562 73.2505 52.5354 73.1952 52.5149C73.079 52.4719 72.967 52.4305 72.8511 52.4188C70.5825 52.1923 68.785 51.1655 67.3393 49.7139C66.5252 48.8966 65.8404 47.9778 65.1579 47.0619C64.9883 46.8342 64.8188 46.6067 64.6474 46.3811C64.2204 45.8179 64.317 45.6077 65.0169 45.3364C65.4629 45.1638 65.9303 45.02 66.4039 44.9246C66.5095 44.9032 66.6391 44.9732 66.7686 45.0431C66.8277 45.075 66.8868 45.107 66.9437 45.1302C66.9108 45.176 66.8815 45.2284 66.8523 45.2807C66.7878 45.3962 66.7233 45.5117 66.6191 45.5571C66.3475 45.6757 66.0573 45.7614 65.7357 45.8563C65.6014 45.896 65.4617 45.9372 65.3156 45.9832C65.4493 46.1581 65.5826 46.327 65.7136 46.4929L65.7137 46.4931C65.9962 46.8511 66.2677 47.195 66.508 47.5547C67.28 48.7104 68.3234 49.6446 69.5035 50.4724C70.6732 51.2936 72.0484 51.6327 73.5082 51.7787C73.9153 51.8195 74.1081 51.6124 74.2802 51.3575C74.5067 51.0216 74.7382 50.6879 74.9697 50.3543C75.5042 49.5839 76.0387 48.8135 76.512 48.0152C78.325 44.9561 80.1321 41.893 81.8506 38.7924C82.9471 36.814 84.0012 34.8175 85.0553 32.821L85.0557 32.8202C85.7665 31.4738 86.4774 30.1274 87.2013 28.7866C88.8594 25.7144 90.5382 22.6507 92.2436 19.5989C92.6118 18.9401 93.0272 18.3019 93.4427 17.6636C93.6769 17.3037 93.9111 16.9439 94.1369 16.5803C94.2742 16.3591 94.3943 16.1296 94.5251 15.8796L94.5253 15.8792C94.5891 15.7573 94.6554 15.6305 94.7275 15.4975ZM143.548 42.9875C144.615 42.7223 146.011 42.4449 147.267 42.8249C147.174 42.9245 147.089 43.0178 147.008 43.1062L147.008 43.1063C146.845 43.2848 146.7 43.4438 146.546 43.5964C144.416 45.7096 142.225 47.7692 139.609 49.4376C139.261 49.6596 138.875 49.8452 138.483 50.0002C138.205 50.1098 137.987 49.9829 137.992 49.7029C137.997 49.4679 138.032 49.2242 138.113 49.0007C138.955 46.6722 140.54 44.804 142.745 43.3327C142.978 43.1768 143.265 43.0581 143.548 42.9875ZM159.973 29.6622C159.906 29.6783 159.826 29.6975 159.727 29.7224C159.808 29.6128 159.88 29.5156 159.945 29.427L159.945 29.4267L159.947 29.4249L159.947 29.424C160.072 29.2545 160.174 29.116 160.281 28.9803C163.682 24.6373 167.359 20.4808 171.306 16.5109C172.022 15.7918 172.818 15.1289 173.628 14.49C174.721 13.628 175.833 12.7802 176.992 11.9887C178.258 11.1239 179.73 10.6152 181.292 10.3097C181.424 10.2836 181.561 10.2727 181.697 10.2639C182.315 10.224 182.58 10.439 182.636 10.9937C182.726 11.8772 182.478 12.713 182.231 13.5486L182.231 13.5489L182.23 13.5492L182.23 13.5494C182.183 13.7092 182.136 13.8691 182.091 14.0292C181.324 16.7583 179.58 18.9796 177.431 21.0029C175.226 23.0794 172.619 24.6658 169.757 25.9523C166.671 27.3394 163.518 28.5921 160.241 29.5931C160.165 29.6162 160.087 29.6348 159.973 29.6622ZM150.693 42.6189C150.164 42.4753 149.63 42.3308 149.092 42.1845C149.115 42.1486 149.137 42.1133 149.157 42.0789C149.2 42.0077 149.24 41.9408 149.292 41.8826C149.513 41.6377 149.738 41.3951 149.962 41.1526L149.964 41.1512L149.964 41.1505C150.376 40.7063 150.787 40.2622 151.176 39.8036C153.602 36.9437 156.014 34.0747 158.426 31.2049C158.662 30.9233 158.946 30.7582 159.33 30.6432C163.101 29.5113 166.749 28.126 170.291 26.5182C173.323 25.142 176.063 23.4324 178.344 21.1914C179.051 20.4974 179.736 19.7789 180.349 19.0201C181.623 17.4432 182.486 15.6966 183.017 13.8166C183.293 12.8352 183.527 11.859 183.457 10.8413C183.398 9.9823 182.703 9.43242 181.741 9.5378C180.319 9.69343 178.988 10.1028 177.74 10.7178C175.135 12.0019 173.011 13.8202 171.035 15.7212C168.022 18.6177 165.222 21.6832 162.611 24.8728C162.115 25.4787 161.621 26.0859 161.128 26.6931L161.128 26.6935C160.307 27.7034 159.486 28.7132 158.655 29.7163C158.456 29.9552 158.183 30.2029 157.882 30.3083C157.123 30.5729 156.34 30.8021 155.545 30.9669C154.023 31.2827 152.492 31.5703 150.962 31.8579L150.352 31.9725L149.876 32.0624C149.619 32.1108 149.351 32.1671 149.38 32.4357C149.411 32.7325 149.687 32.8012 149.993 32.7621C150.136 32.7438 150.28 32.728 150.424 32.7121C150.767 32.6743 151.11 32.6365 151.445 32.565C152.634 32.3109 153.821 32.0472 155.008 31.7835C155.645 31.6421 156.281 31.5007 156.918 31.3608C156.968 31.3496 157.023 31.3515 157.109 31.3544C157.16 31.3562 157.223 31.3584 157.304 31.3584C157.047 31.6544 156.799 31.9412 156.555 32.222L156.553 32.2242L156.549 32.2286L156.546 32.2324C156.034 32.8226 155.545 33.3864 155.06 33.9527C154.368 34.7608 153.678 35.57 152.987 36.3793L152.985 36.382L152.98 36.3875L152.98 36.3878L152.98 36.3881L152.98 36.3884L152.979 36.3886C151.631 37.9703 150.282 39.5519 148.919 41.1247C148.85 41.2049 148.786 41.2788 148.728 41.3468C148.342 41.796 148.175 41.99 147.967 42.0554C147.81 42.1051 147.629 42.0805 147.31 42.0372C147.13 42.0127 146.906 41.9823 146.618 41.9559C145.501 41.8535 144.444 42.0228 143.394 42.2714C142.958 42.3752 142.525 42.5802 142.162 42.8225C140.028 44.248 138.46 46.0606 137.524 48.2688C137.32 48.7515 137.19 49.2868 137.185 49.7995C137.177 50.5577 137.903 50.9598 138.719 50.6991C139.125 50.5692 139.546 50.4099 139.878 50.174C140.119 50.0021 140.361 49.8311 140.604 49.66C141.659 48.9165 142.715 48.1717 143.674 47.3414C144.848 46.3241 145.942 45.235 147.036 44.1468C147.295 43.8885 147.555 43.6302 147.815 43.373C148.176 43.0169 148.515 42.8343 149.076 42.9866C149.998 43.2371 150.923 43.4785 151.848 43.7198C152.985 44.0164 154.122 44.313 155.253 44.6265C155.487 44.6915 155.721 44.7571 155.955 44.8227C157.667 45.3026 159.374 45.7811 161.168 46.0182C164.275 46.4291 167.387 46.734 170.534 46.6586C171.253 46.6412 171.972 46.6143 172.691 46.5874H172.691H172.692H172.692H172.692C173.362 46.5623 174.032 46.5373 174.702 46.5199C176.358 46.4766 177.957 46.1641 179.479 45.6294C180.737 45.187 181.972 44.6925 183.207 44.198C183.733 43.987 184.26 43.7761 184.789 43.5692C184.904 43.5239 185.019 43.4761 185.151 43.4208C185.227 43.3893 185.308 43.3552 185.399 43.3178C185.385 43.3791 185.374 43.4271 185.366 43.4663L185.365 43.4695L185.365 43.4708C185.35 43.537 185.341 43.5781 185.327 43.6179C184.788 45.0843 184.455 46.5468 184.704 48.1247C185.062 50.3932 186.959 52.118 189.402 52.5398L189.449 52.5479L189.565 52.5673L189.609 52.5747C189.915 52.6257 190.223 52.6769 190.517 52.7614C191.922 53.1644 193.334 53.0339 194.708 52.7196C195.733 52.485 196.739 52.185 197.744 51.8851L197.744 51.885C198.159 51.7614 198.573 51.6378 198.989 51.5187C202.375 50.5492 205.201 48.7681 207.888 46.787C208.108 46.625 208.349 46.4381 208.137 46.1917C207.898 45.9134 207.611 46.0578 207.358 46.2398C206.958 46.5278 206.552 46.8094 206.145 47.0907L206.075 47.1392C204.599 48.1624 203.117 49.1899 201.385 49.8609C199.214 50.7021 197.018 51.5018 194.7 51.9902C193.309 52.2833 191.912 52.4374 190.507 52.0183C190.222 51.9333 189.92 51.8865 189.62 51.84L189.619 51.8397C189.569 51.832 189.519 51.8243 189.469 51.8164C187.928 51.5714 186.837 50.7342 186.106 49.6072C185.359 48.4548 185.277 47.15 185.519 45.8401C185.82 44.2214 186.564 42.7861 187.78 41.5353C188.015 41.2936 188.221 41.0293 188.426 40.7653L188.426 40.7651C188.498 40.6722 188.57 40.5794 188.643 40.4876C188.772 40.3271 188.892 40.1543 188.681 39.975C188.461 39.7894 188.216 39.8236 188.023 39.9859C187.957 40.0413 187.888 40.0962 187.819 40.1514C187.56 40.3586 187.296 40.5699 187.151 40.8289C186.704 41.6264 185.956 42.1288 185.138 42.5627C183.182 43.6006 181.055 44.3166 178.932 45.031L178.735 45.0974C176.773 45.7581 174.692 45.8871 172.62 45.9301C169.373 45.997 166.125 45.9724 162.905 45.5086C162.58 45.4618 162.255 45.4175 161.93 45.3733L161.93 45.3732C160.29 45.1498 158.652 44.9268 157.086 44.3855C156.381 44.1416 155.651 43.9518 154.921 43.762C154.63 43.6864 154.339 43.6107 154.05 43.5316C152.947 43.2301 151.844 42.9309 150.724 42.6273L150.711 42.6237L150.694 42.6192L150.693 42.6189ZM69.5041 38.7748C68.953 38.7471 68.413 38.736 67.8824 38.7252C66.4704 38.6965 65.1251 38.6691 63.8151 38.3303C63.3759 38.2167 62.9509 38.0607 62.5257 37.9047L62.5255 37.9046C62.3002 37.8219 62.0748 37.7391 61.8472 37.6627C61.6374 37.5922 61.4256 37.5264 61.2139 37.4606L61.2136 37.4606C61.0161 37.3992 60.8186 37.3378 60.6226 37.2727C60.3915 37.1955 60.118 37.1031 60.1822 36.8342C60.2532 36.5366 60.5381 36.4915 60.8279 36.5768C60.9306 36.6072 61.0345 36.6362 61.1385 36.6653C61.5035 36.7672 61.8707 36.8697 62.1963 37.0335C63.515 37.6954 64.9603 37.9082 66.4335 37.9546C67.7539 37.996 69.0767 37.9841 70.3992 37.9721C70.7664 37.9688 71.1336 37.9655 71.5006 37.9633C71.8227 37.9616 72.1445 37.9416 72.4664 37.9215L72.4666 37.9215C72.6607 37.9094 72.8549 37.8972 73.0491 37.8892C73.3233 37.8777 73.553 37.9582 73.5672 38.2316C73.5813 38.506 73.3688 38.5913 73.0867 38.6041C72.2034 38.6441 71.3203 38.6869 70.4968 38.7269L70.4958 38.7269L70.4949 38.727C70.1529 38.7436 69.8213 38.7597 69.5041 38.7748ZM52.785 24.3092C52.7746 24.2595 52.765 24.214 52.7546 24.175C52.7605 24.1509 52.7654 24.1296 52.7696 24.1107C52.7735 24.0935 52.7768 24.0782 52.7798 24.0645C52.7905 24.015 52.7969 23.9853 52.8091 23.9576C52.9212 23.6996 52.8094 23.5004 52.5211 23.4889C52.361 23.4822 52.0968 23.6333 52.0464 23.7632C51.9564 23.9951 51.9195 24.2822 51.9902 24.5156C52.1575 25.0685 52.3676 25.6163 52.6228 26.1431C52.8991 26.7136 53.2265 27.2677 53.5786 27.8055C53.649 27.9133 53.955 27.9859 54.1109 27.9472C54.3451 27.8887 54.3982 27.6883 54.2644 27.4788C54.1716 27.3331 54.0909 27.1808 54.016 27.027L53.8456 26.6776L53.8456 26.6776L53.8455 26.6775C53.5283 26.0274 53.211 25.3772 52.9071 24.7224C52.8427 24.5838 52.8112 24.4335 52.785 24.3092ZM122.185 30.2068C122.231 30.0436 122.276 29.8911 122.318 29.7457C122.409 29.4329 122.491 29.1531 122.561 28.8709C122.639 28.5551 122.922 28.4579 123.212 28.4197C123.361 28.3997 123.609 28.4833 123.678 28.5881C123.745 28.6904 123.698 28.9666 123.602 29.0153C123.229 29.2031 123.182 29.4999 123.134 29.8018C123.127 29.8455 123.12 29.8892 123.112 29.9328C123.099 30.0049 123.087 30.0775 123.076 30.1499L123.066 30.2135C123.025 30.4651 122.925 30.7361 122.588 30.6531C122.461 30.6218 122.37 30.4809 122.287 30.3529C122.252 30.2988 122.219 30.247 122.185 30.2068ZM195.549 29.1906C195.568 29.1547 195.586 29.1206 195.605 29.0945C195.57 29.0037 195.538 28.9132 195.506 28.8235C195.307 28.2694 195.12 27.748 194.579 27.3852C194.349 27.2311 194.107 27.0918 193.862 27.2986C193.61 27.5121 193.752 27.751 193.965 27.9139C194.348 28.2067 194.576 28.5673 194.704 28.9903C194.738 29.1018 194.787 29.2477 194.883 29.2977C195.025 29.3713 195.229 29.4218 195.379 29.3879C195.453 29.3713 195.503 29.2762 195.549 29.1906Z" fill="black"/>
</svg>
