<svg width="341" height="121" viewBox="0 0 341 121" fill="none" xmlns="http://www.w3.org/2000/svg">
<path d="M27.4762 99.148C27.4762 101.632 29.0602 103.27 31.5622 103.27C33.9922 103.27 35.5762 101.38 35.5762 99.112V90.238H33.4162V99.166C33.4162 100.462 32.6962 101.236 31.5442 101.236C30.4282 101.236 29.5822 100.57 29.5822 99.076V97.888L27.4762 98.32V99.148ZM42.0741 101.398C40.7961 101.398 39.6261 100.426 39.6261 98.608C39.6261 96.79 40.7961 95.854 42.0741 95.854C43.3701 95.854 44.5221 96.79 44.5221 98.608C44.5221 100.444 43.3701 101.398 42.0741 101.398ZM42.0741 93.964C39.4641 93.964 37.5381 95.926 37.5381 98.608C37.5381 101.308 39.4641 103.27 42.0741 103.27C44.7021 103.27 46.6281 101.308 46.6281 98.608C46.6281 95.926 44.7021 93.964 42.0741 93.964ZM50.7339 97.852C50.7699 96.736 51.3999 95.872 52.5519 95.872C53.8659 95.872 54.3519 96.736 54.3519 97.816V103H56.4399V97.456C56.4399 95.53 55.3959 93.982 53.2359 93.982C52.3179 93.982 51.3279 94.306 50.7339 95.08V89.968H48.6459V103H50.7339V97.852ZM61.0698 97.942C61.0698 96.79 61.6998 95.872 62.8878 95.872C64.2018 95.872 64.6878 96.736 64.6878 97.816V103H66.7758V97.456C66.7758 95.53 65.7498 93.982 63.6078 93.982C62.6358 93.982 61.5918 94.396 61.0158 95.404V94.234H58.9818V103H61.0698V97.942ZM81.8466 103V100.984H76.1226V97.6H81.3066V95.638H76.1226V92.254H81.8466V90.238H73.9626V103H81.8466ZM86.9052 91.552H85.0152V92.866C85.0152 93.64 84.6012 94.234 83.6652 94.234H83.2152V96.088H84.8352V100.498C84.8352 102.136 85.8432 103.108 87.4632 103.108C88.2192 103.108 88.6152 102.964 88.7412 102.91V101.182C88.6512 101.2 88.3092 101.254 88.0212 101.254C87.2472 101.254 86.9052 100.93 86.9052 100.156V96.088H88.7232V94.234H86.9052V91.552ZM94.5967 95.89C95.9287 95.89 96.5227 96.754 96.7207 97.528L98.5927 96.844C98.2327 95.44 96.9367 93.964 94.5787 93.964C92.0587 93.964 90.0967 95.908 90.0967 98.608C90.0967 101.272 92.0587 103.27 94.6327 103.27C96.9367 103.27 98.2507 101.776 98.6647 100.408L96.8287 99.742C96.6307 100.408 96.0007 101.362 94.6327 101.362C93.3187 101.362 92.1847 100.372 92.1847 98.608C92.1847 96.844 93.3187 95.89 94.5967 95.89ZM102.607 97.852C102.643 96.736 103.273 95.872 104.425 95.872C105.739 95.872 106.225 96.736 106.225 97.816V103H108.313V97.456C108.313 95.53 107.269 93.982 105.109 93.982C104.191 93.982 103.201 94.306 102.607 95.08V89.968H100.519V103H102.607V97.852ZM112.313 97.654C112.385 96.718 113.141 95.71 114.455 95.71C115.895 95.71 116.579 96.628 116.615 97.654H112.313ZM116.849 99.94C116.561 100.804 115.913 101.47 114.653 101.47C113.357 101.47 112.313 100.516 112.259 99.184H118.667C118.685 99.148 118.721 98.86 118.721 98.518C118.721 95.746 117.137 93.964 114.437 93.964C112.223 93.964 110.171 95.8 110.171 98.572C110.171 101.542 112.277 103.27 114.653 103.27C116.759 103.27 118.145 102.028 118.613 100.498L116.849 99.94ZM122.786 103V97.798C122.786 96.682 123.488 95.854 124.604 95.854C125.792 95.854 126.296 96.646 126.296 97.654V103H128.348V97.798C128.348 96.718 129.068 95.854 130.166 95.854C131.336 95.854 131.858 96.628 131.858 97.654V103H133.874V97.312C133.874 94.99 132.362 93.982 130.778 93.982C129.644 93.982 128.618 94.378 127.934 95.53C127.466 94.504 126.458 93.982 125.306 93.982C124.316 93.982 123.218 94.45 122.714 95.35V94.234H120.716V103H122.786ZM137.889 97.654C137.961 96.718 138.717 95.71 140.031 95.71C141.471 95.71 142.155 96.628 142.191 97.654H137.889ZM142.425 99.94C142.137 100.804 141.489 101.47 140.229 101.47C138.933 101.47 137.889 100.516 137.835 99.184H144.243C144.261 99.148 144.297 98.86 144.297 98.518C144.297 95.746 142.713 93.964 140.013 93.964C137.799 93.964 135.747 95.8 135.747 98.572C135.747 101.542 137.853 103.27 140.229 103.27C142.335 103.27 143.721 102.028 144.189 100.498L142.425 99.94ZM148.38 97.942C148.38 96.79 149.01 95.872 150.198 95.872C151.512 95.872 151.998 96.736 151.998 97.816V103H154.086V97.456C154.086 95.53 153.06 93.982 150.918 93.982C149.946 93.982 148.902 94.396 148.326 95.404V94.234H146.292V103H148.38V97.942ZM158.032 98.59C158.032 96.916 159.04 95.854 160.408 95.854C161.776 95.854 162.712 96.898 162.712 98.572C162.712 100.246 161.758 101.38 160.39 101.38C158.968 101.38 158.032 100.264 158.032 98.59ZM164.728 89.968H162.694V95.26C162.424 94.702 161.65 94 160.12 94C157.654 94 155.944 96.07 155.944 98.59C155.944 101.236 157.636 103.216 160.156 103.216C161.398 103.216 162.316 102.604 162.73 101.866C162.73 102.226 162.784 102.802 162.82 103H164.818C164.8 102.856 164.728 102.19 164.728 101.398V89.968ZM170.12 106.546L175.7 94.234H173.486L171.128 99.778L168.608 94.234H166.25L169.994 101.956L167.888 106.546H170.12Z" fill="#006CB6"/>
<path fill-rule="evenodd" clip-rule="evenodd" d="M109.625 46.3C109.24 46.3317 108.857 46.3633 108.497 46.4489C108.289 46.3961 108.051 46.4098 107.819 46.4231C107.372 46.4487 106.947 46.473 106.795 46.0215C106.549 45.2914 107.263 45.0838 107.857 44.9111L107.857 44.911C107.927 44.8907 107.996 44.8708 108.06 44.8507C108.139 44.8262 108.218 44.8014 108.297 44.7766C109.462 44.4095 110.658 44.0329 111.849 44.7557C112.019 44.8581 112.163 45.2736 112.072 45.3841C111.434 46.1511 110.525 46.2259 109.625 46.3ZM118.144 46.7247C116.661 48.6308 115.172 50.5433 112.917 52.3358C112.741 50.9652 112.955 49.9377 113.15 48.9957C113.228 48.6255 113.302 48.2685 113.348 47.909C113.461 47.0468 117.057 45.6467 117.926 46.0489C118.205 46.1787 118.378 46.4258 118.202 46.6506L118.144 46.7247ZM219.363 4.98537C219.4 5.07436 219.456 5.21054 219.545 5.42837C219.571 5.18259 219.597 4.99501 219.618 4.84417V4.84404C219.652 4.59515 219.673 4.44636 219.654 4.3013C219.607 3.94847 219.609 3.56351 219.61 3.17468V3.17441C219.613 1.99252 219.617 0.775007 218.28 0.316106C216.731 -0.215043 215.458 0.978834 214.376 1.99363L214.376 1.99447C214.268 2.09504 214.163 2.19385 214.059 2.28904C210.394 5.6569 207.325 9.4143 204.809 13.5189C198.619 23.6151 190.686 32.5426 181.226 40.424C180.907 40.6899 180.59 40.9725 180.27 41.2579C178.916 42.4642 177.507 43.72 175.66 43.9714C171.752 44.5027 167.905 45.2528 164.14 46.204C159.416 47.3993 154.574 47.9141 149.734 48.4286C146.273 48.7966 142.813 49.1645 139.398 49.7811C138.837 49.882 138.223 49.9696 137.895 49.4317C137.652 49.0323 137.937 48.6832 138.195 48.367C138.226 48.3289 138.257 48.2913 138.286 48.2541C138.486 48.0017 138.722 47.7717 138.958 47.5418C139.051 47.4507 139.145 47.3597 139.236 47.2673C141.44 45.0263 143.966 43.0842 146.492 41.1425L146.493 41.1423C148.414 39.6651 150.336 38.1881 152.115 36.5798C153.685 35.1596 155.207 33.6968 156.728 32.2339L156.728 32.2335L156.729 32.2328L156.729 32.2325C157.431 31.5574 158.134 30.8823 158.841 30.2113C157.738 30.774 156.852 31.5382 155.97 32.2998C155.022 33.1181 154.078 33.9334 152.87 34.4926C152.951 33.9888 153.151 33.5925 153.444 33.2594C157.992 28.0633 162.091 22.5956 166.111 17.0827C167.456 15.2376 168.761 13.3694 170.065 11.5011C171.004 10.1569 171.942 8.81265 172.896 7.47698C173.558 6.55173 174.33 5.81271 174.987 7.71664C175.037 7.5812 175.091 7.44491 175.144 7.30901C175.524 6.34452 175.896 5.39951 174.819 4.91566C173.938 4.51983 173.359 5.33532 172.884 6.00425C172.808 6.1115 172.735 6.21498 172.663 6.3091C170.902 8.62112 169.149 10.9398 167.507 13.3164C160.525 23.4237 153.087 33.2267 143.661 41.7588C138.936 46.0343 133.066 48.7391 127.189 51.4472C126.592 51.7226 125.994 51.9979 125.398 52.2749C124.969 52.4745 124.455 52.6801 124.033 52.2823C123.569 51.8438 123.718 51.3066 124.081 50.9238C125.021 49.9288 126.013 48.9679 127.041 48.0419C127.433 47.6887 127.927 47.5233 128.552 47.8831C129.57 48.47 130.814 48.0686 130.973 47.2992C131.173 46.3331 130.918 44.5754 129.817 44.4982C129.158 44.4519 128.552 44.2523 127.952 44.0543C127.13 43.7833 126.317 43.5154 125.389 43.6479C124.676 43.7488 123.663 43.8697 123.298 43.1478C123.021 42.5997 123.457 42.1298 123.864 41.6916L123.864 41.6915C123.97 41.578 124.073 41.4667 124.161 41.3567C128.837 35.5373 132.821 29.3551 136.665 23.0972C137.559 21.6424 138.417 20.1705 139.274 18.6986C141.136 15.5012 142.999 12.3036 145.237 9.28C146.806 7.16015 148.808 5.40462 151.161 3.41759C148.927 3.47158 147.946 4.59768 147.031 5.64908L147.031 5.64952L147.03 5.64999C146.914 5.78313 146.799 5.91507 146.683 6.04347C143.867 9.1546 141.774 12.6709 139.764 16.2071C134.762 25.0085 129.164 33.482 122.857 41.629C121.003 44.0242 118.52 44.4767 115.967 44.9418C115.356 45.0531 114.741 45.1652 114.13 45.3047C113.669 45.4105 113.385 45.0998 113.111 44.7988L113.111 44.7985L113.111 44.7985C113.062 44.7448 113.013 44.6913 112.963 44.6407C111.111 42.7427 107.673 42.7597 105.826 44.6637C105.202 45.3062 104.732 46.043 105.22 46.8592C105.695 47.6553 106.468 48.2126 107.614 48.0768C107.833 48.0509 108.053 48.0267 108.273 48.0025L108.273 48.0024C109.03 47.9191 109.788 47.8357 110.527 47.6828C112.564 47.2599 112.891 47.481 112.496 49.3211C112.092 51.2094 111.347 53.011 110.516 54.788C110.491 54.8424 110.461 54.8995 110.431 54.9584L110.43 54.9588L110.43 54.959C110.227 55.3512 109.982 55.8238 110.587 56.1043C111.145 56.3638 111.441 55.9951 111.719 55.6492L111.719 55.649C111.777 55.5775 111.834 55.507 111.892 55.4432C112.616 54.6474 113.342 53.8534 114.068 53.0593L114.069 53.0588L114.069 53.0585C115.985 50.9638 117.901 48.869 119.772 46.7434C120.871 45.4939 122.213 44.9375 123.971 45.0718C124.003 45.0742 124.035 45.0765 124.068 45.0787C124.105 45.0811 124.142 45.0835 124.179 45.0859C124.751 45.1223 125.345 45.1602 125.652 45.6609C126.051 46.3086 125.627 46.854 125.149 47.3289C124.981 47.4956 124.809 47.6601 124.636 47.8246L124.636 47.8247C123.9 48.5277 123.162 49.2325 122.751 50.1284C122.165 51.4046 121.624 52.873 122.804 53.9763C123.959 55.0583 125.25 54.3817 126.376 53.792L126.376 53.7919C126.53 53.7112 126.681 53.632 126.828 53.5593C128.586 52.6908 130.296 51.7457 132.005 50.8006L132.007 50.7997L132.007 50.7994C132.74 50.3941 133.473 49.9888 134.21 49.5897C134.235 49.5758 134.261 49.5616 134.288 49.5471L134.331 49.5232C134.915 49.2014 135.609 48.8187 135.654 49.905C135.739 51.9559 137.218 51.7867 138.76 51.5285C139.516 51.4021 140.268 51.2508 141.019 51.0996C142.051 50.8921 143.081 50.6846 144.124 50.5417C145.736 50.3205 147.354 50.1309 148.971 49.9413C152.927 49.4774 156.883 49.0137 160.763 48.0894C163.093 47.5348 165.466 47.1178 167.839 46.7005L167.839 46.7005C169.127 46.4741 170.415 46.2477 171.697 45.9992C172.726 45.7996 173.441 45.9147 173.876 46.8896C174.809 48.9842 174.978 49.0644 177.078 47.8876C179.969 46.2671 183.063 45.5348 186.489 45.6958C187.95 45.7655 188.042 46.2649 187.402 47.1998C187.231 47.4497 187.06 47.7004 186.89 47.951C186.304 48.8143 185.718 49.6779 185.088 50.5157C181.5 55.2952 177.832 60.0287 174.165 64.7622C168.134 72.547 162.102 80.3318 156.421 88.3212C155.005 90.3117 153.6 92.3071 152.194 94.3026L152.19 94.3081C151.427 95.3925 150.663 96.4768 149.898 97.5604C151.532 96.204 152.996 94.7393 154.181 93.1166C154.996 92.0004 155.809 90.8826 156.621 89.7648L156.625 89.7591L156.629 89.7534C159.75 85.4606 162.87 81.1683 166.153 76.9674C171.288 70.3975 176.395 63.8103 181.503 57.2229L181.504 57.2218C182.376 56.0969 183.248 54.972 184.12 53.8472C186.258 51.0907 188.383 48.3261 190.484 45.5481C190.913 44.9827 191.334 44.2986 190.85 43.6427C190.47 43.1298 189.942 43.2739 189.427 43.4142C189.253 43.4619 189.08 43.509 188.915 43.5299C187.726 43.6815 186.523 43.747 185.315 43.8129C183.04 43.9369 180.743 44.0621 178.472 44.7653C178.745 44.2411 179.162 43.9222 179.569 43.6108C179.681 43.525 179.792 43.4399 179.899 43.3511C182.982 40.7965 186.48 38.7407 189.978 36.6849L189.979 36.6846C191.625 35.7168 193.272 34.7489 194.875 33.7291C201.206 29.7031 207.521 25.663 212.185 20.0046C214.619 17.05 216.245 14.528 216.537 12.6122C210.425 23.8511 199.749 30.2143 188.411 36.3935C188.336 35.3153 188.88 34.839 189.368 34.4116C189.461 34.3307 189.551 34.2516 189.635 34.1706C194.998 28.9833 199.564 23.3057 203.479 17.2051C206.555 12.4141 209.771 7.69512 213.995 3.58751C214.082 3.50288 214.17 3.41611 214.259 3.32831C215.26 2.33998 216.392 1.22172 217.964 1.56857C219.172 1.83436 219.178 2.7499 219.184 3.66419C219.186 4.05927 219.189 4.45411 219.288 4.7962C219.298 4.82973 219.312 4.86277 219.363 4.98537ZM84.7292 28.5652C84.1831 29.1072 83.6189 29.6672 82.4865 29.7272C82.6902 28.7085 83.3106 28.1312 84.0096 27.6155L84.0261 27.6033C84.3325 27.3769 84.7307 27.0826 85.1059 27.4471C85.4576 27.7899 85.1423 28.1594 84.8727 28.4235C84.8247 28.4704 84.7771 28.5177 84.7292 28.5652ZM71.4531 44.4794C71.6889 41.366 79.035 33.0016 81.8362 32.6558C78.9713 36.6052 75.6836 40.0484 72.231 43.6643L72.2277 43.6678C71.9704 43.9373 71.7122 44.2077 71.4531 44.4794ZM116.596 6.29052C116.703 6.27219 116.8 6.25559 116.882 6.2419C117.364 6.2189 117.748 6.22261 117.91 6.55279C118.196 7.13451 117.734 7.49437 117.286 7.78968C115.263 9.12599 113.233 10.4549 111.186 11.7615C106.566 14.7097 101.943 17.6535 97.3192 20.5971C94.6016 22.3274 91.8841 24.0576 89.1673 25.7887C89.0476 25.865 88.9285 25.9482 88.8101 26.0308C88.0496 26.5616 87.3241 27.0679 86.7169 25.5706C86.5022 25.0399 85.9901 25.2368 85.5323 25.4128C85.435 25.4501 85.3402 25.4866 85.2513 25.5149C83.8963 25.9453 83.1195 26.9469 82.4256 27.9286C78.9731 32.8142 74.0392 36.3819 69.1054 39.9496C68.1856 40.6148 67.2658 41.2799 66.3556 41.9535C63.8744 43.7899 61.3885 45.6213 58.9026 47.4527L58.9014 47.4536L58.9002 47.4545C53.8438 51.1796 48.7876 54.9045 43.772 58.6712C42.3486 59.7389 41.4594 59.7819 40.1003 58.5866C35.1952 54.269 30.7331 49.688 28.0368 43.9858C26.8221 41.4149 25.9574 38.7408 25.4528 35.9843C24.7504 32.1468 26.4511 29.2708 29.9563 27.0434C37.4115 22.3081 45.7313 19.194 54.5398 17.089C62.9417 15.0817 71.4986 13.7127 80.0554 12.3438C83.4677 11.7979 86.8799 11.252 90.2822 10.6656C96.1925 9.64705 102.113 8.67528 108.033 7.70351L108.034 7.70333L108.035 7.7033C110.679 7.26925 113.323 6.8352 115.967 6.39698C116.187 6.36055 116.407 6.32291 116.596 6.29061L116.596 6.29052ZM53.1281 59.8268L53.1282 59.8268C54.8057 58.8577 56.5439 57.8535 58.7282 57.0113C58.566 57.3705 58.4201 57.6774 58.2901 57.9507L58.2898 57.9513L58.2897 57.9514L58.2897 57.9515C58.0297 58.4981 57.8337 58.9102 57.6996 59.3375L57.6913 59.3641C57.5313 59.8764 57.3427 60.4807 57.9176 60.8964C58.3644 61.2195 58.8562 61.0438 59.3214 60.8776C59.386 60.8546 59.4501 60.8317 59.5135 60.8103L59.6072 60.7789C59.9698 60.6573 60.3392 60.5334 60.6614 60.3518C63.116 58.9694 65.7642 58.3877 68.6921 58.6022C69.8371 58.6858 71.0015 58.6022 72.1595 58.5192C72.4095 58.5012 72.6592 58.4833 72.9083 58.4671C73.9944 58.3974 74.9445 57.9885 75.6858 57.2785C76.0365 56.9431 76.2098 56.4905 75.865 56.0957C75.5377 55.7204 75.1758 55.9464 74.858 56.145L74.8253 56.1654C74.8063 56.1773 74.7874 56.189 74.7687 56.2004C73.7298 56.8311 72.5541 56.9045 71.3403 56.9312C70.8742 56.9416 70.4071 56.947 69.94 56.9524C67.0347 56.9861 64.1261 57.0198 61.4246 58.249C61.0536 58.4182 60.6047 58.6163 60.2894 58.2275C60.0789 57.9676 60.2789 57.7009 60.4643 57.4538L60.4871 57.4233L60.5126 57.389C60.7367 57.0847 60.9589 56.779 61.1812 56.4732L61.1817 56.4726L61.1817 56.4725C62.5122 54.6421 63.8441 52.8098 65.601 51.258C70.7203 46.7346 75.0869 41.672 79.4573 36.6048L79.8588 36.1394C80.5922 35.2893 81.2359 34.3734 81.8795 33.4577C83.1668 31.6261 84.4533 29.7957 86.4543 28.4962C88.411 27.2261 90.3643 25.9518 92.3177 24.6774L92.3192 24.6764C99.6246 19.9104 106.931 15.1439 114.418 10.5959C116.24 9.48901 117.982 8.27987 119.722 7.07155L119.724 7.07045L119.725 7.07011C120.192 6.74558 120.66 6.42111 121.128 6.0987C121.67 5.72623 122.388 5.23132 121.974 4.56799C121.674 4.08683 121.224 4.26367 120.786 4.43599C120.612 4.50443 120.44 4.57215 120.28 4.59767C119.851 4.66614 119.429 4.76931 119.007 4.87254C118.615 4.96844 118.223 5.06439 117.824 5.13264C114.642 5.67762 111.461 6.22575 108.28 6.77389L108.277 6.77449L108.276 6.77466C99.5173 8.28378 90.7588 9.79292 81.9863 11.2362C80.3467 11.5058 78.7054 11.7692 77.064 12.0327C67.6998 13.536 58.3331 15.0396 49.2749 17.6766C42.1765 19.743 35.4169 22.5477 29.4089 26.5322C26.1884 28.6669 24.4337 31.4901 24.9138 35.2008C25.4683 39.4872 26.9103 43.5154 29.0919 47.3685C31.6674 51.9184 35.3874 55.6958 39.3989 59.2766C40.4538 60.2189 40.8849 60.975 39.4835 62.0108C30.3294 68.7755 21.3139 75.6811 12.535 82.8197C9.33333 85.4226 6.18678 88.0778 3.04027 90.733L3.04012 90.7331L3.03996 90.7333C2.33054 91.3319 1.62112 91.9306 0.911079 92.5286C0.849245 92.5807 0.779995 92.6352 0.70803 92.6919L0.708013 92.6919C0.234008 93.065 -0.357741 93.5309 0.276292 94.0185C0.728101 94.3665 1.06158 93.9668 1.37411 93.5922C1.4767 93.4692 1.57704 93.3489 1.67857 93.2587C2.39617 92.6215 3.10878 91.9799 3.8214 91.3382L3.82199 91.3376L3.82323 91.3365L3.82358 91.3362C5.22299 90.0761 6.62252 88.8159 8.06025 87.5892C14.2196 82.3345 20.5878 77.2771 27.0853 72.3467C31.347 69.1138 35.619 65.8929 39.9272 62.709C40.0145 62.6446 40.1038 62.5744 40.195 62.5027C40.9158 61.9361 41.7524 61.2785 42.583 62.6801C42.6338 62.7657 42.6813 62.8701 42.7311 62.9794L42.7311 62.9795C42.9498 63.46 43.2118 64.0357 43.9836 63.5274C44.6936 63.06 44.1391 62.3262 43.6548 61.9099C42.4596 60.8845 43.0927 60.2197 44.0673 59.4977C47.6911 56.8149 51.3122 54.1292 54.9334 51.4434L54.9353 51.442C60.2388 47.5084 65.5424 43.5748 70.8543 39.6504C70.9526 39.5778 71.0502 39.5014 71.1491 39.4241L71.1492 39.424C71.7026 38.9913 72.2947 38.5283 73.2506 38.5145C73.1375 39.7673 72.3739 40.6267 71.6337 41.4598L71.6336 41.4599C71.3888 41.7354 71.1465 42.0081 70.9312 42.2911C70.4462 42.9275 69.9691 43.5702 69.492 44.213L69.4918 44.2133L69.4916 44.2136C66.478 48.2735 63.461 52.338 58.4189 54.847C58.2469 54.9326 58.0783 55.0379 57.9095 55.1434L57.9094 55.1434L57.9094 55.1434C57.4783 55.4126 57.0452 55.6832 56.5466 55.632C53.8121 55.3537 52.163 56.7658 50.5092 58.1819C50.2144 58.4343 49.9194 58.6869 49.6181 58.9301C48.8142 59.5779 48.3223 60.4593 49.0543 61.2147C49.716 61.8963 50.4029 61.4486 51.0236 61.044C51.1664 60.9509 51.3058 60.8601 51.4405 60.7858C52.0058 60.4752 52.5633 60.1531 53.1277 59.827L53.1279 59.8269L53.1281 59.8268ZM105.521 53.3304L105.52 53.3304C105.189 53.5629 104.857 53.7953 104.483 53.9491C99.0416 56.1899 93.2863 57.3088 87.3018 57.0513C82.3444 56.8384 80.4341 53.121 83.3486 49.5566C85.4095 47.0353 88.3719 45.4471 91.3196 43.8667L91.3199 43.8665C91.7995 43.6093 92.2788 43.3524 92.7537 43.0917C94.7024 42.0219 96.6642 40.9704 98.6259 39.9189L98.627 39.9183C103.146 37.4964 107.664 35.0745 112.022 32.4294C113.421 31.5805 114.673 30.59 115.734 29.4251C116.948 28.0925 117.084 26.7465 115.678 25.4287C115.46 25.2247 115.241 25.0221 115.021 24.8196C114.513 24.3511 114.005 23.8826 113.522 23.3957C110.403 20.2542 111.099 15.7933 114.971 13.3671C120.826 9.69869 127.217 7.11362 134.228 5.68011C137.707 4.96855 139.848 6.49852 139.414 9.4902C138.906 7.14034 137.567 6.3056 134.542 6.8517C127.506 8.1205 120.918 10.3435 115.258 14.3635C111.687 16.8996 111.409 19.3534 114.315 22.4371C114.405 22.5328 114.504 22.6211 114.604 22.7079C119.647 27.1041 118.532 29.4147 113.33 32.6646C108.918 35.4196 104.305 37.9248 99.6908 40.4303C97.4281 41.659 95.1653 42.8877 92.9262 44.146C92.3793 44.4533 91.8247 44.7526 91.27 45.052L91.2693 45.0524C88.4164 46.592 85.5592 48.1339 83.7315 50.7756C82.2404 52.9296 82.8803 54.5857 85.5682 55.4227C87.5512 56.04 89.5916 55.9547 91.6236 55.7291C96.237 55.2179 100.817 54.5768 105.083 52.8176C105.243 52.7517 105.426 52.7298 105.609 52.7079C105.694 52.6977 105.779 52.6875 105.861 52.6729C105.879 52.7192 105.896 52.7658 105.914 52.8124C105.927 52.8459 105.939 52.8794 105.952 52.9129C105.964 52.9462 105.977 52.9795 105.99 53.0127C105.83 53.1133 105.675 53.2218 105.521 53.3304ZM134.713 15.1837L135.377 13.9161C134.522 13.8404 134.294 14.184 134.114 14.503C133.693 15.2527 133.277 16.0048 132.861 16.7569C130.823 20.4413 128.785 24.1252 126.132 27.5211C125.816 27.9248 125.575 28.4753 126.208 28.8292C126.692 29.0988 127.018 28.7759 127.304 28.4927C127.347 28.4494 127.39 28.4069 127.433 28.3677C129.804 26.1648 131.861 23.7415 133.759 21.2157C133.951 20.9614 134.146 20.7091 134.342 20.4565C135.305 19.2134 136.27 17.9673 136.732 16.4767C136.07 17.1556 135.53 17.9184 134.99 18.6802C134.106 19.9283 133.223 21.1736 131.814 22.0431C131.627 21.9592 131.441 21.8761 131.254 21.7923C132.4 19.6033 133.546 17.4142 134.713 15.1837Z" fill="black"/>
</svg>
